<?xml version="1.0" encoding="utf-8" ?>
<svg baseProfile="full" height="100%" version="1.1" width="100%" xmlns="http://www.w3.org/2000/svg" xmlns:ev="http://www.w3.org/2001/xml-events" xmlns:xlink="http://www.w3.org/1999/xlink"><defs /><path d="M 0.0 71.7777777778 L 1.0 71.0 L 2.0 71.0 L 3.0 71.0 L 4.0 72.0 L 5.0 72.0 L 6.0 71.8823529412 L 7.0 71.8461538462 L 7.22222222222 72.0 L 8.0 73.0 L 9.0 73.0 L 10.0 73.0 L 11.0 73.0 L 12.0 74.0 L 13.0 75.0 L 14.0 74.0 L 15.0 75.0 L 16.0 74.8461538462 L 17.0 74.8461538462 L 18.0 75.0 L 19.0 76.0 L 20.0 76.0 L 21.0 76.0 L 21.0 77.0 L 22.0 78.0 L 23.0 78.0 L 23.0 79.0 L 23.0 80.0 L 23.0 81.0 L 23.0 82.0 L 23.0 83.0 L 23.0 84.0 L 23.0 85.0 L 23.0 86.0 L 23.0 87.0 L 24.0 88.0 L 24.0 89.0 L 25.0 90.0 L 26.0 91.0 L 26.0 92.0 L 27.0 93.0 L 27.0 94.0 L 28.0 95.0 L 28.0 96.0 L 29.0 97.0 L 30.0 98.0 L 31.0 99.0 L 31.0 100.0 L 31.0 101.0 L 32.0 102.0 L 32.0 103.0 L 33.0 104.0 L 34.0 105.0 L 34.0 106.0 L 35.0 107.0 L 35.0 108.0 L 35.0 109.0 L 36.0 110.0 L 36.0 111.0 L 37.0 112.0 L 37.0 113.0 L 38.0 114.0 L 38.0 115.0 L 37.0 115.0 L 36.0 116.0 L 36.0 117.0 L 36.0 118.0 L 35.0 119.0 L 35.0 120.0 L 35.0 121.0 L 35.0 122.0 L 36.0 123.0 L 36.0 124.0 L 36.0 125.0 L 37.0 126.0 L 37.0 127.0 L 38.0 128.0 L 38.0 129.0 L 38.0 130.0 L 38.0 131.0 L 39.0 132.0 L 40.0 133.0 L 41.0 134.0 L 41.7777777778 133.0 L 42.0 132.818181818 L 43.0 132.846153846 L 43.8461538462 132.0 L 44.0 131.0 L 45.0 130.0 L 46.0 129.0 L 46.0 128.0 L 47.0 127.846153846 L 47.2222222222 128.0 L 48.0 129.0 L 48.7777777778 128.0 L 49.0 127.777777778 L 50.0 127.0 L 50.0 126.0 L 49.0 125.0 L 49.0 124.0 L 48.8181818182 123.0 L 49.0 122.818181818 L 50.0 122.0 L 51.0 121.0 L 51.8181818182 120.0 L 52.0 119.0 L 52.0 118.0 L 53.0 118.0 L 54.0 117.882352941 L 55.0 118.0 L 56.0 117.0 L 56.8181818182 116.0 L 57.0 115.0 L 57.8181818182 114.0 L 58.0 113.777777778 L 59.0 113.0 L 59.0 112.0 L 60.0 111.0 L 59.8181818182 110.0 L 60.0 109.0 L 59.0 108.0 L 58.0 107.0 L 57.0 106.0 L 58.0 106.0 L 59.0 105.846153846 L 59.2222222222 106.0 L 60.0 107.0 L 61.0 108.0 L 61.7777777778 107.0 L 62.0 106.777777778 L 63.0 107.0 L 63.7777777778 106.0 L 64.0 105.818181818 L 64.8181818182 105.0 L 64.8461538462 104.0 L 65.0 103.0 L 64.8181818182 102.0 L 64.8823529412 101.0 L 64.8823529412 100.0 L 65.0 99.0 L 64.0 98.0 L 64.0 97.0 L 63.0 96.0 L 62.0 96.0 L 61.0 96.0 L 60.0 95.0 L 59.0 95.0 L 58.0 95.0 L 57.0 94.2222222222 L 56.8823529412 94.0 L 56.8823529412 93.0 L 57.0 92.0 L 57.0 91.0 L 56.7777777778 90.0 L 57.0 89.0 L 57.0 88.0 L 56.8181818182 87.0 L 56.8461538462 86.0 L 57.0 85.0 L 56.0 84.0 L 55.0 83.0 L 54.0 83.0 L 53.0 83.0 L 52.0 83.0 L 51.0 83.0 L 50.0 84.0 L 49.0 85.0 L 49.0 86.0 L 49.0 87.0 L 49.0 88.0 L 49.0 89.0 L 49.0 90.0 L 48.2222222222 91.0 L 48.0 92.0 L 48.0 93.0 L 47.0 93.2222222222 L 46.8461538462 93.0 L 46.8461538462 92.0 L 47.0 91.8181818182 L 47.8181818182 91.0 L 48.0 90.7777777778 L 49.0 90.0 L 48.0 89.0 L 47.0 88.0 L 46.0 87.0 L 45.0 88.0 L 44.0 88.0 L 44.0 87.0 L 43.0 86.0 L 42.0 85.0 L 41.0 84.0 L 41.0 83.0 L 41.0 82.0 L 40.0 81.0 L 39.0 80.0 L 38.0 80.0 L 37.0 80.0 L 36.0 81.0 L 35.0 82.0 L 35.0 81.0 L 34.0 80.0 L 33.0 80.0 L 32.0 79.0 L 31.0 79.0 L 30.0 78.0 L 29.0 78.0 L 28.0 78.0 L 27.0 77.0 L 26.0 76.2222222222 L 25.8181818182 76.0 L 26.0 75.7777777778 L 26.7777777778 75.0 L 27.0 74.8823529412 L 28.0 74.8823529412 L 29.0 74.7777777778 L 30.0 74.0 L 30.0 73.0 L 29.8823529412 72.0 L 29.8823529412 71.0 L 30.0 70.0 L 31.0 69.0 L 32.0 69.0 L 33.0 68.0 L 33.8181818182 67.0 L 34.0 66.7777777778 L 34.1818181818 67.0 L 34.0 67.1538461538 L 33.0 68.0 L 34.0 69.0 L 35.0 68.8461538462 L 35.2222222222 69.0 L 36.0 70.0 L 37.0 71.0 L 38.0 71.0 L 38.0 72.0 L 39.0 73.0 L 40.0 73.0 L 41.0 73.0 L 42.0 72.8823529412 L 43.0 73.0 L 44.0 73.0 L 45.0 72.0 L 46.0 72.0 L 47.0 73.0 L 47.7777777778 72.0 L 48.0 71.8181818182 L 49.0 72.0 L 49.8181818182 71.0 L 50.0 70.8461538462 L 51.0 70.8181818182 L 52.0 70.0 L 53.0 69.0 L 52.8181818182 68.0 L 53.0 67.7777777778 L 54.0 67.0 L 53.0 66.0 L 54.0 65.0 L 54.8181818182 64.0 L 55.0 63.7777777778 L 56.0 63.0 L 55.8823529412 62.0 L 56.0 61.0 L 55.0 60.0 L 56.0 59.0 L 56.0 58.0 L 55.7777777778 57.0 L 56.0 56.7777777778 L 56.1818181818 57.0 L 56.0 58.0 L 56.0 59.0 L 56.0 60.0 L 56.0 61.0 L 56.1818181818 62.0 L 56.0 63.0 L 56.0 64.0 L 56.0 65.0 L 56.0 66.0 L 57.0 67.0 L 58.0 68.0 L 59.0 69.0 L 60.0 70.0 L 60.0 71.0 L 60.0 72.0 L 61.0 73.0 L 62.0 73.0 L 63.0 73.0 L 63.8181818182 72.0 L 64.0 71.0 L 64.0 70.0 L 65.0 69.8461538462 L 65.8461538462 69.0 L 66.0 68.8461538462 L 67.0 69.0 L 68.0 68.0 L 69.0 67.0 L 70.0 66.0 L 69.0 65.0 L 70.0 65.0 L 71.0 64.0 L 72.0 65.0 L 73.0 65.0 L 74.0 66.0 L 75.0 67.0 L 76.0 66.0 L 77.0 65.0 L 77.7777777778 64.0 L 78.0 63.8181818182 L 79.0 64.0 L 80.0 63.0 L 81.0 62.0 L 81.0 61.0 L 82.0 60.8181818182 L 83.0 60.0 L 84.0 59.8181818182 L 85.0 60.0 L 86.0 59.8823529412 L 87.0 59.8823529412 L 88.0 60.0 L 88.7777777778 59.0 L 89.0 58.8181818182 L 89.8181818182 58.0 L 90.0 57.0 L 89.8181818182 56.0 L 90.0 55.0 L 90.0 54.0 L 89.0 53.0 L 89.0 52.0 L 90.0 51.0 L 90.0 50.0 L 90.0 49.0 L 90.0 48.0 L 90.0 47.0 L 91.0 46.0 L 90.7777777778 45.0 L 90.7777777778 44.0 L 91.0 43.0 L 90.0 42.0 L 90.0 41.0 L 89.0 40.1818181818 L 88.8461538462 40.0 L 89.0 39.8461538462 L 90.0 40.0 L 90.0 41.0 L 91.0 42.0 L 92.0 41.0 L 93.0 40.0 L 93.0 39.0 L 93.7777777778 38.0 L 94.0 37.7777777778 L 95.0 37.0 L 95.0 36.0 L 94.0 35.0 L 95.0 34.0 L 96.0 33.0 L 95.0 32.0 L 95.0 31.0 L 96.0 30.0 L 96.0 29.0 L 95.0 28.2222222222 L 94.8461538462 28.0 L 95.0 27.8461538462 L 95.8461538462 27.0 L 96.0 26.7777777778 L 97.0 26.0 L 96.0 25.0 L 97.0 25.0 L 97.0 26.0 L 98.0 27.0 L 98.0 28.0 L 99.0 29.0 L 100.0 29.0 L 101.0 28.8823529412 L 102.0 28.8181818182 L 103.0 29.0 L 104.0 28.8823529412 L 105.0 28.8181818182 L 106.0 29.0 L 107.0 28.0 L 108.0 27.0 L 107.0 26.0 L 107.0 25.0 L 106.0 24.0 L 105.0 23.0 L 105.0 22.0 L 104.0 21.0 L 104.0 20.0 L 104.0 19.0 L 103.0 18.0 L 103.0 17.0 L 103.882352941 16.0 L 103.882352941 15.0 L 104.0 14.8181818182 L 105.0 15.0 L 106.0 16.0 L 107.0 17.0 L 108.0 16.0 L 108.818181818 15.0 L 108.882352941 14.0 L 109.0 13.8181818182 L 110.0 13.0 L 111.0 12.7777777778 L 112.0 12.0 L 113.0 11.8181818182 L 114.0 11.0 L 114.846153846 10.0 L 115.0 9.81818181818 L 115.818181818 9.0 L 116.0 8.77777777778 L 117.0 8.0 L 117.0 7.0 L 118.0 6.0 L 118.0 5.0 L 118.0 4.0 L 118.0 3.0 L 118.0 2.0 L 118.0 1.0 L 118.0 0.0" /><path d="M 0.0 123.0 L 0.960784313725 122.0 L 1.0 121.818181818 L 1.81818181818 121.0 L 2.0 120.818181818 L 2.81818181818 120.0 L 3.0 119.846153846 L 4.0 120.0 L 5.0 119.0 L 5.0 118.0 L 6.0 117.818181818 L 6.81818181818 117.0 L 7.0 116.777777778 L 8.0 116.0 L 7.92 115.0 L 8.0 114.818181818 L 8.81818181818 114.0 L 8.92592592593 113.0 L 8.92592592593 112.0 L 8.92592592593 111.0 L 9.0 110.0 L 9.0 109.0 L 9.0 108.0 L 9.0 107.0 L 9.0 106.0 L 8.81818181818 105.0 L 8.92592592593 104.0 L 8.92592592593 103.0 L 9.0 102.0 L 10.0 101.0 L 9.0 100.0 L 8.0 100.0 L 7.0 101.0 L 6.0 100.0 L 5.0 100.0 L 4.0 100.0 L 3.77777777778 99.0 L 4.0 98.7777777778 L 4.77777777778 98.0 L 5.0 97.8823529412 L 6.0 97.8461538462 L 7.0 97.8181818182 L 8.0 97.0 L 8.0 96.0 L 8.0 95.0 L 7.0 94.0 L 6.0 93.0 L 5.0 92.0 L 4.0 91.0 L 5.0 90.0 L 5.0 89.0 L 6.0 88.8823529412 L 7.0 89.0 L 7.77777777778 88.0 L 8.0 87.0 L 8.0 86.0 L 8.0 85.0 L 7.0 84.0 L 6.84615384615 83.0 L 6.84615384615 82.0 L 7.0 81.7777777778 L 8.0 81.0 L 7.0 80.0 L 6.0 80.0 L 5.0 80.0 L 4.0 81.0 L 4.0 80.0 L 3.0 79.0 L 2.0 79.0 L 1.0 78.0 L 0.0 79.0" /><path d="M 0.0 198.92 L 1.0 198.92 L 2.0 198.846153846 L 3.0 199.0 L 4.0 199.0 L 5.0 198.0 L 5.0 197.0 L 5.0 196.0 L 5.0 195.0 L 5.0 194.0 L 4.0 193.0 L 5.0 193.0 L 6.0 194.0 L 6.77777777778 193.0 L 7.0 192.960784314 L 8.0 192.0 L 9.0 191.960784314 L 10.0 192.0 L 11.0 191.0 L 12.0 190.818181818 L 13.0 190.0 L 13.8823529412 189.0 L 14.0 188.882352941 L 15.0 188.0 L 15.8181818182 187.0 L 16.0 186.818181818 L 17.0 186.0 L 18.0 185.0 L 18.8461538462 184.0 L 19.0 183.777777778 L 20.0 183.0 L 21.0 182.0 L 21.0 181.0 L 20.0 180.0 L 19.92 179.0 L 20.0 178.0 L 19.0 177.222222222 L 18.7777777778 177.0 L 19.0 176.777777778 L 20.0 176.0 L 19.8181818182 175.0 L 20.0 174.0 L 19.0 173.0 L 19.0 172.0 L 18.8181818182 171.0 L 19.0 170.0 L 18.8181818182 169.0 L 18.92 168.0 L 19.0 167.0 L 19.0 166.0 L 18.0 165.0 L 18.0 164.0 L 17.0 163.0 L 17.0 162.0 L 16.0 161.0 L 16.0 160.0 L 15.0 159.0 L 14.9259259259 158.0 L 14.9259259259 157.0 L 14.92 156.0 L 15.0 155.0 L 15.0 154.0 L 15.0 153.0 L 15.0 152.0 L 15.0 151.0 L 14.8461538462 150.0 L 15.0 149.0 L 15.8181818182 148.0 L 16.0 147.0 L 17.0 146.0 L 16.8461538462 145.0 L 17.0 144.777777778 L 18.0 144.0 L 18.0 143.0 L 18.8181818182 142.0 L 19.0 141.777777778 L 19.7777777778 141.0 L 20.0 140.0 L 20.0 139.0 L 19.0 138.0 L 18.0 137.0 L 17.0 136.0 L 16.0 136.0 L 15.0 136.074074074 L 14.92 136.0 L 15.0 135.0 L 15.0 134.0 L 14.0 133.0 L 13.0 132.222222222 L 12.92 132.0 L 13.0 131.777777778 L 14.0 131.0 L 13.0 130.222222222 L 12.8461538462 130.0 L 13.0 129.0 L 13.0 128.0 L 14.0 127.0 L 15.0 126.0 L 15.0 125.0 L 15.0 124.0 L 14.0 123.0 L 14.0 122.0 L 13.0 121.0 L 12.0 120.0 L 11.0 120.0 L 10.0 120.0 L 9.0 119.0 L 8.0 119.0 L 7.0 120.0 L 6.0 121.0 L 5.0 122.0 L 4.0 123.0 L 4.0 124.0 L 3.0 124.0 L 2.0 125.0 L 3.0 126.0 L 2.0 127.0 L 1.0 127.0 L 0.0 128.0" /><path d="M 0.0 191.777777778 L 1.0 191.0 L 2.0 190.846153846 L 2.22222222222 191.0 L 3.0 192.0 L 4.0 193.0 L 3.0 193.0 L 2.0 192.0 L 1.0 192.153846154 L 0.0 192.08" /><path d="M 125.0 0.0 L 125.0 1.0 L 125.0 2.0 L 124.0 3.0 L 124.0 4.0 L 124.0 5.0 L 123.0 6.0 L 122.0 7.0 L 122.0 8.0 L 122.0 9.0 L 122.0 10.0 L 123.0 11.0 L 124.0 12.0 L 124.0 13.0 L 124.0 14.0 L 124.0 15.0 L 123.0 16.0 L 122.0 17.0 L 123.0 18.0 L 123.0 19.0 L 124.0 20.0 L 124.0 21.0 L 124.0 22.0 L 125.0 23.0 L 125.0 24.0 L 126.0 25.0 L 127.0 24.0 L 128.0 24.0 L 129.0 23.0 L 130.0 24.0 L 131.0 23.8181818182 L 132.0 23.0 L 131.222222222 24.0 L 132.0 25.0 L 133.0 25.0 L 134.0 25.0 L 135.0 25.0 L 136.0 24.9411764706 L 136.08 25.0 L 136.0 25.2222222222 L 135.0 26.0 L 136.0 27.0 L 137.0 27.0 L 138.0 27.0 L 139.0 26.0 L 140.0 27.0 L 141.0 27.0 L 141.777777778 26.0 L 142.0 25.8181818182 L 143.0 25.8823529412 L 144.0 25.0 L 145.0 25.0 L 146.0 24.0 L 147.0 24.0 L 148.0 25.0 L 149.0 25.0 L 150.0 24.0 L 150.0 25.0 L 149.0 26.0 L 149.0 27.0 L 149.0 28.0 L 149.0 29.0 L 149.0 30.0 L 150.0 31.0 L 151.0 32.0 L 152.0 32.0 L 153.0 31.0 L 153.963636364 30.0 L 154.0 29.7777777778 L 154.777777778 29.0 L 155.0 28.7777777778 L 156.0 28.0 L 155.882352941 27.0 L 156.0 26.8181818182 L 156.181818182 27.0 L 156.0 28.0 L 155.222222222 29.0 L 156.0 30.0 L 155.0 30.0 L 154.0 31.0 L 153.0 32.0 L 152.0 33.0 L 151.0 34.0 L 151.0 35.0 L 150.0 36.0 L 149.0 36.0 L 148.0 36.0 L 147.0 36.0 L 146.0 36.0 L 145.0 36.0 L 144.0 36.0 L 143.0 36.0 L 142.0 35.0 L 141.0 35.0 L 141.0 34.0 L 140.0 33.0 L 139.0 33.0 L 138.0 34.0 L 137.0 34.0 L 136.0 35.0 L 136.0 36.0 L 135.0 37.0 L 135.0 38.0 L 134.0 37.0 L 133.0 37.0 L 132.0 37.0 L 131.0 37.0 L 130.0 38.0 L 129.0 39.0 L 129.0 40.0 L 129.0 41.0 L 129.0 42.0 L 129.0 43.0 L 130.0 44.0 L 131.0 45.0 L 132.0 45.0 L 133.0 46.0 L 133.0 47.0 L 133.0 48.0 L 133.0 49.0 L 134.0 50.0 L 134.0 51.0 L 135.0 52.0 L 136.0 51.7777777778 L 136.222222222 52.0 L 137.0 53.0 L 138.0 54.0 L 139.0 54.0 L 140.0 54.0 L 141.0 54.0 L 142.0 54.0 L 143.0 55.0 L 143.777777778 54.0 L 144.0 53.7777777778 L 145.0 54.0 L 145.777777778 53.0 L 146.0 52.8823529412 L 147.0 52.0 L 148.0 52.0 L 149.0 51.0 L 150.0 52.0 L 151.0 51.0 L 152.0 52.0 L 153.0 51.0 L 154.0 51.0 L 153.0 52.0 L 153.0 53.0 L 154.0 54.0 L 155.0 54.0 L 155.0 55.0 L 155.0 56.0 L 155.0 57.0 L 155.0 58.0 L 156.0 59.0 L 156.0 60.0 L 155.0 61.0 L 155.0 62.0 L 155.0 63.0 L 155.0 64.0 L 155.0 65.0 L 155.0 66.0 L 155.0 67.0 L 155.0 68.0 L 155.0 69.0 L 154.0 70.0 L 154.0 71.0 L 153.0 72.0 L 152.0 73.0 L 151.0 74.0 L 150.0 75.0 L 150.0 76.0 L 151.0 77.0 L 151.0 78.0 L 151.0 79.0 L 152.0 80.0 L 152.0 81.0 L 153.0 82.0 L 153.0 83.0 L 152.0 84.0 L 152.0 85.0 L 151.0 86.0 L 150.0 87.0 L 149.0 88.0 L 149.0 89.0 L 148.0 90.0 L 147.0 90.0 L 146.0 91.0 L 145.0 92.0 L 144.0 92.0 L 143.0 92.0 L 142.0 93.0 L 141.0 93.0 L 140.0 93.0 L 139.0 94.0 L 138.0 94.0 L 137.0 94.0 L 136.0 94.0 L 135.0 94.0 L 134.0 94.0 L 133.0 93.0 L 132.0 92.0 L 132.0 91.0 L 131.0 90.0 L 130.0 90.0 L 129.0 89.0 L 128.0 88.0 L 127.0 88.0 L 126.0 87.0 L 125.0 87.0 L 124.0 87.0 L 123.0 87.0 L 122.0 87.0 L 121.0 88.0 L 120.0 88.0 L 119.0 88.0 L 118.0 88.0 L 117.0 88.0 L 116.0 88.0 L 115.0 88.0 L 114.0 88.0 L 113.0 88.0 L 114.0 87.0 L 113.0 86.0 L 112.0 86.0 L 111.0 85.0 L 110.0 85.0 L 109.0 85.0 L 108.0 85.0 L 107.0 85.0 L 106.0 84.0 L 105.0 83.0 L 104.0 83.0 L 103.0 82.0 L 102.0 81.0 L 101.0 81.0 L 100.0 81.0 L 99.0 81.0 L 98.0 81.0 L 97.0 82.0 L 96.0 82.0 L 95.0 83.0 L 94.0 84.0 L 94.0 85.0 L 94.0 86.0 L 93.0 87.0 L 93.0 88.0 L 92.0 88.0 L 91.0 88.0 L 90.0 88.0 L 89.0 87.0 L 88.0 87.0 L 87.0 86.0 L 86.0 86.0 L 85.0 86.0 L 84.0 86.0 L 83.0 86.0 L 82.0 86.0 L 81.0 87.0 L 80.0 87.0 L 79.0 88.0 L 78.0 89.0 L 77.0 90.0 L 76.0 91.0 L 76.0 92.0 L 76.0 93.0 L 77.0 94.0 L 78.0 95.0 L 79.0 95.0 L 80.0 95.0 L 81.0 95.0 L 81.0 96.0 L 82.0 97.0 L 83.0 98.0 L 83.7777777778 97.0 L 84.0 96.92 L 84.1818181818 97.0 L 85.0 98.0 L 86.0 99.0 L 86.0 100.0 L 86.0 101.0 L 87.0 102.0 L 87.0 103.0 L 87.0 104.0 L 87.0 105.0 L 88.0 106.0 L 88.0 107.0 L 88.0 108.0 L 88.0 109.0 L 89.0 110.0 L 89.0 111.0 L 88.0 112.0 L 87.0 113.0 L 86.0 114.0 L 85.0 114.0 L 84.0 114.0 L 83.0 113.0 L 82.0 113.0 L 82.0 112.0 L 81.0 111.0 L 80.0 110.0 L 79.0 110.0 L 78.0 109.0 L 77.0 109.0 L 76.0 110.0 L 75.0 110.0 L 74.0 111.0 L 73.0 111.0 L 72.0 112.0 L 72.0 113.0 L 72.0 114.0 L 72.0 115.0 L 71.0 116.0 L 71.0 117.0 L 72.0 118.0 L 72.0 119.0 L 73.0 120.0 L 73.0 121.0 L 73.0 122.0 L 74.0 123.0 L 75.0 124.0 L 76.0 125.0 L 77.0 125.0 L 77.0 126.0 L 77.0 127.0 L 78.0 128.0 L 79.0 128.0 L 80.0 127.818181818 L 80.8181818182 127.0 L 81.0 126.818181818 L 82.0 127.0 L 83.0 127.0 L 84.0 127.0 L 85.0 127.0 L 86.0 126.0 L 87.0 125.0 L 87.8461538462 124.0 L 88.0 123.777777778 L 89.0 123.0 L 88.0 122.222222222 L 87.8461538462 122.0 L 88.0 121.0 L 89.0 120.846153846 L 90.0 120.0 L 91.0 119.777777778 L 91.7777777778 119.0 L 92.0 118.777777778 L 92.7777777778 118.0 L 93.0 117.818181818 L 94.0 117.0 L 95.0 117.0 L 95.7777777778 116.0 L 96.0 115.818181818 L 97.0 115.0 L 97.0 114.0 L 98.0 115.0 L 99.0 116.0 L 100.0 116.0 L 101.0 117.0 L 102.0 118.0 L 103.0 117.846153846 L 104.0 117.818181818 L 105.0 117.0 L 104.818181818 116.0 L 105.0 115.818181818 L 106.0 116.0 L 107.0 116.0 L 106.0 117.0 L 105.0 117.0 L 104.222222222 118.0 L 104.0 118.222222222 L 103.0 119.0 L 103.0 120.0 L 104.0 121.0 L 104.0 122.0 L 104.0 123.0 L 104.0 124.0 L 104.0 125.0 L 105.0 126.0 L 106.0 127.0 L 107.0 128.0 L 108.0 129.0 L 109.0 129.0 L 110.0 129.0 L 111.0 128.0 L 112.0 127.818181818 L 113.0 127.0 L 114.0 126.0 L 113.777777778 125.0 L 114.0 124.0 L 114.818181818 123.0 L 115.0 122.0 L 115.882352941 121.0 L 116.0 120.818181818 L 116.818181818 120.0 L 117.0 119.0 L 118.0 119.0 L 119.0 118.0 L 118.818181818 117.0 L 119.0 116.777777778 L 120.0 117.0 L 121.0 117.0 L 122.0 117.0 L 123.0 117.0 L 123.777777778 116.0 L 124.0 115.777777778 L 125.0 115.0 L 126.0 114.0 L 125.0 113.0 L 124.0 112.0 L 123.0 111.0 L 122.0 111.0 L 123.0 110.0 L 122.0 109.222222222 L 121.846153846 109.0 L 122.0 108.777777778 L 123.0 108.0 L 122.777777778 107.0 L 123.0 106.0 L 123.777777778 105.0 L 123.818181818 104.0 L 124.0 103.882352941 L 124.882352941 103.0 L 125.0 102.0 L 126.0 102.0 L 127.0 103.0 L 128.0 103.0 L 129.0 102.818181818 L 130.0 103.0 L 130.777777778 102.0 L 131.0 101.777777778 L 131.777777778 101.0 L 132.0 100.846153846 L 133.0 100.882352941 L 134.0 100.846153846 L 135.0 100.818181818 L 136.0 101.0 L 137.0 101.0 L 137.777777778 100.0 L 138.0 99.8461538462 L 139.0 100.0 L 140.0 99.0 L 141.0 98.0 L 142.0 99.0 L 143.0 98.0 L 142.777777778 97.0 L 143.0 96.92 L 143.181818182 97.0 L 144.0 98.0 L 144.818181818 97.0 L 145.0 96.8181818182 L 146.0 97.0 L 146.777777778 96.0 L 147.0 95.7777777778 L 148.0 95.0 L 149.0 94.8181818182 L 150.0 94.0 L 151.0 93.0 L 152.0 92.8823529412 L 153.0 93.0 L 154.0 92.0 L 154.0 91.0 L 155.0 90.7777777778 L 156.0 90.0 L 157.0 90.0 L 157.777777778 89.0 L 158.0 88.7777777778 L 159.0 88.0 L 160.0 87.8181818182 L 161.0 87.0 L 162.0 86.0 L 163.0 85.0 L 164.0 85.0 L 165.0 85.0 L 166.0 84.0 L 167.0 84.0 L 168.0 84.0 L 169.0 84.0 L 170.0 83.8181818182 L 170.818181818 83.0 L 171.0 82.0 L 172.0 81.0 L 173.0 81.0 L 174.0 80.0 L 173.0 79.0 L 174.0 79.0 L 174.0 80.0 L 174.0 81.0 L 175.0 82.0 L 176.0 82.0 L 177.0 81.8181818182 L 177.818181818 81.0 L 177.0 80.0 L 178.0 80.7777777778 L 179.0 80.0 L 179.0 81.0 L 179.0 82.0 L 178.0 83.0 L 179.0 84.0 L 180.0 85.0 L 179.0 86.0 L 178.0 87.0 L 178.0 88.0 L 179.0 89.0 L 178.0 89.0 L 177.0 89.0 L 176.0 89.0 L 175.0 90.0 L 175.0 91.0 L 174.0 92.0 L 173.0 93.0 L 174.0 94.0 L 173.0 95.0 L 173.0 96.0 L 173.0 97.0 L 173.0 98.0 L 173.0 99.0 L 173.0 100.0 L 173.0 101.0 L 174.0 102.0 L 175.0 103.0 L 176.0 103.0 L 177.0 102.92 L 177.08 103.0 L 177.0 104.0 L 178.0 105.0 L 179.0 106.0 L 179.777777778 105.0 L 180.0 104.882352941 L 181.0 104.0 L 182.0 104.0 L 183.0 103.846153846 L 183.222222222 104.0 L 183.0 105.0 L 183.0 106.0 L 183.0 107.0 L 183.0 108.0 L 184.0 109.0 L 185.0 108.882352941 L 185.181818182 109.0 L 185.0 109.181818182 L 184.0 110.0 L 183.0 111.0 L 182.0 111.0 L 181.0 112.0 L 180.0 112.0 L 179.0 111.0 L 178.0 111.0 L 177.0 111.0 L 176.0 111.0 L 175.0 111.0 L 174.0 112.0 L 174.0 113.0 L 173.0 112.0 L 172.0 112.0 L 171.0 112.0 L 170.0 112.0 L 169.0 112.0 L 168.0 112.0 L 167.0 112.0 L 166.0 111.0 L 165.0 112.0 L 164.0 113.0 L 163.0 113.0 L 162.0 113.0 L 161.0 112.0 L 161.818181818 111.0 L 162.0 110.777777778 L 162.777777778 110.0 L 163.0 109.0 L 162.0 108.0 L 161.0 107.0 L 160.0 107.0 L 159.0 107.0 L 158.0 108.0 L 157.0 108.0 L 156.0 108.0 L 155.0 108.0 L 154.0 109.0 L 153.0 109.0 L 152.0 109.0 L 151.0 110.0 L 150.0 111.0 L 149.0 111.0 L 148.0 111.0 L 147.0 112.0 L 147.0 113.0 L 146.0 114.0 L 146.0 115.0 L 147.0 116.0 L 148.0 117.0 L 148.0 118.0 L 148.0 119.0 L 148.0 120.0 L 148.0 121.0 L 147.0 122.0 L 148.0 123.0 L 149.0 124.0 L 149.0 125.0 L 150.0 126.0 L 151.0 127.0 L 151.0 128.0 L 151.0 129.0 L 152.0 130.0 L 152.0 131.0 L 153.0 132.0 L 154.0 133.0 L 155.0 134.0 L 155.0 135.0 L 156.0 136.0 L 157.0 137.0 L 158.0 137.0 L 159.0 138.0 L 160.0 138.0 L 159.0 139.0 L 159.0 140.0 L 160.0 141.0 L 161.0 142.0 L 161.0 143.0 L 162.0 144.0 L 162.0 145.0 L 162.0 146.0 L 162.0 147.0 L 162.0 148.0 L 162.0 149.0 L 161.0 150.0 L 161.0 151.0 L 160.0 152.0 L 159.0 153.0 L 160.0 152.0 L 159.0 151.0 L 158.0 152.0 L 159.0 153.0 L 158.0 154.0 L 158.0 155.0 L 157.0 156.0 L 157.0 157.0 L 156.0 158.0 L 156.0 159.0 L 156.0 160.0 L 156.0 161.0 L 156.0 162.0 L 155.0 163.0 L 155.0 164.0 L 154.0 165.0 L 154.0 166.0 L 154.0 167.0 L 154.0 168.0 L 154.0 169.0 L 154.0 170.0 L 154.0 171.0 L 154.0 172.0 L 154.0 173.0 L 155.0 174.0 L 155.0 175.0 L 155.0 176.0 L 156.0 177.0 L 155.0 178.0 L 155.0 179.0 L 156.0 180.0 L 157.0 181.0 L 158.0 182.0 L 159.0 183.0 L 159.0 184.0 L 160.0 185.0 L 161.0 186.0 L 162.0 187.0 L 163.0 187.0 L 164.0 188.0 L 165.0 188.0 L 166.0 187.846153846 L 167.0 188.0 L 168.0 189.0 L 169.0 189.0 L 170.0 189.0 L 171.0 189.0 L 172.0 188.92 L 173.0 188.846153846 L 174.0 188.92 L 175.0 188.846153846 L 176.0 189.0 L 177.0 189.0 L 178.0 188.0 L 177.0 187.181818182 L 176.92 187.0 L 176.92 186.0 L 177.0 185.0 L 177.0 184.0 L 176.0 183.0 L 177.0 182.818181818 L 177.818181818 182.0 L 178.0 181.777777778 L 178.777777778 181.0 L 179.0 180.818181818 L 179.818181818 180.0 L 180.0 179.777777778 L 181.0 179.0 L 181.0 178.0 L 181.0 177.0 L 181.0 176.0 L 182.0 175.818181818 L 183.0 175.818181818 L 184.0 175.0 L 185.0 174.0 L 186.0 173.777777778 L 187.0 173.0 L 187.0 172.0 L 187.0 171.0 L 188.0 170.777777778 L 189.0 170.0 L 188.818181818 169.0 L 189.0 168.777777778 L 190.0 168.0 L 190.0 167.0 L 189.0 166.0 L 189.882352941 165.0 L 190.0 164.0 L 190.0 163.0 L 190.0 162.0 L 191.0 161.0 L 190.0 160.222222222 L 189.818181818 160.0 L 190.0 159.0 L 190.0 158.0 L 189.0 157.0 L 188.0 156.0 L 187.0 155.0 L 186.0 154.0 L 186.0 153.0 L 185.0 152.0 L 184.0 151.0 L 184.0 150.0 L 184.0 149.0 L 184.0 148.0 L 184.0 147.0 L 183.0 146.0 L 183.882352941 145.0 L 184.0 144.777777778 L 185.0 144.0 L 185.0 143.0 L 185.777777778 142.0 L 185.882352941 141.0 L 185.882352941 140.0 L 186.0 139.0 L 185.0 138.0 L 186.0 137.0 L 187.0 136.0 L 186.818181818 135.0 L 187.0 134.0 L 187.0 133.0 L 186.846153846 132.0 L 186.846153846 131.0 L 187.0 130.92 L 188.0 131.0 L 188.777777778 130.0 L 189.0 129.0 L 189.0 128.0 L 188.0 127.0 L 187.0 127.0 L 187.0 126.0 L 188.0 125.882352941 L 188.181818182 126.0 L 189.0 127.0 L 190.0 126.0 L 190.818181818 125.0 L 191.0 124.818181818 L 191.153846154 125.0 L 191.0 126.0 L 192.0 127.0 L 192.777777778 126.0 L 193.0 125.818181818 L 194.0 126.0 L 195.0 126.0 L 196.0 125.882352941 L 197.0 125.882352941 L 197.222222222 126.0 L 198.0 127.0 L 199.0 128.0 L 200.0 129.0 L 201.0 128.0 L 202.0 128.0 L 203.0 128.0 L 204.0 128.0 L 205.0 127.0 L 205.882352941 126.0 L 206.0 125.818181818 L 207.0 125.0 L 208.0 126.0 L 208.0 127.0 L 209.0 128.0 L 210.0 128.0 L 211.0 129.0 L 211.0 130.0 L 210.0 131.0 L 209.0 132.0 L 209.0 133.0 L 208.0 134.0 L 208.0 135.0 L 209.0 136.0 L 209.0 137.0 L 209.0 138.0 L 210.0 139.0 L 211.0 140.0 L 212.0 141.0 L 212.777777778 140.0 L 213.0 139.846153846 L 213.181818182 140.0 L 214.0 141.0 L 215.0 140.777777778 L 215.777777778 140.0 L 216.0 139.846153846 L 216.181818182 140.0 L 216.0 141.0 L 217.0 142.0 L 218.0 142.0 L 219.0 142.0 L 220.0 142.0 L 220.0 143.0 L 220.0 144.0 L 220.0 145.0 L 220.0 146.0 L 220.0 147.0 L 220.0 148.0 L 221.0 149.0 L 222.0 149.0 L 222.0 150.0 L 222.0 151.0 L 222.0 152.0 L 221.0 153.0 L 221.0 154.0 L 221.0 155.0 L 222.0 156.0 L 223.0 156.0 L 224.0 157.0 L 225.0 157.0 L 225.0 158.0 L 225.0 159.0 L 225.0 160.0 L 224.0 160.0 L 223.0 161.0 L 224.0 162.0 L 225.0 162.0 L 225.0 163.0 L 226.0 164.0 L 226.0 165.0 L 226.0 166.0 L 227.0 167.0 L 227.0 168.0 L 228.0 169.0 L 229.0 169.0 L 230.0 170.0 L 231.0 170.0 L 232.0 170.0 L 233.0 170.0 L 234.0 170.0 L 234.0 171.0 L 234.0 172.0 L 234.0 173.0 L 234.0 174.0 L 234.0 175.0 L 234.0 176.0 L 234.0 177.0 L 234.0 178.0 L 234.0 179.0 L 234.0 180.0 L 234.0 181.0 L 234.0 182.0 L 234.0 183.0 L 234.0 184.0 L 234.0 185.0 L 234.0 186.0 L 234.0 187.0 L 234.0 188.0 L 234.0 189.0 L 234.0 190.0 L 234.0 191.0 L 234.0 192.0 L 234.0 193.0 L 234.0 194.0 L 234.0 195.0 L 234.0 196.0 L 234.0 197.0 L 234.0 198.0 L 234.0 199.0 L 234.0 200.0 L 234.0 201.0 L 234.0 202.0 L 234.0 203.0 L 234.0 204.0 L 234.0 205.0 L 234.0 206.0 L 234.0 207.0 L 234.0 208.0 L 233.0 209.0 L 233.0 210.0 L 232.0 211.0 L 232.0 212.0 L 231.0 213.0 L 230.0 214.0 L 229.0 215.0 L 228.0 216.0 L 227.0 217.0 L 227.0 218.0 L 227.0 219.0 L 226.0 220.0 L 225.0 220.0 L 224.0 221.0 L 223.0 220.0 L 222.0 221.0 L 221.0 221.0 L 220.0 222.0 L 219.0 223.0 L 218.0 224.0 L 217.0 225.0 L 216.0 226.0 L 215.0 227.0 L 215.0 228.0 L 214.0 228.0 L 213.0 229.0 L 213.0 230.0 L 213.0 231.0 L 213.0 232.0 L 212.0 233.0 L 212.0 234.0 L 212.0 235.0 L 212.0 236.0 L 213.0 237.0 L 213.0 238.0 L 213.0 239.0 L 213.0 240.0 L 213.0 241.0 L 213.0 242.0 L 213.0 243.0 L 214.0 244.0 L 215.0 245.0 L 214.0 245.0 L 213.0 245.0 L 212.0 245.0 L 211.0 245.0 L 210.0 245.0 L 209.0 245.0 L 208.0 245.0 L 207.0 245.0 L 206.0 245.0 L 205.0 245.0 L 204.0 245.0 L 203.0 245.0 L 202.0 245.0 L 201.0 245.0 L 200.0 245.0 L 199.0 245.0 L 198.0 245.0 L 197.0 245.0 L 196.0 245.0 L 195.0 245.0 L 194.0 245.0 L 193.0 245.0 L 192.0 245.0 L 191.0 245.0 L 190.0 245.0 L 189.0 245.0 L 188.0 245.0 L 187.0 245.0 L 186.0 245.0 L 185.0 245.0 L 184.0 245.0 L 183.0 245.0 L 182.0 245.0 L 181.0 245.0 L 180.0 245.0 L 179.0 245.0 L 178.0 245.0 L 177.0 245.0 L 176.0 245.0 L 175.0 245.0 L 174.0 245.0 L 173.0 245.0 L 172.0 245.0 L 171.0 245.0 L 170.0 245.0 L 169.0 245.0 L 168.0 245.0 L 167.0 245.0 L 166.0 245.0 L 165.0 245.0 L 164.0 245.0 L 163.0 245.0 L 162.0 245.0 L 161.0 245.0 L 160.0 245.0 L 159.0 245.0 L 158.0 245.0 L 157.0 245.0 L 156.0 245.0 L 155.0 245.0 L 154.0 245.0 L 153.0 245.0 L 152.0 245.0 L 151.0 245.0 L 150.0 245.0 L 149.0 245.0 L 148.0 245.0 L 147.0 245.0 L 146.0 245.0 L 145.0 245.0 L 144.0 245.0 L 143.0 245.0 L 142.0 245.0 L 141.0 245.0 L 140.0 245.0 L 139.0 245.0 L 138.0 245.0 L 137.0 245.0 L 136.0 245.0 L 135.0 245.0 L 134.0 245.0 L 133.0 245.0 L 132.0 245.0 L 131.0 245.0 L 130.0 245.0 L 129.0 245.0 L 128.0 245.0 L 127.0 245.0 L 126.0 245.0 L 125.0 245.0 L 124.0 245.0 L 123.0 245.0 L 122.0 245.0 L 121.0 245.0 L 120.0 245.0 L 119.0 245.0 L 118.0 245.0 L 117.0 245.0 L 116.0 245.0 L 115.0 245.0 L 114.0 245.0 L 113.0 245.0 L 112.0 245.0 L 111.0 245.0 L 110.0 245.0 L 109.0 245.0 L 108.0 245.0 L 107.0 245.0 L 106.0 245.0 L 105.0 245.0 L 104.0 245.0 L 103.0 245.0 L 102.0 245.0 L 101.0 245.0 L 100.0 245.0 L 99.0 245.0 L 98.0 245.0 L 97.0 245.0 L 96.0 245.0 L 95.0 245.0 L 94.0 245.0 L 93.0 245.0 L 92.0 245.0 L 91.0 245.0 L 90.0 245.0 L 89.0 245.0 L 88.0 245.0 L 87.0 245.0 L 86.0 245.0 L 85.0 245.0 L 84.0 245.0 L 83.0 245.0 L 82.0 245.0 L 81.0 245.0 L 80.0 245.0 L 79.0 245.0 L 78.0 245.0 L 77.0 245.0 L 76.0 245.0 L 75.0 245.0 L 74.0 245.0 L 73.0 245.0 L 72.0 245.0 L 71.0 245.0 L 70.0 245.0 L 69.0 245.0 L 68.0 245.0 L 67.0 245.0 L 66.0 245.0 L 65.0 245.0 L 64.0 245.0 L 63.0 245.0 L 62.0 245.0 L 61.0 245.0 L 60.0 245.0 L 59.0 245.0 L 58.0 245.0 L 57.0 245.0 L 56.0 245.0 L 55.0 245.0 L 54.0 245.0 L 53.0 245.0 L 52.0 245.0 L 51.0 245.0 L 50.0 245.0 L 49.0 245.0 L 48.0 245.0 L 47.0 245.0 L 46.0 245.0 L 45.0 245.0 L 44.0 245.0 L 43.0 245.0 L 42.0 245.0 L 41.0 245.0 L 40.0 245.0 L 39.0 245.0 L 38.0 245.0 L 37.0 245.0 L 36.0 245.0 L 35.0 245.0 L 34.0 245.0 L 33.0 245.0 L 32.0 244.0 L 31.0 243.0 L 31.0 242.0 L 30.0 241.0 L 29.0 241.0 L 29.0 240.0 L 28.0 239.0 L 27.0 239.0 L 26.0 238.0 L 25.0 237.181818182 L 24.8461538462 237.0 L 25.0 236.0 L 25.0 235.0 L 24.0 234.222222222 L 23.92 234.0 L 23.92 233.0 L 23.8461538462 232.0 L 24.0 231.0 L 23.8181818182 230.0 L 23.8461538462 229.0 L 24.0 228.0 L 24.0 227.0 L 24.0 226.0 L 23.0 225.0 L 23.0 224.0 L 22.0 223.0 L 22.0 222.0 L 21.0 221.0 L 20.0 220.0 L 19.0 219.0 L 20.0 218.0 L 21.0 218.0 L 22.0 219.0 L 23.0 219.0 L 24.0 218.0 L 24.0 217.0 L 24.8823529412 216.0 L 25.0 215.882352941 L 26.0 215.0 L 27.0 215.0 L 28.0 214.846153846 L 28.2222222222 215.0 L 29.0 216.0 L 30.0 215.0 L 31.0 215.0 L 32.0 215.0 L 33.0 214.0 L 33.0 213.0 L 33.8181818182 212.0 L 34.0 211.0 L 35.0 210.0 L 36.0 210.0 L 37.0 209.0 L 37.0 208.0 L 37.0 207.0 L 36.0 206.0 L 37.0 205.0 L 36.0 204.0 L 35.0 204.0 L 34.0 203.0 L 33.0 202.0 L 32.0 201.0 L 33.0 201.0 L 34.0 200.0 L 35.0 199.818181818 L 36.0 200.0 L 37.0 199.0 L 38.0 198.0 L 38.0 197.0 L 39.0 196.0 L 38.7777777778 195.0 L 38.8823529412 194.0 L 39.0 193.0 L 38.8181818182 192.0 L 39.0 191.882352941 L 40.0 192.0 L 41.0 193.0 L 42.0 192.882352941 L 42.2222222222 193.0 L 42.0 194.0 L 43.0 195.0 L 43.0 196.0 L 44.0 197.0 L 44.0 198.0 L 45.0 199.0 L 46.0 200.0 L 47.0 201.0 L 47.0 202.0 L 48.0 203.0 L 48.0 204.0 L 48.0 205.0 L 49.0 206.0 L 50.0 206.0 L 51.0 206.0 L 52.0 206.0 L 53.0 206.0 L 53.8181818182 205.0 L 54.0 204.777777778 L 55.0 204.0 L 54.0 203.0 L 55.0 202.777777778 L 56.0 202.0 L 57.0 202.0 L 58.0 201.0 L 58.8823529412 200.0 L 59.0 199.777777778 L 60.0 200.0 L 61.0 199.0 L 61.0 198.0 L 60.0 197.0 L 60.0 196.0 L 60.0 195.0 L 59.0 194.0 L 58.0 193.0 L 58.0 192.0 L 58.0 191.0 L 57.0 190.0 L 56.0 189.0 L 55.0 188.0 L 54.0 188.0 L 53.0 187.0 L 52.0 186.0 L 51.0 186.0 L 51.0 185.0 L 50.0 184.0 L 49.0 183.0 L 48.0 182.0 L 47.0 181.0 L 46.0 180.222222222 L 45.8181818182 180.0 L 46.0 179.0 L 46.0 178.0 L 46.0 177.0 L 45.8181818182 176.0 L 46.0 175.818181818 L 47.0 175.777777778 L 48.0 175.0 L 47.0 174.0 L 48.0 174.0 L 49.0 173.0 L 50.0 173.0 L 51.0 173.0 L 51.7777777778 172.0 L 52.0 171.818181818 L 53.0 171.0 L 53.0 172.0 L 53.0 173.0 L 53.0 174.0 L 54.0 175.0 L 55.0 175.0 L 56.0 175.0 L 57.0 176.0 L 58.0 176.0 L 58.7777777778 175.0 L 59.0 174.0 L 59.0 173.0 L 59.8181818182 172.0 L 59.8181818182 171.0 L 59.8823529412 170.0 L 60.0 169.0 L 60.0 168.0 L 60.0 167.0 L 60.0 166.0 L 60.0 165.0 L 60.0 164.0 L 60.8181818182 163.0 L 61.0 162.818181818 L 61.8181818182 162.0 L 62.0 161.882352941 L 63.0 161.0 L 64.0 160.0 L 65.0 159.846153846 L 65.2222222222 160.0 L 66.0 161.0 L 67.0 160.0 L 68.0 161.0 L 69.0 161.0 L 69.0 162.0 L 69.0 163.0 L 69.0 164.0 L 70.0 165.0 L 71.0 164.0 L 71.0 165.0 L 72.0 166.0 L 72.0 167.0 L 73.0 168.0 L 73.0 169.0 L 74.0 170.0 L 75.0 171.0 L 75.0 172.0 L 76.0 173.0 L 76.0 174.0 L 77.0 175.0 L 78.0 176.0 L 79.0 176.0 L 80.0 177.0 L 81.0 177.0 L 82.0 177.0 L 83.0 178.0 L 83.7777777778 177.0 L 84.0 176.818181818 L 84.8181818182 176.0 L 85.0 175.0 L 85.0 174.0 L 86.0 173.0 L 85.0 172.0 L 85.0 171.0 L 85.0 170.0 L 85.8823529412 169.0 L 86.0 168.0 L 85.0 167.0 L 85.0 166.0 L 85.0 165.0 L 84.0 164.0 L 83.0 163.0 L 83.0 162.0 L 82.0 161.0 L 81.0 160.0 L 80.0 159.0 L 79.0 159.0 L 78.0 158.0 L 77.0 158.0 L 76.0 157.0 L 75.0 157.0 L 74.0 156.0 L 73.0 156.0 L 73.0 155.0 L 72.0 154.0 L 71.0 154.0 L 70.0 153.0 L 71.0 152.0 L 70.0 151.0 L 69.0 150.0 L 68.0 149.0 L 67.0 148.0 L 68.0 147.0 L 68.0 146.0 L 68.0 145.0 L 68.0 144.0 L 67.0 143.0 L 66.0 142.0 L 65.0 141.0 L 64.0 141.0 L 63.0 142.0 L 62.0 143.0 L 62.0 144.0 L 61.0 144.0 L 60.0 145.0 L 60.0 146.0 L 59.0 147.0 L 59.0 148.0 L 58.0 148.0 L 57.0 149.0 L 56.0 150.0 L 55.0 151.0 L 54.0 152.0 L 53.0 152.0 L 52.0 152.0 L 51.0 152.0 L 50.0 152.0 L 49.0 152.0 L 48.0 152.0 L 47.0 152.0 L 46.0 152.0 L 45.0 152.0 L 44.0 152.0 L 43.0 152.0 L 42.0 152.0 L 41.0 152.0 L 40.0 151.0 L 39.0 150.0 L 38.0 150.0 L 37.0 150.0 L 36.0 149.0 L 35.0 149.0 L 34.0 148.0 L 33.0 148.0 L 32.0 148.0 L 31.0 149.0 L 31.0 150.0 L 30.0 150.0 L 29.0 151.0 L 29.0 152.0 L 28.0 152.0 L 27.0 153.0 L 27.0 154.0 L 27.0 155.0 L 27.0 156.0 L 27.0 157.0 L 26.0 158.0 L 26.0 159.0 L 26.0 160.0 L 26.0 161.0 L 26.0 162.0 L 26.0 163.0 L 27.0 164.0 L 27.0 165.0 L 28.0 166.0 L 28.0 167.0 L 28.0 168.0 L 28.0 169.0 L 27.0 170.0 L 27.0 171.0 L 28.0 172.0 L 29.0 173.0 L 29.0 174.0 L 29.0 175.0 L 30.0 176.0 L 31.0 177.0 L 31.0 178.0 L 31.0 179.0 L 31.0 180.0 L 31.0 181.0 L 31.0 182.0 L 31.0 183.0 L 31.0 184.0 L 30.0 184.0 L 29.0 185.0 L 28.0 186.0 L 27.0 186.0 L 26.0 187.0 L 25.0 187.0 L 24.0 188.0 L 23.0 188.0 L 22.0 189.0 L 21.0 189.0 L 20.0 189.0 L 19.0 190.0 L 18.0 191.0 L 17.0 192.0 L 16.0 193.0 L 16.0 194.0 L 16.0 195.0 L 16.0 196.0 L 16.0 197.0 L 16.0 198.0 L 16.0 199.0 L 15.0 200.0 L 15.0 201.0 L 15.0 202.0 L 14.0 203.0 L 14.0 204.0 L 13.0 205.0 L 13.0 206.0 L 13.0 207.0 L 12.0 208.0 L 11.0 209.0 L 10.0 210.0 L 10.0 211.0 L 10.0 212.0 L 10.0 213.0 L 10.0 214.0 L 11.0 215.0 L 10.0 215.0 L 9.0 214.0 L 8.0 213.0 L 7.0 212.0 L 6.0 212.0 L 5.0 211.0 L 4.0 211.0 L 3.0 210.0 L 2.0 210.0 L 1.0 209.0 L 0.0 208.0" /><path d="M 12.0 216.0 L 11.0 215.0 L 12.0 216.0" /><path d="M 12.0 216.0 L 13.0 216.0 L 12.0 216.0" /><path d="M 18.0 219.0 L 17.0 219.0 L 16.0 219.0 L 15.0 218.0 L 14.0 218.0 L 14.0 217.0 L 13.0 216.0 L 14.0 216.0 L 15.0 217.0 L 16.0 218.0 L 17.0 217.846153846 L 18.0 218.0 L 19.0 219.0 L 18.0 219.0" /><path d="M 47.0 34.0 L 46.0 33.0 L 46.0 32.0 L 45.0 31.0 L 45.0 30.0 L 46.0 30.0 L 47.0 31.0 L 47.0 32.0 L 47.0 33.0 L 47.0 34.0" /><path d="M 57.0 55.0 L 57.0 54.0 L 57.0 53.0 L 56.0 52.0 L 55.0 51.0 L 54.0 50.0 L 53.0 49.0 L 52.0 49.0 L 51.0 48.0 L 50.0 47.0 L 50.0 46.0 L 49.0 45.0 L 49.0 44.0 L 49.0 43.0 L 49.0 42.0 L 48.0 41.0 L 47.0 41.0 L 47.0 40.0 L 47.0 39.0 L 47.0 38.0 L 47.0 37.0 L 47.0 38.0 L 47.0 39.0 L 48.0 40.0 L 49.0 41.0 L 50.0 42.0 L 51.0 42.0 L 52.0 43.0 L 53.0 43.0 L 54.0 42.0 L 54.8823529412 41.0 L 55.0 40.8181818182 L 56.0 41.0 L 55.0 42.0 L 55.0 43.0 L 56.0 44.0 L 56.0 45.0 L 56.0 46.0 L 56.0 47.0 L 56.0 48.0 L 56.0 49.0 L 56.0 50.0 L 57.0 51.0 L 57.0 52.0 L 57.0 53.0 L 57.0 54.0 L 57.0 55.0" /><path d="M 48.0 117.0 L 47.0 116.222222222 L 46.92 116.0 L 47.0 115.818181818 L 47.2222222222 116.0 L 48.0 117.0" /><path d="M 48.0 118.0 L 47.0 118.0 L 48.0 117.0 L 49.0 117.0 L 48.0 118.0" /><path d="M 55.0 206.0 L 54.0 205.222222222 L 53.0 206.0 L 54.0 207.0 L 55.0 206.0" /><path d="M 56.0 202.0 L 55.0 201.0 L 56.0 202.0" /><path d="M 56.0 41.0 L 57.0 40.0 L 56.0 41.0" /><path d="M 57.0 40.0 L 58.0 39.0 L 57.0 40.0" /><path d="M 79.0 59.1818181818 L 78.8181818182 59.0 L 79.0 58.8823529412 L 79.1538461538 59.0 L 79.0 59.1818181818" /><path d="M 90.0 16.0 L 89.0 15.1176470588 L 88.7777777778 15.0 L 89.0 14.92 L 89.1818181818 15.0 L 90.0 16.0" /><path d="M 91.0 11.0 L 90.0 10.2222222222 L 89.8823529412 10.0 L 90.0 9.81818181818 L 90.1176470588 10.0 L 91.0 11.0" /><path d="M 91.0 12.0 L 91.0 11.0 L 91.0 12.0" /><path d="M 90.0 16.0 L 91.0 16.0 L 90.0 16.0" /><path d="M 92.0 13.0 L 91.0 12.0 L 92.0 13.0" /><path d="M 91.0 16.0 L 92.0 16.0 L 91.0 16.0" /><path d="M 93.0 14.0 L 92.0 13.0 L 93.0 14.0" /><path d="M 94.0 19.0 L 93.0 19.1538461538 L 92.8461538462 19.0 L 93.0 18.0 L 93.0 17.0 L 92.0 16.0 L 93.0 16.0 L 94.0 16.0 L 94.0 17.0 L 94.0 18.0 L 94.0 19.0" /><path d="M 95.0 20.0 L 94.0 19.0 L 95.0 20.0" /><path d="M 95.0 21.0 L 94.0 21.0 L 95.0 20.0 L 95.0 21.0" /><path d="M 109.0 115.181818182 L 108.777777778 115.0 L 109.0 114.846153846 L 110.0 114.0 L 109.222222222 115.0 L 109.0 115.181818182" /><path d="M 134.882352941 227.0 L 135.0 226.0 L 134.0 225.0 L 133.0 224.0 L 132.0 223.0 L 131.0 224.0 L 130.0 224.0 L 129.0 224.0 L 128.0 223.0 L 128.0 222.0 L 128.0 221.0 L 128.0 220.0 L 127.0 219.0 L 126.0 219.181818182 L 125.846153846 219.0 L 126.0 218.0 L 126.0 217.0 L 125.0 216.222222222 L 124.777777778 216.0 L 125.0 215.777777778 L 126.0 215.0 L 125.0 214.0 L 124.0 214.0 L 123.0 213.0 L 122.0 212.0 L 121.0 212.0 L 120.0 212.0 L 119.0 211.0 L 118.0 210.0 L 117.0 210.0 L 116.0 210.0 L 115.0 211.0 L 114.0 212.0 L 114.0 213.0 L 114.0 214.0 L 114.0 215.0 L 114.0 216.0 L 113.0 217.0 L 114.0 218.0 L 114.0 219.0 L 114.0 220.0 L 114.0 221.0 L 115.0 222.0 L 116.0 223.0 L 117.0 224.0 L 118.0 225.0 L 118.0 226.0 L 118.0 227.0 L 118.0 228.0 L 118.0 229.0 L 119.0 230.0 L 120.0 231.0 L 121.0 232.0 L 122.0 232.0 L 123.0 231.882352941 L 124.0 231.882352941 L 125.0 232.0 L 125.777777778 231.0 L 126.0 230.846153846 L 127.0 231.0 L 128.0 231.0 L 129.0 231.0 L 130.0 231.0 L 131.0 231.0 L 131.777777778 230.0 L 132.0 229.92 L 133.0 229.0 L 133.777777778 228.0 L 134.0 227.882352941 L 134.882352941 227.0" /><path d="M 147.0 2.0 L 147.0 1.0 L 147.0 2.0" /><path d="M 147.0 5.0 L 147.0 4.0 L 147.0 5.0" /><path d="M 148.0 6.0 L 147.0 5.0 L 148.0 6.0" /><path d="M 148.0 7.0 L 148.0 6.0 L 148.0 7.0" /><path d="M 149.0 8.0 L 148.0 7.0 L 149.0 8.0" /><path d="M 149.0 9.0 L 149.0 8.0 L 150.0 9.0 L 149.0 9.0" /><path d="M 153.0 31.0 L 152.0 30.1818181818 L 151.818181818 30.0 L 152.0 29.8181818182 L 152.036363636 30.0 L 153.0 31.0" /><path d="M 153.0 34.0 L 152.0 33.0 L 153.0 34.0" /><path d="M 153.0 13.0 L 154.0 13.0 L 153.0 13.0" /><path d="M 155.0 25.0 L 154.0 26.0 L 153.0 25.0 L 154.0 24.92 L 154.92 24.0 L 155.0 23.8823529412 L 155.181818182 24.0 L 156.0 25.0 L 155.0 25.0" /><path d="M 155.0 14.0 L 154.0 13.0 L 155.0 13.0 L 155.0 14.0" /><path d="M 155.0 32.0 L 154.0 31.0 L 155.0 32.0" /><path d="M 155.0 16.0 L 156.0 16.0 L 155.0 16.0" /><path d="M 155.0 22.0 L 156.0 22.0 L 155.0 22.0" /><path d="M 156.0 16.0 L 157.0 16.0 L 156.0 16.0" /><path d="M 156.0 22.0 L 157.0 21.0 L 156.0 22.0" /><path d="M 156.0 25.0 L 157.0 24.0 L 156.0 25.0" /><path d="M 159.0 20.0 L 158.0 20.0 L 157.0 21.0 L 158.0 20.0 L 158.0 19.0 L 158.0 18.0 L 159.0 18.0 L 160.0 19.0 L 159.0 20.0" /><path d="M 161.0 44.0 L 162.0 43.0 L 161.0 44.0" /><path d="M 162.0 43.0 L 163.0 42.0 L 162.0 43.0" /><path d="M 187.0 26.08 L 186.92 26.0 L 187.0 25.8461538462 L 187.08 26.0 L 187.0 26.08" /><path d="M 215.0 245.0 L 216.0 245.0 L 215.0 245.0" /><path d="M 216.0 245.0 L 217.0 245.0 L 216.0 245.0" /><path d="M 217.0 245.0 L 218.0 245.0 L 217.0 245.0" /><path d="M 234.0 245.0 L 233.0 245.0 L 232.0 245.0 L 231.0 245.0 L 230.0 245.0 L 229.0 245.0 L 228.0 245.0 L 227.0 245.0 L 226.0 245.0 L 225.0 245.0 L 224.0 245.0 L 223.0 245.0 L 222.0 245.0 L 221.0 245.0 L 221.0 244.0 L 222.0 243.0 L 221.0 242.0 L 220.0 241.036363636 L 219.777777778 241.0 L 220.0 240.0 L 220.0 239.0 L 219.0 238.0 L 219.0 237.0 L 218.818181818 236.0 L 219.0 235.777777778 L 220.0 235.0 L 220.0 234.0 L 221.0 233.0 L 222.0 232.818181818 L 223.0 232.0 L 224.0 232.0 L 225.0 232.0 L 226.0 231.0 L 227.0 230.0 L 228.0 229.0 L 229.0 228.0 L 230.0 227.777777778 L 231.0 228.0 L 232.0 228.0 L 233.0 228.0 L 233.818181818 227.0 L 234.0 226.818181818 L 234.181818182 227.0 L 234.0 228.0 L 234.0 229.0 L 234.0 230.0 L 234.0 231.0 L 234.0 232.0 L 234.0 233.0 L 234.0 234.0 L 234.0 235.0 L 234.0 236.0 L 234.0 237.0 L 234.0 238.0 L 234.0 239.0 L 234.0 240.0 L 234.0 241.0 L 234.0 242.0 L 234.0 243.0 L 234.0 244.0 L 234.0 245.0" /><path d="M 218.0 245.0 L 219.0 245.0 L 218.0 245.0" /></svg>