<?xml version="1.0" encoding="utf-8"?>
<!-- Generator: Adobe Illustrator 21.1.0, SVG Export Plug-In . SVG Version: 6.00 Build 0)  -->
<svg version="1.1" id="Layer_1" xmlns="http://www.w3.org/2000/svg" xmlns:xlink="http://www.w3.org/1999/xlink" x="0px" y="0px"
	 viewBox="0 0 1920 1080" style="enable-background:new 0 0 1920 1080;" xml:space="preserve">
<style type="text/css">
	.st0{display:none;}
	.st1{display:inline;opacity:0.6;fill:#D3394A;enable-background:new    ;}
	.st2{display:inline;opacity:0.6;fill:#EB5F5B;enable-background:new    ;}
	.st3{display:inline;opacity:0.6;fill:#FB8768;enable-background:new    ;}
	.st4{display:inline;opacity:0.6;fill:#FFB27C;enable-background:new    ;}
	.st5{display:inline;opacity:0.6;fill:#FFDAA3;enable-background:new    ;}
	.st6{display:inline;opacity:0.6;fill:#FFFFE0;enable-background:new    ;}
	.st7{display:inline;opacity:0.6;fill:#B3152F;enable-background:new    ;}
	.st8{display:inline;opacity:0.6;fill:#8B0000;enable-background:new    ;}
	.st9{opacity:0.6;fill:#FFDAA3;enable-background:new    ;}
	.st10{opacity:0.6;fill:#008000;enable-background:new    ;}
</style>
<g id="_x35_7" class="st0">
	<path class="st1" d="M985,571h-3l-4,4l-5,2l-3-3v-1l3-3v-6l-4-8v22h2l3,3v1l5,1l2,2v4l-4,4h-5l-2-2v-1h-2l-3-3v-1h-2l-4-4l1,2l5,4
		v1l2,2h1l3,3h15l8-4h2l3-3v-12l-1-1v-4l-3-3h-1l-3,3h-3l-2,2v1h-2l2-2v-1L985,571z"/>
</g>
<g id="_x35_6" class="st0">
	<path class="st2" d="M963,207l6-6l2-1h3l3,3l4,1l1,2l2,1l2,2v1l4,3v3l4,4v8l4,5v8l1,1v26l3,3v31l-2,2h-1v20l-1,1v11l-4,8v34l-1,1v2
		l-3,4v17l-1,1v14l-2,2h-1v12l-1,1v3l-3,4l-1,4l-2,2h-1l-3,4l-4,1l-3,3l-3,1l-1,2l-2,2h-1l-3,4l-4,1l-7,7l-2,1h-6v1l-3,3h-2l-4,3h-2
		l-1,1h-5l-5,4l-6,1l-4,4h-2v1l-3,3h-1v1l-3,3h-1l-4,5h-3l-4,3h-11l-1,1h-14l3,3l4,1l4,4l3,1l3,3l2,1h3l8,8h2l1,2l4,3v1l2,2l3,1v1
		l5,4l1,2l2,1v2l2,2l3,1v1l2,2l3,1l3,3l4,1v2l2,2h2l4,2v1l4,3v1l5,5l4,1v1l3,3h1v1l3,3l4,1l4,4h2v1l3,3h2v1l2,2h5l4-4v-4l-2-2l-5-1
		v-1l-3-3h-2v-22l-2-2v-2l-2-2l-4-2l-4,2l-4-1l-7-7l-4-1l-3-2h-4l-4-4h-5l-1-1l-1-2v-3l-2-3v-4l-1-1l-1-4l-6-3v-5l2-4l2-2l4,2h9l4-4
		l4,4h5l3-2h2l2,1l16,16h2l3,4h4l2-2h8l1,1h3l1,2l6,6v9l2,2l2-2v-9l2-4v-7l2-2l1-4l1-1v-8l3-4v-12l-5-5l-1-2h-2l-3,4h-1l-2,2v5l-5,4
		h-1v-1l-3-3h-1l-1-4l-5-5l4-1l2-4h11l3-3l3-1l7-7V180l-2-2h-5l-3-4h-6l-5-4l-12,1l-6,6v5l-4,3v3l-1,1l1,6l-5,4v8l-2,1.2L963,207z"
		/>
</g>
<g id="_x35_5" class="st0">
	<path class="st3" d="M917,268v2l1,1v10h1l2,2v5l1,1v17l2,1l2,3v33l-1,1v3l-3,4l-1,8l-1,2l-2,1l-1,8l-2,2h-1v4l-1,1v2l-4,3v3l-2,1
		l-1,2l-3,3h-1l-1,2l-2,2h-1l-1,2l-2,2h-1l-2,3l-2,1h-3v1l-2,2l-2,1h-4l-5,4h-3l-4,2v1l-3,2h-4l-5,4h-6v1l-4,3h-4l-6,4h-5l-1,1h-2v1
		l-2,2h-6l-1,1h-17l-1-1h-6l-2-2v-1h-6l-4-2h-5l-2-2v5h-1l-3,3v9l6,7h4l1,1v2l4,4l2,1h3l1,1h3l1,4l8,8l2,1h3l7,7l4,1l4,4l3,1l3,3
		l4,1v1l2,2l4,2l3,3l4,1v1l2,2l8,1v1l3,3h14l1-1h11l4-3h3l4-5h1l3-3v-1h1l3-3v-1h2l4-4l6-1l5-4h5l1-1h2l4-3h2l3-3v-1h6l2-1l7-7l4-1
		l3-4h1l2-2l1-2l3-1l3-3l4-1l3-4h1l2-2l1-4l3-4v-3l1-1v-12h1l2-2v-14l1-1v-17l3-4v-2l1-1v-34l4-8v-11l1-1v-20h1l2-2v-31l-3-3v-26
		l-1-1v-8l-4-5v-8l-4-4v-3l-4-3v-1l-2-2l-2-1l-1-2l-4-1l-3-3h-3l-2,1l-6,6l-5,2l-1,1l-1,4h-1l-3,4l-2,1l-2,11l2,3v12l-5,5v1h-1l-3,3
		v4l-1,1h-2l-4,5l-2,1l-1,3l-3,2l-1,2l-1-2l3-2v-1l-2-2h-1l-2,2h-3l-3-3l-1,1h-3L917,268z"/>
</g>
<g id="_x35_4" class="st0">
	<path class="st4" d="M886,240v2l-2,2v4l-2,4l-2,1l-1,4l-4,5l-1,10l-3,3v6l-4,5l-1,5l-3,3l-1,5l-3,3l-2,6l-1,1h-2l-1,4l-25,25l-4,1
		l-1,3l-1,1h-2l-1,3l-1,1h-2l-1,1v2l-4,2v2l-1,1l-4,1l-4,3h-2l-1,1h-4l-1,2l-2,2l-3,1v1l-2,2h-2l-2-2v-1h-1l2,5l3,3v8l1,1l-1,1v3
		l-1,2l-2,2v7l-1,1v2l1,1v2l-4,3l-1,2v9l-4,3v5l2,2h5l4,2h6v1l2,2h6l1,1h17l1-1h6l2-2v-1h2l1-1h5l6-4h4l4-3v-1h6l5-4h4l3-2v-1l4-2h3
		l5-4h4l2-1l2-2v-1h3l2-1l2-3h1l2-2l1-2h1l2-2l1-2h1l3-3l1-2l2-1v-3l4-3v-2l1-1v-4h1l2-2l1-8l2-1l1-2l1-8l3-4v-3l1-1v-33l-2-3l-2-1
		v-17l-1-1v-5l-2-2h-1v-10l-1-1v-2l-8-8l-2-4l-4-2l-6-6l-1-4l-2-2l-4-1l-1-2l-4-2h-1L886,240z"/>
	<path class="st4" d="M752,386l-2-1l-2-2v1l2,3v17l2,2l3-3v-18l1-1v-1L752,386z"/>
</g>
<g id="_x35_3" class="st0">
	<path class="st5" d="M868,217l3,1l3,3h3l1,1h6l2,2v-2l-2-3l-2-1h-7l-8-5l-2,1L868,217z"/>
	<path class="st5" d="M880,240h-2l-1-1h-3l-0.8-1.6L872,239h-5l-2,1v1l-3,3h-1l-1,2v6l-2,3v4l-1,1h-3l-4,3l-2-2l-5-1l-5-4h-3l-2-2
		l-4-1l-2-2v-1l-7-7h-1l-3-4l-1,3l2,4l-4,3h-16l-4-3h-12v1l-2,2l-4,1l-1,2l-5,4l-1,3l-3,3l-1,4l-3,2v1l-5,5v1l-9,9h-2l-1,2l-6,6h-3
		l-1,4l-3,2l-1,3l-4,4l-1,8l-2,2l-1,4l-3,3h-4l-1,1l4,1l1,1h2l3,3h3l2,2l1,3h2l4,3l6,2l3,3l5,1l4,4v2l2,4v4l5,5v3l-1,1v3.7l2-2.7h3
		l3,2v-3l2-1h3l1,1h9v1l2,2h2l2-2v-1l3-1l2-2l1-2h4l1-1h2l4-3l4-1l1-1v-2l4-2v-2l1-1h2l1-1l1-3h2l1-1l1-3l4-1l25-25l1-4h2l1-1l2-6
		l3-3l1-5l3-3l1-5l4-5v-6l3-3l1-10l4-5l1-4l2-1l2-4v-4l2-2v-2l-2-3L880,240z"/>
</g>
<g id="_x35_2" class="st0">
	<path class="st6" d="M814,238l-1-4l-3-3l-1-4h-1l-7-7l-1-3l-3-3h-2l-3-3v-1h-1l-5-5h-2l-5-4h-20l-3,2l-2,5l-6,6l-1-1l-4-1l-4,4v4
		l-2,3v6l-2,2h-1l-3,4l-2,1v6l6,6l4-2l2-2l3-1l2,1l6,6l-2,2v2l-2,2l-4,2l-4-2l-4,1l-5,4h-22l-1,2l-3,2h-5l-1,2l-2,2h-1l-1,2l-2,2h-1
		l-4,5l-2,1v15l2,3v4l10,10l2,1h3l4,4v2l2,2l3,1l2.3,1.7l0.7-0.7h4l3-3l1-4l2-2l1-8l4-4l1-3l3-2l1-4h3l6-6l1-2h2l9-9v-1l5-5v-1l3-2
		l1-4l3-3l1-3l5-4l1-2l4-1l2-2v-1h12l4,3h16l4-3l-2-4l1-3L814,238z"/>
</g>
<g id="_x35_1" class="st0">
	<path class="st7" d="M586,861h18l1,1h3l3-3v-6l-2-2h-3l-3,6h-17V861z"/>
	<path class="st7" d="M600,893l2,2l1,4l4,3v1l4,4v2l2,1l2,2v1l2,1l3,3v1l2,1l2,2v1l4,3v2l4,5v2l9,8v2l4,1l3,3h3l3,3v1h2l4,4l-3,4v2
		l1,1h1l4-5h2l4,2l1,4l5,5v8l4,4h1l2-3l-2-4l-4-3v-2l2-2h6l3,3v3l1,2h5l3-4l0.9-0.4L696,967l-2-2h-2l-1-4l1-1h2l2-2l1-4l2-2l-8-8v-1
		l-2-2h-4l-1,1l-1-2h-3l-3-4l-4-1l-5-4h-2l-7-7l-4-1l-1-1h-2l1-4l-3-3l-8,1l-5-5h-5l-1-1h-2l-1-1v-2l-5-5l-5-1l-1-2l-4-1l-1-1h-6
		l-7-7l-2,2l-3,1H600z"/>
</g>
<g id="_x35_0" class="st0">
	<path class="st1" d="M672,797h-5l-4-4l-3-1l-2-2h-5l-1-1l-4-1l-2-2h-1h-1h-1h-1h-1h-1h-1h-1h-1h-1l3,3v1l-2,2v3l-3,3h-1l-4,5h-1v2
		l-4,3v2l-6,6h10l1-1h20l1,1h15l4,3h4l1,1l6-1l3-3v-1l-2-2h-1l-1-4l-4-4l-1-3l1-1L672,797z"/>
	<path class="st1" d="M600,825l-1,2l-4,3l-1,4l-3,3h-1l-1,4l-3,3v3l-1,2l-3,3v13l4,5v-14l2-2v-4l2-3v-2l3-2l1-2v-4l4-4v-4l5-4v-0.9
		L600,825z"/>
	<path class="st1" d="M586,886l4,5v10l-3,4v1l4,2h6l4,4v8l2,2l-2,3v7l1,2l7,7v5l1,1v2l2,1l3,4h2l3,2h9l3-2l4,1l3,3v3l2,2h1l3,4h5
		l1-1h2l2-2l4-1h-1l-1-1v-2l3-4l-4-4h-2v-1l-3-3h-3l-3-3l-4-1v-2l-9-8v-2l-4-5v-2l-4-3v-1l-2-2l-2-1v-1l-3-3l-2-1v-1l-2-2l-2-1v-2
		l-4-4v-1l-4-3l-1-4l-2-2h-6l-2-1l-2-2l-1-3l-2-2h-1V886z"/>
	<path class="st1" d="M682,977l2-2h4l-1-2v-3l-3-3h-6l-2,2v2l4,3l1.8,3.6L682,977z"/>
</g>
<g id="_x34_9" class="st0">
	<path class="st2" d="M634,784h-2l-2.7,2h2.7l-1,1v3l-1,1h-3l-1-1l2.6-3.4L628,787l-4,1l-4,5h-2l-2,2l-4,2l-4-2h-9l2,2v2l2,4l-1,3
		l-5,5l-4,1v1l-2,2h-7l-1,1h-2v2l-4,2v2l-4,2l-2,4h-2v2l-1,1v4l-3,4v6l-1,1v8l1,1v5h1l2,2v2l1,1v7l3,2v2l1,1v7l3,3l1,2v3l1,2h1l2,2
		v1l-4,4v2l-4,4l-2,4l-4,3l-2,4h4l9-9h4l4-4l1,0.6V905l3-4v-10l-4-5v-16l-4-5v-13l3-3l1-2v-3l3-3l1-4h1l3-3l1-4l4-3l1-2l7-2l3-3h3
		l2-1l9-9v-2l4-3v-2h1l4-5h1l3-3v-3l2-2v-1l-3-3h1L634,784z"/>
</g>
<g id="_x34_8" class="st0">
	<path class="st3" d="M597,793h-3l-4,4h-6l-3,3h-2l-1,1h-10l-3,6h-5l-4-2l-3-4h-7l-4,4l-1,2v9l-4,4l-2,4l2,2h2l2,2l1,12l-2,4v3l1,1
		v2l2,4l2,2l1,4h1l3,3v4l-4,3v9l-5,5v1l-8,7v1l2,2h1l3,4h2l3,2h4l2,3v2l2,1l3,4l4,1l6,6l2-4l4-3l2-4l4-4v-2l4-4v-1l-2-2h-1l-1-2v-3
		l-1-2l-3-3v-7l-1-1v-2l-3-2v-7l-1-1v-2l-2-2h-1v-5l-1-1v-8l1-1v-6l3-4v-4l1-1v-2h2l2-4l4-2v-2l4-2v-2h2l1-1h7l2-2v-1l4-1l5-5l1-3
		l-2-4v-2l-2-2L597,793z"/>
</g>
<g id="_x34_6" class="st0">
	<path class="st5" d="M682,562l6-1l2-7l4-2v-8l4-4v-5l2-3h2l2,2v7.2l1-1.2v-6l-2-3l-2-1l-4,3l-1,2v3l1,1h-1l-2,2l-1,2v2l-1,1v6h-1
		l-3,3v5l-7,2l-1,2L682,562z"/>
	<path class="st5" d="M725,573l2-2h4l1-2l3-3h1v-3l3-3h1l3-3l2,1v3l-2,2v1l3-4l1-4l-3-3h-1l-4,5h-1l-2,2l-1,4l-5,6h-3l-3,3H725z"/>
	<path class="st5" d="M674,637l-2,1l-1,2v1h5l2,1l8,8v-4l4-4h5l1,1v2l1,0.7l-1-5.7l-4-3H674z"/>
	<path class="st5" d="M705,656l4,3h5l4-3l4,3h5l2-1l1-2h5l3,3h2l3-3h5l7,8v4l-2,2h-1l-4,5l-2-1v-2l-1-1h-5v1l3,3h4l1,1l4,1l4,5h2
		l3,2h4l3-2h4l1-1l4,1v-2l-2-1h-10l-2-1l-2-2l-1-3l-2-1v-1l3-3v-2l-3-3v-5l4-3h5l-1-1h-4l-2-1l-3,2h-20l-1-1h-6l-1,1h-24l-0.5-0.5
		L705,656z"/>
	<path class="st5" d="M768,656h19l1,2l2,1h1l3-3h1l3,3h6l1-1v-4l2-2h5l4,4l1-1h14l1,1h4l1,1l2-2h5l1,1l2-1h4l7,8v8l4,5v3l1,1v5l3,3
		v10l-1,1v2l-4,4h1l1-1h51l4,3l1,2v3l-1,2l2,3l3,1l1,7l-1,1v3l-1,1v3l-2,2v2l-1,1v8l-1,1v6l-3,2v6l-1,1v4h-1l-2,2l-1,2v4l-3,2l-1,3
		l-4,4l-1,4l-3,2l-3,6l-2,1l-11-1l-4-4h-3l-2-1l-3-3l-6-1v-1l-2-2l-2-1h-7v-1l-2-2l-3-1l-4-4h-2l-2-4l-3-1v-1l-3-3h-1v-4l-1-2l-2-2
		h-1v3l-1,1v2l-3,3v1l-7,6h-3v1l-4,3h13l2,1v1l2,2l14,1v1l3,3h2v1l2,2l2,1h3l5,4h4l4,3h2l1,1h5l1,1h2l5,4l6-1l5,4h4l2-2v-3l-1-2h2
		l3-2l1-4l4-4v-3l4-4l1-3l3-3l1-2v-3l4-5l-1-9l5-4v-5l3-3v-1l5-4v-1l-4-4l3-1l2-4h2l3-4h9l3-3v-16l3-3v-4l-2-2h-2l-2,2v1h-1l-2-6
		l-4-3l-1-2l-2-1h-4v-6l3-2v-4l-1-2l-18-18h-1l-2-2h-2l-1-1v-2l-3-2h-14l-3,3v1h-12l-2-1l-1,1h-5l-2-2h-4l-2,2h-22l-2-2h-12l-2,2
		h-12l-3-3h-7l-4,3h-17l-2-2h-4l-4,3h-7L768,656z"/>
	<path class="st5" d="M757,801l-1,1l-4,1l-3-3v-2l-1-1h-6v1l-8,8h-1v1l-3,3h-5v1l-3,3l-4-2h-9l-3,2h-14l-1,1l1,1h-1l-1,0.8v0.2
		l-0.7,0.3L686,820l-1,5l3,3h8l1,1l1-1h7l1-1h3l4-3h8l1-1h3l4-3l4-1l2-3l5-1l3-4h2l3-4h3l2-1l2-2v-1l4-1l1-1H757z"/>
	<path class="st5" d="M645,697v-2l-4,4v3l-4,4v3l1,1h3l2-2l4-1v-1l3-3h9l1-1h2l5-5l-1-1h-5l-5,4h-4l-1-1h-2l-2-2l3-3v-3l-2-2v-2l1-1
		h5l1-1h3l2-1v-1l2-2h1v-2l2-4v-2l-1-1l1-2l2-1v-6h-1l-3,3v6l-3,2v1l-2,2l-2,1l-1,2l1,4l-7,1l-2,2v4l1,1l-2,3v2H645z"/>
	<path class="st5" d="M668,662v-3l3-3l2,2l3,1l3-3h10l1-1v-1l-2-2l1,2h-8l-1,1h-3l-1,1h-3l-2-1l-3,3l-1,2v3L668,662z"/>
</g>
<g id="_x34_5" class="st0">
	<path class="st6" d="M689,659l7-8h3l2,1l4,4l-1-3l-3-2l-1-3l-4-3v-2l-1-1h-5l-4,4v4l4,4v1l-1,1h-10l-3,3H689z"/>
	<path class="st6" d="M764,656l2,2h2l1,1h7l3,3l4,1l2,2v1l2,2h1l2,2v1l2,1l2,2v1l4,3l1,4l7,7l1,3l4,3v2l3,2l2,4l3,3l1,4l4,5v15l-1,1
		l1,1v-1l4-5v-4l1-2l5-4h1l2-3h3l5-4h4l5-4h7l4-4v-2l1-1v-10l-3-3v-5l-1-1v-3l-4-5v-8l-7-8h-4l-2,1l-1-1h-5l-2,2l-1-1h-4l-1-1h-14
		l-1,1l-4-4h-5l-2,2v4l-1,1h-6l-3-3h-1l-3,3h-1l-2-1l-1-2h-19l-1-1h-5l-1.3,1H764z"/>
	<path class="st6" d="M826,747v5l2,4l-1,2l-3,2v3l-4,4h-1l-4,5l-2,1h-9l-2-1l-2-2v-1h-2l-3-3v-3l2-2h1v-1l-6-6h-2l-3,4h-5l-2,1l-1,4
		l-3,3v2l-2,3h-5l-2,1v1l-2,2h-2l-1-1l-6,1l-2,2v6l-2,3v4l-2,3v2l-3,2h1l1,1v2l3,3l4-1l1-1h3l2-2l3-1l4-4l8-1l7-7l3-1l2-2v-1l6-1
		l4-4h12l4-3v-1h3l7-6v-1l3-3v-2l1-1v-4l-1-1v-7l-2-3l-2-1L826,747z"/>
</g>
<g id="_x34_4" class="st0">
	<path class="st8" d="M665,694v-2l2-2l3,2h6l6-6h10l4-2h5l2-4l2-2h3l2,1v-2l1-1h4l1,1h7v-1l3-3h5l3,2h2l3-2l4,2l-3-3v-1h5l1,1v2l2,1
		l4-5h1l2-2v-4l-7-8h-5l-3,3h-2l-3-3h-5l-1,2l-2,1h-5l-4-3l-4,3h-5l-2-1l-6-6l-2-1h-3l-7,8h-15l-2,1l-4,4l-1,5l-2,1l-1,2l1,1v2l-2,4
		v2h-1l-2,2v1l-2,1h-3l-1,1h-5l-1,1v2l2,2v3l-3,3l2,2h2l1,1h4l5-4h5l1,1L665,694z"/>
	<path class="st8" d="M774,682h2l2,2v5l4,1l3,4l6,1l2,2v1l4,3v2l3,3l1,4l4,3v16l1,1v2h1l3,3l-1,4l1,1l1,4l-2,4l3,4l-2,2l-1,2v3l-2,2
		h-3l-3-2h-2l-4-2l3,3v1h-1l-2,2v3l3,3h2v1l2,2l2,1h9l2-1l4-5h1l4-4v-3l3-2l1-2l-2-4v-5l-2-3v-12l-1-1l1-1v-15l-4-5l-1-4l-3-3l-2-4
		l-3-2v-2l-4-3l-1-3l-7-7l-1-4l-4-3v-1l-2-2l-2-1v-1l-2-2h-1l-2-2v-1l-2-2l-4-1l-3-3h-7l-1-1h-2l-2-2h-4l-2,2v5l3,3v2l-3,3v1l2,1
		l1,3l4,3h10l2,1v2l-4-1L774,682z"/>
</g>
<g id="_x34_2" class="st0">
	<path class="st1" d="M750,372l-2,1l-4-3h-2l-1,1h-4l-2-2l-2,2v2l-1,1h-3l-2-1v-2l-2-2h-3h-1h-1l-2,1l-1-1l1-2l-3-4l-4-1l-3-3l-5-1
		l-2-2l-4-1l-3-3v-2l-2-3v-8l-2-3l-1-4l-2-2v-1l-2-2h-1l-9-9v-1l-4-4v-4l-5-5l-2-1h-6l-2-2v-1l-4-3h-5l-1-1v-2l-2-2h-4l-1-1h-4l-1-1
		h-5l3,2h7l-2,2v2h-12v-1l-2-2h-3v-2l-1-1v-6l1-1h-3l-1,1l-1-1h-4l-2-2v-3l3-2v-6l4-3v-3l1-2l2-2h1l1-6l-1,1h-4l-4-3h-1l-3,4v2l-4,3
		v2l-3,3v1l-5,4l3,3v2l2,4l4,4v5l-4,3v1l2,2h1v1l4,4h2l1,1h5v2l-2,1v2l2,2l2-2v-1h2l1,3l5,5h2l1,1v5l-7,7v5l3,3l6,1v1l2,2l1,5l3,3h2
		l1,1l4,1l2,3v2l-4,5v3l-4,2v4l1,2l4,3h8l2-2v-1h3v9l4,3h4l3-4h2l2-2v-2l3-3l2-4l2-2v-2l2-1l2,3h2v4l1,1l-1,2l-7,7v4l-4,4l4,4h4l3-3
		v-3l3-3l1-4h2l2-2v-2l1-1h3l4,2l4,6h2l1,1h6l1,1v2l-2,2l-1,4l3,3v2h-1l-3,3v2l4,6v2l3,3h2l3-3v-6l3-3l-1-2l-2-1v-6h1l1,2v4l1,1h2
		l2-2l1-5h2l2-2l1-4l3,2h7l3-4v1l3,3h2l3-3v-1h2l1-1l7-1l1,1h4l2-3v-2l-4-5l-1-3l-3-2h-3l-3,4l-2,1h-3l-2-2L750,372z"/>
	<path class="st1" d="M625,250l1-4l7-7l4,3l-5-4h-7l-4,5h-1l-2,2v5l3,4L625,250z"/>
	<path class="st1" d="M634,229v-9l4-4h1l-1-1v-3l-5-4v1l-7,7v1l3,6v3l2,2h2l1,3l4,3L634,229z"/>
	<path class="st1" d="M633,202l2-3l-2,1v1l-4-2l-4,1l-3,3v1l5,3l6-1V202z"/>
</g>
<g id="_x34_1" class="st0">
	<path class="st2" d="M941,130h-1l-3,4l-2,1l-1,2v3l-9,7v6l-2,2l4,1l2,4h6l4-5v-17l3-4v-3l1-1v-2L941,130z"/>
	<path class="st2" d="M874,176h-2l-1,1h-8l-3,4l-4,1l-4,4h-3l-2,3l-6,1l-2,4h-3l-2,2l-1,3h4l4,4h5l2,2h3l2,1l-2-2v-1h1l6-6v-2l2-1
		l3-4h1l2-2l1-3h1l2-2l1-3l5-5L874,176z"/>
	<path class="st2" d="M628,280h-1l1-1v-5l2-3h7h2l1-1v-3l4-1l1-1v-2l4-4v-1l4-2v-2l4-3v-1l2-2l1.8,1.8l0.2-1.8l1-2l2-1l3-4v-12l-2-3
		v-3l2-3v-8l-2-3v-4l-1-1l1-3l2-2l-3-4v-2l1-1v-7l-1-2l-7-7l-2-4v-2l-1-1v-4l-2-3v-2l-5-4v-4l5-4l3-6l4-1l2-2v-2l2-2h4l4-3l2,1h5
		l1-1h7l1-1h5l3-2h4l5,4h6v-2l-4-3v-4l3-2h2v-1l2-2h1l3,3l1,2v-11l-3-3h-2l-3-3h-1l-4,4h-4l-2,2v1l4,4l-1,1v3l-1,1l-1-3l-4-3v-2
		l-8-8l-3,3h-2l-3,3v6l-4,5h-1v-4l-1-2l-2-2h-5l-1-2V82l-1-1v-2l1-1h5l3-3v-1l-3-3l-2,2h-10l-3,2v3l1,2l-5,3v10l4,3v1l-4,3v2l2,1
		l1,2l-4,5v3l-1,2l-3,3v4l3,3v3h-4l-3,3v1l-2,1h-4l-4,3v1l-2,1v2l-1,1v11l3,3v3l-6,1l-1-1h-2l-2,2v1l2,2h1l1,3l2,2h4l1-1l1,2h1l-2,2
		h-5l-2,2v5l-4,3v1l3,4v3l3,3l2,4l5,3l-2,3v6l5,4v3l1,1h-1l-4,4v9l4,5v6l1,1l-2,1l-4-3l-7,7l-1,4l-4,4l-1,6h-1l-2,2l-1,2v3l-4,3v6
		l-3,2v3l2,2h4l1,1l1-1h6l1-1v2L628,280z M625,281v-1h1L625,281z"/>
</g>
<g id="_x34_0" class="st0">
	<path class="st3" d="M785,104h2l2-2v-2l4-3v-1l2-1h3l4-3h7l5-4h2l1,4l3,3l4,2h2l2-2v-3l3-3v-5l-7-7l-1-3v7l-2,2h-9l-1,1h-2l-2,2
		l-4-5v-2l4-4h1l2-2h2l1-3l-1-1h-2l-4,4h-3l-2,2v1l-2,1l-11,11v1l-4,3v1l-2,2h-3l-1,1l-3-1l-2-2v-5l-6-6h-3l-1,1v6l-2,2l1,1v5h-2
		l-3,3v6l3,3h20L785,104z"/>
	<path class="st3" d="M732,86h-2l-4,2l-2,2v3l6,5l4-2h2l3-3v-1l-4-4L732,86z"/>
	<path class="st3" d="M700,82l-2-2.7V81l-6,1l-1,2l2,2l5,1l3,3h2l1,1h2l1-1h4l2-2l-1-1h-3l-1-1h-3l-2-1v-1l2-2H700z"/>
	<path class="st3" d="M974,103h-2l-4-3l-4-1l-3-2h-4l-2-2l-1-4l-4-6v-7l-2-2l-1,1v8l-3,3h-5l-3-3v4l3,4l-1,1v2l-3,4v1v4l-6,6l-3,1
		l-6,6l-2,4l1,2l3,2v1l-2,1l-2,3l2,3v10l-2,2h-1l-3,4h4l1,1v2l2,2h2l2-2v-6l9-7v-3l1-2l2-1l3-4h1l2-2v-5l4-3l1-5l3-2h5l2-1l2-3h6
		l2-1l1-1v-5l2,3h6L974,103z"/>
	<path class="st3" d="M902,159l-1-1l-4,2l-3,3l1,1v1l2,2l9,1l2-2v-2l-4-3h-2v-1l3-1H902z"/>
	<path class="st3" d="M879,151l-4-1l-8-9h-4l-2,1v1l-3,3h-1l-1,2v4l1,1l1,4l-4,4v4l-4,4h-4l-3-2h-2l-3,4h-2l-3-2l-3,2h-7l-3,2l2,3v7
		l4,5v2l1,1v5l4,1l2,2l1-3l2-2h3l2-4l6-1l2-3h3l4-4l4-1l3-4h8l1-1h2l2-1l6-6l4-1l2-4l-4-4v-3l1,1h1L879,151z"/>
	<path class="st3" d="M712,135v1l4,3v-1l5-1l2-2l-1-1v-4l-3-3h-1v-3l-1-2l-3-3h-1l-2,2v1h-2l-3,2v4l4,3v2L712,135z"/>
	<path class="st3" d="M749,141l5,4l3,1l3,4h19l5,4h11l1-1h2l5-5l-2-2v-3l2-2l3-1l3-4v-2l2-3l-1-2v-3l2-2h1l-2-1v-1l3-3l2-5l3-3v-8
		l1-1l-2-4v-2l-2-2l-3,3v3l1,1h-1l-5,5h-2l-2,2l-1,3l-2-1v-1l-2-2l-3,3v4h-2l-4,5h-1l-2,2l-1,3l-7,7l2,2h1v2h-2l-1-2h-1l-5-5h-5
		l-1,1h-2l-1-2h-1l-4-4h-3l-2-1l-1-2h-1l-2,2v4l-1,1l-1,4h-2l-1-2l-2-1l-4,3v4l2,2l7,1v3H749z"/>
</g>
<g id="_x33_9" class="st0">
	<path class="st4" d="M821,25l3,8h1l6,7v2l-4,3v5l-3,3h-1v1l-2,2h-1l-7,7v1l-2,1l-1,2l-2,2h-1l-2,2v1l-2,1h3l4-4h2l1,1l-1,3h-2l-2,2
		h-1l-4,4v2l4,5l2-2h2l1-1h9l2-2v-7l-3-2v-3h1l1-2l2-1h2l2-2v-3h1l3-3h3l5-5l1-3l4-3l1-10l-1-1v-3l-5-5l1-1h9l4-3l-2-2v-3l2-3v-4
		l-1-1l-2-1h-15l-3,2l-1-2l-2-1h-3l-4,4l-1,5l-1,1v5h-1L821,25z"/>
	<path class="st4" d="M903,66l1-4l4-1l3-3h8l5,5h1l1,5l1,1v3l2,4l3,3l3,1l1,5l3,3h5l3-3v-8l1-1l-1-1l-3-8l-9-9v-4l-3-6h-1l-3-3v-1
		h-1l-3-3v-1h-1l-3-3v-5l-2-1l-2-2v-1l-4-3v-1l-1,1h-2l-1-4l-3-4v-4l-1-2l-2-2h-4l-2,1l-3,4v3l-7,7l-1,4l-3,4l-2,5l-3,2l-1,3l-3,3
		l-1,2v3l-4,3l-1,3h-5l-2,2l3,3v2h-1l-3,3v5l-2,1l-3,4h-1l-2,2v4l2,2h3l-2,2v2l4-3l2,0.3l-2-1.3l3-3h2l3-2h2l1,1h2h9l2-2v-2l2-2h2
		l3-3h6l2-2h-1v-2l1-1l2,1h2l-3,2h4l2.7-2H902L903,66z"/>
</g>
<g id="_x33_7" class="st0">
	<path class="st6" d="M12,550h7l1-1h3l4-3h3l3,2l-2-4l1-1h2l2-2l1-3h2l3-3l-2-3l-2-1H23l-3-3h-8l-3,4v16l1,1v3L12,550z"/>
	<path class="st6" d="M85,545l1-1h2l1-1h1l1-1v-7l-2-2h-3l-2,2l2,4v3l1,1h-3l-3,3L85,545z"/>
	<path class="st6" d="M117,590v2l1,1v6l-2,3v10l-2,4v4l-2,2v8h2v-2l2-4l2-2l5-1l3,4v3l-1,1v3l-3,4v3h4l1-1v-3l1-2l5-4h1h1l-1-1h-2
		l-3-3v-1l10-10l2-4l2-1l1-4l4-4l4,5v-1l-1-1v-2l-4-3l-3-2v-6l1-1v-9l3-3v-12l1-1l1-4l2-2v-7l1-1v-12l3-3l1-4l5-5h3l1-6l3-2h2l4,3
		l3,1l-2-1l-4-4v-1l-2-2h-1v-6l-1-1v-3l-3-3l-2-9l-2-2v-2l-1-1v-4l-4-4v1l-4,3l-1-1h-3v5l1,1v2l2,2h1l1,7l4,5v7l4,5v2l-1,2l-2,1v4
		l-1,1h-2l-3-3l-7,7h-2l-1,1l-4,1l-1,2l-2,1l-2-1l-1-2h-6l-2,2v1h-8l-1,1h-2l-2,2l-1,6l2,3l-3,4v5l-3,3v1l4,3v12l4,3v8l-2-1L117,590
		z"/>
</g>
<g id="_x33_6" class="st0">
	<path class="st7" d="M34,640h4v2l-1,1l7,7l1,4l3,3v6l2,1l4,5h5l3,3l3,1l4,4l3,1l1,1l-1-3l2-1l4-4v-1l-4-3h-1l2-2h-4l-4-4h-5l-2-1
		l-2-2v-4l-2-4v-4l-4-4v1l-4-1l-5-4h-4v-2l-1-1h-4l-3,2v2l2,2L34,640z"/>
	<path class="st7" d="M109,633v9l-1,1v4l4,3l2,4l2-2h7l4-3h1v-3l4-4l4-1l4,3l4,1l1,1v4l3-3v-4l4-5v-2l2-4l2-1l1-2l-1,1h-5l-1-1l4-5
		l-2-2v-16l-4-5l-4,4l-1,4l-2,1l-2,4l-10,10v1l3,3h2l1,1h-1h-1l-5,4l-1,2v3l-1,1h-4v-3l3-4v-3l1-1v-3l-3-4l-5,1l-2,2l-2,4v2h-2
		L109,633z M138,629h1h1h1h1h1h1h1h1l-1,4h-3l-5-4H138z"/>
	<path class="st7" d="M157,618l2-2v-1l2-1l1-2v-2l-2-3.5v1.5l-6,3v9l3,4V618z"/>
	<path class="st7" d="M158,594v-2l-1-1v-5l4-8v-2l4-3v-3l1-2l2-2h1v-3l1-1v-6l4-4v-2l4-2l-4-3v-4l-1-1v-2l-2-1v-1l-6-8v-1h-3l-5,5
		l-1,4l-3,3v12l-1,1v7l-2,2l-1,4l-1,1v12l-3,3v9l-1,1v6l3,2h3l2,2l5-1l3-2l3.4,0.5L158,594z"/>
	<path class="st7" d="M103,686h4l2,2l7-6h-1l-1,1l-2-3h-2l-1-1v-4l-4-2l-2,3l2,4v4l-3,2v1l-2,2l-0.3,1.1L103,686z"/>
	<path class="st7" d="M138,675l-1-1v-3l3-4v-3l5-5l-2,1l-3,3l-4,1l-4,4l-1,3h-2l-1,1h-5l-1-1h-5l-3,4v1l3,3l6-2l3,2h6l1.7,0.9
		L138,675z"/>
</g>
<g id="_x33_5" class="st0">
	<path class="st1" d="M169,599l2-4l4-4v-2l3-4v-2l1-1l-1-4l-2-2l-1-3l2-2h6l5-4l2-1h3l1-1l-5-1l-6-7l-1-2v-3l-3-1l-1-1v-2l-4,2v2
		l-4,4v6l-1,1v3h-1l-2,2l-1,2v3l-4,3v2l-4,8v5l1,1v2l6,5l-4,2L169,599z M167,599l2-2v2H167z"/>
	<path class="st1" d="M137,677h6l2-1l4-4l7-3l1-2l6-5l3-6v-3l1-1h1l1-1h-1v-1l1-2l2-1v-2l-2-2v-23l-1-1v-4l2-1h-5l-3-3v1l-1,2l-2,1
		v1l-2,2v11l-1,2l-2,1l-2,4v2l-4,5v4l-3,3l4,3v2l-3,4h-1l-5,5v3l-3,4v3l1,1l-7,8L137,677z"/>
</g>
<g id="_x33_3" class="st0">
	<path class="st3" d="M465,309h-29l-2-2v-1l-5-4v-1h-1l-3,3h-6l-2-2v-1h-3l1,1v5l-2,2h-12.8l0.8,1l2,1v1l2,2v4l4-4h3l3-3h9l4,3h2
		l3-3l5,5h4l7,6l8,1l1,1h4l2-2h1l1-2l4-2h5v-1l-3-3h-1l-1-7l-1-2L465,309z"/>
	<path class="st3" d="M331,410v-5l2-2v-1l2-1h-9l-4-2h-5l-4-3h-3l-2,1l-1,2h-3l-5-4v-1l-2-2h-9l-1-2v-4l1-2l4-3v-1l4-4v-3l1-2l7-7
		l1-4l4-4l2-4h1l2-2l1-2l6-1l5-5v-3l2-4l-2-4v1l-3,3h-1v1l-3,3l-4,1l-3,3l-4,1v1l-3,2h-2l-1,1h-6v1l-3,3h-1l-3,3l-4,2l-1,2l-2,2h-1
		l-1,2l-9,8l-1,3l-3,3l-5-4l1,1v3l1,1v4l-2,4h-2l-2,2v2l-1,1l-11-1v-2l2,2h1h1l1-1l0.9-3.5L250,388h-2l-2-2h-11l-2-2v-1l-3,3l-4-2
		h-3l-3,2h-4l2,2v3l-2,2h-4l-4-5h-6l-3,2h-9l-4-2l-3-4h-6l-2,2v2l-2,3v3l2,3v2l-1.7,1.7l2.7-0.7l1-1v-3l2,2h3l1,1l-1,4l-2,2h-2l-1,1
		l-4,1l-4,4h-6l-1-1h-2l-4,4h-4l-4-3h-4l-2,2v1h-1l-2,2h-3l-3-3h-4l-2,4h-4l-1,1l-2-2h1h1l2-2h-11l-5-4h-2l-3-3v-1h-1l-5-5l-4-2h-1
		l-4,4l-4-4v-4l-2-3v-2l-7-6l-4,2v9l-2,2h-3l-2-1l-12-12h-3l-3,6v5l5,5l3,1l4,4l4,1l1,2l8,8h5l2,2h3l3,2h8l3,2h6l3,4h7l7,7v-2l2,2h2
		h1h1l2-1l3,4h1l2,2v5l-1,1l-1,6l2,4l-1,2v6l1,1v2l2,2h6v2l1,1l3,1v6l1,1v2l3,3h3l1,1l4-3v-8l-1-1v-2l-2-2h-1v-3l-1-2l5-5h4l2-1l2-3
		h6l5-4h3l2-1l3-3h2l1-1h4l5-4h3l2-1l2-2v-1l8-1l3-2v-1h7l1-1h9l7-8h3l4-4h4l1-1h16l4-3l5-1l6-5l1-2h1l2-2h4l1,1h21l2,3l2,1h17l4,3
		L331,410z M111,416h-1v-2l2,2H111z"/>
	<path class="st3" d="M126,465l-2-1l-6-6l-5-2l-1-1.3v0.3h-4l-3-2l-1-2h-4l-1-1h-2v-2l-1-1l-2-1h-4l-1-1h-4l-2,2l-1,3l-2,1h-6l-3,3
		v7l2,2h2v3l1,1l-1,1v3l-6,2l-3,3l-1,4l-3,4v2l-2,4l-2,2v1l3,3l10,1l1-1h2l5-4h4l2-1l3-3l7-1l1-1l4,2h2l2-1l5-5v-2l3-1l5-4h5l3-3v-5
		l3-4L126,465z"/>
	<path class="st3" d="M362,342l3-2v-2l3-3h1l2-3l2-1h6l3-3l-2,1h-2l-2-2h-3l-2-4l-5-1l-1-2l-5-5l-7-2l-3-4l-2-1l2,2v3l-8,9h-3l1,2
		l4,3v1l2,2l4,1l11,11v2L362,342z"/>
	<path class="st3" d="M355,309l3,1l1,2l2,1l4,1l2,3l2,1h6l2-1l4-5v-2l1-1H355z"/>
</g>
<g id="_x33_2" class="st0">
	<path class="st4" d="M592,76l-0.2-0.7L591,77h-1l-4,4v1l-2,1v7l1,1h6l6-7l-4-4v-2h1.7L592,76z"/>
	<path class="st4" d="M533,214v2l-2,2h-1l-1,2l-2,2h-1l-4,5h-4l-2-2v-7l2-2v-2l-4-4h-4l-4-3h-3l-2,2l1,10l1,1h2v2l1,1v4l2,2h2l-1,1
		v4l1,1v9l-2,4l-7,4h-2l-5,4l-1,4l1,2l4,5h1l3,3l2,1h3l2,2h1l2-2l3-1l2-3h2l2,3h2l2-2v-1l2-1h4l4-4l2,4h2l4,5h1v4l1,2l3,2l4-5v-5
		l2,2h4l2-2v-7l-3-3h-1v-3l4,4h1l3-3v-2l4-3l1-4l2-2l-2-2l-1-3l-4-4v-2l-4-2v-2l-2-2h-2v-3l-1-2l2-1l1,1h3v2l2,2h2l4,4l3-2l1-6l-2-3
		l-4-1h1h1h1l2-1l3-3l-1-2l-4-4h-1l-2-2h-3l-3-3l-3,2v1l2,2h1l1,4l3,2v2l-1-1l-4-1l-3,2h-3l-2,2l-3-2h-7l-3-2h-4v-4L533,214z"/>
	<path class="st4" d="M484,261l-5-3h-4l-1-1v-2l-1-1v-5l-2-1l-4-5h-4l-2,1v1l-3,3h-1v1l-3,3l-2,1v3l3,3l1,4l5,4l2,4l-0.5,1h0.5v2
		l8,9l7,1l2,2h4l2-2l4-1l2-2v-1l2-1h3l3-3v-1l-6-7l-3-1v-1l-2-2l-4-2l1-2v-1L484,261z"/>
	<path class="st4" d="M445,284h-1l-1,1h-6l-1-1h-3v-3l-1-1h1l-4-4v-4l-5-5v-5l-2-3l-1-4l-6-6l-2-1h-2l-3-2h-14l-3,2h-14l-2-1l-1-1
		v-2l1-1v-13l2-3l4-2l-1-1h-3l-3,3h-1l-1,2v8l-5,4h-8l-5-4h-3l-3-3v-1l-3-1l-3-3l-3-1l-4-4l-4,4l-9,1v1l-2,2l-4,1l-2,2h-1l-4,5l-4,1
		l-4,4h-3l-2,1v1l-2,2h-1l-4,5h-7l-1-1l-3,1v3l-1,1h3l4-2l3,4h4l2-1l5,5l1,4l1,1l4,1l5,5v5l-4,4l1,1v4h-3l-1,1v6l1,2l7,7l4,2l2,2h2
		v2l-2-1h-3l-5-4h-11l-4-2l-3-3h-2h-1h-1h-1l-1,1v7l-2,4v6l2,3v4l1,1h3v1l3,3h1l-1,2l-5,4l-5,1l-1,1l-1,4l1,1v5l-4,3l-2-1l-1-2l1-3
		l2-2l-1-2l-4-2h-2v-3l-2-2l-4,2v6l-4,5l2,3h2l2,4h1l2,2l-1,1l-1,4l-4,5v6l5,4l3-3l1-3l9-8l1-2h1l2-2l1-2l4-2l3-3h1l3-3v-1h6l1-1h2
		l3-2v-1l4-1l3-3l4-1l3-3v-1h1l3-3v-1l4-4l1-3l3-3l2,1h6l8-9v-3l-2-2l-1-3h5l3,4h29l5-4h4l1-1l4,2l2,3h13l2-2v-5l-1-1h3v1l2,2h6l3-3
		h1v1l5,4v1l2,2h29l4-4l-4-4l2-4v-4l-3-4l-2-1l3-4l-2-2l-4,1l-3,2h-7l-1-1h-2H445z"/>
	<path class="st4" d="M212,389l-2-1h-2l4,5h4l2-2v-3l-2-2L212,389z"/>
	<path class="st4" d="M410,89h3l3,4h4l6,3v5l2-4v-5l-1-1v-3l-2-2h-9l-4-4h-1l-2,2l-0.7,6.7L410,89z"/>
	<path class="st4" d="M434,102l2-1h6l4,5h6l1,1l1,3h1l3,3v5h2l2-2h5l2,2h3l5,4h1l3,4l2,1h3l5,4h5l2,1l2,3l4,1l3,3l5,1l3,3h1l8,9
		l-3,3h2l1,1h12l5,4h3v2h-5l-2,2v2l1,1l4,1l1,1v2l2,2h3l1,1v3l1,1h2h1l1-1h7l4-2l4,3v2v1l-1-1h-2l3,2l2,2h2l3-2v-3l1-1l-1-1v-3l-4-4
		h-6l-1,1l-4-4h-1l-4,3l-4-3l-1-2h-1l2-2h2l1,1l20,1l1-1h2l3-3v-4l1-1v-10l-1-2l1-1h2l2-2v-3h1l2-2v-4l-4-5v-5l-8-7l-4-1l-1-2v-3
		l-2-2l-6,3l-3,3v1h-2l-3-3l-6-2l-2-2h-4l-4-4h-5l-3-4l-2-1h-3l-3,3h-4l-1-2h-2l-3,4h-4l-4-4h-2l-1,2h-12l-3-3l-4,1l-4-5l-4,5h-4
		l-1-1l-1,1h-4l-2,2l2,2h1v4l-2-1v-2l-2-1l-6-6v-1l-3-3h-1l-3-3h-5l-1,2l-5,2l-1,1l-1,4h-1l-1,2l-2,1v1L434,102z"/>
	<path class="st4" d="M407,28l1,3l-4-2h-2l-1-1v-2l-2-2l-1,1h-2l-1,1v2h-6l1-1v-2l-1,1h-2l-1,1l-4-1l4,3h1l-1,1v5l1,1v2l6,7h4l1,1
		h12l2,1l3-3v-6l1-1L407,28z"/>
	<path class="st4" d="M446,46l4-5l-2-4l-2-2l-4-2l2-2l1-3l-1-1l-1-5l-6-6v2l-2-2h-2l-2,2l1,7h-1l-2,2v1l-4,5v7l-1,1v2l1,1v5l3,4l6,1
		v1l2,2h2l3-4v-4h3l2-2l1,1h1L446,46z"/>
</g>
<g id="_x33_1" class="st0">
	<path class="st5" d="M320,68l2,3v4l2,3v6l2,4l2-4l-1-10l-1-1h-2l-1-2l2-2h6l4,4v1l4,2h2l2,2v2l4,2v2l6,1l2,2v1l3,1l3,4h2l4,4l3,1
		l2,2v1h8l2,1l4,4h3l3,3l4,1l3,4h3l2,1l2,2v1h6l1,1h2l3,3l2,1h4l5,4h8l4,4l4,1l3,3h8l1,1h2l3,3l2,1h3l4,4h2l2,2v1l1-1h2l1,1h11l1,1
		h4l4,3l16,1v1l2,2h4l3-3l-8-9h-1l-3-3l-5-1l-3-3l-4-1l-2-3l-2-1h-5l-5-4h-3l-2-1l-3-4h-1l-5-4h-3l-2-2h-5l-2,2h-2v-5l-3-3h-1l-1-3
		l-1-1h-6l-4-5h-6l-2,1l-4,4l-1,2v3l-3,3h-2v-1l-3-3h-1v-1l4-4l2-4v-5l-6-3h-4l-3-4h-3l-2,2v3l4,3v1l-2-1h-3v-1l-3-3l-3-1l-6-6h-1
		l-4,3h-7l-5,5h-1l-2-2l-1-2h-1l-4,3v-1l-3-3l-3-1l-3-3v-2l2-4l-2-3v-2l-4-3v-1l-2-2l-2-1l-1-2l1-9l3-4l1-8h1l2-2l-1-3l-2-2l-4,2
		l-3,3l-1,5l-3,2v1l-6,6l-1-1h-2l-1-1v-5l-4-5l-1-7l-4-4v-3l-4-4v-3l-4-5v-4l-3-4h-4l-2,2v8l3,4v2l1,1v6l2,4v7l1,1v3l2,2v3l1,1l1,4
		l3,4v3l-1,2l-3-3L320,68z"/>
	<path class="st5" d="M370,231h-2l-3-4v-9l-3-3l-1-7l-1-1h-3l-2-1l-2-2v-1l-3-1l-2-2v-1l-6-1l-4-3h-2l-1-1h-10l-3-4l-4-2v1l1,1l-1,2
		v7l-2,3v6l1,1v3l-4,4v4l-2,2l-1,5l-2,4h-1l-2,2h-5l-3,2h-2l-4-2l-3,3v-2.6l-2,1.6l-5,1l-2,2l-4,1l-3,2h-5l-3-2h-6l-4,3l-4,2h-2
		l-3,2h-3l-6-3l-3-4h-2l-2-2v-4l-17-17h-4l-3-2h-11l-5-4l-1-3l-2-2h-6l-3-2h-4l-2-2h-4l-2,2l-2,4h-3l-3-2h-3l-8-8h-12l-1,2l-4,3v2
		l2,2h1l3,4l4,1l6,6l1,2l2,1l4-3l1,1h4l3,2l4-2h2l3,2h8l2,1l5,6v8l2,2l-6,3l-1,4l-3,3l-1,5l-2,2v5l-2,3v7l-2,2v4l2,3v3l1,2l5,5h5
		l4-4l-4-4v-9l-2-2v-7l1-1h3l2,2l5-5v-1l4-3l4,4v1l4,2l4-2l2,1h3l3-4h3l2,2h4l4,4l6-1l1-1h5l2,1l4-3h3l3,2h4l3-2h3l3,2h9l2-2h1l1-1
		v-3l3-1l1,1h7l4-5h1l2-2v-1l2-1h3l4-4l4-1l4-5h1l2-2l4-1l2-2v-1l9-1l4-4l4,4l3,1l3,3l3,1v1l3,3h3l5,4h8l5-4v-8l1-2L370,231z"/>
</g>
<g id="_x33_0" class="st0">
	<path class="st6" d="M384,227l2,2l4,2l4-2l2,1h4l2-4l2-2h4v-1l8-7l2-4v-4l-2-3h-2l-2-2l-3,2h-6l-3,4l-4,2h-2l-1-1v-5l1-1v-3l1-2
		l-2-2l-1-4l-4-1l-2-2h-5l-4-2l-3-4h-3l-2,4l-2-2l2-4l-4-2v3l-4,3h-19l-1-1h-4l-4-3l-5-1l-2-2h-3l-1,1l-4,1l-3-4h-1l1,1v2l2,2h1v6
		l4,2l3,4h10l1,1h2l4,3l6,1v1l2,2l3,1v1l2,2l2,1h3l1,1l1,7l3,3v9l3,4h2l3-4h1l3-3h3l1,1l-4,2H384z"/>
	<path class="st6" d="M327,89v4l1,1l1,5l4,5v3l2,3v3l1-1h4l1,1v1l1-1h2l1,1v2l2,2h8l2-4h5l-1,1v3l2-2h3l3,2l-4-4h1h1l1-1h6l1,1h2v2
		l2,2h3h1h1h1l1-1l1,1v3l1,1h2l6,6l2,1h6l3,4l4,1l3,3l5,1l3,3h3l2,1l3,3l1,4l1,1h2l4,3l4,1l4,3l4,1l4,2l2,2l6,2l3,3h3l4,3l4,1l6,4h2
		l5,3h8l2,3v2h1l4,4v2l5,4h5l2-2v-6l-4-3v-4l-2,3l-1-1v-4l-1-2l-3-2v-5l2-2l-3-3l-4-1l-5-4h-7l-5-4l-4-1v-2l-4-2v-2l-2-2h-2l-4-4h-3
		l-2-1l-3-3h-2l-1-1h-8l-3-3l-4-1l-4-4h-8l-5-4h-4l-2-1l-3-3h-2l-1-1h-6v-1l-2-2l-2-1h-3l-3-4l-4-1l-3-3h-3l-4-4l-2-1h-8v-1l-2-2
		l-3-1l-4-4h-2l-3-4l-3-1v-1l-2-2l-6-1v-2l-4-2v-2l-2-2h-2l-4-2v-1l-4-4h-6l-2,2l1,2h2l1,1l1,10l-2,4L327,89z"/>
	<path class="st6" d="M516,218l2-2v-2l-4-4h-4l-4-3h-3l-2,2l1,10l1,1h2l2,4v2l1,1h2l4-5v-1h1l1,4V218z"/>
</g>
<g id="_x32_9" class="st0">
	<path class="st8" d="M341,117l-2,1l-4-4v1l3,3h-1h-1h-1h-1l-3,3v1l-2,1l-2,4v7l-1,1l-13,1l-5,4h-1l-4,4v5l4,3v1h-3v-1l-2-2h-2l-3,2
		h-3l-2,2v2l-2,2v5l2,2l2,2v-1l-1-1h1h1h1h1h1l1-1v-4l1-1v-4l2-1v8l-1,1v3l3,3h2h1h1l1-1v-13l1,1l2,9l-3,4l1,1v5h-1l3,3v-1h3l3,4
		l4-1l1-1h3l2,2l5,1l4,3h4l1,1h19l4-3v-3l4,2l-8-8l1-2l4-1l1-1v-2l2-3v-5l-2-2v-2l-2-2h-2l-6-6l-2-1l-1-2v-3l-2-3l2-3l-1-4l-3-3v-1
		h-1l-2-2l-1-2v-2l-1,1l-2-1v-3l-1-1h-2L341,117z"/>
</g>
<g id="_x32_7" class="st0">
	<path class="st1" d="M192,567h3l2,2v4l1,2h1l3,3v1h1l4,4h1l4,5l3-2h5l1,1l5,1l2,4h1l2,2v19l2,3v4l2,3v2l-1,1h-5l-2,1l-1,2l1,1v11
		l-3,3h-1l-1,2v7l1,2l3,2v4l-2,2h1l1,2h3l3,4h2l2,2h1h1l2-2v-2h2v5h-1l4,5h3l2-2l16,17h2l1-4l2-2h1l2-5l2-2l2-1h10l2-2l-2-4l-2-1
		l6-7l2-7l3-2v-8l1-1v-3l1-2l2-1v-21h-1l-2-2v-14l-1-1v-31l1-1v-8l3-3v-4h-1l-2-2v-2l-1-1v-7l-4-4v-5l-4-5l-1-5l-4-3v-1l-3-3l-1-4
		l-2-1l-2-3v-18l2-2h1l3-4h-1l-6,4l-4,1l-4,3l-3-4l-3-1l-3-3h-1v-1l-2-2h-2l-1,1v5l-2,2l-2-1v-1l-2-2h-1l-3,4h-1l-2,2v2l1,1h10l2,2
		v4l-2,1l-4-1l-1,1h-3l-5,4h-6l-2,1l-2-2h-1l1-4l-2-2h-1l-3,4h-6l-1,1v2l2,2h1v2h-2l-2-3h-2l-1,1l-1,2v4h-6l-1,1l-4,1l-1,2l-6,1
		l-1,1h-9l-1,2l-2,1l-3-1l-4-3l-4,1l-2,4v4l6,8v1l2,1v2l1,1v4l4,3v2l1,1l3,1v3l1,2l6,7l5,1l-1,1h-2L192,567z"/>
	<path class="st1" d="M149,777h-2l-3-3v-1l-1,1l-1,2v5l-3,3h-1v1l-14,14v3l-4,3l-4,1v1l-5,5v1l-2,1l-1,2l-2,2h-1l-2,2v1l-2,1l-2,2v1
		l-4,3v6l2,1l4-2v-5l1-1l4-1l7-8l2-1h3l2-4l2-1v-1l4-4h1v-2l2-2l8-4v-1l4-3v-6l2-2h3l2-1l4-4v-1l3-3h1v-2l-3-3L149,777z"/>
	<path class="st1" d="M216,682h-5l4,1l3,3h2l2-2v-3l1-2l-1-1v-2L216,682z"/>
	<path class="st1" d="M194,695h-1v1l-5,5l-1,2h-1l-5,5h-1l-2,4h-6l-1,2l-7,7h-1v6l-3,4l-2,4v2l-1,1l1,6l2,2h5l2-4l4-2v-3l-1-1v-3
		l1-2l3-3l3-1l2-4l3-3l3-1l3-3l3-1l1-1v-2l5-5h1l-1-1v-2l2-2v-1h1l3-3v-2l-4-3h-2v-1L194,695z"/>
</g>
<g id="_x32_6" class="st0">
	<path class="st2" d="M303,678l1,1h3l1-1l4-1l2-2h4l10-10l1-2v-3l2-2l2,2h4l1-1h3l1,1h6l4,5h2l3,3l4,1l3,4h1l4-4h4l2-1l2-5l4-4v-1
		l-4-1l-3-3v-3l-1-1v-9h-1l-2-2l-1-4l-3-4v-7l-1-1v-5l-4-4l-1-4h-1l-2-3v-11l-1-1v-3l-3-4v-7l-1-1v-3l-3-3l-1-10l-3-2v-5l-1-1v-12
		l-4-5v-31l-1-1v-3h-1l-2-3l-1-15l-2-2l-1-2v-3l-1-1v-16l-2-1l-2-3v-6l4-5l-5,5h-9l-1,1v2l4,3l-2,3v2l-2-4v-2l-1-1h-2l-1,2l-4,1
		l-2,2v6l-1,2h-4l-3,3l-10,1l-3,3v5l4,3l-1,1h-6l-3,4h-1l-2,2v18l2,3l2,1l1,4l3,3v1l4,3l1,5l4,5v5l4,4v7l1,1v2l2,2h1v4l-3,3v8l-1,1
		v31l1,1v14l2,2h1v21l-2,1l-1,2v3l-1,1v8l-3,2l-2,7l-6,7l2,1l2,4l-2,2H303z"/>
</g>
<g id="_x32_5" class="st0">
	<path class="st3" d="M385,659l6-6l4-1l2-2v-5l2-1l-1-1v-2l4-4l1-3l3-3l1-2v-3l1-1l3,3l-1-2v-4l3-3l1-4l3-2l-1-8l-2,2h-3l-2-1l-1-1
		l-1-5l-2-1l-2-2v-1l-2-1l-3-3v-1h-1l-3-3v-1h-1l-3-3v-1l-3-2l-1-4l-3-3v-2l-1-1v-4l-3-4v-16l3-3h1v-17l-2-4l-3-3v-7l-4-5v-3l-4-5
		l-1-4h-2l-1-1l-2-6h-1l-2-2v-3l-4-3l-1-4l-4-3v-1l-3-3l-1-3l-4-3v-2l-4-5v-2l-2-2h-1l-2-4l-3-2l-0.2-2.8L331,445v2l-4,5v6l2,3l2,1
		v16l1,1v3l1,2l2,2l1,15l2,3h1v3l1,1v31l4,5v12l1,1v5l3,2l1,10l3,3v3l1,1v7l3,4v3l1,1v11l2,3h1l1,4l4,4v5l1,1v7l3,4l1,4l2,2h1v9l1,1
		v3l3,3l4,1v1l-2,2L385,659z"/>
</g>
<g id="_x32_4" class="st0">
	<path class="st4" d="M416,603l4-2l2-2v-7l-2-2v-4l-2-3l-1-4l-7-7h-2l-4-5h-2l-3-2v-4l-2-3v-2l-2-2h-1l-2-2v-1l-4-2v-3l4-5v-12l-1-1
		v-4l1-1v-7l3-3v-9l-1-1v-2l2-3l1-6l-2-2h-7l-2-2v-4l-4-4v-4l-1-1l-1,1h-2l-1-1l1-2v-10l-6-6l-2-6l-7-7v-2l-2-4h-1l-2,2h-22l-4-4
		l-1-4l1,15l3,2l2,4h1l2,2v2l4,5v2l4,3l1,3l3,3v1l4,3l1,4l4,3v3l2,2h1l2,6l1,1h2l1,4l4,5v3l4,5v7l3,3l2,4v17h-1l-3,3v16l3,4v4l1,1v2
		l3,3l1,4l3,2v1l3,3h1v1l3,3h1v1l3,3l2,1v1l2,2l2,1l1,5l1,1l2,1h3l2-2l1,8L416,603z"/>
</g>
<g id="_x32_2" class="st0">
	<path class="st6" d="M414,639l-3,3l-2,5l-2,1l-1,2l-9,8v5l4,3v1l4,4l1,2v7l1,1v17l3,4v2l1,1v4l1,1h20l5,4h5l4-4h8l1-1h2l3-3h4l1-1
		l6,1l1-4l1-1h1l2-2h2l4-3h2v-1l2-2h5l1,2l2,1l-2-4h-8l-1,1h-3l-3-4l1-3l2-2v-9l1-1v-3l3-4v-5l8-8v-7l-1,1h-7l-20-20l-1-4l-4-4l2-4
		l-4-1l-3-4h-2l-3-3h-1l-3-3v-1h-1l-3-3v-1h-1l-5-5v1l-1,1v3l-1,1v2l-2,2v2l-4,4l-2,4l-2-1v2l-1,2l-2,2v1l3,3v1l-3,3v5h-1l-3,3v1
		l-2-3V639z"/>
</g>
<g id="_x32_1" class="st0">
	<path class="st7" d="M388,671v3l1,1l-2,2h-1l-4,5l-2,1v5l-2,2h-1l-1,2l-3,3h-1v1l-3,3l-2,1v2l1,1h6l1-1h4l2,2l1,4l2,1l2,2v1l5,4v1
		l3,3v2l2,1l2,2l1,3h1l2,2l1,2v3l2,1l2,2v1l2,1l2,2v1l4,3l1,3l3,3v2l-2,2h3l3-2h3l3,2h8l2,2l5,1l2,2v4l5,5l1,2v2l-4,3v7l2-2l1,2v8
		l2,4l4,2h4l2-2v-1h8v2l1,1v4l1,1h-2l-2,3v3l2,2l-1,1l7-4h2l1-2l4-3v-2l2-2h2v-4l2-2h2l2-2v-3l-1-1v-2l1-1v-11l-1-2h-1l-2-2l2-4l2-2
		l4-1l1-1v-2l2-3l-2-3v-3l-1-1v-12l-3-4v-2l-2-3v-3l2-3l-2-4l4-2l2-2v-12l-1-1v-3l-6-6l2,4l-2-1l-1-2h-5l-2,2v1h-2l-4,3h-2l-2,2h-1
		l-1,1l-1,4l-6-1l-1,1h-4l-3,3h-2l-1,1h-8l-4,4h-5l-5-4h-20l-1-1v-4l-1-1v-2l-3-4v-17l-1-1v-7l-1-2l-4-4v-1l-4-3L388,671z"/>
	<path class="st7" d="M442,838l1,1v2l1,1l1,4l-2,4v3l-2,2v3l4,4l-1,4l-1,1l2,2h2l1-1v-2l-2-4l2-4l-2-4l4-4l-4-4v-1l2-1v-1l2-2l-3,2
		l-1,1v-3l-1-2l-2-2h-1V838z"/>
</g>
<g id="_x32_0" class="st0">
	<path class="st1" d="M366,704l-3,3v11l-1,1v2l-4,5v5l-7,7h-1v6l-9,8l1,1v2l6,6v4l-2,2v4l3,4l1,3l2,2h2l2,2h4l3-2h2l4,4l4,2h5l6-6h3
		l1,2l2,2h1l3,4h2l4-3v-3l3-4l-3-6l-3-2v-3l6-6h8l5-3h2l5-4l-3,2h-3l2-2v-2l-3-3l-1-3l-4-3v-1l-2-2l-2-1v-1l-2-2l-2-1v-3l-1-2l-2-2
		h-1l-1-3l-2-2l-2-1v-2l-3-3v-1l-5-4v-1l-2-2l-2-1l-1-4l-2-2h-4l-1,1h-6l-1-1v-2L366,704z"/>
</g>
<g id="_x31_8" class="st0">
	<path class="st3" d="M564,514h29l1,1h14l3,3l14,1l3,3l2,1h3l3,3v3l-1.5,2h0.5l1-1l1-2v-3h1l3-3v-6l4-5v-2l4-3v-1l-3-3h-3l-2-1l-3,2
		l-1,3l-4,5l-4-3h-1l-3,3h-1l-6-6l1-1v-4l1-1v-4h1l2-2v-2l-10-7h-19l-1,1h-3l-3,3h-2l-1,1h-4l-3,4l-5-4h-7l-1-1h-2l-3-3h-4l-2,2v7
		l4,3h2l4,4h2l1,5l-1,1v3l-4,4v3L564,514z"/>
	<path class="st3" d="M643,535l5-4h9l5,4v3l0.6,0.6l0.4-3.6l3-3v-8l1-1v-2l3-2v-2l-2-2h-1l-4-4l-2-1h-4l-2,1l-2,3l-2,1v2l-1,1v4h-1
		l-3,3v4l-4,5v3L643,535z"/>
	<path class="st3" d="M657,553l1,1l4-1l2-3v-2l3-3l2-1h3l3,3v1h2l3,4v-8l3-4v-4l5-4v-6l-2-3h-9l-3,4l-2,1v3l-4,4l-1,2v6h-1l-3,3v3
		l-3,3h-3l-2,1H657z"/>
	<path class="st3" d="M689,561l3-3h1l3,3h8l1,1h6l2,2.7V561l1-2h1l2-2l1-2v-3h2l1-1v-2l1-1v-5l-3-3l-3-1v-1l-2-2l-3,3l-1,4l-4,4
		l-1,5h-1l-2,2v2l-1,1h-2l-2,2l-1-1v-3h1l3-3v-5l4-5v-8l-2-2h-2l-2,3v5l-4,4v8l-4,2l-2,7H689z"/>
	<path class="st3" d="M714,566v1l6,6l4,1l2,2v2l4,1l3,3l-2-4l3-2v-1l3-3l2-4h2l2-2v-3l2-2v-3l-2-1l-3,3h-1l-3,3v3h-1l-3,3l-1,2h-4
		l-2,2h-3v-5l4-3l-1-2v-3h2l3-2l1-6l-2-2l-3-1l-3,3v6h-2l-2,2v1h-1l-4,4h-0.8L714,566z"/>
	<path class="st3" d="M737,586h3l7,5l3-1l2-2l7,7h3l3-3h-6l1-7l2-1l3-4h1l2-2v-3l-1-1h3l2-1l3-3v-6l-1-1h-1l-2,2h-3l-3,3v4l1,1h-1
		l-3,3v1l-5,5h-2l-2,2l-1,3l-2,1h-2l-1-1v-4l1-1v-2l3-3l1-4l3-2l1-3l4-3l-5-4h-4l-2,2v1l-5,4v1l-4,4l-1,3l-3,3v2l-1,1h-2L737,586z"
		/>
	<path class="st3" d="M768,596h1l3,3h2l3,3v1l4,3v1l4,4l1,3l2,2h3l3,3v1l4,1l1,2l3,2l1,4l3,3v4l-3,3h5l1,1h5l4-3h13l1-1h2l2-2v-12
		l-3-4l-2-1h-24l-2-1v-4l-2-2h-5l-2,2h-2l-2-3l-2-1v-1h4l1-1h24l4-4v-8l-6-7l-2-1h-3l-2-3l-6-1l-2-3l-4-1l-5-4h-3l-2-3l-2-1l-3,3
		l-1,3l-4,4v2l-4,5v3l-1,1h-2l-2,2l-1-1h-3L768,596z"/>
</g>
<g id="_x31_7" class="st0">
	<path class="st4" d="M543,524l-5,7v9l-3,3v3l4,1l4,5h1v-5l3-3l4-1l2-3h2l3-4l2-1h3l2-2l4-1l1-1h4l2-3h15l3,3h10v-1l2-2h7l2,2v1h6
		l5,4h4l3,3v-5l3-4v-3l-3-3h-3l-2-1l-3-3l-14-1l-3-3h-14l-1-1h-29l-3,3v6l-4,4h-2l-5-4l-5-1l-1-1l-1-2V524z"/>
	<path class="st4" d="M635,543l2,2v1l3-2h8l5,5l1.4,2.7l3.6-2.7v-1l3-3l1-2v-3l1-1l-1-1v-3l-5-4h-9l-5,4l-1,2v3l-1,1h-7l-1,1
		L635,543z"/>
	<path class="st4" d="M661,556l4,1l3,3h1l3,3v1h1l3,3l1,2l3,1l4,4h2l2,4l4,1l8,8l1,4h2l1,1l1,3l4,4l1,3l3,2l1,4l3,3l1,6h1l2,2l1,3
		l11,11l1,2v3l-2,2h10l2-1l1,1h6l1-1h4l3-2h16l2,2h5l1,1h14l1-1h5l3-3v-4l-3-3l-1-4l-3-2l-1-2l-4-1v-1l-3-3h-3l-2-2l-1-3l-4-4v-1
		l-4-3v-1l-3-3h-2l-3-3h-1l-3-4l-3,3h-3l-7-7l-2,2l-3,1l-7-5h-3l-7-7l-4-1v-2l-2-2l-4-1l-6-6v-1l-3-4h-6l-1-1h-8l-3-3h-1l-3,3h-3
		l-5,4h-1l-3-4l-2-1l4-5v-2l1-1l-3-4h-2v-1l-3-3h-3l-2,1l-3,3v2l-2,3l-3.8,0.9L661,556z"/>
</g>
<g id="_x31_6" class="st0">
	<path class="st5" d="M547,562h5l1-1h3l5-4h12l2,1l1,2l7,2l2,2v1l8,1l2,1l1,2l6,1l3,3l2,1h3l3,3l4,1l3,3v1l3,1l3,3h1l2,2v1l2,1l2,2
		v1l2,1l2,2v1l5,4l1,2l3,1l4,4h1l3,3v1h1l3,3v1h1l3,3v1l4,4l1,3l2,1l4,5v4l-0.5,0.8l1.5-0.8h41v1l2,2h15l2-2v-3l-1-2l-11-11l-1-3
		l-2-2h-1l-1-6l-3-3l-1-4l-3-2l-1-3l-4-4l-1-3l-1-1h-2l-1-4l-8-8l-4-1l-2-4h-2l-4-4l-3-1l-1-2l-3-3h-1v-1l-3-3h-1l-3-3l-4-1l-4-3h-2
		l-2-4l-5-5h-8l-3,2v-1l-2-2l-2-1v-4l-3-3h-4l-5-4h-6v-1l-2-2h-7l-2,2v1h-10l-3-3h-15l-2,3h-4l-1,1l-4,1l-2,2h-3l-2,1l-3,4h-2l-2,3
		l-4,1l-3,3v6l-4,5v10L547,562z"/>
</g>
<g id="_x31_5" class="st0">
	<path class="st6" d="M520,604l1-1h2l5-4h4v-1l2-2h23l3,3h3l1,1h2l1-1h9l5,4h2l1,1h7l2,2v1l4,1l5,4h9l2,1l2,3h3l4,4h1l1,2l3,3h1l1,2
		l6,6h3l3,3v1l2,1l2,2v1l2,1l2,2v1l2,1l3,3v1h1l3,3v2l2,3l-1,2l3-3v-2l4-3l1-3l3-3l1-2v-4l2-3v-4l-4-5l-2-1l-1-3l-4-4v-1l-3-3h-1v-1
		l-3-3h-1v-1l-3-3h-1l-4-4l-3-1l-1-2l-5-4v-1l-2-2l-2-1v-1l-2-2l-2-1v-1l-2-2h-1l-3-3l-3-1v-1l-3-3l-4-1l-3-3h-3l-2-1l-3-3l-6-1
		l-1-2l-2-1l-8-1v-1l-2-2l-7-2l-1-2l-2-1h-12l-5,4h-3l-1,1h-5l-7,6l-1,3h-4l-7,7l-1,2v3l-4,5v3l-3,3l-2,6l-3,3l-2,1h-3l-0.6,0.6
		L520,604z"/>
	<path class="st6" d="M469,629l2-2v-1l4-3l2-4v-3l7-7h4l1-2v-3l-1-1h-4l-3,4h-5l-3,4h-2l-2,4l-2,1h-3l-1,2l-2-2l-2,4l4,4l1,4l5,5
		V629z"/>
</g>
<g id="_x31_4" class="st0">
	<path class="st8" d="M499,602l-4,1l-2,2h-1l-2-2h-2l1,1v3l-1,2h-4l-7,7v3l-2,4l-4,3v1l-2,2v4l11,11v-8l1-2l3-3v-1l2-1l4-4h6l8-4h7
		l1-1h24l1,1h3l2,2v1l2,1h8l1,1h2l4,3h3l2,1l3,3h7l5,4h8l1,1h11l4,4h3l8,8l3,1l2,2v1l4,1l8,8h1l4,5l1,3l4,3v2l2,3l-2,4v1l4-4v-1h1
		l3-3l1-5h1l3-3v-2h1l2-2l3-6l-2-3v-2l-3-3h-1v-1l-3-3l-2-1v-1l-2-2l-2-1v-1l-2-2l-2-1v-1l-3-3h-3l-6-6l-1-2h-1l-3-3l-1-2h-1l-4-4
		h-3l-2-3l-2-1h-9l-5-4l-4-1v-1l-2-2h-7l-1-1h-2l-5-4h-9l-1,1h-2l-1-1h-3l-3-3h-23l-2,2v1h-4l-5,4h-2l-1,1l-19,1l-1-4l1-1v-1
		L499,602z"/>
</g>
<g id="_x31_3" class="st0">
	<path class="st7" d="M490,628l1-2h5l2,2l4,1l3,3v1l9,2l4,3h3l3,3v3l-3,4h-3l-1,1h-5l-1,1h-1h-1l5,4l4-3h2l1-1h5l2-2h4l2-1v-2l-2-4
		l3-3h5l2,2v1l4,1l3,3l4,2l2,2v1l6,1l3,3h2l1,1l4,1l2,3h2l2,2v2h2l3,4h2l19,19v7l-4,3l1,2l8,1l3,4l4,1l1,1h4l2,2h2l4,2l4-1l1-1l5,3
		l-1-1v-3l4-4v-2l-3-3h-1v-2h3l1,1l3-2v-3l-2-2h-1v-6l2-4l-2-3v-2l-4-3l-1-3l-4-5h-1l-8-8l-4-1v-1l-2-2l-3-1l-8-8h-3l-4-4h-11l-1-1
		h-8l-5-4h-7l-3-3l-2-1h-3l-4-3h-2l-1-1h-8l-2-1v-1l-2-2h-3l-1-1h-24l-1,1h-7l-8,4h-6l-4,4L490,628z"/>
</g>
<g id="_x31_2" class="st0">
	<path class="st1" d="M535,648l3,3v1h1l3,3v2l7,7l12-1l4,2l7,7v1l4,1l5,4h3l4,4v3l4,5l1,4l4,1l3,3l-1-2l4-3v-7l-19-19h-2l-3-4h-2v-2
		l-2-2h-2l-2-3l-4-1l-1-1h-2l-3-3l-6-1v-1l-2-2l-4-2l-3-3l-4-1v-1l-2-2h-5l-3,3l2,4v2l-2,1H535z"/>
	<path class="st1" d="M492,646l5-5h4l2,3l1,5l1,1v-2l2,2h2h1h1l1-1h5l1-1h3l3-4v-3l-3-3h-3l-4-3l-9-2v-1l-3-3l-4-1l-2-2h-5l-1,2
		l-4,1l-6,6v3l-2,3v1l6,6h7l1-1V646z"/>
</g>
<g id="_x31_0" class="st0">
	<path class="st3" d="M490,306h7l2-1l1-2h14l4,3h1l3-3h1l3,4h7l2-1l4,4h3l8,8l1,2v-2l4-3l1-3l2-2v-5l-2-2h-4l-1-1v-2l-2-2h-3l-2,4
		l-2-1h-8l-3,3v1h-3l-4-3l-8,1l-1-1h-3l-1-1h-4l-2-2l-4,3l-4,1l-2,2l-6,1l-0.5,0.8L490,306z"/>
	<path class="st3" d="M551,323l-2,2h-1l-1,3l-2,2l-4,1l-3,3l-3,1l13,13v-1l1,1h3v4h-1l-3,3l-1,2v17l-1,1l-1,4l-5,4h2l2-1l3,3v2l1,1
		v26l3,4v4l-3,4v8l3,3v19l-1,2l-4,4l-2,1l5,5l1,2v-1h2l1,4l5,4h3l3-3l1-7l3-2l1-2v-6l-4-5v-3l3-3v-5h3l2,2h1l3-6v-4l-3-3l-4-2l-1-2
		v-6l-1-2l-3-2h-4l-1-1v-2l-4-4v-5l-1-1l1-1l4,3h5l2-2h3l3-2v-5l-2-3v-2l2-3v-4l-2-2l4-4v-5l-2-2h-4l-4-2h-3l2-4l4-4l-1-4l-2-2v-4
		l-2-3l5-4l1-5l-2-3l-2-1h-5l4-4v-3l1-1l-1-4l-3-3h-2l-2,2h-3l-2,2l-1-2V323z"/>
</g>
<g id="_x39_" class="st0">
	<path class="st4" d="M534,382h-1l-1,1h-3l-1,1l-4,1l-1,1v6l-1,1h-3l-5,4v4l-1,2l-4,4l-0.3,1.3l2.3-2.3l3-1l3,3v2l1,1v23h1l2,2l1,6
		l3,2l1,3l7,7v3l1,1l-3,5l3-2h6l4,2l2-1l4-4l1-2v-19l-3-3v-8l3-4v-4l-3-4v-26l-1-1v-2l-3-3l-2,1h-4l-1-1h-2H534z"/>
</g>
<g id="_x38_" class="st0">
	<path class="st5" d="M494,423l-1,1l2,5l4,4l1,3l3,3v2l4,4v5l-2,2h-9l-1,2l-5,4v1l2,2l2-1h4l2,3v2l-1,1v6l-4,2l-1,4l-1,1l4,10l3,3h1
		l2-3v-6l4-3v-2l7-7l-2-2v-3l2-1l4-5h5l4,3h4l3-5l-1-1v-3l-7-7l-1-3l-3-2l-1-6l-2-2h-1v-23l-1-1v-2l-3-3l-3,1l-3,3v2l-2,2l-1,3h-1
		l-3,3l-1,2h-5v-2L494,423z"/>
</g>
<g id="_x36_" class="st0">
	<path class="st7" d="M543,491l-2-1h-7l-5,4l-4,1v1l-3,3h-1l-1,2l-7,7h-2l-1,1h-4l-2,2l-1,4l1,1h2l2,2v1l-3,3h-2l-2-3v12l-2,1l-2,3
		l-3-2h-2v3l5,5v1l4-3l4,7v3l-4,3v2l-4,4l-1,4l-2,2h-1l-4,5h-1v2l-4,4v3l-3,3h-1l-1,2l-3,3h-1v1l-3,3h-2l-5,4h-2l-4,4l-3,1l-4,4h-4
		l-2,2l-1-0.5v0.5l3,3h1l3,3h2l3,4l4,1l2,2l1-2h3l2-1l2-4h2l3-4h5l3-4h6l2,2h1l2-2l4-1l2-3v-3l4-2h2l2-2l1-4l3-3v-2l5-4v-15h2l3-4h1
		l2-2l1-2h1l2-2v-2l4-4l1-2v-3l3-3v-9l5-7v-10l4-4l1-3l4-5v-7l-1-2l-2-2l-3-1v-2.8L543,491z"/>
</g>
<g id="_x35_" class="st0">
	<path class="st1" d="M488,528h-2l-6-4l4,3l-3,2h-2l-1-1h-5l-4,2h-2l-2,2l-4,2h-2l-1,1h-3l1-1v-3l-2,2h-2l2,2l-4,5h-5l-3,2l-1,1
		l-1-4v2l-1,1v7l1-4l1-1l1,1v5l2,2h1l1,10l-7,8v2l-1,1v11l-3,4v7l5,5h1v1l3,3l2,1l2-2h4l4-4l3-1l4-4h2l5-4h2l3-3v-1h1l3-3l1-2h1l3-3
		v-3l4-4v-2h1l4-5h1l2-2l1-4l4-4v-2l4-3v-3l-4-7l-4,3v-1l-5-5v-3h1L488,528z"/>
</g>
<g id="_x34_" class="st0">
	<path class="st2" d="M402,323l1,9h1l2,2v3l-2,2l1,2v8l1,2l7,7l1,4h1l3,3l2,4l2-4v-6l6-3h6l1,1h4l1-1h13l4-3h7l-4-4h-3l-3,3l-4,2
		l-3-1l-1-1l3-5h3l1-1h11l4,2v3l1,1v1h1l1-1h5l3-3l5-1l-2-3v-2l2-1l4-5h1l1-3l-2-3l2-3v-3l3-3h3l3,2h12l4,4h2l1,1l2-1h3l5,4l6,2l1,1
		l3-1l3-3l4-1l2-2l1-3h1l2-2v-3l-1-2l-8-8h-3l-4-4l-2,1h-7l-3-4h-1l-3,3h-1l-4-3h-14l-1,2l-2,1h-7l-2,1l-7,7v2l-2,3l-1-1h-8l-4,2
		l-1,2h-1l-2,2h-4l-1-1l-8-1l-7-6h-4l-5-5l-3,3h-2l-4-3h-9l-3,3h-3l-4,4h-3l-3,2L402,323z"/>
</g>
<g id="_x33_" class="st0">
	<path class="st3" d="M422,371v3l1,2l8,8h3l6,4h6l3,2l3-1l2-3l2,2l1,4h1l3,3v1l2,1l6-3h4l6,3h7l1-1h2l3-4h1l4-4h1v-1l5-4v-7l4-5v-3
		l-2-1l-2-2v-1l-4-3l-3-6l-6-5h-3l-2-1l-3-4l2,3l-5,1l-3,3h-5l-1,1h-13l-4,3h-13l-1,1h-4l-1-1h-6l-6,3v6l-2,4L422,371z"/>
</g>
<g id="_x32_" class="st0">
	<path class="st4" d="M362,430l1-2l3-2l1-2v-4l2-2h13l4-2v-1l2-2h3l1-1v-3l2-2h1v-2l-8,7h-1l-1,2h-3l-1,1h-11l-4-3v-3l1-2l2-1v-5
		l1-1v-2l2-2h1l1-12l3-4l6,1l-1-1v-8l1-1l1-4l2-2l-2-3v-3l1-2l2-2l5-2v-1l3-3h3l1-1l-2-3v-2l2-2h4l2,2v-2l-1-2l2-2v-3l-2-2h-1l-1-9
		l-4-4h-5l-3,4h-3l-8,8h-6l-2,1l-2,3h-1l-3,3v2l-3,2l-1,2v13l-1,1l-1-1h-10l-2,1l-1,2l-3,1l-3,3l-1,3l-2,2v4l-3,1l-3,3l1,4l3,3v4
		l-3,4v2l3,3v4l-2,1v1l-2,2v5l4,4l1,2l-1,2h-1l-2,2l-1,6l-3,3l3,3l1,4l4,4h22l2-2h1l1,2V430z M361,404l-2-1v-21l-3-3h-4v-5l4-2h9v32
		H361z"/>
</g>
<g id="_x31_">
	<path class="st9" d="M395,403l-2-2v-2l-3-5v-4l-4-4v-4l-4-4v2l1,1l-6-1l-3,4l-1,12h-1l-2,2v2l-1,1v5l-2,1l-1,2v3l4,3h11l1-1h3l1-2
		h1l8-7V403z"/>
</g>
<g id="base">
	<path class="st10" d="M779,95h3l2-2v-1l4-3v-1l15-15l2-1v-1l2-2h1l2-2l1-2l2-1v-1l7-7h1l2-2v-1h1l3-3v-5l4-3v-2l-6-7h-1l-3-8l-3-3
		v-8l2-2l-3-2H570l-1-1l-4,2l-4,4l-1,5h-4l-2,4l-2,2h-4l-3,3h-1l-17,17v3l-1,1l2,3v6l5,4l1,3l3,3h8l5-4h8l4-4h2l1-1l2,1h4l5,4h7l4,5
		h2l2,2l1,4l4,3l1,2l4,2l1,4l3,3h5l3-3l3-1l3-4h6l2-4l4-1l5-4h8l4-4h19l4,2h4l4,3h10l3,4h5l3,4h11l3,2h8l4,4l4-2h2l3,2l3-2h7l3,2h4
		l2,2l7,1l2-2v-6l1-1h3l6,6v5l2,2l3,1L779,95z"/>
	<path class="st10" d="M39,506v-1l2-2h5l2-2v-2l3-3l1-4l4-3v-6l4-5l1-4l4-3v-2l2-2l4-2v-2l-2-2l-5-1l-1-2l2-4v-2l3-3l1-4l2-2l1,1
		l4,1l5-5l2-1h6l4,5h2l3,3l5,1l5,4h2l3,4l5,2l6,6l2,1l2-2v-3l-1-2l2-4l-2-3v-13l-5-5h-4l-7-7h-7l-3-4h-6l-3-2h-8l-3-2h-3l-2-2h-5
		l-8-8l-1-2l-4-1l-4-4l-3-1l-5-5v-5l3-6h3l12,12l2,1h3l2-2v-9l4-2l7,6v2l2,3v4l4,4l4-4h1l4,2l5,5h1v1l3,3h2l5,4h13l3-3v-1l2-1h9l2-2
		v-1l6-3l3,6h3l6-4h6l2-1l7-5v-2l-2-3v-3l2-3v-2l2-2h6l3,4l4,2h9l3-2h8l2,1l4-3h4l3-2h7l3-2l8,4h5l2,2h2l3-4h1l2-2l2-4v-13l2-2v-2
		l1-1l1-4l-8-8l2-3v-6l2-2h2l3-2v-5l2-1h3l3,4h2l2,2h5l1-1l1-4l-4-5v-2l-1-1v-16l2-3h1l2-2v-2l2-2l3,2h5l3-3v-1h1l7-7l1-3l5-5v-5
		l-5-5l-4-1l-1-1l-1-4l-5-5l-2,1h-4l-3-4l-4,2h-4l-2,2h-9l-3-2h-3l-3,2h-4l-3-2h-3l-4,3l-2-1h-5l-1,1l-6,1l-4-4h-4l-2-2h-3l-3,4h-3
		l-2-1l-4,2l-4-2v-1l-4-4l-4,3v1l-5,5l-2-2h-3l-1,1v7l2,2v9l4,4l-4,4h-5l-5-5l-1-2v-3l-2-3v-4l2-2v-7l2-3v-5l2-2l1-5l3-3l1-4l6-3
		l-2-2v-8l-5-6l-2-1h-8l-3-2h-2l-4,2l-3-2h-4l-1-1l-4,3l-3-2v-1l-6-6l-4-1l-3-4h-1l-2-2v-2l4-3l1-2h12l8,8h3l3,2h3l2-4l2-2h4l2,2h4
		l3,2h6l2,2l1,3l5,4h11l3,2h4l17,17v4l2,2h2l3,4l6,3h3l3-2h2l8-5h6l3,2h5l3-2l4-1l2-2l5-1l5-4h6l4-2l3-4l2-1l1-4l1-1v-2l3-3v-19l1-1
		v-2l2-2v-4l-2-2v-6l-3-3h-1v-1l-3-3l-3,4h-3l-2-1l-3-5v-2l-2-2h-4l-2-2h-8l-1-1h-4l-2,1l-4-2l-6-6v-2l-1-1l2-4l3-2h3l3,4h6l3,2l2-2
		h8l1,1h2l1-1v-2l5-5l1-3l2-2l1-4l1-1h6l6-4l4-1l2-2v-3l2-3v-2l2-2h5l4-2l4,4l2-1v-4l-1-1h-4l-1,1v-3l-2-3v-3l-4-5l-1-5l-1-1v-4
		l-2-2v-2l-1-1v-6l-4-6v-6l-4-6v-7l-4-5v-2l-1-1v-6l-2-2v-5l-2-3v-6l-2-3v-8l-2-2H12l-2,2v494l2,2h24L39,506z"/>
	<path class="st10" d="M496,44l3-1l4-3h2l2-2v-5l1-2h1l3-3v-1h1l3-3v-1l3-1l1-2l4-3v-1l2-2h5l2-2l-2-2H355l-5,4l-1,2l5,4v5l2,2h2
		l3,2v4l1,1l2,1h5l2,1v1l3,3h1v1l3,3l2-4l4-3l-1-3l-3-3v-3l2-2l4,1l1-1h2l2-2h12l15,15h2l2-2v-1l-2-3v-4l2-2v-1h1l2-2l3-8h9l6,6l1,5
		l1,1l-1,3l-2,2l4,2l2,2l2,4l-4,5l2,2l2,1h4l2-2l1-3h19l3,4h4l1,1h8L496,44z"/>
	<path class="st10" d="M1009,107V12l-2-2h-99l-1,1v5l5,4v5l4,3v1l2,2l2,1v5l3,3h1v1l3,3h1v1l3,3h1l3,6v4l9,9l3,8l3,3v7l4,6l1,4l2,2
		h4l3,2l4,1l4,3h2l3,2h5l2,2l8-1l1,1h6l4,2h4L1009,107z"/>
	<path class="st10" d="M738,367h18l2-2v-7l-2-2v-4l-2-4v-2l-4-4l-5-1l-3-3l-6-2l-4-3h-2l-1-3l-2-2h-3l-3-3l-5-1l-4-3l-3-1l-2-2v-2
		l-4-4h-3l-2-1l-10-10v-4l-2-3v-15l2-1l4-5h1l2-2l1-2h1l2-2l1-2h5l3-2l1-2h22l5-4l4-1l4,2l4-2l2-2v-2l2-2l-6-6l-2-1l-3,1l-2,2l-4,2
		l-6-6v-6l2-1l3-4h1l2-2v-6l2-3v-4l4-4l4,1l1,1l6-6l2-5l3-2h20l5,4h2l5,5h1v1l3,3h2l3,3l1,3l7,7h1l1,4l3,3l1,4l2,1l11,11v1l2,2l4,1
		l2,2h3l5,4l5,1l2,2l4-3h3l1-1v-4l2-3v-6l1-2h1l3-3v-1l2-1h5l3-4h5l2-2v-2l3-3l1-4l-2-2h-6l-1-1h-3l-3-3l-3-1l-3-3h-3l-2-1l-7-7
		l-2-1h-3l-2-2h-5l-4-4h-4l-2-2l-4-1v-5l-1-1v-2l-4-5v-7l-2-3l3-2h7l3-2l3,2h2l3-4h2l3,2h4l4-4v-4l4-4l-1-4l-1-1v-4l1-2h1l3-3v-1
		l2-1h4l8,9l4,1l7,7h2l4,5h2l3-3l4-2l1,1h3l3-3v-2l4-4h2l3-4h1l2-2v-10l-2-3l2-3l2-1v-1l-3-2l-1-2l2-4l6-6l3-1l6-6v-4l-2-2V84l-9-8
		v-2l-3-4l-1-4l-2-3h-5l-3,2l-4,1l-4,3h-5l-3,3l-1,3l-2,2l-5,1l-2,2h-13l-7,6l-6-1l-4,3h-8l-2,2h-3l-6,4h-3l-2,1l-3,4v2l-4,3l-1,2v8
		l-4,3l-1,3h-1l-3,3v1h-1l-2,2v3l1,2l-2,3l-1,4l-7,5v3l2,2l-5,5h-2l-1,1h-11l-5-4h-19l-3-4l-3-1l-5-4h-7l-3-2h-4l-4-2l-8,4h-6l-1-2
		l-4-3v-1l-2-2h-6l-5-4h-4l-3,2h-5l-1,1h-7l-1,1h-5l-2-1l-4,3h-4l-2,2v2l-2,2l-4,1l-3,6l-5,4v4l5,4v2l2,3v4l1,1v2l2,4l7,7l1,2v7
		l-1,1v2l3,4l-2,2l-1,3l1,1v4l2,3v8l-2,3v3l2,3v12l-3,4l-2,1l-1,2l-1,7l-1,1h-4l-2,1l-1,1v5l-2,2l-3,1l-5,5h-5l-2,4l-2,2l-3,1l-7,7
		l-1,2v3l2,2l4-2h6l1,1h4l1,1h5l2,2l4,1l1,2l4,3v1l2,2h6l2,1l5,5v4l4,4v1l9,9h1l2,2v1l2,2l1,4l2,3v8l2,3v2l3,3l4,1l2,2l5,1l3,3l4,1
		l3,4l4,2h13L738,367z"/>
	<path class="st10" d="M451,281h2l3-3h2l3-3l2-4l-2-4l-5-4l-1-4l-3-3v-3l2-1l3-3v-1h1l3-3v-1l2-1h4l4,5l2,1v5l1,1v2l1,1h4l5,3l2-2
		v-5l5-5v-1h6l4-5h2l2-2v-4l-2-3v-2l2-4l-2-2v-3l-1-2l-5-5v-9h9l3-2h6l3,2l4-4h4l1,1v3l-2,2v2l-2,2l-3,1l-4,4v7l2,2h4l4-5h1l2-2l1-2
		h1l2-2v-2l2-2h5l4,2h3l2-1l1-1l1-4l3-3v-2l2-2h5l1-2l5-4v-1l2-2l2-1v-2l-2-3v-4l-3-2h-11l-3-2h-4l-6-6l-6-3h-9l-4-3h-2l-5,4h-3
		l-3,3v2l2,3v4l4,3v6l-2,2h-5l-5-4v-2l-4-4h-1v-2l-2-3h-8l-5-3h-2l-6-4l-4-1l-4-3h-3l-3-3l-6-2l-2-2l-4-2l-4-1l-4-3l-4-1l-4-3h-2
		l-1-1l-1-4l-3-3l-2-1h-3l-3-3l-5-1l-3-3l-4-1l-3-4h-6l-2-1l-6-6h-4l-2-1v-1l-2-2h-13l-3-2h-3l-2,2h-14l-1,1v5l1,2l2,2h1v1l3,3l1,4
		l-2,3l2,3v3l1,2l2,1l6,6h2l2,2v2l2,2v5l-2,3v2l-1,1l-4,1l-1,2l9,9l4,1l3,4l4,2h5l2,2l4,1l1,4l2,2l-1,2v3l-1,1v5l1,1h2l4-2l3-4h6
		l3-2l2,2h2l2,3v4l-2,4l-8,7v1h-4l-2,2l-2,4h-4l-2-1l-4,2l-4-2l-2-2h-7l-2,3v13l-1,1v2l3,2h14l3-2h14l3,2h2l2,1l6,6l1,4l2,3v5l5,5v4
		l4,4h5l3,2h9L451,281z"/>
	<path class="st10" d="M418,625l1-4l4-5v-6h1l2-2l1-6l4-7v-6l4-6v-2l-2-3v-5l2-3v-2l4-3v-5l2-3v-5l-2-3v-7l1-1v-2l2-2l3-1l3-3h6l3-3
		v-1l4-1l5-4h14l6,4h2l5,5l4,2l2-3l2-1v-13l2-3l1-4l2-2h4l1-1h2l7-7l1-2h1l3-3v-1l4-1l3-3l2-1h7l2,1l4-5h1l2-2v-14l-4-5l-2-1h-6
		l-1,1h-3l-3-2h-4l-4-3h-5l-4,5l-2,1v3l2,2l-7,7v2l-4,3v6l-2,3h-1l-3-3l-2-4v-2l-2-3l2-6l4-2v-6l1-1v-2l-2-3h-4l-2,1l-2-2v-1l5-4
		l1-2h9l2-2v-5l-4-4v-2l-3-3l-1-3l-4-4l-2-4l1-4l2-3h1l2-2v-2l3-3l1-4l4-3v-5l1-2l4-1l7-7l1-2v-6l1-1h14l4-5l2-1v-14l4-5l1-5l2-2
		l-14-14l-6-2l-5-4h-3l-2,1l-1-1h-2l-4-4h-12l-3-2h-3l-3,3v3l-2,3l2,4l-1,2h-1l-2,2v1l-2,2l-2,1v2l3,4l2,1h3l6,5l3,6l4,3v1l2,2l2,1
		v3l-4,5v7l-5,4v1h-1l-4,4h-1l-3,4h-2l-1,1h-7l-6-3h-4l-6,3l-2-1v-1l-3-3h-1l-1-4l-2-2l-2,3l-3,1l-3-2h-6l-6-4h-3l-8-8l-1-2v-3l-3-3
		l-1-3l-3-3h-1l-1-4l-7-7l-1-2v-6l-2-2h-4l-2,2v2l2,3l-1,1h-3l-3,3v1l-5,2l-3,4v3l2,3l-2,2l-1,4l-1,1v6l4,4v4l4,4v4l3,5v2l2,2v4
		l-2,2l-2,4l-3,1l-2,2l-4,2h-13l-2,2v4l-1,2l-3,2l-1,2v10l1,1v3l7,7l2,6l6,6v10l-1,2l1,1h2l1-1l1,1v4l4,4v4l2,2h7l2,2l-1,6l-2,3v2
		l1,1v9l-3,3v7l-1,1v4l1,1v12l-4,5v3l4,2v1l2,2h1l2,2v2l2,3v4l3,2h2l4,5h2l7,7l1,4l2,3v4l2,2v7l-2,2l-4,2l1,10l-3,2l-1,4l-3,3v4l1,2
		l1,1h3L418,625z"/>
	<path class="st10" d="M978,575l4-4h3l3-4v-9l1-1v-5l-1-1v-13l2-3v-5l-2-2v-3l-1-2l-1-1h-8l-2,2h-4l-3-4h-2l-16-16l-2-1h-2l-3,2h-5
		l-4-4l-4,4h-9l-4-2l-2,2l-2,4v5l6,3l1,4l1,1v4l2,3v3l1,2l1,1h5l4,4h4l3,2l4,1l7,7l4,1l4-2l4,2l2,2v2l3,3l1,4l2,3v6l-3,3v1l3,3h1
		L978,575z"/>
	<path class="st10" d="M99,675l2-4l6-2l4-3v-3l1-2l4-1l2-2l3,3h2l3,4l5-5l2-1l2-4v-1l-4-4l-2-1h-2l-4,3h-7l-2,2l-2-4l-4-3v-4l1-1v-9
		l3-3v-8l2-2v-4l2-4v-10l2-3v-6l-1-1v-2l-5-4l-1-3l-2-2v-5l-1-1v-2l-3-4v-9l-2-2v-7l2-2v-3l-1-1h-5l-3-2l-4,1l-1-1h-2l-1,1h-2l-1,1
		l-4,1l-2,2H63l-4-3h-3l-2,1l-4-2l-1-2l-4-1l-5,4l-4,1l-3,2l-3-2h-3l-4,3h-3l-1,1h-7l-2,2v81l2,2h4l3-3v-1h18l4,4h5l2,2v1l4,3v1l4,4
		v4l2,4v4l2,2l2,1h5l4,4h4l2,1v1l3,3h1v1l4,4l1,3l3,3l4,1L99,675z"/>
	<path class="st10" d="M729,1007v-19l1-2l-5-4v-1l-2-2h-7l-1-1h-5l-2-2l-3-1l-4-5h-3l-4,3l-1,2h-9l-2,2l-1,3l-2,1l-4-4v-8l-5-5l-1-4
		l-1-1l-5-1l-4,5l-4,1l-2,2h-2l-1,1h-5l-3-4h-1l-2-2v-3l-3-3l-4-1l-3,2h-9l-3-2h-2l-3-4l-2-1v-2l-1-1v-5l-7-7l-1-2v-7l2-3l-2-2v-8
		l-4-4h-6l-5-3l-4,4h-4l-9,9h-4l-6-6l-4-1l-3-4l-2-1v-2l-2-3h-4l-3-2h-2l-3-4h-1l-2-2v-1l8-7v-1l5-5v-9l4-3v-4l-3-3h-1l-1-4l-2-2
		l-2-4v-2l-1-1v-3l2-4l-1-12l-2-2h-2l-2-2l2-4l4-4v-9l1-2l4-4h7l3,4l4,2h5l3-6h10l1-1h2l3-3h6l4-4h3l2,2h9l4,2l4-2l2-2h2l4-5l4-1
		l4-3h2l3,2h9l2,2l4,1l1,1h5l2,2l3,1l4,4h5l3,4l4,1l5,5v5l2,4l2,2l2-1v-1l2-2h14l3-2h9l4,2l3-3v-1h5l3-3v-1h1l8-8v-1h5l3-2v-2l2-3
		v-4l2-3v-6l2-2l6-1l1,1h2l2-2v-1l2-1h5l2-3v-2l3-3l1-4l2-1h5l3-4h2l3,3l4,2h2l3,2h3l2-2v-3l1-2l2-2l-3-4l2-4l-1-4l-1-1l1-4l-3-3h-1
		v-2l-1-1v-16l-4-3l-1-4l-3-3v-2l-4-3v-1l-2-2l-6-1l-3-4l-4-1v-5l-2-2h-2l-1-1l-1,1h-4l-3,2h-4l-3-2h-2l-4-5l-4-1l-1-1h-4l-4-2l-3,2
		h-2l-3-2h-5l-3,3v1h-7l-1-1h-4l-1,1v2l-2-1h-3l-2,2l-2,4h-5l-4,2h-10l-6,6h-6l-3-2l-2,2v2l2,3l-5,5h-2l-1,1h-9l-3,3v1l-4,1l-2,2h-3
		l-5-3l-1,1l-4,1l-4-2h-2l-2-2h-4l-1-1l-4-1l-3-4l-8-1l-3-3l-4-1l-1-4l-4-5v-3l-4-4h-3l-5-4l-4-1v-1l-7-7l-4-2l-12,1l-7-7v-2l-3-3
		h-1v-1l-3-3h-6l-3,2h-5l-1,1l-4,1l-2,2l-5-4h-4l-1-1l-1-5l-2-3h-4l-5,5v8l-8,8v5l-3,4v3l-1,1v9l-3,4l1,3l2,2h3l1-1h8l6,6v3l1,1v12
		l-2,2l-4,2l2,4l-2,3v3l2,3v2l3,4v12l1,1v3l2,3l-2,3v2l-1,1l-4,1l-2,2l-2,4l2,2h1l1,2v11l-1,1v2l1,1v3l-2,2h-2l-2,2v4h-2l-2,2v2
		l-4,3l-1,2h-2l-7,4l-3,3v1h-1l-3,3l-3,6l-4,3v1l-4,4l-2,4v4l-2,2v1l-2,1v1l4,4l-4,4l2,4l-2,5l2,3v2l-1,1h-2l-2-2l1-1l1-4l-4-4v-3
		l2-2v-3l2-4l-1-4l-1-1v-2l-1-1v-2l1-1v-6l1-1v-2l4-5v-3l4-5h1l5-5v-5l-4-2l-5-5h-1v-19l4-3v-2l-1-2l-5-5v-4l-2-2l-5-1l-2-2h-8l-3-2
		h-3l-5,4h-2l-5,3h-8l-6,6v3l3,2l3,6l-3,4v3l-4,3h-2l-3-4h-1l-2-2l-1-2h-3l-6,6h-5l-4-2l-4-4h-2l-3,2h-4l-2-2h-2l-2-2l-1-3l-3-4v-4
		l2-2v-4l-6-6v-2l-1-1l9-8v-6h1l7-7v-5l4-5v-2l1-1v-11l3-3l1-4l2-1l3-3v-1h1l3-3l1-2h1l2-2v-5l2-1l4-5h1l2-2l-1-1v-3l9-8v-5l9-8l1-2
		l2-1l2-5l3-3v-9l-1-1h-2l-1,1l-1,4l-4,3v2l-2,2v1l-6,3v5l-2,2l-4,1l-6,6l-6,2l-2,2l-2,5l-2,1h-4l-4,4l-2-1v-1l-2-2l-4-1l-3-3h-2
		l-4-5h-6l-1-1h-3l-1,1h-4l-2-2l-2,2v3l-1,2l-10,10h-4l-2,2l-4,1l-1,1h-3l-1-1h-25l-4,3l-2,5h-1l-2,2l-1,4h-2l-16-17l-2,2h-3l-4-5
		h-3l-1-1l-2,3v3l-3,3l-1,4l-1,1l-5,2l-3,3l-2,4h-3l-2,1l-2,4l-3,3h-2l-3,3v1l-2,1h-6l-5,5v2l-1,1l-3,1l-3,3l-3,1l-3,3l-2,4l-3,1
		l-3,3l-1,2v3l1,1v3l-4,2l-2,4h-5l-2-2v-3l-1-1l1-5l5-8v-6h1l7-7l1-2h6l2-4h1l5-5h1l1-2l5-5v-1h1l5-5h2l3-3l4-1l3-4h5l6-6v-5l2-3v-5
		l2-2v-4l-3-2l-1-2v-7l1-2h1l3-3v-11l-1-1l1-2l2-1h5l1-1v-2l-2-3v-4l-2-3v-19l-2-2h-1l-2-4l-5-1l-1-1h-5l-3,2l-4-5h-1l-4-4h-1v-1
		l-3-3h-1l-1-2v-4l-2-2h-3l-2-1l-7,5h-6l-2,2v1l3,4l1,4l-1,1v2l-3,4v2l-4,4l-2,4l-9,2l-2,2l4,8l3,3h5l1,1v3l-1,1v7l1,1v2l4,3v1l4,4
		v10l-1,2l-5-2l-5,5l-2,1v3l-3,6l-6,5l-1,2l-7,3l-4,4l-2,1h-6l-6,6l-2,1h-7l-3-2h-3l-7,6l-2-2h-4l-4,5l-1,6l-1,1h-3l-2,1l-1-1v-2
		l-2-2l-3-1v-1l-9-8v-1l-5-5l-3-1l-4-4l-3-1l-3-3h-5l-4-5l-2-1v-6l-3-3l-1-4l-7-7l-4-2h-4l-4-4h-1l-2,2l-2,4l-3,1l-3,3l-1,3l-3,4
		v353l2,2h715L729,1007z M95,834v-6l4-3v-1l2-2l2-1v-1l2-2h1l2-2l1-2l2-1v-1l5-5v-1l4-1l4-3v-3l14-14v-1h1l3-3v-5l1-2l1-1v1l3,3h2
		l5-5v-6l-1-1h-1l-2,2v2l-2,2h-3l-1,1v-3l1-1l1-4l4-3l2-5l4-4v-4l2,2h4l2,1l1,1l-3,3v6l-2,2l-4,2l3,4l-3,4v5h-1l-3,3v1l-4,4l-2,1h-3
		l-2,2v6l-4,3v1l-8,4l-2,2v2h-1l-4,4v1l-2,1l-2,4h-3l-2,1l-7,8l-4,1l-1,1v5l-4,2L95,834z"/>
	<path class="st10" d="M915,1009h54l3-3l1-3l2-2v-2l1-1v-9l1-2l2-2h2l3-2v-6l9-8v-7l3-3l1-2v-3l3-3l1-4l1-1h5l2-2v-24l-2-2h-1l-3,3
		v1l-2,1l-7,1l-3,4h-4l-2,1l-6,5l-1,2l-3,1l-4,4l-1,4l-4,3l-1,4l-4,1l-3,3v3l-1,1v5l-4,5v4h-1l-3,3v1l-5,5h-3l-2,1l-7,7v1h-1l-4,4
		h-1l-4,4h-4l-5,5h-1l-1,1v2l3,2L915,1009z"/>
</g>
</svg>
