<?xml version="1.0" encoding="utf-8" ?>
<svg baseProfile="full" height="100%" version="1.1" width="100%" xmlns="http://www.w3.org/2000/svg" xmlns:ev="http://www.w3.org/2001/xml-events" xmlns:xlink="http://www.w3.org/1999/xlink"><defs /><path d="M 34.0 511.0 L 14.0 511.0 L 9.0 507.0 L 9.0 10.0 L 10.0 9.0 L 305.0 9.0 L 308.0 13.0 L 308.0 17.0 L 309.0 18.0 L 309.0 24.0 L 310.0 25.0 L 310.0 29.0 L 312.0 32.0 L 312.0 35.0 L 313.0 36.0 L 314.0 45.0 L 318.0 51.0 L 318.0 56.0 L 322.0 64.0 L 323.0 70.0 L 324.0 71.0 L 324.0 73.0 L 325.0 74.0 L 325.0 76.0 L 327.0 80.0 L 327.0 83.0 L 331.0 91.0 L 331.0 95.0 L 335.0 102.0 L 335.0 104.0 L 337.0 108.0 L 343.0 114.0 L 344.0 116.0 L 346.0 116.0 L 347.0 115.0 L 360.0 115.0 L 361.0 114.0 L 367.0 114.0 L 368.0 115.0 L 381.0 115.0 L 388.0 119.0 L 390.0 119.0 L 397.0 125.0 L 399.0 126.0 L 402.0 126.0 L 406.0 128.0 L 409.0 131.0 L 421.0 137.0 L 423.0 137.0 L 424.0 138.0 L 428.0 139.0 L 433.0 144.0 L 434.0 147.0 L 438.0 149.0 L 440.0 151.0 L 444.0 153.0 L 446.0 153.0 L 448.0 155.0 L 452.0 156.0 L 462.0 161.0 L 464.0 163.0 L 480.0 170.0 L 482.0 172.0 L 486.0 174.0 L 495.0 174.0 L 497.0 175.0 L 502.0 180.0 L 502.0 181.0 L 505.0 184.0 L 505.0 185.0 L 508.0 188.0 L 508.0 189.0 L 510.0 189.0 L 511.0 190.0 L 513.0 189.0 L 513.0 187.0 L 509.0 181.0 L 509.0 178.0 L 508.0 177.0 L 508.0 172.0 L 513.0 167.0 L 521.0 163.0 L 527.0 164.0 L 528.0 165.0 L 535.0 165.0 L 536.0 166.0 L 538.0 166.0 L 540.0 168.0 L 544.0 170.0 L 547.0 173.0 L 551.0 174.0 L 556.0 177.0 L 567.0 178.0 L 572.0 183.0 L 572.0 185.0 L 573.0 186.0 L 572.0 192.0 L 563.0 202.0 L 558.0 204.0 L 556.0 206.0 L 554.0 210.0 L 550.0 214.0 L 546.0 215.0 L 545.0 216.0 L 542.0 216.0 L 541.0 215.0 L 538.0 215.0 L 536.0 216.0 L 535.0 218.0 L 530.0 223.0 L 529.0 223.0 L 524.0 228.0 L 522.0 229.0 L 518.0 228.0 L 514.0 224.0 L 514.0 216.0 L 518.0 212.0 L 519.0 212.0 L 522.0 209.0 L 522.0 208.0 L 520.0 208.0 L 519.0 209.0 L 516.0 209.0 L 515.0 208.0 L 510.0 208.0 L 507.0 210.0 L 502.0 211.0 L 501.0 212.0 L 501.0 216.0 L 505.0 221.0 L 506.0 223.0 L 506.0 226.0 L 507.0 227.0 L 507.0 237.0 L 508.0 238.0 L 507.0 241.0 L 502.0 246.0 L 501.0 246.0 L 496.0 250.0 L 492.0 251.0 L 490.0 253.0 L 489.0 258.0 L 485.0 262.0 L 477.0 262.0 L 475.0 261.0 L 473.0 259.0 L 471.0 255.0 L 471.0 252.0 L 469.0 248.0 L 465.0 246.0 L 464.0 247.0 L 462.0 247.0 L 457.0 252.0 L 456.0 254.0 L 456.0 257.0 L 459.0 261.0 L 459.0 262.0 L 464.0 266.0 L 466.0 272.0 L 464.0 276.0 L 462.0 278.0 L 451.0 284.0 L 439.0 284.0 L 438.0 283.0 L 432.0 282.0 L 426.0 276.0 L 426.0 274.0 L 421.0 266.0 L 421.0 263.0 L 420.0 262.0 L 419.0 258.0 L 412.0 251.0 L 408.0 249.0 L 396.0 249.0 L 395.0 250.0 L 390.0 250.0 L 389.0 251.0 L 381.0 251.0 L 380.0 250.0 L 377.0 250.0 L 375.0 249.0 L 372.0 246.0 L 372.0 236.0 L 373.0 235.0 L 373.0 230.0 L 378.0 225.0 L 382.0 224.0 L 383.0 225.0 L 386.0 225.0 L 389.0 227.0 L 396.0 227.0 L 397.0 226.0 L 399.0 226.0 L 402.0 223.0 L 409.0 219.0 L 413.0 215.0 L 414.0 211.0 L 415.0 210.0 L 413.0 207.0 L 408.0 207.0 L 407.0 208.0 L 403.0 209.0 L 398.0 213.0 L 395.0 213.0 L 391.0 208.0 L 391.0 197.0 L 387.0 194.0 L 383.0 194.0 L 382.0 193.0 L 380.0 193.0 L 374.0 188.0 L 369.0 186.0 L 361.0 178.0 L 360.0 176.0 L 360.0 173.0 L 364.0 169.0 L 366.0 165.0 L 366.0 161.0 L 364.0 157.0 L 360.0 155.0 L 353.0 148.0 L 351.0 144.0 L 351.0 142.0 L 350.0 141.0 L 350.0 133.0 L 349.0 131.0 L 344.0 126.0 L 342.0 120.0 L 339.0 120.0 L 336.0 118.0 L 329.0 118.0 L 327.0 119.0 L 326.0 120.0 L 325.0 125.0 L 320.0 130.0 L 317.0 131.0 L 313.0 134.0 L 307.0 135.0 L 304.0 138.0 L 303.0 141.0 L 300.0 144.0 L 300.0 145.0 L 297.0 148.0 L 297.0 149.0 L 293.0 153.0 L 288.0 153.0 L 287.0 152.0 L 285.0 152.0 L 284.0 153.0 L 276.0 153.0 L 275.0 152.0 L 272.0 152.0 L 268.0 150.0 L 265.0 150.0 L 264.0 152.0 L 265.0 155.0 L 269.0 159.0 L 271.0 160.0 L 281.0 160.0 L 282.0 161.0 L 287.0 161.0 L 288.0 162.0 L 291.0 162.0 L 296.0 167.0 L 298.0 171.0 L 304.0 171.0 L 305.0 170.0 L 308.0 171.0 L 313.0 176.0 L 314.0 178.0 L 314.0 181.0 L 316.0 185.0 L 316.0 191.0 L 314.0 195.0 L 314.0 212.0 L 308.0 224.0 L 302.0 231.0 L 298.0 233.0 L 292.0 234.0 L 281.0 240.0 L 279.0 240.0 L 271.0 244.0 L 266.0 244.0 L 263.0 242.0 L 259.0 242.0 L 255.0 244.0 L 253.0 246.0 L 251.0 246.0 L 246.0 249.0 L 241.0 249.0 L 237.0 246.0 L 236.0 246.0 L 233.0 243.0 L 229.0 241.0 L 226.0 238.0 L 224.0 232.0 L 222.0 231.0 L 211.0 220.0 L 209.0 219.0 L 207.0 219.0 L 202.0 216.0 L 192.0 216.0 L 190.0 215.0 L 184.0 208.0 L 182.0 208.0 L 181.0 207.0 L 178.0 207.0 L 177.0 206.0 L 174.0 206.0 L 173.0 205.0 L 168.0 205.0 L 163.0 210.0 L 160.0 210.0 L 159.0 209.0 L 157.0 209.0 L 156.0 208.0 L 154.0 208.0 L 150.0 206.0 L 144.0 200.0 L 142.0 199.0 L 137.0 199.0 L 135.0 200.0 L 133.0 202.0 L 133.0 204.0 L 136.0 207.0 L 138.0 207.0 L 142.0 209.0 L 146.0 213.0 L 146.0 214.0 L 148.0 215.0 L 166.0 216.0 L 167.0 217.0 L 177.0 217.0 L 178.0 218.0 L 180.0 218.0 L 185.0 223.0 L 186.0 225.0 L 186.0 228.0 L 187.0 229.0 L 187.0 238.0 L 181.0 244.0 L 180.0 247.0 L 178.0 249.0 L 178.0 251.0 L 177.0 252.0 L 177.0 257.0 L 174.0 263.0 L 174.0 268.0 L 173.0 269.0 L 173.0 278.0 L 174.0 280.0 L 179.0 284.0 L 180.0 284.0 L 180.0 281.0 L 179.0 280.0 L 179.0 273.0 L 178.0 272.0 L 178.0 263.0 L 182.0 259.0 L 185.0 259.0 L 187.0 258.0 L 191.0 254.0 L 193.0 253.0 L 198.0 253.0 L 203.0 257.0 L 209.0 257.0 L 210.0 256.0 L 212.0 256.0 L 216.0 254.0 L 222.0 254.0 L 230.0 259.0 L 232.0 258.0 L 239.0 258.0 L 240.0 257.0 L 243.0 257.0 L 247.0 255.0 L 249.0 256.0 L 259.0 256.0 L 260.0 255.0 L 262.0 255.0 L 266.0 257.0 L 273.0 257.0 L 274.0 256.0 L 277.0 256.0 L 278.0 255.0 L 294.0 256.0 L 296.0 257.0 L 300.0 261.0 L 301.0 264.0 L 309.0 271.0 L 309.0 272.0 L 311.0 274.0 L 312.0 280.0 L 311.0 281.0 L 311.0 283.0 L 304.0 290.0 L 304.0 291.0 L 295.0 299.0 L 291.0 301.0 L 285.0 301.0 L 281.0 305.0 L 280.0 307.0 L 280.0 322.0 L 283.0 327.0 L 283.0 333.0 L 279.0 337.0 L 274.0 337.0 L 270.0 334.0 L 266.0 333.0 L 265.0 335.0 L 259.0 340.0 L 259.0 342.0 L 258.0 343.0 L 258.0 347.0 L 262.0 352.0 L 264.0 356.0 L 263.0 362.0 L 262.0 363.0 L 262.0 372.0 L 261.0 373.0 L 261.0 377.0 L 258.0 383.0 L 254.0 387.0 L 253.0 387.0 L 249.0 390.0 L 244.0 390.0 L 243.0 389.0 L 240.0 389.0 L 235.0 386.0 L 228.0 386.0 L 227.0 387.0 L 224.0 387.0 L 216.0 391.0 L 203.0 391.0 L 197.0 394.0 L 191.0 394.0 L 187.0 392.0 L 183.0 388.0 L 181.0 387.0 L 178.0 387.0 L 177.0 389.0 L 177.0 398.0 L 176.0 400.0 L 171.0 405.0 L 167.0 407.0 L 160.0 408.0 L 157.0 410.0 L 151.0 410.0 L 148.0 408.0 L 144.0 408.0 L 140.0 411.0 L 132.0 412.0 L 130.0 414.0 L 126.0 416.0 L 112.0 416.0 L 106.0 413.0 L 97.0 404.0 L 93.0 403.0 L 89.0 405.0 L 86.0 405.0 L 81.0 400.0 L 80.0 398.0 L 80.0 395.0 L 78.0 391.0 L 76.0 391.0 L 75.0 392.0 L 74.0 396.0 L 71.0 399.0 L 64.0 399.0 L 60.0 397.0 L 57.0 394.0 L 57.0 393.0 L 52.0 388.0 L 51.0 388.0 L 49.0 390.0 L 49.0 393.0 L 50.0 395.0 L 52.0 397.0 L 56.0 399.0 L 59.0 402.0 L 63.0 404.0 L 70.0 411.0 L 78.0 415.0 L 80.0 415.0 L 84.0 417.0 L 93.0 417.0 L 96.0 419.0 L 99.0 419.0 L 103.0 421.0 L 105.0 423.0 L 111.0 424.0 L 115.0 426.0 L 118.0 429.0 L 123.0 431.0 L 128.0 436.0 L 129.0 438.0 L 129.0 441.0 L 130.0 442.0 L 130.0 452.0 L 131.0 453.0 L 131.0 456.0 L 130.0 457.0 L 130.0 462.0 L 126.0 466.0 L 122.0 466.0 L 118.0 462.0 L 117.0 462.0 L 114.0 459.0 L 113.0 459.0 L 108.0 454.0 L 100.0 450.0 L 96.0 449.0 L 87.0 442.0 L 83.0 442.0 L 76.0 447.0 L 72.0 447.0 L 68.0 452.0 L 68.0 454.0 L 67.0 455.0 L 67.0 457.0 L 73.0 463.0 L 72.0 467.0 L 69.0 470.0 L 68.0 470.0 L 63.0 476.0 L 62.0 479.0 L 60.0 481.0 L 59.0 486.0 L 57.0 490.0 L 55.0 492.0 L 51.0 501.0 L 46.0 506.0 L 41.0 507.0 L 39.0 509.0 L 35.0 510.0 L 34.0 511.0" /><path d="M 492.0 52.0 L 481.0 52.0 L 471.0 47.0 L 461.0 47.0 L 454.0 52.0 L 450.0 52.0 L 448.0 51.0 L 444.0 46.0 L 445.0 45.0 L 445.0 42.0 L 446.0 40.0 L 440.0 32.0 L 441.0 30.0 L 441.0 25.0 L 437.0 20.0 L 434.0 20.0 L 433.0 19.0 L 430.0 20.0 L 428.0 22.0 L 427.0 25.0 L 424.0 28.0 L 424.0 30.0 L 423.0 31.0 L 423.0 37.0 L 420.0 40.0 L 418.0 40.0 L 417.0 41.0 L 416.0 40.0 L 414.0 40.0 L 408.0 34.0 L 408.0 33.0 L 404.0 29.0 L 402.0 28.0 L 395.0 28.0 L 394.0 29.0 L 385.0 29.0 L 384.0 30.0 L 384.0 32.0 L 385.0 33.0 L 385.0 39.0 L 379.0 45.0 L 376.0 45.0 L 368.0 38.0 L 366.0 38.0 L 363.0 36.0 L 361.0 36.0 L 352.0 27.0 L 348.0 19.0 L 348.0 14.0 L 352.0 9.0 L 532.0 9.0 L 534.0 13.0 L 530.0 17.0 L 527.0 18.0 L 524.0 21.0 L 523.0 21.0 L 513.0 30.0 L 513.0 31.0 L 510.0 35.0 L 510.0 38.0 L 509.0 40.0 L 506.0 43.0 L 500.0 46.0 L 492.0 52.0" /><path d="M 779.0 99.0 L 774.0 98.0 L 771.0 95.0 L 770.0 93.0 L 770.0 90.0 L 768.0 87.0 L 766.0 87.0 L 765.0 89.0 L 761.0 93.0 L 754.0 93.0 L 753.0 92.0 L 749.0 92.0 L 743.0 89.0 L 740.0 89.0 L 736.0 91.0 L 726.0 91.0 L 721.0 88.0 L 715.0 88.0 L 711.0 86.0 L 703.0 86.0 L 686.0 78.0 L 679.0 78.0 L 678.0 77.0 L 675.0 77.0 L 672.0 75.0 L 670.0 75.0 L 666.0 73.0 L 654.0 73.0 L 653.0 72.0 L 649.0 73.0 L 644.0 76.0 L 638.0 76.0 L 632.0 79.0 L 626.0 84.0 L 624.0 85.0 L 621.0 85.0 L 614.0 91.0 L 608.0 93.0 L 607.0 92.0 L 604.0 92.0 L 599.0 87.0 L 599.0 86.0 L 595.0 82.0 L 594.0 82.0 L 581.0 68.0 L 575.0 68.0 L 569.0 64.0 L 564.0 64.0 L 559.0 68.0 L 552.0 68.0 L 544.0 72.0 L 537.0 72.0 L 535.0 71.0 L 532.0 68.0 L 530.0 64.0 L 529.0 64.0 L 526.0 61.0 L 524.0 57.0 L 524.0 46.0 L 527.0 42.0 L 527.0 41.0 L 542.0 26.0 L 550.0 22.0 L 554.0 18.0 L 555.0 18.0 L 562.0 10.0 L 564.0 9.0 L 819.0 9.0 L 821.0 11.0 L 821.0 20.0 L 824.0 24.0 L 825.0 28.0 L 827.0 30.0 L 827.0 31.0 L 833.0 37.0 L 834.0 39.0 L 833.0 45.0 L 830.0 51.0 L 823.0 58.0 L 819.0 60.0 L 786.0 93.0 L 786.0 94.0 L 783.0 97.0 L 779.0 99.0" /><path d="M 851.0 29.0 L 841.0 29.0 L 836.0 24.0 L 832.0 16.0 L 832.0 11.0 L 834.0 9.0 L 854.0 9.0 L 857.0 12.0 L 858.0 16.0 L 856.0 20.0 L 856.0 25.0 L 851.0 29.0" /><path d="M 1006.0 113.0 L 1003.0 113.0 L 998.0 110.0 L 995.0 110.0 L 994.0 109.0 L 979.0 109.0 L 973.0 106.0 L 971.0 106.0 L 963.0 101.0 L 958.0 100.0 L 953.0 96.0 L 949.0 88.0 L 947.0 79.0 L 944.0 75.0 L 942.0 70.0 L 933.0 59.0 L 932.0 55.0 L 931.0 54.0 L 931.0 52.0 L 929.0 50.0 L 929.0 49.0 L 926.0 46.0 L 925.0 46.0 L 919.0 39.0 L 916.0 32.0 L 910.0 26.0 L 907.0 19.0 L 905.0 17.0 L 905.0 12.0 L 907.0 9.0 L 1009.0 9.0 L 1010.0 10.0 L 1010.0 109.0 L 1006.0 113.0" /><path d="M 736.0 372.0 L 721.0 372.0 L 714.0 366.0 L 697.0 358.0 L 691.0 352.0 L 689.0 348.0 L 689.0 339.0 L 688.0 338.0 L 688.0 336.0 L 686.0 332.0 L 684.0 331.0 L 680.0 327.0 L 679.0 327.0 L 674.0 322.0 L 674.0 321.0 L 668.0 314.0 L 668.0 312.0 L 665.0 307.0 L 663.0 306.0 L 660.0 306.0 L 656.0 304.0 L 651.0 299.0 L 647.0 297.0 L 640.0 296.0 L 634.0 293.0 L 624.0 294.0 L 620.0 289.0 L 621.0 284.0 L 626.0 278.0 L 630.0 276.0 L 638.0 268.0 L 642.0 267.0 L 644.0 265.0 L 648.0 263.0 L 650.0 259.0 L 658.0 252.0 L 658.0 249.0 L 660.0 245.0 L 662.0 243.0 L 663.0 239.0 L 664.0 238.0 L 664.0 234.0 L 663.0 233.0 L 663.0 219.0 L 664.0 218.0 L 664.0 213.0 L 663.0 212.0 L 663.0 208.0 L 662.0 207.0 L 662.0 186.0 L 661.0 184.0 L 655.0 178.0 L 650.0 169.0 L 650.0 164.0 L 645.0 157.0 L 645.0 152.0 L 646.0 150.0 L 653.0 140.0 L 657.0 138.0 L 662.0 133.0 L 666.0 131.0 L 668.0 131.0 L 669.0 130.0 L 678.0 130.0 L 679.0 129.0 L 684.0 129.0 L 685.0 128.0 L 693.0 128.0 L 694.0 127.0 L 699.0 127.0 L 707.0 131.0 L 710.0 131.0 L 712.0 132.0 L 718.0 138.0 L 723.0 138.0 L 726.0 136.0 L 739.0 136.0 L 743.0 138.0 L 751.0 139.0 L 757.0 144.0 L 758.0 144.0 L 762.0 147.0 L 777.0 147.0 L 785.0 151.0 L 795.0 151.0 L 798.0 149.0 L 800.0 141.0 L 806.0 136.0 L 807.0 130.0 L 808.0 129.0 L 808.0 125.0 L 818.0 115.0 L 820.0 111.0 L 820.0 106.0 L 822.0 102.0 L 830.0 93.0 L 847.0 85.0 L 854.0 84.0 L 857.0 82.0 L 864.0 82.0 L 872.0 76.0 L 886.0 76.0 L 890.0 74.0 L 891.0 72.0 L 895.0 68.0 L 897.0 67.0 L 902.0 66.0 L 911.0 61.0 L 914.0 61.0 L 915.0 60.0 L 916.0 61.0 L 918.0 61.0 L 922.0 65.0 L 927.0 75.0 L 934.0 83.0 L 935.0 85.0 L 935.0 95.0 L 938.0 101.0 L 938.0 105.0 L 937.0 107.0 L 931.0 113.0 L 925.0 116.0 L 922.0 121.0 L 923.0 125.0 L 924.0 126.0 L 923.0 130.0 L 922.0 131.0 L 922.0 136.0 L 923.0 137.0 L 922.0 145.0 L 907.0 161.0 L 901.0 162.0 L 896.0 165.0 L 891.0 165.0 L 887.0 161.0 L 881.0 158.0 L 867.0 145.0 L 864.0 144.0 L 862.0 145.0 L 859.0 149.0 L 859.0 151.0 L 860.0 152.0 L 860.0 159.0 L 857.0 165.0 L 850.0 172.0 L 844.0 172.0 L 843.0 171.0 L 841.0 171.0 L 837.0 173.0 L 829.0 173.0 L 828.0 174.0 L 825.0 174.0 L 825.0 182.0 L 831.0 194.0 L 836.0 195.0 L 843.0 200.0 L 845.0 200.0 L 846.0 201.0 L 854.0 203.0 L 862.0 210.0 L 869.0 213.0 L 871.0 215.0 L 875.0 217.0 L 877.0 217.0 L 878.0 218.0 L 882.0 218.0 L 886.0 220.0 L 889.0 224.0 L 889.0 227.0 L 888.0 229.0 L 881.0 236.0 L 876.0 238.0 L 874.0 240.0 L 870.0 242.0 L 868.0 242.0 L 864.0 245.0 L 863.0 247.0 L 863.0 250.0 L 862.0 251.0 L 862.0 255.0 L 861.0 256.0 L 861.0 258.0 L 856.0 263.0 L 848.0 265.0 L 847.0 264.0 L 845.0 264.0 L 841.0 262.0 L 837.0 259.0 L 835.0 259.0 L 834.0 258.0 L 830.0 257.0 L 822.0 249.0 L 822.0 248.0 L 812.0 239.0 L 812.0 238.0 L 809.0 235.0 L 807.0 230.0 L 799.0 221.0 L 799.0 220.0 L 786.0 209.0 L 776.0 204.0 L 761.0 204.0 L 758.0 206.0 L 757.0 209.0 L 751.0 215.0 L 747.0 215.0 L 746.0 216.0 L 744.0 216.0 L 742.0 218.0 L 742.0 220.0 L 741.0 221.0 L 739.0 229.0 L 733.0 235.0 L 732.0 237.0 L 732.0 241.0 L 734.0 243.0 L 739.0 243.0 L 740.0 242.0 L 747.0 242.0 L 749.0 244.0 L 750.0 244.0 L 752.0 246.0 L 754.0 250.0 L 752.0 254.0 L 747.0 259.0 L 745.0 260.0 L 737.0 260.0 L 732.0 263.0 L 724.0 263.0 L 723.0 264.0 L 712.0 264.0 L 707.0 267.0 L 701.0 268.0 L 699.0 270.0 L 698.0 270.0 L 691.0 277.0 L 691.0 278.0 L 689.0 280.0 L 689.0 282.0 L 688.0 283.0 L 689.0 293.0 L 692.0 298.0 L 692.0 300.0 L 701.0 309.0 L 707.0 312.0 L 712.0 318.0 L 715.0 319.0 L 717.0 321.0 L 719.0 321.0 L 725.0 324.0 L 733.0 331.0 L 739.0 334.0 L 743.0 335.0 L 748.0 339.0 L 753.0 341.0 L 756.0 344.0 L 758.0 348.0 L 760.0 356.0 L 761.0 357.0 L 761.0 363.0 L 760.0 365.0 L 755.0 369.0 L 742.0 369.0 L 736.0 372.0" /><path d="M 729.0 1010.0 L 10.0 1010.0 L 9.0 1009.0 L 9.0 651.0 L 10.0 649.0 L 17.0 641.0 L 17.0 640.0 L 22.0 635.0 L 27.0 635.0 L 30.0 637.0 L 32.0 637.0 L 38.0 640.0 L 46.0 648.0 L 47.0 651.0 L 49.0 653.0 L 51.0 657.0 L 52.0 662.0 L 56.0 666.0 L 59.0 666.0 L 65.0 669.0 L 71.0 675.0 L 72.0 675.0 L 75.0 678.0 L 76.0 678.0 L 91.0 693.0 L 93.0 694.0 L 95.0 694.0 L 97.0 688.0 L 101.0 684.0 L 107.0 684.0 L 115.0 680.0 L 122.0 680.0 L 123.0 681.0 L 127.0 681.0 L 131.0 679.0 L 136.0 674.0 L 142.0 673.0 L 146.0 671.0 L 148.0 669.0 L 153.0 667.0 L 161.0 659.0 L 163.0 653.0 L 169.0 647.0 L 173.0 646.0 L 176.0 644.0 L 176.0 638.0 L 175.0 636.0 L 169.0 630.0 L 167.0 626.0 L 167.0 618.0 L 163.0 616.0 L 158.0 611.0 L 158.0 609.0 L 157.0 608.0 L 157.0 602.0 L 161.0 598.0 L 165.0 597.0 L 167.0 595.0 L 168.0 595.0 L 172.0 590.0 L 172.0 588.0 L 175.0 582.0 L 175.0 579.0 L 173.0 575.0 L 174.0 572.0 L 176.0 570.0 L 180.0 568.0 L 182.0 568.0 L 189.0 564.0 L 193.0 564.0 L 195.0 565.0 L 200.0 570.0 L 201.0 573.0 L 210.0 581.0 L 212.0 582.0 L 217.0 582.0 L 218.0 583.0 L 224.0 584.0 L 226.0 585.0 L 233.0 592.0 L 234.0 594.0 L 234.0 612.0 L 237.0 618.0 L 237.0 625.0 L 234.0 628.0 L 230.0 630.0 L 230.0 632.0 L 229.0 633.0 L 230.0 639.0 L 229.0 640.0 L 228.0 644.0 L 225.0 648.0 L 225.0 651.0 L 229.0 658.0 L 229.0 664.0 L 225.0 672.0 L 224.0 677.0 L 218.0 683.0 L 210.0 686.0 L 203.0 692.0 L 200.0 693.0 L 197.0 696.0 L 196.0 696.0 L 194.0 698.0 L 194.0 699.0 L 179.0 713.0 L 175.0 715.0 L 173.0 715.0 L 171.0 717.0 L 171.0 718.0 L 166.0 723.0 L 166.0 725.0 L 165.0 726.0 L 165.0 730.0 L 162.0 734.0 L 162.0 736.0 L 161.0 737.0 L 161.0 741.0 L 162.0 742.0 L 164.0 742.0 L 166.0 740.0 L 167.0 738.0 L 167.0 733.0 L 169.0 729.0 L 171.0 727.0 L 175.0 725.0 L 177.0 723.0 L 177.0 722.0 L 181.0 718.0 L 182.0 718.0 L 186.0 714.0 L 187.0 714.0 L 193.0 707.0 L 194.0 707.0 L 196.0 705.0 L 199.0 705.0 L 200.0 704.0 L 204.0 703.0 L 215.0 693.0 L 216.0 693.0 L 230.0 680.0 L 234.0 672.0 L 238.0 669.0 L 242.0 669.0 L 244.0 671.0 L 248.0 673.0 L 251.0 673.0 L 253.0 674.0 L 265.0 687.0 L 267.0 687.0 L 277.0 676.0 L 279.0 676.0 L 280.0 675.0 L 301.0 675.0 L 302.0 676.0 L 307.0 676.0 L 312.0 673.0 L 314.0 673.0 L 318.0 671.0 L 321.0 668.0 L 322.0 668.0 L 325.0 665.0 L 328.0 659.0 L 332.0 656.0 L 343.0 656.0 L 344.0 657.0 L 347.0 657.0 L 349.0 658.0 L 353.0 662.0 L 354.0 662.0 L 356.0 664.0 L 359.0 665.0 L 363.0 668.0 L 368.0 668.0 L 372.0 666.0 L 378.0 659.0 L 383.0 657.0 L 390.0 651.0 L 393.0 650.0 L 396.0 644.0 L 399.0 641.0 L 400.0 641.0 L 406.0 634.0 L 406.0 633.0 L 408.0 631.0 L 408.0 620.0 L 413.0 613.0 L 413.0 604.0 L 419.0 598.0 L 419.0 593.0 L 418.0 592.0 L 418.0 590.0 L 417.0 589.0 L 417.0 587.0 L 416.0 586.0 L 415.0 582.0 L 396.0 565.0 L 394.0 557.0 L 386.0 549.0 L 386.0 545.0 L 389.0 540.0 L 389.0 530.0 L 388.0 529.0 L 388.0 522.0 L 389.0 521.0 L 389.0 517.0 L 390.0 516.0 L 390.0 513.0 L 391.0 512.0 L 391.0 504.0 L 392.0 503.0 L 392.0 499.0 L 393.0 498.0 L 393.0 493.0 L 387.0 492.0 L 384.0 489.0 L 383.0 485.0 L 381.0 483.0 L 381.0 482.0 L 374.0 475.0 L 374.0 473.0 L 373.0 472.0 L 373.0 467.0 L 374.0 466.0 L 373.0 465.0 L 373.0 463.0 L 370.0 459.0 L 367.0 452.0 L 361.0 446.0 L 360.0 444.0 L 360.0 440.0 L 359.0 439.0 L 359.0 432.0 L 360.0 431.0 L 360.0 429.0 L 364.0 421.0 L 369.0 416.0 L 373.0 416.0 L 374.0 415.0 L 381.0 415.0 L 382.0 414.0 L 384.0 414.0 L 388.0 411.0 L 389.0 411.0 L 391.0 408.0 L 391.0 402.0 L 382.0 384.0 L 382.0 382.0 L 378.0 377.0 L 378.0 373.0 L 382.0 366.0 L 382.0 357.0 L 387.0 352.0 L 391.0 350.0 L 395.0 346.0 L 395.0 344.0 L 398.0 340.0 L 402.0 339.0 L 407.0 343.0 L 408.0 348.0 L 415.0 355.0 L 417.0 361.0 L 423.0 367.0 L 423.0 368.0 L 425.0 370.0 L 425.0 372.0 L 427.0 376.0 L 432.0 381.0 L 436.0 383.0 L 438.0 383.0 L 441.0 385.0 L 443.0 385.0 L 444.0 386.0 L 451.0 386.0 L 452.0 385.0 L 455.0 385.0 L 462.0 392.0 L 466.0 392.0 L 467.0 391.0 L 475.0 391.0 L 480.0 394.0 L 485.0 394.0 L 486.0 393.0 L 488.0 393.0 L 491.0 390.0 L 492.0 390.0 L 500.0 382.0 L 500.0 380.0 L 501.0 379.0 L 501.0 374.0 L 503.0 371.0 L 502.0 367.0 L 496.0 361.0 L 494.0 357.0 L 491.0 354.0 L 483.0 351.0 L 480.0 347.0 L 480.0 344.0 L 481.0 342.0 L 485.0 338.0 L 486.0 336.0 L 486.0 330.0 L 487.0 329.0 L 487.0 326.0 L 488.0 324.0 L 493.0 319.0 L 498.0 319.0 L 501.0 321.0 L 507.0 321.0 L 508.0 322.0 L 512.0 322.0 L 519.0 326.0 L 523.0 326.0 L 524.0 327.0 L 526.0 327.0 L 536.0 332.0 L 546.0 341.0 L 546.0 342.0 L 549.0 346.0 L 549.0 350.0 L 548.0 351.0 L 547.0 356.0 L 544.0 361.0 L 544.0 371.0 L 542.0 375.0 L 536.0 381.0 L 534.0 382.0 L 525.0 382.0 L 523.0 383.0 L 523.0 385.0 L 522.0 386.0 L 522.0 388.0 L 520.0 392.0 L 515.0 397.0 L 512.0 398.0 L 510.0 400.0 L 508.0 405.0 L 506.0 407.0 L 505.0 410.0 L 503.0 412.0 L 502.0 415.0 L 499.0 418.0 L 497.0 422.0 L 498.0 427.0 L 500.0 429.0 L 500.0 430.0 L 502.0 432.0 L 502.0 433.0 L 509.0 443.0 L 509.0 450.0 L 505.0 454.0 L 501.0 454.0 L 497.0 456.0 L 497.0 458.0 L 498.0 458.0 L 502.0 462.0 L 502.0 464.0 L 503.0 465.0 L 502.0 471.0 L 498.0 476.0 L 497.0 478.0 L 497.0 481.0 L 498.0 482.0 L 499.0 486.0 L 500.0 486.0 L 502.0 481.0 L 504.0 479.0 L 506.0 475.0 L 509.0 472.0 L 511.0 464.0 L 517.0 458.0 L 525.0 458.0 L 526.0 459.0 L 529.0 459.0 L 535.0 462.0 L 545.0 462.0 L 547.0 463.0 L 552.0 468.0 L 552.0 483.0 L 550.0 487.0 L 545.0 492.0 L 543.0 493.0 L 534.0 493.0 L 530.0 495.0 L 528.0 497.0 L 527.0 497.0 L 516.0 509.0 L 515.0 509.0 L 511.0 512.0 L 507.0 513.0 L 506.0 517.0 L 505.0 518.0 L 505.0 528.0 L 503.0 532.0 L 500.0 535.0 L 498.0 536.0 L 494.0 536.0 L 490.0 533.0 L 485.0 531.0 L 483.0 529.0 L 479.0 527.0 L 467.0 527.0 L 459.0 531.0 L 456.0 534.0 L 452.0 535.0 L 451.0 536.0 L 449.0 536.0 L 443.0 540.0 L 443.0 542.0 L 442.0 543.0 L 442.0 548.0 L 444.0 552.0 L 444.0 556.0 L 443.0 557.0 L 441.0 565.0 L 436.0 573.0 L 436.0 579.0 L 437.0 580.0 L 437.0 584.0 L 433.0 592.0 L 432.0 599.0 L 429.0 604.0 L 429.0 607.0 L 426.0 612.0 L 426.0 616.0 L 425.0 617.0 L 425.0 619.0 L 421.0 623.0 L 417.0 631.0 L 417.0 640.0 L 414.0 644.0 L 414.0 645.0 L 411.0 648.0 L 411.0 649.0 L 406.0 654.0 L 405.0 654.0 L 401.0 657.0 L 400.0 661.0 L 399.0 662.0 L 399.0 664.0 L 392.0 671.0 L 390.0 677.0 L 383.0 684.0 L 379.0 692.0 L 370.0 701.0 L 369.0 704.0 L 367.0 706.0 L 365.0 710.0 L 365.0 719.0 L 361.0 726.0 L 360.0 731.0 L 359.0 733.0 L 354.0 738.0 L 352.0 742.0 L 351.0 747.0 L 346.0 752.0 L 346.0 755.0 L 349.0 759.0 L 350.0 763.0 L 351.0 764.0 L 350.0 765.0 L 350.0 771.0 L 353.0 777.0 L 357.0 779.0 L 362.0 779.0 L 364.0 778.0 L 374.0 783.0 L 376.0 783.0 L 383.0 779.0 L 388.0 779.0 L 394.0 784.0 L 396.0 784.0 L 399.0 780.0 L 399.0 776.0 L 395.0 769.0 L 395.0 766.0 L 396.0 764.0 L 401.0 759.0 L 413.0 757.0 L 421.0 752.0 L 427.0 752.0 L 428.0 753.0 L 432.0 753.0 L 433.0 754.0 L 438.0 754.0 L 439.0 755.0 L 441.0 755.0 L 442.0 756.0 L 446.0 757.0 L 450.0 761.0 L 452.0 765.0 L 452.0 767.0 L 453.0 768.0 L 453.0 774.0 L 450.0 780.0 L 450.0 792.0 L 452.0 796.0 L 454.0 797.0 L 460.0 803.0 L 461.0 805.0 L 460.0 809.0 L 452.0 817.0 L 449.0 824.0 L 447.0 826.0 L 447.0 828.0 L 446.0 829.0 L 446.0 838.0 L 448.0 836.0 L 450.0 832.0 L 457.0 825.0 L 460.0 819.0 L 471.0 808.0 L 477.0 805.0 L 480.0 802.0 L 480.0 801.0 L 483.0 798.0 L 483.0 797.0 L 490.0 790.0 L 490.0 786.0 L 491.0 785.0 L 491.0 774.0 L 489.0 771.0 L 489.0 766.0 L 497.0 758.0 L 497.0 752.0 L 496.0 751.0 L 496.0 740.0 L 490.0 728.0 L 490.0 723.0 L 491.0 722.0 L 491.0 718.0 L 496.0 713.0 L 496.0 710.0 L 497.0 708.0 L 496.0 707.0 L 496.0 702.0 L 494.0 698.0 L 490.0 696.0 L 483.0 696.0 L 479.0 694.0 L 477.0 692.0 L 476.0 690.0 L 476.0 682.0 L 477.0 681.0 L 477.0 675.0 L 479.0 672.0 L 481.0 664.0 L 484.0 660.0 L 484.0 659.0 L 488.0 655.0 L 489.0 653.0 L 490.0 645.0 L 496.0 639.0 L 501.0 639.0 L 503.0 640.0 L 505.0 642.0 L 507.0 646.0 L 513.0 649.0 L 518.0 649.0 L 519.0 648.0 L 521.0 648.0 L 522.0 647.0 L 526.0 647.0 L 527.0 646.0 L 536.0 646.0 L 549.0 660.0 L 551.0 660.0 L 552.0 661.0 L 553.0 660.0 L 561.0 660.0 L 565.0 662.0 L 568.0 665.0 L 569.0 665.0 L 574.0 670.0 L 577.0 671.0 L 582.0 675.0 L 586.0 676.0 L 590.0 680.0 L 591.0 684.0 L 595.0 691.0 L 596.0 691.0 L 598.0 693.0 L 604.0 696.0 L 606.0 696.0 L 616.0 702.0 L 619.0 702.0 L 625.0 705.0 L 643.0 706.0 L 650.0 701.0 L 655.0 701.0 L 656.0 700.0 L 659.0 700.0 L 662.0 698.0 L 663.0 696.0 L 663.0 693.0 L 667.0 689.0 L 674.0 689.0 L 682.0 684.0 L 684.0 684.0 L 685.0 683.0 L 692.0 683.0 L 693.0 682.0 L 698.0 681.0 L 700.0 680.0 L 705.0 675.0 L 711.0 672.0 L 715.0 673.0 L 716.0 674.0 L 721.0 674.0 L 726.0 671.0 L 733.0 671.0 L 734.0 672.0 L 749.0 672.0 L 751.0 673.0 L 758.0 680.0 L 760.0 680.0 L 761.0 681.0 L 771.0 680.0 L 772.0 679.0 L 773.0 680.0 L 776.0 680.0 L 778.0 681.0 L 780.0 683.0 L 782.0 687.0 L 786.0 691.0 L 792.0 693.0 L 800.0 701.0 L 804.0 709.0 L 807.0 713.0 L 807.0 715.0 L 808.0 716.0 L 808.0 727.0 L 809.0 728.0 L 809.0 730.0 L 812.0 734.0 L 812.0 736.0 L 813.0 737.0 L 813.0 741.0 L 814.0 742.0 L 814.0 755.0 L 813.0 756.0 L 813.0 759.0 L 812.0 761.0 L 807.0 765.0 L 804.0 765.0 L 793.0 759.0 L 789.0 759.0 L 788.0 760.0 L 783.0 761.0 L 781.0 763.0 L 780.0 766.0 L 773.0 773.0 L 769.0 774.0 L 765.0 777.0 L 759.0 777.0 L 757.0 778.0 L 757.0 780.0 L 756.0 781.0 L 756.0 786.0 L 755.0 787.0 L 754.0 793.0 L 749.0 798.0 L 743.0 800.0 L 740.0 803.0 L 740.0 804.0 L 731.0 812.0 L 729.0 812.0 L 722.0 816.0 L 718.0 816.0 L 717.0 815.0 L 709.0 815.0 L 708.0 816.0 L 705.0 816.0 L 704.0 817.0 L 694.0 817.0 L 689.0 820.0 L 687.0 820.0 L 682.0 815.0 L 680.0 807.0 L 671.0 800.0 L 666.0 799.0 L 659.0 795.0 L 656.0 795.0 L 655.0 794.0 L 653.0 794.0 L 650.0 792.0 L 648.0 792.0 L 644.0 790.0 L 638.0 790.0 L 637.0 789.0 L 632.0 788.0 L 631.0 789.0 L 627.0 790.0 L 618.0 798.0 L 616.0 798.0 L 615.0 799.0 L 610.0 799.0 L 609.0 798.0 L 598.0 798.0 L 597.0 797.0 L 594.0 797.0 L 593.0 798.0 L 586.0 799.0 L 578.0 803.0 L 573.0 803.0 L 572.0 804.0 L 570.0 804.0 L 569.0 807.0 L 566.0 810.0 L 560.0 810.0 L 556.0 808.0 L 551.0 804.0 L 547.0 804.0 L 544.0 808.0 L 544.0 813.0 L 540.0 821.0 L 540.0 824.0 L 542.0 826.0 L 544.0 830.0 L 544.0 834.0 L 545.0 835.0 L 545.0 839.0 L 544.0 840.0 L 544.0 844.0 L 543.0 846.0 L 544.0 847.0 L 545.0 851.0 L 548.0 855.0 L 548.0 857.0 L 550.0 859.0 L 552.0 863.0 L 552.0 866.0 L 548.0 873.0 L 548.0 877.0 L 547.0 878.0 L 547.0 880.0 L 543.0 885.0 L 543.0 886.0 L 540.0 889.0 L 539.0 891.0 L 539.0 894.0 L 541.0 896.0 L 547.0 897.0 L 557.0 908.0 L 560.0 909.0 L 566.0 914.0 L 570.0 913.0 L 577.0 907.0 L 579.0 907.0 L 586.0 903.0 L 598.0 906.0 L 603.0 911.0 L 603.0 914.0 L 604.0 915.0 L 604.0 920.0 L 605.0 921.0 L 605.0 923.0 L 604.0 924.0 L 604.0 931.0 L 605.0 933.0 L 609.0 937.0 L 612.0 943.0 L 612.0 946.0 L 615.0 949.0 L 615.0 950.0 L 616.0 950.0 L 620.0 953.0 L 630.0 953.0 L 631.0 952.0 L 637.0 953.0 L 642.0 957.0 L 643.0 961.0 L 647.0 964.0 L 653.0 963.0 L 655.0 961.0 L 658.0 960.0 L 661.0 957.0 L 665.0 956.0 L 666.0 957.0 L 668.0 957.0 L 674.0 963.0 L 674.0 964.0 L 682.0 973.0 L 684.0 972.0 L 690.0 972.0 L 694.0 970.0 L 696.0 968.0 L 699.0 968.0 L 700.0 967.0 L 701.0 968.0 L 703.0 968.0 L 710.0 973.0 L 716.0 974.0 L 717.0 975.0 L 720.0 975.0 L 721.0 976.0 L 724.0 976.0 L 732.0 984.0 L 732.0 986.0 L 733.0 987.0 L 733.0 993.0 L 732.0 994.0 L 732.0 1004.0 L 729.0 1010.0" /><path d="M 977.0 578.0 L 972.0 578.0 L 968.0 574.0 L 968.0 572.0 L 970.0 569.0 L 970.0 563.0 L 968.0 559.0 L 965.0 556.0 L 964.0 553.0 L 962.0 552.0 L 956.0 552.0 L 955.0 551.0 L 952.0 551.0 L 944.0 544.0 L 934.0 542.0 L 930.0 539.0 L 925.0 537.0 L 923.0 535.0 L 923.0 534.0 L 921.0 532.0 L 918.0 520.0 L 916.0 518.0 L 915.0 518.0 L 911.0 513.0 L 912.0 507.0 L 917.0 502.0 L 929.0 502.0 L 933.0 500.0 L 937.0 500.0 L 938.0 501.0 L 950.0 501.0 L 951.0 502.0 L 953.0 502.0 L 969.0 518.0 L 970.0 518.0 L 972.0 520.0 L 975.0 521.0 L 976.0 520.0 L 980.0 520.0 L 981.0 519.0 L 983.0 519.0 L 984.0 520.0 L 986.0 520.0 L 990.0 524.0 L 992.0 528.0 L 992.0 530.0 L 993.0 531.0 L 993.0 534.0 L 991.0 538.0 L 991.0 551.0 L 992.0 552.0 L 992.0 558.0 L 991.0 559.0 L 991.0 568.0 L 990.0 569.0 L 990.0 571.0 L 986.0 575.0 L 983.0 575.0 L 977.0 578.0" /><path d="M 92.0 685.0 L 88.0 684.0 L 82.0 678.0 L 80.0 674.0 L 75.0 669.0 L 73.0 668.0 L 70.0 668.0 L 66.0 665.0 L 64.0 665.0 L 58.0 662.0 L 56.0 660.0 L 54.0 656.0 L 54.0 651.0 L 53.0 650.0 L 52.0 646.0 L 46.0 639.0 L 42.0 638.0 L 35.0 634.0 L 24.0 634.0 L 23.0 635.0 L 21.0 635.0 L 19.0 637.0 L 13.0 637.0 L 9.0 634.0 L 9.0 550.0 L 10.0 549.0 L 14.0 548.0 L 15.0 547.0 L 21.0 546.0 L 24.0 544.0 L 36.0 544.0 L 43.0 540.0 L 49.0 540.0 L 54.0 543.0 L 59.0 543.0 L 60.0 544.0 L 63.0 544.0 L 64.0 545.0 L 78.0 545.0 L 79.0 544.0 L 81.0 544.0 L 82.0 543.0 L 84.0 543.0 L 87.0 541.0 L 90.0 541.0 L 91.0 540.0 L 98.0 540.0 L 99.0 541.0 L 103.0 541.0 L 107.0 544.0 L 108.0 547.0 L 107.0 548.0 L 107.0 551.0 L 106.0 552.0 L 106.0 557.0 L 109.0 563.0 L 109.0 569.0 L 113.0 576.0 L 114.0 582.0 L 121.0 591.0 L 121.0 599.0 L 119.0 603.0 L 119.0 611.0 L 118.0 612.0 L 118.0 615.0 L 117.0 616.0 L 117.0 619.0 L 116.0 620.0 L 116.0 623.0 L 115.0 624.0 L 115.0 632.0 L 114.0 633.0 L 114.0 638.0 L 113.0 639.0 L 112.0 645.0 L 114.0 648.0 L 117.0 648.0 L 118.0 649.0 L 119.0 648.0 L 123.0 648.0 L 126.0 646.0 L 131.0 646.0 L 136.0 651.0 L 137.0 653.0 L 137.0 657.0 L 136.0 659.0 L 131.0 664.0 L 127.0 666.0 L 124.0 666.0 L 120.0 664.0 L 116.0 664.0 L 115.0 667.0 L 112.0 670.0 L 110.0 670.0 L 104.0 673.0 L 100.0 677.0 L 100.0 678.0 L 94.0 684.0 L 92.0 685.0" /><path d="M 971.0 1010.0 L 911.0 1010.0 L 909.0 1008.0 L 909.0 1005.0 L 913.0 1000.0 L 914.0 1000.0 L 918.0 997.0 L 922.0 996.0 L 925.0 993.0 L 926.0 993.0 L 937.0 982.0 L 943.0 979.0 L 947.0 975.0 L 947.0 974.0 L 950.0 971.0 L 954.0 963.0 L 955.0 956.0 L 964.0 947.0 L 964.0 946.0 L 967.0 943.0 L 968.0 940.0 L 973.0 935.0 L 974.0 935.0 L 977.0 932.0 L 978.0 932.0 L 983.0 927.0 L 991.0 924.0 L 994.0 921.0 L 998.0 920.0 L 1004.0 916.0 L 1008.0 916.0 L 1010.0 918.0 L 1010.0 946.0 L 1006.0 949.0 L 1005.0 949.0 L 1002.0 953.0 L 995.0 967.0 L 995.0 970.0 L 994.0 972.0 L 988.0 978.0 L 987.0 980.0 L 987.0 983.0 L 980.0 990.0 L 980.0 992.0 L 979.0 993.0 L 979.0 997.0 L 978.0 998.0 L 977.0 1003.0 L 971.0 1010.0" /></svg>