<?xml version="1.0" encoding="utf-8" ?>
<svg baseProfile="full" height="100%" version="1.1" width="100%" xmlns="http://www.w3.org/2000/svg" xmlns:ev="http://www.w3.org/2001/xml-events" xmlns:xlink="http://www.w3.org/1999/xlink"><defs /><path d="M 780 109 L 760 109 L 757 106 L 757 100 L 760 97 L 762 97 L 762 92 L 761 91 L 753 90 L 752 88 L 748 88 L 745 86 L 738 86 L 735 88 L 739 92 L 739 93 L 736 96 L 734 96 L 730 98 L 724 93 L 724 90 L 726 88 L 725 88 L 722 85 L 722 84 L 714 84 L 711 82 L 705 82 L 703 84 L 703 85 L 705 86 L 708 86 L 709 87 L 712 87 L 713 88 L 711 90 L 707 90 L 706 91 L 704 91 L 703 90 L 701 90 L 698 87 L 693 86 L 691 84 L 692 82 L 698 81 L 698 79 L 697 78 L 692 78 L 689 74 L 679 74 L 675 71 L 671 71 L 667 69 L 648 69 L 644 73 L 636 73 L 631 77 L 627 78 L 625 82 L 619 82 L 616 86 L 613 87 L 608 92 L 607 92 L 602 87 L 601 83 L 600 82 L 598 82 L 595 78 L 593 78 L 593 80 L 595 83 L 595 85 L 594 86 L 593 90 L 590 92 L 589 91 L 585 90 L 584 89 L 584 87 L 587 81 L 589 79 L 589 78 L 592 76 L 592 75 L 591 74 L 591 72 L 589 70 L 587 70 L 583 65 L 576 65 L 571 61 L 567 61 L 565 60 L 564 61 L 562 61 L 558 65 L 550 65 L 545 69 L 537 69 L 534 66 L 533 63 L 528 59 L 528 53 L 526 50 L 527 49 L 527 46 L 544 29 L 545 29 L 548 26 L 552 26 L 554 24 L 556 20 L 560 20 L 561 15 L 565 11 L 569 9 L 570 10 L 817 10 L 820 12 L 818 14 L 818 22 L 820 24 L 821 24 L 821 19 L 822 18 L 823 13 L 827 9 L 830 9 L 832 10 L 833 12 L 836 10 L 851 10 L 853 11 L 854 12 L 854 16 L 852 19 L 852 22 L 854 24 L 850 27 L 841 27 L 840 28 L 845 33 L 845 36 L 846 37 L 845 47 L 841 50 L 840 53 L 835 58 L 832 58 L 829 61 L 828 61 L 828 64 L 826 66 L 824 66 L 822 67 L 821 69 L 820 69 L 820 72 L 823 74 L 824 77 L 831 84 L 831 89 L 828 92 L 828 95 L 826 97 L 824 97 L 820 95 L 817 92 L 816 88 L 814 88 L 809 92 L 802 92 L 798 95 L 795 95 L 793 96 L 793 97 L 789 100 L 789 102 L 787 104 L 785 104 L 780 109 Z" /><path d="M 986 594 L 971 594 L 968 591 L 967 591 L 965 589 L 965 588 L 960 584 L 959 582 L 955 581 L 952 578 L 952 577 L 951 577 L 948 574 L 948 573 L 944 572 L 939 567 L 939 566 L 935 563 L 935 562 L 931 560 L 929 560 L 927 558 L 927 556 L 923 555 L 920 552 L 917 551 L 915 549 L 915 548 L 912 547 L 910 545 L 910 543 L 908 542 L 907 540 L 902 536 L 902 535 L 899 534 L 897 532 L 897 531 L 893 528 L 892 526 L 890 526 L 886 522 L 885 522 L 882 518 L 879 518 L 877 517 L 874 514 L 871 513 L 867 509 L 863 508 L 857 502 L 857 501 L 849 500 L 847 498 L 847 497 L 843 496 L 840 493 L 836 491 L 834 489 L 834 488 L 830 487 L 827 484 L 824 483 L 820 479 L 816 478 L 809 471 L 806 471 L 804 470 L 796 462 L 795 458 L 792 458 L 791 457 L 788 457 L 786 456 L 782 452 L 782 450 L 781 449 L 777 449 L 775 447 L 775 446 L 771 442 L 771 433 L 774 430 L 775 430 L 775 420 L 779 417 L 779 408 L 780 406 L 784 403 L 784 401 L 783 400 L 783 398 L 784 397 L 784 390 L 786 388 L 787 386 L 787 383 L 788 382 L 787 381 L 787 373 L 784 370 L 782 365 L 774 365 L 773 364 L 770 364 L 768 365 L 768 369 L 772 374 L 773 378 L 771 381 L 763 380 L 762 381 L 756 382 L 756 384 L 755 385 L 755 403 L 752 406 L 750 404 L 750 387 L 748 384 L 748 382 L 745 386 L 738 386 L 735 384 L 734 388 L 732 390 L 730 390 L 729 395 L 727 397 L 725 397 L 724 396 L 724 392 L 723 390 L 722 390 L 722 396 L 724 397 L 725 399 L 722 402 L 722 408 L 719 411 L 717 411 L 714 408 L 714 406 L 710 400 L 710 398 L 713 395 L 714 395 L 714 393 L 711 390 L 712 386 L 714 384 L 714 382 L 713 381 L 707 381 L 706 380 L 704 380 L 700 374 L 696 372 L 693 372 L 692 373 L 692 375 L 690 377 L 688 377 L 687 381 L 684 384 L 684 387 L 681 390 L 677 390 L 673 386 L 677 382 L 677 378 L 684 371 L 685 369 L 684 368 L 684 364 L 682 364 L 680 361 L 678 362 L 678 364 L 676 366 L 674 370 L 671 373 L 671 375 L 669 377 L 667 377 L 664 381 L 660 381 L 656 378 L 656 369 L 653 369 L 653 370 L 651 372 L 643 372 L 639 369 L 638 367 L 638 363 L 642 361 L 642 358 L 646 353 L 646 351 L 644 348 L 640 347 L 639 346 L 637 346 L 634 343 L 633 338 L 631 336 L 631 335 L 625 334 L 622 331 L 622 326 L 629 319 L 629 314 L 628 313 L 626 313 L 621 308 L 620 305 L 618 305 L 618 306 L 616 308 L 614 306 L 614 304 L 616 303 L 616 301 L 611 301 L 610 300 L 608 300 L 604 296 L 604 295 L 603 295 L 601 293 L 601 292 L 605 289 L 605 284 L 601 280 L 599 276 L 599 274 L 596 271 L 601 267 L 601 266 L 604 263 L 604 261 L 608 258 L 608 256 L 611 252 L 612 252 L 616 255 L 620 255 L 621 254 L 618 250 L 618 245 L 620 243 L 621 243 L 625 238 L 632 238 L 635 241 L 637 242 L 638 241 L 638 239 L 639 238 L 639 233 L 635 232 L 633 228 L 631 228 L 629 226 L 629 224 L 628 224 L 625 221 L 625 215 L 628 212 L 629 212 L 632 215 L 632 216 L 639 216 L 641 214 L 643 215 L 643 237 L 645 238 L 650 238 L 650 206 L 640 206 L 637 208 L 634 206 L 627 207 L 622 204 L 622 203 L 625 200 L 629 199 L 633 201 L 633 200 L 635 199 L 630 196 L 628 192 L 625 189 L 625 186 L 622 182 L 622 181 L 626 178 L 626 173 L 628 171 L 633 171 L 635 169 L 634 169 L 633 167 L 632 168 L 628 168 L 626 166 L 625 163 L 624 163 L 622 161 L 622 160 L 624 158 L 626 158 L 627 159 L 633 158 L 633 155 L 630 152 L 630 141 L 631 140 L 631 138 L 633 137 L 633 136 L 637 133 L 641 133 L 643 132 L 643 131 L 646 128 L 650 128 L 650 125 L 647 122 L 647 118 L 650 115 L 651 113 L 651 110 L 655 105 L 654 103 L 652 102 L 652 100 L 656 97 L 656 96 L 652 93 L 652 83 L 657 80 L 656 78 L 656 75 L 657 74 L 659 73 L 669 73 L 671 71 L 674 74 L 674 75 L 671 78 L 666 78 L 665 79 L 665 81 L 666 82 L 666 114 L 667 116 L 672 116 L 674 118 L 675 120 L 675 124 L 676 124 L 680 119 L 680 113 L 683 110 L 685 110 L 688 107 L 696 115 L 696 117 L 700 120 L 701 123 L 702 122 L 702 119 L 703 118 L 699 114 L 699 113 L 701 111 L 705 111 L 709 107 L 710 107 L 713 110 L 715 110 L 718 113 L 718 127 L 719 127 L 722 130 L 722 134 L 723 135 L 721 137 L 716 138 L 716 140 L 717 141 L 723 141 L 730 137 L 733 137 L 735 139 L 739 139 L 742 141 L 748 141 L 748 138 L 741 137 L 739 135 L 739 131 L 743 128 L 745 129 L 746 131 L 748 131 L 749 127 L 750 126 L 750 122 L 752 120 L 753 120 L 754 122 L 756 123 L 759 123 L 763 127 L 764 127 L 765 129 L 767 129 L 768 128 L 773 128 L 778 133 L 779 133 L 780 135 L 782 135 L 782 133 L 781 133 L 779 131 L 786 124 L 787 121 L 789 119 L 790 119 L 794 114 L 796 114 L 796 110 L 799 107 L 801 109 L 801 110 L 803 111 L 804 108 L 806 106 L 808 106 L 813 101 L 814 101 L 813 100 L 813 97 L 816 94 L 818 96 L 818 98 L 820 101 L 819 103 L 819 111 L 816 114 L 814 119 L 811 122 L 812 124 L 813 124 L 814 122 L 816 120 L 817 120 L 818 117 L 822 114 L 822 104 L 824 101 L 824 99 L 826 97 L 828 97 L 832 94 L 835 94 L 841 90 L 844 90 L 846 88 L 854 88 L 854 86 L 856 84 L 857 84 L 858 84 L 861 86 L 864 86 L 866 85 L 871 80 L 872 80 L 873 80 L 874 80 L 875 80 L 876 80 L 877 80 L 878 80 L 879 80 L 880 80 L 884 80 L 886 78 L 891 77 L 893 75 L 895 71 L 889 71 L 886 74 L 884 74 L 882 76 L 882 78 L 880 80 L 879 80 L 878 80 L 877 80 L 876 80 L 875 80 L 874 80 L 873 80 L 872 80 L 871 80 L 869 80 L 868 79 L 866 79 L 863 81 L 861 81 L 858 84 L 857 84 L 856 84 L 853 84 L 851 82 L 851 78 L 853 76 L 854 76 L 857 72 L 859 71 L 859 66 L 862 63 L 863 63 L 863 61 L 860 58 L 862 56 L 867 56 L 868 53 L 872 50 L 872 47 L 873 45 L 876 42 L 877 39 L 880 37 L 882 32 L 885 28 L 886 24 L 893 17 L 893 14 L 894 12 L 898 9 L 902 9 L 904 11 L 905 13 L 905 17 L 908 21 L 909 25 L 911 25 L 912 24 L 912 20 L 907 16 L 907 11 L 908 10 L 1007 10 L 1009 12 L 1009 107 L 1007 109 L 1003 109 L 999 107 L 992 107 L 991 106 L 989 107 L 984 107 L 982 105 L 971 105 L 969 102 L 969 107 L 968 108 L 966 109 L 960 109 L 959 111 L 956 113 L 951 113 L 949 114 L 948 115 L 947 120 L 943 123 L 943 130 L 942 131 L 942 134 L 939 138 L 939 155 L 935 160 L 929 160 L 927 156 L 923 155 L 920 152 L 920 151 L 918 150 L 912 150 L 908 154 L 908 156 L 905 159 L 902 160 L 902 161 L 906 162 L 908 164 L 908 166 L 906 168 L 902 168 L 901 167 L 897 167 L 895 165 L 895 164 L 894 163 L 892 163 L 888 158 L 885 158 L 884 157 L 884 160 L 888 164 L 887 167 L 884 169 L 882 169 L 871 180 L 870 183 L 868 185 L 867 185 L 866 188 L 864 190 L 863 190 L 860 194 L 858 195 L 858 197 L 852 203 L 851 203 L 851 204 L 860 213 L 862 214 L 865 214 L 867 213 L 875 218 L 882 218 L 885 221 L 886 223 L 886 226 L 884 229 L 886 231 L 886 235 L 884 237 L 881 235 L 875 235 L 873 237 L 874 239 L 877 239 L 879 240 L 883 237 L 884 237 L 885 237 L 889 239 L 890 241 L 894 242 L 896 244 L 897 248 L 903 254 L 907 256 L 909 260 L 914 265 L 917 265 L 918 264 L 921 267 L 924 267 L 926 265 L 927 265 L 929 267 L 929 268 L 926 270 L 927 272 L 928 270 L 931 268 L 932 265 L 934 264 L 938 259 L 940 259 L 941 258 L 941 254 L 944 251 L 945 251 L 945 250 L 950 245 L 950 233 L 948 230 L 948 228 L 949 227 L 949 222 L 950 221 L 950 219 L 952 218 L 955 214 L 956 214 L 957 210 L 962 207 L 962 199 L 967 195 L 966 189 L 967 188 L 967 185 L 971 182 L 971 177 L 977 171 L 989 170 L 994 174 L 1000 174 L 1003 178 L 1008 178 L 1010 180 L 1010 468 L 1003 475 L 1000 476 L 997 479 L 986 479 L 984 483 L 980 484 L 985 489 L 986 493 L 987 493 L 990 496 L 990 497 L 991 497 L 996 493 L 996 488 L 998 486 L 999 486 L 1002 482 L 1004 482 L 1005 484 L 1010 489 L 1010 501 L 1007 505 L 1007 513 L 1006 514 L 1005 518 L 1003 520 L 1003 527 L 1001 531 L 1001 540 L 999 542 L 997 540 L 997 531 L 991 525 L 990 523 L 987 523 L 988 524 L 988 528 L 990 530 L 990 535 L 988 538 L 988 555 L 989 556 L 989 559 L 990 560 L 990 565 L 986 569 L 986 571 L 984 573 L 983 573 L 984 573 L 986 573 L 986 572 L 988 570 L 991 570 L 994 567 L 995 567 L 998 570 L 998 574 L 999 575 L 999 587 L 996 590 L 994 590 L 986 594 Z M 935 100 L 938 96 L 938 94 L 939 93 L 936 89 L 936 83 L 935 82 L 935 80 L 932 79 L 929 76 L 927 72 L 927 69 L 926 68 L 925 63 L 924 63 L 919 58 L 911 58 L 908 61 L 904 62 L 903 66 L 902 67 L 901 67 L 899 67 L 898 66 L 896 67 L 896 69 L 898 69 L 901 67 L 902 67 L 905 67 L 913 63 L 918 63 L 920 66 L 921 70 L 924 74 L 924 76 L 933 84 L 933 99 L 935 101 L 935 100 Z M 689 239 L 691 237 L 691 235 L 692 234 L 692 207 L 684 203 L 671 203 L 667 206 L 663 206 L 662 207 L 666 210 L 666 218 L 665 219 L 666 233 L 671 238 L 684 238 L 685 239 L 689 239 Z M 628 280 L 630 278 L 633 277 L 635 275 L 637 271 L 638 271 L 639 271 L 642 271 L 647 266 L 650 265 L 652 263 L 652 257 L 653 256 L 659 256 L 660 255 L 660 252 L 661 250 L 659 248 L 657 250 L 657 251 L 653 254 L 653 256 L 649 258 L 649 259 L 645 263 L 645 265 L 644 266 L 640 267 L 640 270 L 639 271 L 638 271 L 637 271 L 630 271 L 628 274 L 628 279 L 627 280 L 626 280 L 625 280 L 625 281 L 626 280 L 627 280 L 628 280 Z M 652 297 L 651 295 L 649 295 L 645 292 L 644 292 L 643 292 L 642 292 L 641 292 L 640 292 L 639 292 L 632 292 L 629 290 L 624 292 L 622 290 L 622 287 L 624 284 L 624 282 L 623 283 L 620 283 L 619 284 L 619 290 L 620 291 L 620 293 L 623 293 L 625 295 L 625 296 L 637 296 L 637 294 L 639 292 L 640 292 L 641 292 L 642 292 L 643 292 L 644 292 L 646 294 L 646 296 L 647 297 L 652 297 Z M 732 374 L 733 373 L 733 371 L 735 369 L 737 371 L 741 371 L 742 370 L 744 370 L 748 373 L 750 372 L 752 369 L 754 371 L 757 371 L 760 369 L 760 365 L 758 367 L 755 367 L 752 369 L 750 367 L 738 367 L 735 369 L 734 369 L 733 369 L 732 369 L 731 369 L 730 369 L 729 369 L 728 369 L 727 369 L 726 369 L 725 369 L 724 369 L 723 369 L 722 369 L 719 367 L 717 368 L 718 370 L 720 369 L 721 369 L 722 369 L 723 369 L 724 369 L 725 369 L 727 371 L 727 373 L 729 374 L 732 374 Z M 945 408 L 947 407 L 949 404 L 949 394 L 947 390 L 949 387 L 949 378 L 945 376 L 932 376 L 931 377 L 927 378 L 926 380 L 926 383 L 927 384 L 930 384 L 935 379 L 941 379 L 944 382 L 944 387 L 942 389 L 938 390 L 938 391 L 942 393 L 945 396 L 946 399 L 939 406 L 935 404 L 932 401 L 931 398 L 927 398 L 926 399 L 926 403 L 931 408 L 945 408 Z" /><path d="M 727 1009 L 12 1009 L 10 1007 L 10 654 L 13 650 L 14 647 L 17 644 L 20 643 L 22 639 L 24 637 L 25 637 L 29 641 L 33 641 L 35 643 L 37 643 L 38 642 L 38 640 L 34 640 L 33 641 L 31 639 L 31 637 L 34 635 L 38 635 L 39 636 L 39 638 L 43 638 L 50 643 L 52 643 L 52 641 L 50 639 L 49 639 L 46 635 L 40 635 L 37 631 L 19 631 L 19 632 L 16 635 L 12 635 L 10 633 L 10 549 L 9 548 L 9 532 L 12 528 L 20 528 L 23 531 L 38 531 L 40 532 L 42 535 L 39 538 L 37 538 L 36 541 L 34 543 L 32 543 L 31 544 L 33 548 L 36 546 L 40 545 L 45 541 L 49 542 L 50 544 L 54 546 L 56 545 L 59 545 L 63 548 L 79 548 L 84 543 L 87 543 L 86 542 L 86 539 L 84 535 L 82 540 L 80 542 L 76 544 L 74 544 L 73 543 L 62 543 L 58 538 L 50 538 L 45 535 L 47 531 L 50 528 L 54 528 L 57 531 L 60 531 L 63 528 L 66 531 L 68 531 L 71 528 L 75 528 L 78 531 L 82 532 L 84 534 L 84 535 L 86 533 L 89 533 L 91 535 L 91 542 L 90 543 L 92 544 L 96 543 L 99 545 L 104 545 L 105 546 L 105 549 L 103 551 L 103 558 L 105 560 L 105 569 L 108 573 L 108 575 L 109 576 L 109 581 L 112 585 L 112 586 L 114 587 L 114 579 L 110 576 L 110 564 L 106 561 L 106 560 L 109 557 L 109 552 L 112 548 L 110 545 L 111 539 L 113 537 L 115 537 L 116 536 L 124 536 L 124 535 L 126 533 L 132 533 L 133 535 L 135 536 L 137 535 L 138 533 L 142 532 L 143 531 L 145 531 L 152 524 L 155 527 L 157 527 L 158 526 L 158 522 L 160 521 L 161 519 L 161 517 L 157 512 L 157 505 L 153 500 L 152 493 L 151 493 L 149 491 L 149 489 L 148 488 L 148 482 L 147 482 L 145 480 L 145 478 L 144 477 L 144 471 L 142 470 L 140 468 L 140 467 L 134 467 L 132 465 L 132 463 L 131 462 L 131 456 L 132 454 L 130 450 L 131 444 L 132 443 L 132 438 L 130 436 L 129 436 L 126 432 L 124 433 L 123 433 L 122 433 L 121 433 L 120 433 L 118 431 L 118 433 L 119 433 L 120 433 L 121 433 L 122 433 L 127 438 L 127 450 L 129 453 L 129 455 L 127 458 L 128 460 L 128 463 L 125 467 L 125 473 L 124 474 L 122 475 L 116 475 L 114 476 L 114 477 L 112 479 L 110 479 L 109 480 L 109 482 L 107 484 L 106 484 L 104 487 L 100 488 L 96 486 L 92 488 L 88 488 L 84 492 L 79 492 L 72 497 L 66 497 L 65 496 L 61 496 L 58 493 L 58 492 L 60 490 L 62 486 L 62 484 L 65 480 L 66 476 L 69 473 L 75 471 L 75 468 L 76 467 L 75 466 L 75 463 L 73 463 L 71 461 L 71 454 L 74 451 L 80 451 L 82 450 L 83 447 L 85 445 L 89 445 L 90 446 L 94 446 L 96 447 L 97 448 L 97 450 L 99 450 L 100 451 L 104 451 L 105 453 L 108 455 L 112 455 L 112 454 L 110 452 L 107 452 L 103 448 L 100 448 L 95 444 L 93 444 L 89 439 L 83 439 L 81 440 L 76 445 L 72 444 L 71 443 L 69 445 L 68 449 L 65 452 L 65 454 L 64 455 L 63 459 L 67 461 L 70 461 L 71 462 L 71 465 L 67 467 L 65 469 L 65 471 L 61 474 L 60 478 L 56 483 L 56 489 L 52 492 L 51 496 L 48 499 L 48 501 L 46 503 L 41 503 L 39 505 L 39 506 L 36 508 L 12 508 L 10 506 L 10 12 L 12 10 L 303 10 L 305 12 L 305 20 L 307 22 L 307 29 L 309 32 L 309 37 L 311 39 L 311 45 L 312 46 L 312 48 L 316 52 L 316 60 L 317 62 L 322 67 L 323 65 L 323 62 L 320 58 L 319 54 L 318 53 L 318 50 L 316 48 L 316 45 L 315 44 L 315 37 L 313 33 L 313 27 L 312 26 L 312 24 L 309 20 L 309 12 L 311 10 L 315 10 L 318 14 L 318 18 L 322 23 L 322 26 L 326 30 L 326 33 L 330 37 L 331 43 L 332 43 L 334 45 L 335 55 L 337 55 L 339 57 L 339 58 L 343 54 L 344 51 L 347 48 L 348 48 L 350 40 L 356 37 L 358 39 L 359 42 L 357 44 L 356 44 L 355 52 L 352 56 L 352 58 L 351 59 L 351 64 L 352 65 L 352 67 L 353 67 L 356 70 L 356 71 L 360 74 L 361 81 L 359 84 L 363 88 L 366 89 L 369 93 L 372 92 L 373 90 L 378 96 L 378 95 L 385 89 L 391 89 L 393 88 L 394 86 L 395 86 L 398 89 L 399 92 L 404 93 L 407 96 L 407 97 L 410 97 L 412 98 L 412 97 L 408 94 L 409 84 L 411 82 L 412 82 L 416 86 L 425 86 L 427 88 L 427 91 L 428 92 L 428 97 L 425 101 L 424 105 L 420 109 L 420 110 L 421 110 L 424 113 L 424 114 L 426 114 L 428 112 L 430 107 L 432 105 L 433 105 L 434 101 L 441 93 L 443 93 L 446 90 L 450 90 L 453 93 L 455 93 L 457 95 L 458 98 L 461 101 L 461 102 L 464 104 L 465 107 L 467 107 L 468 106 L 468 102 L 467 101 L 469 99 L 476 99 L 480 94 L 482 96 L 482 99 L 480 101 L 484 101 L 488 98 L 490 100 L 490 101 L 492 102 L 501 102 L 505 99 L 506 99 L 509 102 L 509 104 L 510 105 L 514 105 L 514 104 L 517 101 L 527 101 L 529 99 L 532 99 L 535 103 L 535 105 L 538 103 L 540 103 L 542 105 L 544 109 L 548 107 L 550 109 L 554 110 L 557 113 L 557 114 L 559 114 L 560 115 L 564 110 L 570 107 L 571 108 L 571 110 L 573 114 L 576 115 L 578 117 L 578 118 L 582 119 L 585 122 L 585 126 L 587 130 L 589 132 L 589 134 L 590 135 L 587 138 L 586 138 L 585 142 L 581 144 L 581 146 L 582 147 L 582 157 L 581 158 L 581 161 L 578 164 L 576 164 L 575 165 L 555 164 L 554 163 L 552 163 L 550 165 L 551 165 L 552 167 L 556 170 L 560 167 L 561 167 L 565 171 L 566 170 L 572 170 L 576 174 L 576 177 L 577 178 L 576 179 L 576 182 L 573 184 L 571 184 L 569 182 L 569 186 L 573 190 L 571 192 L 569 192 L 567 194 L 567 195 L 562 199 L 561 201 L 556 201 L 554 203 L 554 205 L 551 208 L 550 212 L 548 214 L 542 214 L 539 212 L 535 212 L 535 216 L 539 216 L 542 218 L 549 218 L 552 220 L 554 218 L 557 218 L 558 217 L 564 217 L 565 218 L 565 215 L 563 215 L 561 212 L 561 210 L 560 210 L 558 208 L 558 207 L 561 205 L 564 208 L 567 208 L 569 210 L 570 210 L 574 214 L 575 216 L 572 219 L 568 220 L 571 221 L 573 224 L 572 230 L 570 232 L 569 232 L 565 228 L 563 228 L 560 224 L 558 223 L 556 223 L 555 224 L 556 226 L 556 229 L 558 229 L 560 231 L 560 233 L 563 234 L 565 238 L 572 245 L 572 246 L 568 250 L 568 252 L 564 255 L 564 257 L 561 260 L 560 260 L 558 258 L 556 258 L 556 259 L 560 262 L 560 269 L 558 271 L 554 271 L 552 269 L 552 273 L 551 274 L 551 276 L 548 279 L 545 277 L 544 275 L 544 271 L 543 271 L 539 266 L 537 266 L 535 262 L 531 266 L 527 266 L 525 267 L 525 268 L 523 270 L 521 270 L 519 268 L 519 267 L 517 267 L 513 271 L 511 271 L 510 272 L 502 270 L 499 267 L 498 267 L 494 262 L 493 260 L 494 256 L 499 252 L 501 252 L 508 248 L 510 244 L 510 235 L 509 234 L 509 230 L 510 229 L 508 229 L 506 227 L 506 223 L 505 222 L 505 220 L 503 220 L 502 219 L 501 209 L 503 207 L 504 207 L 505 207 L 506 207 L 510 210 L 514 210 L 518 214 L 518 216 L 520 214 L 523 213 L 525 211 L 525 209 L 527 207 L 527 204 L 526 203 L 522 203 L 518 207 L 515 205 L 509 205 L 506 207 L 505 207 L 504 207 L 503 207 L 497 207 L 497 216 L 503 222 L 503 226 L 505 228 L 503 232 L 503 234 L 505 237 L 505 241 L 503 243 L 501 243 L 499 245 L 497 249 L 495 248 L 491 248 L 491 249 L 486 254 L 486 260 L 485 261 L 485 262 L 489 264 L 491 266 L 491 267 L 494 268 L 500 275 L 500 276 L 497 279 L 493 279 L 490 283 L 488 284 L 484 284 L 484 285 L 481 287 L 479 287 L 474 283 L 471 283 L 463 274 L 463 272 L 462 272 L 461 275 L 458 278 L 456 278 L 453 281 L 448 282 L 446 284 L 438 280 L 432 280 L 433 281 L 433 284 L 436 284 L 437 285 L 443 285 L 444 284 L 445 284 L 446 284 L 448 284 L 449 285 L 456 285 L 459 283 L 463 282 L 465 284 L 462 288 L 464 289 L 467 293 L 467 297 L 465 301 L 467 303 L 467 305 L 471 310 L 471 314 L 474 315 L 476 317 L 476 318 L 480 318 L 480 317 L 484 313 L 485 310 L 489 306 L 495 305 L 497 303 L 501 302 L 505 299 L 507 301 L 511 301 L 512 302 L 515 302 L 516 303 L 524 302 L 528 305 L 531 305 L 531 304 L 534 301 L 542 301 L 544 302 L 546 298 L 549 298 L 551 300 L 551 302 L 552 303 L 556 303 L 558 305 L 558 310 L 556 312 L 555 315 L 551 318 L 551 322 L 552 324 L 554 322 L 557 322 L 559 320 L 561 320 L 564 323 L 564 325 L 565 326 L 564 328 L 564 331 L 560 335 L 565 335 L 567 336 L 569 339 L 569 341 L 568 342 L 568 344 L 563 348 L 565 351 L 565 355 L 567 357 L 568 361 L 564 365 L 562 369 L 565 369 L 569 371 L 573 371 L 575 373 L 575 378 L 571 382 L 573 384 L 573 388 L 571 391 L 571 393 L 573 396 L 573 401 L 570 403 L 567 403 L 565 405 L 560 405 L 556 402 L 555 403 L 556 404 L 556 408 L 560 413 L 560 416 L 561 417 L 566 417 L 568 419 L 569 426 L 572 429 L 575 430 L 577 432 L 577 442 L 575 444 L 571 444 L 569 442 L 568 446 L 566 448 L 565 448 L 564 450 L 565 451 L 565 453 L 569 457 L 569 463 L 567 466 L 565 466 L 564 474 L 557 482 L 556 482 L 554 480 L 554 474 L 553 473 L 552 469 L 550 469 L 550 484 L 546 487 L 546 490 L 549 491 L 552 494 L 552 502 L 548 507 L 547 510 L 545 512 L 544 512 L 543 514 L 543 519 L 544 521 L 548 523 L 552 523 L 556 527 L 557 526 L 557 524 L 560 521 L 560 519 L 561 518 L 561 514 L 565 510 L 565 507 L 566 506 L 565 501 L 563 501 L 559 497 L 555 496 L 552 493 L 552 489 L 554 485 L 556 484 L 559 484 L 561 485 L 565 489 L 567 488 L 570 488 L 577 492 L 580 488 L 586 488 L 586 487 L 590 484 L 615 484 L 617 485 L 619 487 L 619 488 L 623 491 L 623 493 L 621 495 L 620 495 L 620 499 L 619 500 L 619 503 L 618 504 L 618 505 L 620 507 L 624 509 L 626 508 L 629 508 L 633 511 L 634 507 L 636 505 L 637 505 L 637 503 L 639 501 L 645 501 L 649 504 L 649 507 L 645 509 L 645 511 L 641 516 L 641 522 L 638 525 L 637 525 L 637 528 L 636 530 L 635 531 L 633 531 L 633 534 L 632 535 L 633 536 L 633 540 L 638 540 L 639 539 L 641 539 L 642 533 L 646 527 L 646 524 L 647 522 L 650 519 L 650 517 L 651 516 L 652 512 L 655 510 L 663 510 L 666 513 L 666 514 L 670 517 L 670 519 L 667 521 L 667 523 L 666 524 L 666 532 L 663 535 L 662 544 L 658 547 L 658 549 L 656 551 L 654 551 L 654 553 L 657 552 L 660 549 L 662 549 L 663 548 L 663 545 L 665 542 L 665 539 L 667 537 L 668 533 L 670 531 L 671 531 L 672 528 L 675 525 L 675 524 L 678 522 L 684 522 L 688 525 L 688 532 L 683 536 L 683 540 L 680 544 L 680 552 L 679 553 L 679 555 L 677 556 L 675 559 L 675 560 L 680 564 L 681 562 L 688 560 L 688 555 L 691 552 L 692 552 L 692 546 L 693 545 L 693 543 L 694 541 L 696 539 L 697 539 L 696 538 L 696 535 L 697 533 L 701 530 L 703 531 L 705 534 L 705 540 L 701 545 L 701 548 L 700 549 L 700 554 L 696 556 L 696 558 L 697 559 L 698 557 L 701 556 L 701 554 L 705 550 L 706 545 L 708 544 L 710 541 L 710 538 L 712 536 L 716 536 L 718 538 L 718 539 L 719 539 L 722 542 L 722 548 L 719 551 L 718 551 L 717 557 L 715 559 L 714 559 L 713 561 L 713 565 L 714 565 L 715 563 L 717 562 L 718 560 L 723 556 L 723 551 L 725 549 L 730 549 L 731 550 L 730 558 L 726 560 L 726 565 L 722 568 L 722 573 L 724 573 L 727 570 L 730 570 L 735 564 L 736 560 L 738 558 L 739 558 L 743 553 L 744 553 L 747 556 L 746 560 L 743 564 L 743 566 L 741 568 L 739 568 L 738 569 L 738 571 L 735 574 L 735 575 L 732 578 L 731 578 L 734 582 L 735 582 L 736 576 L 738 574 L 739 574 L 742 570 L 744 569 L 744 567 L 748 565 L 751 561 L 755 561 L 760 565 L 756 568 L 755 571 L 752 573 L 751 577 L 749 579 L 748 579 L 748 581 L 747 582 L 747 588 L 748 589 L 751 586 L 752 586 L 752 584 L 754 582 L 756 582 L 756 581 L 761 577 L 761 576 L 765 571 L 765 568 L 768 565 L 771 565 L 773 563 L 774 563 L 775 564 L 775 569 L 772 573 L 769 574 L 768 578 L 766 580 L 765 580 L 764 581 L 764 583 L 760 586 L 760 589 L 759 590 L 759 593 L 760 594 L 762 592 L 768 592 L 769 593 L 770 591 L 773 591 L 774 585 L 777 582 L 778 579 L 786 570 L 788 571 L 790 574 L 794 574 L 796 575 L 798 578 L 801 578 L 806 582 L 809 582 L 814 586 L 818 587 L 820 591 L 821 591 L 824 595 L 824 597 L 823 598 L 823 602 L 819 606 L 794 606 L 793 607 L 790 607 L 790 608 L 792 609 L 794 612 L 796 612 L 798 610 L 803 610 L 805 612 L 805 616 L 807 617 L 831 617 L 833 618 L 836 622 L 836 634 L 835 635 L 831 637 L 817 637 L 813 640 L 809 640 L 805 638 L 801 638 L 795 641 L 789 641 L 788 640 L 778 639 L 775 637 L 757 637 L 751 640 L 745 640 L 744 639 L 742 640 L 715 640 L 711 637 L 692 637 L 696 640 L 697 646 L 700 647 L 703 650 L 704 654 L 705 655 L 729 655 L 730 654 L 736 654 L 737 655 L 757 655 L 760 653 L 762 654 L 766 654 L 767 655 L 774 655 L 778 652 L 782 652 L 784 654 L 801 654 L 805 651 L 812 651 L 815 654 L 827 654 L 829 652 L 841 652 L 843 654 L 865 654 L 867 652 L 871 652 L 873 654 L 878 654 L 879 653 L 881 654 L 893 654 L 893 653 L 896 650 L 910 650 L 913 652 L 913 654 L 914 655 L 916 655 L 918 657 L 919 657 L 937 675 L 938 677 L 938 681 L 935 683 L 935 689 L 939 689 L 941 690 L 942 692 L 946 695 L 948 701 L 949 701 L 949 700 L 951 698 L 953 698 L 955 700 L 955 704 L 952 707 L 952 723 L 949 726 L 940 726 L 937 730 L 935 730 L 933 734 L 930 735 L 934 739 L 934 740 L 929 744 L 929 745 L 926 748 L 926 753 L 921 757 L 922 766 L 918 771 L 918 774 L 917 776 L 914 779 L 913 782 L 909 786 L 909 789 L 905 793 L 904 797 L 901 799 L 899 799 L 900 801 L 900 804 L 898 806 L 894 806 L 889 802 L 883 803 L 878 799 L 876 799 L 875 798 L 870 798 L 869 797 L 867 797 L 863 794 L 859 794 L 854 790 L 851 790 L 849 789 L 847 787 L 847 786 L 845 786 L 842 783 L 842 782 L 828 781 L 826 779 L 826 778 L 824 777 L 799 777 L 795 781 L 789 782 L 789 783 L 787 785 L 784 786 L 777 793 L 769 794 L 765 798 L 762 799 L 759 802 L 755 803 L 755 804 L 753 806 L 751 807 L 748 807 L 745 811 L 743 811 L 740 815 L 735 816 L 733 819 L 729 820 L 725 823 L 722 823 L 721 824 L 713 824 L 709 827 L 706 827 L 705 828 L 698 828 L 697 829 L 696 828 L 688 828 L 685 825 L 685 823 L 686 821 L 691 816 L 692 816 L 690 814 L 685 813 L 684 812 L 684 807 L 679 802 L 677 801 L 675 801 L 674 803 L 675 805 L 679 809 L 680 813 L 681 813 L 683 815 L 683 816 L 680 819 L 678 819 L 677 820 L 669 819 L 665 816 L 650 816 L 649 815 L 629 815 L 628 816 L 618 816 L 615 819 L 613 820 L 610 820 L 605 824 L 585 824 L 582 827 L 581 829 L 581 832 L 580 833 L 587 833 L 587 831 L 590 829 L 594 829 L 598 832 L 598 834 L 596 836 L 595 836 L 592 840 L 590 841 L 585 841 L 582 844 L 581 846 L 581 849 L 580 850 L 580 854 L 582 857 L 603 857 L 606 851 L 609 851 L 611 853 L 611 859 L 608 862 L 605 862 L 604 861 L 586 861 L 586 885 L 587 885 L 589 887 L 590 890 L 594 893 L 597 892 L 599 890 L 606 897 L 612 897 L 613 898 L 617 899 L 618 901 L 623 902 L 628 907 L 628 909 L 629 910 L 631 910 L 632 911 L 637 911 L 642 916 L 650 915 L 653 918 L 652 922 L 654 922 L 655 923 L 659 924 L 666 931 L 668 931 L 673 935 L 677 936 L 680 940 L 683 940 L 684 942 L 685 941 L 689 941 L 691 943 L 691 944 L 699 952 L 697 954 L 696 958 L 694 960 L 692 960 L 691 961 L 692 965 L 694 965 L 696 967 L 697 971 L 698 970 L 701 970 L 705 975 L 708 976 L 710 978 L 715 978 L 716 979 L 723 979 L 725 981 L 725 982 L 730 986 L 729 988 L 729 1007 L 727 1009 Z M 310 175 L 310 170 L 309 169 L 311 167 L 312 163 L 311 162 L 311 159 L 309 155 L 309 168 L 308 169 L 307 169 L 306 169 L 304 169 L 301 166 L 301 163 L 302 162 L 302 154 L 300 155 L 300 159 L 299 160 L 299 164 L 298 165 L 297 165 L 296 165 L 295 165 L 294 165 L 293 165 L 292 165 L 290 163 L 290 158 L 292 156 L 292 154 L 294 152 L 297 152 L 300 150 L 302 150 L 304 152 L 304 153 L 307 153 L 307 152 L 303 149 L 303 144 L 307 140 L 308 140 L 313 136 L 326 135 L 327 134 L 327 127 L 329 123 L 331 122 L 331 121 L 334 118 L 335 118 L 336 118 L 337 118 L 338 118 L 339 118 L 340 118 L 342 118 L 343 119 L 343 122 L 344 123 L 346 122 L 346 119 L 347 118 L 348 118 L 349 118 L 350 118 L 351 118 L 352 118 L 353 118 L 354 118 L 355 118 L 361 118 L 361 115 L 362 114 L 363 114 L 364 114 L 365 114 L 369 118 L 370 118 L 371 118 L 372 118 L 373 118 L 374 118 L 375 118 L 376 118 L 377 118 L 378 118 L 379 118 L 380 118 L 381 118 L 382 118 L 384 120 L 384 121 L 388 122 L 387 121 L 387 118 L 386 117 L 385 118 L 384 118 L 383 118 L 382 118 L 381 118 L 380 118 L 379 118 L 377 116 L 377 114 L 375 114 L 374 113 L 368 113 L 367 114 L 366 114 L 365 114 L 364 114 L 363 114 L 362 114 L 357 114 L 355 118 L 354 118 L 353 118 L 352 118 L 351 118 L 350 118 L 349 118 L 348 118 L 347 118 L 345 116 L 345 114 L 344 113 L 342 113 L 341 114 L 341 117 L 340 118 L 339 118 L 338 118 L 335 115 L 335 114 L 333 116 L 326 116 L 324 118 L 324 120 L 322 123 L 322 126 L 320 128 L 316 129 L 310 133 L 304 133 L 303 134 L 302 138 L 300 140 L 299 143 L 294 148 L 294 151 L 293 152 L 290 150 L 282 150 L 280 152 L 277 150 L 274 150 L 271 152 L 269 150 L 269 147 L 268 146 L 265 146 L 262 148 L 260 152 L 261 153 L 261 155 L 267 161 L 271 163 L 273 162 L 277 162 L 278 163 L 286 163 L 288 165 L 289 165 L 290 165 L 291 165 L 292 165 L 293 165 L 294 166 L 294 169 L 296 173 L 299 175 L 302 175 L 304 172 L 304 170 L 306 169 L 307 170 L 307 173 L 308 175 L 310 175 Z M 569 180 L 569 178 L 565 175 L 561 177 L 554 177 L 553 178 L 552 178 L 551 178 L 550 178 L 549 177 L 549 174 L 548 173 L 545 173 L 543 171 L 543 169 L 542 168 L 538 167 L 537 166 L 537 164 L 539 162 L 544 162 L 544 160 L 541 160 L 536 156 L 524 156 L 523 155 L 517 155 L 515 153 L 515 152 L 499 151 L 495 148 L 491 148 L 490 147 L 479 147 L 478 146 L 476 146 L 475 147 L 475 148 L 479 150 L 479 152 L 483 153 L 488 157 L 495 157 L 496 158 L 501 158 L 505 162 L 506 162 L 508 164 L 508 165 L 505 168 L 505 172 L 508 174 L 509 176 L 509 180 L 510 181 L 512 178 L 510 175 L 510 173 L 513 170 L 516 170 L 521 166 L 523 166 L 527 169 L 536 169 L 539 171 L 542 171 L 543 173 L 548 178 L 549 178 L 550 178 L 551 178 L 552 178 L 555 180 L 568 180 L 569 181 L 569 180 Z M 297 235 L 300 233 L 305 233 L 307 231 L 308 231 L 310 227 L 311 222 L 313 220 L 313 216 L 317 212 L 317 209 L 316 208 L 316 202 L 318 199 L 318 192 L 319 190 L 318 189 L 318 182 L 317 182 L 315 180 L 315 178 L 314 177 L 312 177 L 312 184 L 314 186 L 314 190 L 312 192 L 312 194 L 311 195 L 311 215 L 308 217 L 308 219 L 307 220 L 306 224 L 304 225 L 300 230 L 298 231 L 295 231 L 292 233 L 291 233 L 288 233 L 288 236 L 291 233 L 295 235 L 297 235 Z M 352 243 L 356 241 L 356 239 L 357 238 L 357 232 L 354 229 L 354 227 L 357 221 L 357 216 L 352 211 L 338 211 L 337 212 L 335 212 L 335 214 L 333 216 L 334 226 L 335 227 L 335 230 L 333 233 L 333 241 L 336 243 L 352 243 Z M 257 391 L 258 390 L 258 388 L 260 386 L 262 386 L 264 382 L 264 378 L 263 377 L 263 374 L 262 373 L 262 367 L 266 362 L 267 358 L 268 357 L 266 355 L 265 355 L 263 351 L 261 351 L 259 348 L 263 343 L 263 337 L 267 335 L 269 337 L 269 340 L 271 340 L 275 342 L 276 344 L 274 346 L 273 349 L 274 351 L 276 352 L 280 349 L 280 344 L 279 343 L 280 339 L 281 338 L 286 337 L 289 334 L 290 334 L 292 331 L 291 331 L 288 328 L 288 327 L 285 327 L 284 326 L 284 322 L 282 319 L 282 313 L 284 309 L 284 302 L 285 301 L 286 301 L 287 301 L 290 301 L 293 304 L 297 306 L 308 306 L 313 310 L 316 310 L 318 311 L 318 309 L 316 309 L 314 307 L 310 305 L 303 298 L 302 296 L 302 290 L 303 289 L 306 289 L 306 285 L 305 284 L 303 287 L 303 289 L 301 290 L 296 295 L 295 295 L 295 296 L 292 299 L 287 301 L 284 298 L 284 301 L 282 303 L 279 303 L 277 306 L 277 322 L 278 323 L 278 325 L 280 327 L 282 327 L 284 329 L 284 331 L 282 332 L 280 335 L 271 335 L 269 333 L 269 330 L 268 329 L 265 329 L 263 330 L 263 335 L 261 337 L 258 337 L 256 339 L 256 345 L 254 348 L 262 356 L 261 360 L 260 361 L 260 364 L 258 365 L 258 378 L 256 382 L 252 385 L 251 389 L 250 390 L 248 390 L 246 388 L 246 390 L 257 391 Z M 382 328 L 386 324 L 390 323 L 393 319 L 399 319 L 400 318 L 403 318 L 405 314 L 403 312 L 403 311 L 399 308 L 398 306 L 394 304 L 393 305 L 388 305 L 386 306 L 385 308 L 381 309 L 380 313 L 378 314 L 378 315 L 375 318 L 369 318 L 367 317 L 365 314 L 361 313 L 359 312 L 358 310 L 355 309 L 352 305 L 347 305 L 348 308 L 350 309 L 355 314 L 360 315 L 367 322 L 371 323 L 373 325 L 373 326 L 377 328 L 382 328 Z M 335 402 L 336 399 L 333 395 L 333 393 L 335 390 L 336 385 L 332 381 L 331 377 L 334 374 L 337 373 L 333 370 L 333 364 L 335 362 L 338 365 L 338 367 L 339 368 L 340 364 L 343 361 L 344 361 L 348 358 L 350 358 L 351 357 L 358 357 L 360 358 L 361 357 L 361 344 L 359 342 L 358 339 L 350 331 L 346 330 L 344 328 L 344 327 L 340 324 L 339 322 L 336 322 L 334 321 L 331 323 L 330 327 L 326 330 L 326 332 L 328 335 L 326 339 L 326 342 L 320 347 L 314 348 L 314 349 L 311 352 L 310 352 L 309 356 L 306 359 L 305 359 L 304 363 L 302 365 L 301 365 L 301 367 L 299 369 L 297 369 L 296 375 L 293 378 L 293 379 L 288 383 L 288 385 L 287 386 L 287 390 L 288 392 L 297 392 L 299 394 L 299 395 L 304 399 L 306 399 L 309 396 L 310 396 L 314 399 L 316 399 L 317 400 L 325 400 L 326 401 L 332 401 L 335 403 L 335 402 Z M 468 378 L 469 377 L 469 374 L 468 373 L 458 373 L 454 370 L 454 368 L 456 366 L 458 365 L 464 365 L 469 360 L 469 352 L 468 351 L 468 348 L 464 346 L 453 346 L 452 347 L 449 347 L 446 352 L 447 353 L 450 354 L 454 352 L 457 349 L 460 349 L 464 353 L 465 357 L 463 359 L 458 361 L 456 363 L 453 363 L 452 364 L 449 364 L 448 365 L 446 369 L 446 371 L 445 372 L 445 378 L 468 378 Z M 500 421 L 501 419 L 504 416 L 505 416 L 506 413 L 508 411 L 509 407 L 513 403 L 514 401 L 514 397 L 519 393 L 522 393 L 523 392 L 523 386 L 524 385 L 528 384 L 529 383 L 532 383 L 533 382 L 534 382 L 535 382 L 537 382 L 538 383 L 540 383 L 545 379 L 546 375 L 547 374 L 547 357 L 548 355 L 551 352 L 552 352 L 552 348 L 549 348 L 548 347 L 548 348 L 546 350 L 545 355 L 541 360 L 541 369 L 543 373 L 541 375 L 539 375 L 537 377 L 536 381 L 535 382 L 533 380 L 521 380 L 520 381 L 520 383 L 522 386 L 518 390 L 518 393 L 517 394 L 515 394 L 513 396 L 508 397 L 507 399 L 507 404 L 503 407 L 502 411 L 499 414 L 499 416 L 495 419 L 495 421 L 500 421 Z M 365 404 L 365 372 L 356 372 L 352 374 L 352 379 L 356 379 L 359 382 L 359 403 L 361 404 L 365 404 Z M 127 417 L 129 413 L 133 413 L 136 416 L 139 416 L 141 414 L 142 414 L 142 413 L 144 411 L 148 411 L 152 414 L 156 414 L 160 410 L 162 410 L 163 411 L 169 411 L 173 407 L 177 406 L 178 405 L 180 405 L 182 403 L 183 399 L 182 398 L 179 398 L 177 396 L 177 399 L 176 400 L 172 401 L 166 405 L 160 405 L 154 409 L 151 409 L 148 403 L 142 409 L 131 409 L 129 410 L 129 412 L 127 414 L 124 414 L 122 416 L 121 416 L 120 416 L 119 416 L 118 416 L 117 416 L 116 416 L 115 416 L 114 416 L 113 416 L 112 416 L 110 414 L 110 416 L 111 416 L 112 416 L 113 416 L 114 416 L 115 416 L 116 416 L 117 416 L 118 416 L 119 416 L 120 416 L 122 418 L 123 417 L 127 417 Z M 541 437 L 542 434 L 545 430 L 545 428 L 541 421 L 541 407 L 540 406 L 531 406 L 530 408 L 525 412 L 525 414 L 522 417 L 521 420 L 518 423 L 517 425 L 517 428 L 518 430 L 531 430 L 533 431 L 539 438 L 541 437 Z M 186 522 L 189 520 L 191 520 L 195 518 L 199 518 L 199 517 L 203 514 L 208 514 L 211 510 L 216 510 L 217 508 L 216 508 L 214 506 L 214 504 L 215 503 L 217 503 L 220 505 L 221 502 L 224 499 L 225 499 L 227 501 L 227 505 L 229 507 L 231 506 L 237 506 L 242 502 L 245 502 L 246 501 L 250 502 L 252 501 L 251 497 L 250 496 L 250 494 L 244 494 L 243 492 L 246 489 L 248 491 L 250 491 L 253 488 L 254 488 L 252 485 L 252 483 L 253 482 L 255 482 L 257 486 L 259 486 L 260 488 L 266 490 L 267 492 L 271 492 L 273 490 L 279 488 L 284 484 L 285 484 L 286 484 L 287 484 L 288 484 L 287 484 L 285 482 L 285 477 L 288 473 L 299 472 L 301 476 L 304 476 L 305 477 L 305 475 L 301 473 L 301 470 L 303 468 L 306 467 L 306 462 L 309 459 L 312 459 L 313 458 L 314 458 L 318 462 L 318 461 L 322 458 L 322 456 L 317 456 L 316 455 L 316 453 L 317 452 L 320 452 L 323 454 L 326 454 L 327 451 L 331 447 L 331 445 L 333 441 L 332 441 L 331 439 L 330 439 L 328 437 L 331 435 L 331 424 L 332 423 L 332 421 L 336 417 L 335 413 L 331 411 L 314 411 L 310 407 L 282 407 L 280 408 L 280 409 L 273 415 L 267 416 L 267 417 L 264 419 L 249 419 L 248 420 L 244 420 L 240 424 L 237 424 L 234 427 L 233 427 L 232 428 L 232 430 L 230 432 L 212 433 L 209 436 L 207 436 L 206 437 L 202 437 L 199 441 L 194 441 L 190 445 L 185 445 L 184 446 L 182 446 L 182 447 L 180 449 L 174 450 L 172 453 L 170 453 L 169 454 L 164 454 L 162 457 L 160 458 L 156 458 L 151 463 L 152 464 L 152 468 L 155 470 L 155 472 L 156 473 L 156 480 L 160 484 L 160 488 L 161 489 L 161 491 L 163 493 L 165 502 L 168 505 L 168 508 L 169 509 L 169 515 L 170 515 L 172 517 L 172 518 L 176 522 L 178 523 L 179 522 L 186 522 Z M 442 542 L 445 540 L 450 540 L 454 535 L 455 535 L 458 535 L 459 534 L 461 534 L 465 532 L 467 530 L 469 530 L 473 528 L 478 528 L 479 529 L 481 529 L 484 527 L 480 524 L 466 524 L 461 528 L 457 529 L 456 531 L 456 534 L 455 535 L 454 535 L 452 533 L 448 533 L 445 536 L 442 537 L 440 539 L 441 543 L 442 542 Z M 425 615 L 427 611 L 431 607 L 431 605 L 433 603 L 433 601 L 434 600 L 434 597 L 435 596 L 435 588 L 438 584 L 438 573 L 439 572 L 439 570 L 446 562 L 445 552 L 444 552 L 442 550 L 442 545 L 441 544 L 439 547 L 439 549 L 441 552 L 441 557 L 439 560 L 439 565 L 435 568 L 435 570 L 433 573 L 433 578 L 435 581 L 435 584 L 431 589 L 431 595 L 429 598 L 429 603 L 427 605 L 426 608 L 424 610 L 423 610 L 423 614 L 425 615 Z M 484 575 L 488 573 L 488 571 L 489 570 L 489 565 L 486 561 L 486 559 L 489 553 L 488 548 L 482 547 L 481 546 L 471 546 L 470 547 L 467 547 L 465 551 L 465 552 L 467 553 L 468 552 L 471 552 L 471 551 L 473 549 L 481 549 L 482 550 L 483 552 L 482 555 L 480 557 L 477 558 L 475 560 L 475 561 L 480 561 L 483 563 L 483 570 L 481 572 L 475 573 L 473 572 L 471 570 L 471 569 L 467 567 L 465 569 L 466 573 L 469 575 L 484 575 Z M 509 604 L 510 603 L 514 603 L 514 602 L 517 599 L 518 599 L 520 591 L 522 589 L 523 586 L 527 582 L 527 578 L 528 577 L 529 573 L 532 570 L 534 570 L 535 569 L 536 570 L 539 570 L 539 559 L 540 558 L 540 555 L 544 552 L 543 552 L 539 547 L 535 546 L 535 547 L 530 552 L 530 554 L 528 555 L 526 557 L 526 558 L 521 562 L 520 564 L 518 564 L 518 579 L 513 583 L 513 585 L 510 588 L 509 592 L 507 594 L 505 594 L 501 596 L 501 600 L 500 601 L 500 603 L 501 604 L 509 604 Z M 144 587 L 148 585 L 149 583 L 149 578 L 153 573 L 153 569 L 149 564 L 149 556 L 147 555 L 131 555 L 129 559 L 129 569 L 131 571 L 141 571 L 143 572 L 145 574 L 146 578 L 140 584 L 139 584 L 136 581 L 133 581 L 132 580 L 131 580 L 129 582 L 131 586 L 134 586 L 135 587 L 144 587 Z M 336 596 L 339 594 L 340 590 L 344 584 L 344 580 L 348 575 L 348 564 L 327 564 L 326 565 L 326 569 L 327 570 L 338 570 L 342 573 L 339 579 L 338 584 L 335 587 L 335 590 L 334 591 L 334 596 L 336 596 Z M 156 630 L 157 629 L 157 624 L 154 620 L 154 613 L 153 612 L 156 609 L 160 608 L 160 607 L 158 605 L 158 602 L 159 601 L 163 600 L 164 599 L 165 599 L 166 599 L 167 599 L 169 599 L 169 597 L 167 599 L 160 598 L 157 600 L 154 600 L 153 601 L 152 601 L 151 599 L 149 599 L 148 598 L 147 599 L 151 602 L 151 604 L 152 605 L 152 622 L 154 624 L 150 629 L 151 630 L 156 630 Z M 611 635 L 616 632 L 616 617 L 613 615 L 609 615 L 608 614 L 603 615 L 600 612 L 600 608 L 603 605 L 616 605 L 616 603 L 594 603 L 594 620 L 595 621 L 599 621 L 601 620 L 602 618 L 608 618 L 611 622 L 611 628 L 608 632 L 605 632 L 599 628 L 594 628 L 594 633 L 595 634 L 598 634 L 599 635 L 611 635 Z M 169 651 L 172 647 L 174 647 L 177 649 L 178 649 L 179 647 L 179 637 L 175 633 L 175 632 L 171 629 L 171 627 L 170 626 L 170 619 L 171 618 L 171 615 L 170 614 L 168 615 L 168 619 L 169 620 L 169 643 L 171 645 L 171 647 L 169 648 L 168 650 L 168 651 L 169 651 Z M 401 643 L 403 642 L 403 641 L 405 639 L 405 637 L 409 634 L 409 632 L 411 629 L 412 629 L 413 629 L 414 630 L 414 634 L 416 637 L 416 636 L 419 633 L 420 633 L 420 628 L 423 625 L 423 624 L 420 621 L 420 620 L 418 623 L 418 627 L 416 629 L 415 629 L 414 629 L 413 629 L 412 629 L 408 625 L 407 626 L 407 629 L 406 631 L 403 634 L 402 637 L 398 641 L 398 643 L 399 644 L 401 643 Z M 98 697 L 98 694 L 99 693 L 100 689 L 102 687 L 102 686 L 105 684 L 105 680 L 103 676 L 105 673 L 109 675 L 109 679 L 110 680 L 112 680 L 114 683 L 115 682 L 119 682 L 122 684 L 129 684 L 134 680 L 132 679 L 126 679 L 123 677 L 117 679 L 114 676 L 114 675 L 117 671 L 122 671 L 123 672 L 128 672 L 129 671 L 131 671 L 132 668 L 136 664 L 140 663 L 143 660 L 147 658 L 149 655 L 149 653 L 145 650 L 145 646 L 144 645 L 140 644 L 136 641 L 132 642 L 128 646 L 128 649 L 131 650 L 135 654 L 133 659 L 131 660 L 126 665 L 123 661 L 121 661 L 118 658 L 116 660 L 112 661 L 111 663 L 111 666 L 107 669 L 101 671 L 99 675 L 93 682 L 89 681 L 86 678 L 85 675 L 81 671 L 81 670 L 79 670 L 77 668 L 77 666 L 75 665 L 73 667 L 74 667 L 78 670 L 78 671 L 74 675 L 72 676 L 73 679 L 77 683 L 77 684 L 79 686 L 80 686 L 86 692 L 86 693 L 88 694 L 89 694 L 91 692 L 91 691 L 93 690 L 95 693 L 95 697 L 97 698 L 98 697 Z M 646 697 L 646 695 L 648 692 L 647 691 L 647 687 L 649 685 L 656 684 L 655 680 L 656 678 L 658 677 L 660 675 L 660 674 L 663 672 L 663 666 L 666 663 L 667 663 L 667 660 L 668 658 L 671 655 L 673 656 L 676 656 L 677 655 L 680 655 L 681 654 L 689 654 L 688 652 L 678 642 L 676 641 L 671 641 L 671 644 L 670 646 L 666 650 L 666 652 L 662 655 L 662 657 L 658 661 L 657 664 L 655 665 L 653 669 L 651 671 L 650 671 L 649 676 L 646 679 L 645 679 L 645 680 L 641 684 L 641 688 L 645 691 L 645 697 L 646 697 Z M 200 707 L 202 706 L 206 702 L 206 699 L 207 698 L 208 698 L 211 701 L 213 699 L 215 695 L 217 694 L 220 694 L 225 687 L 230 685 L 231 684 L 231 681 L 235 677 L 235 674 L 236 672 L 237 671 L 238 672 L 242 672 L 242 667 L 240 667 L 240 669 L 238 671 L 237 671 L 236 671 L 234 669 L 232 669 L 229 665 L 226 665 L 225 663 L 224 663 L 224 667 L 226 669 L 227 669 L 229 671 L 229 672 L 228 673 L 224 673 L 222 675 L 222 678 L 223 679 L 222 681 L 222 684 L 220 686 L 218 686 L 215 683 L 211 682 L 210 683 L 211 689 L 209 691 L 207 691 L 203 688 L 201 690 L 199 690 L 197 692 L 197 693 L 199 693 L 203 696 L 203 698 L 200 701 L 199 701 L 199 702 L 197 704 L 197 706 L 198 707 L 200 707 Z M 893 796 L 895 795 L 898 789 L 901 787 L 902 783 L 906 779 L 907 776 L 910 774 L 910 770 L 911 768 L 913 766 L 914 766 L 914 762 L 915 761 L 915 755 L 918 753 L 918 747 L 919 746 L 919 738 L 920 737 L 920 735 L 922 733 L 922 730 L 923 729 L 923 726 L 924 725 L 923 718 L 920 717 L 918 714 L 919 712 L 919 709 L 918 707 L 914 704 L 863 704 L 862 705 L 853 705 L 853 706 L 851 708 L 849 709 L 845 709 L 840 713 L 837 713 L 829 720 L 828 722 L 828 726 L 827 728 L 824 730 L 824 744 L 826 745 L 828 748 L 828 755 L 829 757 L 830 757 L 832 759 L 833 761 L 833 765 L 834 765 L 837 768 L 837 769 L 840 770 L 842 774 L 844 774 L 848 778 L 851 779 L 853 781 L 853 782 L 860 782 L 862 783 L 864 785 L 864 786 L 870 787 L 873 790 L 875 791 L 878 791 L 882 795 L 893 796 Z M 420 740 L 425 735 L 425 725 L 423 722 L 411 722 L 408 719 L 408 716 L 412 711 L 417 711 L 419 713 L 419 714 L 425 714 L 425 712 L 424 710 L 421 708 L 407 708 L 403 710 L 403 714 L 402 715 L 402 721 L 401 722 L 401 730 L 402 731 L 402 734 L 403 736 L 404 736 L 407 740 L 420 740 Z M 156 775 L 156 773 L 159 769 L 156 765 L 158 763 L 161 762 L 162 760 L 162 755 L 165 752 L 162 750 L 158 750 L 156 748 L 156 755 L 155 756 L 152 756 L 153 758 L 153 763 L 152 764 L 151 763 L 147 763 L 144 769 L 144 772 L 145 771 L 148 771 L 150 769 L 150 767 L 152 765 L 153 765 L 154 766 L 154 772 L 153 773 L 156 776 L 156 775 Z M 447 843 L 450 841 L 450 832 L 451 831 L 454 831 L 456 829 L 456 828 L 460 825 L 460 822 L 462 820 L 463 820 L 463 817 L 464 816 L 467 816 L 467 813 L 464 816 L 463 816 L 458 811 L 459 809 L 462 807 L 467 812 L 467 813 L 468 812 L 470 812 L 471 811 L 469 809 L 469 806 L 471 803 L 473 803 L 472 802 L 472 798 L 471 797 L 471 795 L 463 795 L 463 796 L 461 798 L 457 798 L 453 796 L 451 792 L 451 784 L 450 782 L 448 784 L 448 796 L 451 797 L 454 801 L 458 803 L 458 810 L 451 814 L 450 816 L 450 822 L 448 824 L 446 824 L 444 826 L 444 828 L 443 829 L 443 836 L 442 837 L 443 837 L 445 839 L 446 841 L 446 844 L 447 843 Z M 564 857 L 567 855 L 567 825 L 566 824 L 558 824 L 555 828 L 555 833 L 558 834 L 560 836 L 560 855 L 561 857 L 564 857 Z" /><path d="M 438 57 L 436 57 L 434 55 L 434 54 L 428 53 L 425 49 L 425 44 L 424 43 L 424 41 L 425 40 L 425 33 L 429 28 L 429 27 L 431 25 L 432 25 L 431 18 L 433 16 L 434 16 L 435 16 L 437 18 L 437 16 L 436 16 L 435 16 L 434 16 L 433 16 L 428 16 L 425 24 L 423 26 L 422 26 L 422 27 L 420 29 L 420 33 L 422 36 L 422 38 L 421 39 L 419 39 L 416 37 L 415 38 L 415 44 L 412 47 L 410 46 L 398 46 L 397 45 L 393 45 L 387 38 L 387 36 L 386 35 L 386 30 L 387 29 L 388 28 L 389 28 L 395 28 L 395 26 L 396 25 L 398 25 L 399 24 L 401 26 L 401 28 L 402 29 L 404 29 L 408 31 L 407 28 L 403 24 L 402 24 L 401 24 L 400 24 L 399 24 L 391 24 L 390 25 L 390 27 L 389 28 L 387 29 L 386 29 L 382 26 L 380 28 L 380 31 L 384 35 L 384 37 L 380 40 L 378 44 L 375 41 L 375 40 L 374 40 L 371 37 L 371 36 L 369 35 L 364 35 L 362 34 L 361 33 L 361 29 L 358 27 L 356 27 L 354 25 L 354 20 L 349 16 L 350 14 L 355 10 L 531 10 L 533 12 L 531 14 L 526 14 L 524 16 L 524 17 L 520 20 L 519 22 L 516 23 L 516 24 L 513 27 L 512 27 L 512 28 L 509 31 L 508 31 L 507 33 L 507 38 L 505 40 L 501 41 L 501 42 L 498 45 L 497 45 L 492 49 L 476 48 L 472 44 L 457 44 L 455 48 L 447 48 L 446 47 L 444 49 L 441 49 L 441 53 L 438 57 Z" /><path d="M 914 1010 L 911 1008 L 911 1006 L 912 1005 L 913 1005 L 918 1000 L 922 1000 L 926 996 L 927 996 L 931 992 L 932 992 L 932 991 L 939 984 L 941 983 L 944 983 L 949 978 L 949 977 L 952 974 L 953 974 L 953 970 L 957 965 L 957 960 L 958 959 L 958 956 L 961 953 L 965 952 L 966 948 L 970 945 L 971 941 L 975 937 L 978 936 L 979 934 L 985 929 L 987 928 L 991 928 L 994 924 L 1001 923 L 1003 922 L 1003 921 L 1006 918 L 1007 918 L 1009 920 L 1009 944 L 1007 946 L 1002 946 L 1001 947 L 1000 951 L 997 954 L 997 957 L 996 959 L 993 962 L 993 969 L 984 977 L 984 983 L 981 985 L 979 985 L 977 987 L 976 989 L 976 998 L 975 999 L 975 1001 L 973 1003 L 972 1006 L 969 1009 L 915 1009 L 914 1010 Z" /></svg>