<?xml version="1.0" encoding="utf-8"?>
<!-- Generator: Adobe Illustrator 21.1.0, SVG Export Plug-In . SVG Version: 6.00 Build 0)  -->
<svg version="1.1" id="Layer_1" xmlns="http://www.w3.org/2000/svg" xmlns:xlink="http://www.w3.org/1999/xlink" x="0px" y="0px"
	 viewBox="0 0 1920 1080" style="enable-background:new 0 0 1920 1080;" xml:space="preserve">
<style type="text/css">
	.st0{opacity:0.6;fill:#D3394A;enable-background:new    ;}
	.st1{opacity:0.6;fill:#EB5F5B;enable-background:new    ;}
	.st2{opacity:0.6;fill:#FB8768;enable-background:new    ;}
	.st3{opacity:0.6;fill:#FFB27C;enable-background:new    ;}
	.st4{opacity:0.6;fill:#FFDAA3;enable-background:new    ;}
	.st5{opacity:0.6;fill:#FFFFE0;enable-background:new    ;}
	.st6{opacity:0.6;fill:#B3152F;enable-background:new    ;}
	.st7{opacity:0.6;fill:#8B0000;enable-background:new    ;}
	.st8{fill:#D3394A;}
	.st9{fill:#FFFFE0;}
	.st10{opacity:0.47;fill:#FB8768;}
	.st11{fill:#FFB27C;enable-background:new    ;}
	.st12{fill:#FFB27C;}
	.st13{opacity:0.54;fill:#D3394A;}
	.st14{fill:#FB8768;}
	.st15{fill:#FFFFE0;enable-background:new    ;}
	.st16{fill:#8B0000;enable-background:new    ;}
	.st17{fill:#B3152F;enable-background:new    ;}
	.st18{fill:#FFDAA3;enable-background:new    ;}
	.st19{fill:#B3152F;}
	.st20{fill:#EB5F5B;}
	.st21{fill:#FB8768;enable-background:new    ;}
	.st22{fill:#FFDAA3;}
	.st23{fill:#008000;enable-background:new    ;}
</style>
<g id="_x35_7">
	<path class="st0" d="M1435,602h-3l-4,4l-5,2l-3-3v-1l3-3v-6l-4-8v22h2l3,3v1l5,1l2,2v4l-4,4h-5l-2-2v-1h-2l-3-3v-1h-2l-4-4l1,2l5,4
		v1l2,2h1l3,3h15l8-4h2l3-3v-12l-1-1v-4l-3-3h-1l-3,3h-3l-2,2v1h-2l2-2v-1L1435,602z"/>
</g>
<g id="_x35_6">
	<path class="st1" d="M1413,238l6-6l2-1h3l3,3l4,1l1,2l2,1l2,2v1l4,3v3l4,4v8l4,5v8l1,1v26l3,3v31l-2,2h-1v20l-1,1v11l-4,8v34l-1,1
		v2l-3,4v17l-1,1v14l-2,2h-1v12l-1,1v3l-3,4l-1,4l-2,2h-1l-3,4l-4,1l-3,3l-3,1l-1,2l-2,2h-1l-3,4l-4,1l-7,7l-2,1h-6v1l-3,3h-2l-4,3
		h-2l-1,1h-5l-5,4l-6,1l-4,4h-2v1l-3,3h-1v1l-3,3h-1l-4,5h-3l-4,3h-11l-1,1h-14l3,3l4,1l4,4l3,1l3,3l2,1h3l8,8h2l1,2l4,3v1l2,2l3,1
		v1l5,4l1,2l2,1v2l2,2l3,1v1l2,2l3,1l3,3l4,1v2l2,2h2l4,2v1l4,3v1l5,5l4,1v1l3,3h1v1l3,3l4,1l4,4h2v1l3,3h2v1l2,2h5l4-4v-4l-2-2
		l-5-1v-1l-3-3h-2v-22l-2-2v-2l-2-2l-4-2l-4,2l-4-1l-7-7l-4-1l-3-2h-4l-4-4h-5l-1-1l-1-2v-3l-2-3v-4l-1-1l-1-4l-6-3v-5l2-4l2-2l4,2
		h9l4-4l4,4h5l3-2h2l2,1l16,16h2l3,4h4l2-2h8l1,1h3l1,2l6,6v9l2,2l2-2v-9l2-4v-7l2-2l1-4l1-1v-8l3-4v-12l-5-5l-1-2h-2l-3,4h-1l-2,2
		v5l-5,4h-1v-1l-3-3h-1l-1-4l-5-5l4-1l2-4h11l3-3l3-1l7-7V211l-2-2h-5l-3-4h-6l-5-4l-12,1l-6,6v5l-4,3v3l-1,1l1,6l-5,4v8l-2,1.2
		L1413,238z"/>
</g>
<g id="_x35_5">
	<path class="st2" d="M1367,299v2l1,1v10h1l2,2v5l1,1v17l2,1l2,3v33l-1,1v3l-3,4l-1,8l-1,2l-2,1l-1,8l-2,2h-1v4l-1,1v2l-4,3v3l-2,1
		l-1,2l-3,3h-1l-1,2l-2,2h-1l-1,2l-2,2h-1l-2,3l-2,1h-3v1l-2,2l-2,1h-4l-5,4h-3l-4,2v1l-3,2h-4l-5,4h-6v1l-4,3h-4l-6,4h-5l-1,1h-2v1
		l-2,2h-6l-1,1h-17l-1-1h-6l-2-2v-1h-6l-4-2h-5l-2-2v5h-1l-3,3v9l6,7h4l1,1v2l4,4l2,1h3l1,1h3l1,4l8,8l2,1h3l7,7l4,1l4,4l3,1l3,3
		l4,1v1l2,2l4,2l3,3l4,1v1l2,2l8,1v1l3,3h14l1-1h11l4-3h3l4-5h1l3-3v-1h1l3-3v-1h2l4-4l6-1l5-4h5l1-1h2l4-3h2l3-3v-1h6l2-1l7-7l4-1
		l3-4h1l2-2l1-2l3-1l3-3l4-1l3-4h1l2-2l1-4l3-4v-3l1-1v-12h1l2-2v-14l1-1v-17l3-4v-2l1-1v-34l4-8v-11l1-1v-20h1l2-2v-31l-3-3v-26
		l-1-1v-8l-4-5v-8l-4-4v-3l-4-3v-1l-2-2l-2-1l-1-2l-4-1l-3-3h-3l-2,1l-6,6l-5,2l-1,1l-1,4h-1l-3,4l-2,1l-2,11l2,3v12l-5,5v1h-1l-3,3
		v4l-1,1h-2l-4,5l-2,1l-1,3l-3,2l-1,2l-1-2l3-2v-1l-2-2h-1l-2,2h-3l-3-3l-1,1h-3L1367,299z"/>
</g>
<g id="_x35_4">
	<path class="st3" d="M1336,271v2l-2,2v4l-2,4l-2,1l-1,4l-4,5l-1,10l-3,3v6l-4,5l-1,5l-3,3l-1,5l-3,3l-2,6l-1,1h-2l-1,4l-25,25l-4,1
		l-1,3l-1,1h-2l-1,3l-1,1h-2l-1,1v2l-4,2v2l-1,1l-4,1l-4,3h-2l-1,1h-4l-1,2l-2,2l-3,1v1l-2,2h-2l-2-2v-1h-1l2,5l3,3v8l1,1l-1,1v3
		l-1,2l-2,2v7l-1,1v2l1,1v2l-4,3l-1,2v9l-4,3v5l2,2h5l4,2h6v1l2,2h6l1,1h17l1-1h6l2-2v-1h2l1-1h5l6-4h4l4-3v-1h6l5-4h4l3-2v-1l4-2h3
		l5-4h4l2-1l2-2v-1h3l2-1l2-3h1l2-2l1-2h1l2-2l1-2h1l3-3l1-2l2-1v-3l4-3v-2l1-1v-4h1l2-2l1-8l2-1l1-2l1-8l3-4v-3l1-1v-33l-2-3l-2-1
		v-17l-1-1v-5l-2-2h-1v-10l-1-1v-2l-8-8l-2-4l-4-2l-6-6l-1-4l-2-2l-4-1l-1-2l-4-2h-1L1336,271z"/>
	<path class="st3" d="M1202,417l-2-1l-2-2v1l2,3v17l2,2l3-3v-18l1-1v-1L1202,417z"/>
</g>
<g id="_x35_3">
	<path class="st4" d="M1318,248l3,1l3,3h3l1,1h6l2,2v-2l-2-3l-2-1h-7l-8-5l-2,1L1318,248z"/>
	<path class="st4" d="M1330,271h-2l-1-1h-3l-0.8-1.6l-1.2,1.6h-5l-2,1v1l-3,3h-1l-1,2v6l-2,3v4l-1,1h-3l-4,3l-2-2l-5-1l-5-4h-3l-2-2
		l-4-1l-2-2v-1l-7-7h-1l-3-4l-1,3l2,4l-4,3h-16l-4-3h-12v1l-2,2l-4,1l-1,2l-5,4l-1,3l-3,3l-1,4l-3,2v1l-5,5v1l-9,9h-2l-1,2l-6,6h-3
		l-1,4l-3,2l-1,3l-4,4l-1,8l-2,2l-1,4l-3,3h-4l-1,1l4,1l1,1h2l3,3h3l2,2l1,3h2l4,3l6,2l3,3l5,1l4,4v2l2,4v4l5,5v3l-1,1v3.7l2-2.7h3
		l3,2v-3l2-1h3l1,1h9v1l2,2h2l2-2v-1l3-1l2-2l1-2h4l1-1h2l4-3l4-1l1-1v-2l4-2v-2l1-1h2l1-1l1-3h2l1-1l1-3l4-1l25-25l1-4h2l1-1l2-6
		l3-3l1-5l3-3l1-5l4-5v-6l3-3l1-10l4-5l1-4l2-1l2-4v-4l2-2v-2l-2-3L1330,271z"/>
</g>
<g id="_x35_2">
	<path class="st5" d="M1264,269l-1-4l-3-3l-1-4h-1l-7-7l-1-3l-3-3h-2l-3-3v-1h-1l-5-5h-2l-5-4h-20l-3,2l-2,5l-6,6l-1-1l-4-1l-4,4v4
		l-2,3v6l-2,2h-1l-3,4l-2,1v6l6,6l4-2l2-2l3-1l2,1l6,6l-2,2v2l-2,2l-4,2l-4-2l-4,1l-5,4h-22l-1,2l-3,2h-5l-1,2l-2,2h-1l-1,2l-2,2h-1
		l-4,5l-2,1v15l2,3v4l10,10l2,1h3l4,4v2l2,2l3,1l2.3,1.7l0.7-0.7h4l3-3l1-4l2-2l1-8l4-4l1-3l3-2l1-4h3l6-6l1-2h2l9-9v-1l5-5v-1l3-2
		l1-4l3-3l1-3l5-4l1-2l4-1l2-2v-1h12l4,3h16l4-3l-2-4l1-3L1264,269z"/>
</g>
<g id="_x35_1">
	<path class="st6" d="M1036,892h18l1,1h3l3-3v-6l-2-2h-3l-3,6h-17V892z"/>
	<path class="st6" d="M1050,924l2,2l1,4l4,3v1l4,4v2l2,1l2,2v1l2,1l3,3v1l2,1l2,2v1l4,3v2l4,5v2l9,8v2l4,1l3,3h3l3,3v1h2l4,4l-3,4v2
		l1,1h1l4-5h2l4,2l1,4l5,5v8l4,4h1l2-3l-2-4l-4-3v-2l2-2h6l3,3v3l1,2h5l3-4l0.9-0.4l-0.9-3.6l-2-2h-2l-1-4l1-1h2l2-2l1-4l2-2l-8-8
		v-1l-2-2h-4l-1,1l-1-2h-3l-3-4l-4-1l-5-4h-2l-7-7l-4-1l-1-1h-2l1-4l-3-3l-8,1l-5-5h-5l-1-1h-2l-1-1v-2l-5-5l-5-1l-1-2l-4-1l-1-1h-6
		l-7-7l-2,2l-3,1H1050z"/>
</g>
<g id="_x35_0">
	<path class="st0" d="M1122,828h-5l-4-4l-3-1l-2-2h-5l-1-1l-4-1l-2-2h-1h-1h-1h-1h-1h-1h-1h-1h-1h-1l3,3v1l-2,2v3l-3,3h-1l-4,5h-1v2
		l-4,3v2l-6,6h10l1-1h20l1,1h15l4,3h4l1,1l6-1l3-3v-1l-2-2h-1l-1-4l-4-4l-1-3l1-1L1122,828z"/>
	<path class="st0" d="M1050,856l-1,2l-4,3l-1,4l-3,3h-1l-1,4l-3,3v3l-1,2l-3,3v13l4,5v-14l2-2v-4l2-3v-2l3-2l1-2v-4l4-4v-4l5-4v-0.9
		L1050,856z"/>
	<path class="st0" d="M1036,917l4,5v10l-3,4v1l4,2h6l4,4v8l2,2l-2,3v7l1,2l7,7v5l1,1v2l2,1l3,4h2l3,2h9l3-2l4,1l3,3v3l2,2h1l3,4h5
		l1-1h2l2-2l4-1h-1l-1-1v-2l3-4l-4-4h-2v-1l-3-3h-3l-3-3l-4-1v-2l-9-8v-2l-4-5v-2l-4-3v-1l-2-2l-2-1v-1l-3-3l-2-1v-1l-2-2l-2-1v-2
		l-4-4v-1l-4-3l-1-4l-2-2h-6l-2-1l-2-2l-1-3l-2-2h-1V917z"/>
	<path class="st0" d="M1132,1008l2-2h4l-1-2v-3l-3-3h-6l-2,2v2l4,3l1.8,3.6L1132,1008z"/>
</g>
<g id="_x34_9">
	<path class="st1" d="M1084,815h-2l-2.7,2h2.7l-1,1v3l-1,1h-3l-1-1l2.6-3.4l-0.6,0.4l-4,1l-4,5h-2l-2,2l-4,2l-4-2h-9l2,2v2l2,4l-1,3
		l-5,5l-4,1v1l-2,2h-7l-1,1h-2v2l-4,2v2l-4,2l-2,4h-2v2l-1,1v4l-3,4v6l-1,1v8l1,1v5h1l2,2v2l1,1v7l3,2v2l1,1v7l3,3l1,2v3l1,2h1l2,2
		v1l-4,4v2l-4,4l-2,4l-4,3l-2,4h4l9-9h4l4-4l1,0.6V936l3-4v-10l-4-5v-16l-4-5v-13l3-3l1-2v-3l3-3l1-4h1l3-3l1-4l4-3l1-2l7-2l3-3h3
		l2-1l9-9v-2l4-3v-2h1l4-5h1l3-3v-3l2-2v-1l-3-3h1L1084,815z"/>
</g>
<g id="_x34_8">
	<path class="st2" d="M1047,824h-3l-4,4h-6l-3,3h-2l-1,1h-10l-3,6h-5l-4-2l-3-4h-7l-4,4l-1,2v9l-4,4l-2,4l2,2h2l2,2l1,12l-2,4v3l1,1
		v2l2,4l2,2l1,4h1l3,3v4l-4,3v9l-5,5v1l-8,7v1l2,2h1l3,4h2l3,2h4l2,3v2l2,1l3,4l4,1l6,6l2-4l4-3l2-4l4-4v-2l4-4v-1l-2-2h-1l-1-2v-3
		l-1-2l-3-3v-7l-1-1v-2l-3-2v-7l-1-1v-2l-2-2h-1v-5l-1-1v-8l1-1v-6l3-4v-4l1-1v-2h2l2-4l4-2v-2l4-2v-2h2l1-1h7l2-2v-1l4-1l5-5l1-3
		l-2-4v-2l-2-2L1047,824z"/>
</g>
<g id="_x34_6">
	<path class="st4" d="M1132,593l6-1l2-7l4-2v-8l4-4v-5l2-3h2l2,2v7.2l1-1.2v-6l-2-3l-2-1l-4,3l-1,2v3l1,1h-1l-2,2l-1,2v2l-1,1v6h-1
		l-3,3v5l-7,2l-1,2L1132,593z"/>
	<path class="st4" d="M1175,604l2-2h4l1-2l3-3h1v-3l3-3h1l3-3l2,1v3l-2,2v1l3-4l1-4l-3-3h-1l-4,5h-1l-2,2l-1,4l-5,6h-3l-3,3H1175z"
		/>
	<path class="st4" d="M1124,668l-2,1l-1,2v1h5l2,1l8,8v-4l4-4h5l1,1v2l1,0.7l-1-5.7l-4-3H1124z"/>
	<path class="st4" d="M1155,687l4,3h5l4-3l4,3h5l2-1l1-2h5l3,3h2l3-3h5l7,8v4l-2,2h-1l-4,5l-2-1v-2l-1-1h-5v1l3,3h4l1,1l4,1l4,5h2
		l3,2h4l3-2h4l1-1l4,1v-2l-2-1h-10l-2-1l-2-2l-1-3l-2-1v-1l3-3v-2l-3-3v-5l4-3h5l-1-1h-4l-2-1l-3,2h-20l-1-1h-6l-1,1h-24l-0.5-0.5
		L1155,687z"/>
	<path class="st4" d="M1218,687h19l1,2l2,1h1l3-3h1l3,3h6l1-1v-4l2-2h5l4,4l1-1h14l1,1h4l1,1l2-2h5l1,1l2-1h4l7,8v8l4,5v3l1,1v5l3,3
		v10l-1,1v2l-4,4h1l1-1h51l4,3l1,2v3l-1,2l2,3l3,1l1,7l-1,1v3l-1,1v3l-2,2v2l-1,1v8l-1,1v6l-3,2v6l-1,1v4h-1l-2,2l-1,2v4l-3,2l-1,3
		l-4,4l-1,4l-3,2l-3,6l-2,1l-11-1l-4-4h-3l-2-1l-3-3l-6-1v-1l-2-2l-2-1h-7v-1l-2-2l-3-1l-4-4h-2l-2-4l-3-1v-1l-3-3h-1v-4l-1-2l-2-2
		h-1v3l-1,1v2l-3,3v1l-7,6h-3v1l-4,3h13l2,1v1l2,2l14,1v1l3,3h2v1l2,2l2,1h3l5,4h4l4,3h2l1,1h5l1,1h2l5,4l6-1l5,4h4l2-2v-3l-1-2h2
		l3-2l1-4l4-4v-3l4-4l1-3l3-3l1-2v-3l4-5l-1-9l5-4v-5l3-3v-1l5-4v-1l-4-4l3-1l2-4h2l3-4h9l3-3v-16l3-3v-4l-2-2h-2l-2,2v1h-1l-2-6
		l-4-3l-1-2l-2-1h-4v-6l3-2v-4l-1-2l-18-18h-1l-2-2h-2l-1-1v-2l-3-2h-14l-3,3v1h-12l-2-1l-1,1h-5l-2-2h-4l-2,2h-22l-2-2h-12l-2,2
		h-12l-3-3h-7l-4,3h-17l-2-2h-4l-4,3h-7L1218,687z"/>
	<path class="st4" d="M1207,832l-1,1l-4,1l-3-3v-2l-1-1h-6v1l-8,8h-1v1l-3,3h-5v1l-3,3l-4-2h-9l-3,2h-14l-1,1l1,1h-1l-1,0.8v0.2
		l-0.7,0.3l-3.3,2.7l-1,5l3,3h8l1,1l1-1h7l1-1h3l4-3h8l1-1h3l4-3l4-1l2-3l5-1l3-4h2l3-4h3l2-1l2-2v-1l4-1l1-1H1207z"/>
	<path class="st4" d="M1095,728v-2l-4,4v3l-4,4v3l1,1h3l2-2l4-1v-1l3-3h9l1-1h2l5-5l-1-1h-5l-5,4h-4l-1-1h-2l-2-2l3-3v-3l-2-2v-2
		l1-1h5l1-1h3l2-1v-1l2-2h1v-2l2-4v-2l-1-1l1-2l2-1v-6h-1l-3,3v6l-3,2v1l-2,2l-2,1l-1,2l1,4l-7,1l-2,2v4l1,1l-2,3v2H1095z"/>
	<path class="st4" d="M1118,693v-3l3-3l2,2l3,1l3-3h10l1-1v-1l-2-2l1,2h-8l-1,1h-3l-1,1h-3l-2-1l-3,3l-1,2v3L1118,693z"/>
</g>
<g id="_x34_5">
	<path class="st5" d="M1139,690l7-8h3l2,1l4,4l-1-3l-3-2l-1-3l-4-3v-2l-1-1h-5l-4,4v4l4,4v1l-1,1h-10l-3,3H1139z"/>
	<path class="st5" d="M1214,687l2,2h2l1,1h7l3,3l4,1l2,2v1l2,2h1l2,2v1l2,1l2,2v1l4,3l1,4l7,7l1,3l4,3v2l3,2l2,4l3,3l1,4l4,5v15
		l-1,1l1,1v-1l4-5v-4l1-2l5-4h1l2-3h3l5-4h4l5-4h7l4-4v-2l1-1v-10l-3-3v-5l-1-1v-3l-4-5v-8l-7-8h-4l-2,1l-1-1h-5l-2,2l-1-1h-4l-1-1
		h-14l-1,1l-4-4h-5l-2,2v4l-1,1h-6l-3-3h-1l-3,3h-1l-2-1l-1-2h-19l-1-1h-5l-1.3,1H1214z"/>
	<path class="st5" d="M1276,778v5l2,4l-1,2l-3,2v3l-4,4h-1l-4,5l-2,1h-9l-2-1l-2-2v-1h-2l-3-3v-3l2-2h1v-1l-6-6h-2l-3,4h-5l-2,1
		l-1,4l-3,3v2l-2,3h-5l-2,1v1l-2,2h-2l-1-1l-6,1l-2,2v6l-2,3v4l-2,3v2l-3,2h1l1,1v2l3,3l4-1l1-1h3l2-2l3-1l4-4l8-1l7-7l3-1l2-2v-1
		l6-1l4-4h12l4-3v-1h3l7-6v-1l3-3v-2l1-1v-4l-1-1v-7l-2-3l-2-1L1276,778z"/>
</g>
<g id="_x34_4">
	<path class="st7" d="M1115,725v-2l2-2l3,2h6l6-6h10l4-2h5l2-4l2-2h3l2,1v-2l1-1h4l1,1h7v-1l3-3h5l3,2h2l3-2l4,2l-3-3v-1h5l1,1v2
		l2,1l4-5h1l2-2v-4l-7-8h-5l-3,3h-2l-3-3h-5l-1,2l-2,1h-5l-4-3l-4,3h-5l-2-1l-6-6l-2-1h-3l-7,8h-15l-2,1l-4,4l-1,5l-2,1l-1,2l1,1v2
		l-2,4v2h-1l-2,2v1l-2,1h-3l-1,1h-5l-1,1v2l2,2v3l-3,3l2,2h2l1,1h4l5-4h5l1,1L1115,725z"/>
	<path class="st7" d="M1224,713h2l2,2v5l4,1l3,4l6,1l2,2v1l4,3v2l3,3l1,4l4,3v16l1,1v2h1l3,3l-1,4l1,1l1,4l-2,4l3,4l-2,2l-1,2v3
		l-2,2h-3l-3-2h-2l-4-2l3,3v1h-1l-2,2v3l3,3h2v1l2,2l2,1h9l2-1l4-5h1l4-4v-3l3-2l1-2l-2-4v-5l-2-3v-12l-1-1l1-1v-15l-4-5l-1-4l-3-3
		l-2-4l-3-2v-2l-4-3l-1-3l-7-7l-1-4l-4-3v-1l-2-2l-2-1v-1l-2-2h-1l-2-2v-1l-2-2l-4-1l-3-3h-7l-1-1h-2l-2-2h-4l-2,2v5l3,3v2l-3,3v1
		l2,1l1,3l4,3h10l2,1v2l-4-1L1224,713z"/>
</g>
<path class="st8" d="M1224.8,405.7c-1.4-4.4-10-9.9-13.7-12.5c-1.4-1-2.9-2.1-4.6-2.2c-1.3-0.1-2.5,0.3-3.7,0.6
	c-9.7,2.8-20.3,2.5-29.9-0.6c-4.7-1.6-9.1-4-13.3-6.5c-4.2-2.6-5.8-6.3-7.9-10.8c-11-23.3-31.5-41.4-38.9-66.4
	c-1.8-6-1.4-12.8-5.3-17.7c-3-3.8-7.9-5.4-11.5-8.5c-3.1-2.6-5.1-6.2-8-9.1c-2.8-2.9-7.1-5-10.8-3.6c-0.5,0.2-0.9,0.4-1.4,0.7h-0.7
	l-1,1.2c-1.7,1.4-3.2,3-5.2,3.8c-1.6,0.6-3.4,0.8-4.7,1.9c-1,0.8-1.5,2-1.9,3.2c-1.1,2.7-2,6-4,8.1c0.1,0.4,0.4,0.7,0.7,0.9
	c2.5,1.4,5,2.8,7.4,4.3c-2.6,2.9-5,6-6.9,9.4c-2.8,4.8-1.8,8.5,3,11.3c1.6,0.9,3.6,1.9,3.6,3.7c0.1,1.2-0.9,2.3-1.3,3.5
	c-0.1,0.4-0.2,1,0,1.4c0.2,0.2,0.4,0.4,0.6,0.6c2.2,1.3,4.5,1.5,6.4,3.3c2.4,2.3,4.3,5,7.1,7c1.4,1,3,2,3.7,3.6
	c1,2.2,0.1,4.8-0.9,7.1c-1.2,2.9-5,7.6-4.1,10.8c0.5,1.7,2,3,3.8,3.1c3.8,0.3,5.8-3.8,8.8-5.3c1.2-0.6,4.1-1.8,4.6,0.1
	c0.4,1.4-4.6,4.6-5.5,5.3c-1.5,1.2-3,2.4-3.8,4.1s-0.8,4,0.7,5.2c0.5,0.5,1.2,0.7,1.9,1c3.3,1.4,10.3,2.5,10.2,6.2
	c-0.1,3.4-4.4,7.1-6,10c-1.9,3.5-5.8,11.3,1.3,11.5c3.7,0.1,8.1,2.5,10.6-0.5c3-3.5,5.1-7.7,6.2-12.2c0.2-0.7,0.3-1.4,0.9-1.8
	c0.6-0.4,1.3-0.2,2-0.1c1.7,0.4,3.4,0.7,5,1.1c0.5,0.1,1,0.3,1.1,0.7c0.1,0.3-0.1,0.7-0.2,1c-3.3,6.1-7.7,12-10.2,18.5
	c-0.5,1.3-0.8,2.9,0.1,3.8c1.1,1.1,4.9,1.1,6.3,1.4c2.1,0.4,3.5,1.5,5.1-0.5c1-1.3,0.4-4,0.9-5.5c0.8-2.7,2.8-5.1,4.5-7.3
	c0.8-1,1.6-2,2.7-2.4c2.3-0.9,4.7,0.8,6.6,2.4c0.9,0.7,1.8,1.8,1.5,2.8c-0.2,0.5-0.5,0.9-0.9,1.2c-4.6,4.4-7.7,9.4-10.7,14.9
	c-1,1.8-2.2,3.1-1.7,4.7c0.1,0.4,3,3.4,3.4,3.4h4l3-3v-3l3-3l1-4h2l2-2c0-4.7,5-3.2,7.9-1.1c2.2,1.6,4.4,3.2,6.6,4.9
	c0.2,0.1,0.3,0.2,0.4,0.4c0.1,0.3-0.1,0.7-0.4,0.9c-3.1,3.5-5.8,7.6-7.8,11.8c-0.3,0.6-0.5,1.2-0.3,1.8c0.2,0.7,0.9,1.1,1.5,1.4
	c4.8,2.6,8.6,6.6,12.4,10.6c4.3,4.6,5.2,6.8,9.8,2.3v-6l3-3l-1-2l-2-1v-6h1l1,2v4l1,1h2l2-2l1-5h2l2-2l1-4l3,2h7l3-4v1l3,3h2l3-3v-1
	h2c1.9,0,3.1-1.6,5.3-1.4c1.9,0.2,3.5,1.1,5.6,0.9C1222.5,412.1,1226.1,409.8,1224.8,405.7z"/>
<g id="_x34_1">
	<path class="st1" d="M1078,314.9c3.8,0,7.5-1.4,11-2.9c7.5-3.3,14.6-7.4,21.2-12.4c5.7-4.3,11.1-9.5,13.8-16.1
		c3.5-8.4,2.2-17.8,1.6-26.6c-0.5-7.6-1.6-16.2,4.5-21.5c12.6-11,17.5-28.2,25.1-42.5c2.1-3.9,4-7.7,5.6-11.8c0.9-2.4,0-2.8,2.6-3.3
		c1.6-0.3,3.9,0.9,5.4,1.5c8.6,3.3,18.1,4.2,27.1,2.8c1.1-0.2,2.3-0.4,3.2-1c2.9-1.9,2.6-6.1,2.3-9.6c-0.5-5.5-0.2-11.1,0.9-16.5
		c0.4-2,0.9-4.1,0.2-6.1c-1.2-3.6-6.7-4.7-9.2-1.9c-0.5,0.6-1,1.4-1.7,1.7c-0.6,0.3-1.3,0.2-2,0.1c-3.9-0.6-7.8-1.5-11.7-1.2
		c-3.9,0.3-8,1.9-10,5.3c0.6-7.5,1.2-14.9,1.8-22.4c0-0.4,0.1-0.9-0.2-1.2c-0.3-0.4-0.7-0.5-1.2-0.6c-2.9-0.6-5.9-1.2-8.8-1.8
		c-2.9-0.6-6.8-0.6-7.6,2.3c-0.5,2,0.9,4.8-0.9,5.8c-2.3-1.6-5.8-1.4-7.1-3.9c-0.4-0.9-0.5-1.9-0.5-2.8c-0.1-3.2-0.2-6.4-0.3-9.6
		c-3.1-1.1-6.6-1.4-9.9-0.6c-0.6,0.1-1.2,0.3-1.6,0.7c-1.4,1.2-0.8,3.4-0.7,5.2c0.2,3.1-1.4,6.2-4,7.8c-2,1.3-5,2-7,0.5
		c-0.7-0.5-3.4-7-2.9-7c-3.2,0.3-6.4,0.1-9.4-0.7c-0.6-0.2-1.3-0.4-1.9-0.1c-0.8,0.4-0.9,1.6-0.9,2.5c0,3.4-0.3,8-1.8,11.1
		c-0.6,1.3-1.8,2.1-2.1,3.4c-0.2,0.7,0.3,1.8,0,2.5c0,0-1,2-1,2l-3,3v4l3,3c0,0.6,0,1.2-0.2,1.8c-4.1,0.4-8.6,0.1-12.7,0.1
		c-0.5,1.2,0,2.5,0.2,3.8c0.2,1.3,0.1,2.9-1.1,3.5c-4.4,2.3-6.3,2.1-6.5,7.5c-0.1,2.4-1.7,9.5,0.9,11c2,1.1,5-0.4,6.6,1.3
		c0.8,0.6,0.4,2-0.5,2.5c-0.9,0.5-2,0.4-3,0.4c-4.6-0.2-8.5,0-11.7,3.2v1l2,2h1l1,3l2,2h4l1-1l1,2h1l-2,2h-5l-2,2v5l-4,3v1l3,4v3
		l3,3l2,4l5,3l-2,3v6l5,4v3l1,1h-1l-4,4v9l4,5v6l1,1l-2,1l-4-3l-7,7l-1,4l-4,4l-1,6h-1l-2,2l-1,2v3l-4,3v6l-3,2v3l2,2c1,0,2-0.1,3,0
		c0.8,0.1,1.6,1,2.2,1c1.4,0,3.1-0.9,4.7-0.9c2,0,4,0.6,6,0.8C1077.3,314.9,1077.7,314.9,1078,314.9z M1075,312v-1h1L1075,312z"/>
</g>
<g id="_x34_0">
	<path class="st2" d="M1424.5,134.6c3.1,0.4,5-0.3,3-3.4c-2.6-4-7.1-6.3-10.2-9.9c-2.9-3.4-4.5-7.7-7.4-11.2
		c-2.2-2.7-9-7.3-12.3-3.6c-3.8,4.4,2.8,11.7-6.8,11.8c-1.7,0-3.3-0.9-4.9-1.4c-5.7-1.9-7.4,4.5-10.8,7.5c-4,3.6-9.1,6.1-12.4,10.5
		c-3.7,5-4.2,11.5-4.7,17.6c-0.5,6.1-0.9,12.2-1.4,18.3c-0.1,1.1-0.2,2.3,0.3,3.4c0.5,1.1,1.4,1.8,2.3,2.5c1.9,1.5,3.8,3.4,6.1,4.3
		c1.5,0.6,2.4-0.7,3.6,0.9v2l2,2h2l2-2v-6l9-7c-0.3-2.4,0.3-3.4,1.5-5.3c1.9-3.1,2.1-5.1,2.3-9.1c0.3-5.1,0.6-10.3,2.4-15.1
		s5.4-9.2,10.2-10.8c4.2-1.3,8.7-0.4,12.9,0.9C1414.4,131.9,1420.4,134.1,1424.5,134.6z"/>
	<path class="st2" d="M1336.8,173.4c-0.1-0.1-0.2-0.2-0.3-0.3c-1.9-1.7-3.8-3.4-5.7-5.2c-0.9-0.8-1.9-1.7-2.9-2.3
		c-6.8-3.8-16.3-2.5-22.9,0.8c-3.8,1.9-7.2,4.7-10.9,6.7c-2.7,1.5-5.6,2.6-8.1,4.3c-2.2,1.4-4,3.3-6,4.9c-4.6,3.7-10,6.5-14.4,10.4
		c-4.5,3.9-8.1,9.6-7.3,15.5c0.3,2.9,1.7,5.6,3,8.2c1.6,3.2,3.2,6.3,4.8,9.5c1.2,2.3,2.5,4.8,4.6,6.4c4,3,9,0.2,12.9-1.9
		c3.1-1.7,7.4-5.5,9.4-8.3c3.1-4.2,3.5-8.8,9.6-10.3c1-0.2,2.1-0.5,2.5-1.4c0.2-0.4,0.2-0.8,0.2-1.2c0.1-2.6,0.2-5.5-1.4-7.6
		c-0.6-0.9-1.5-1.5-2-2.5c-0.5-0.9-0.6-2.3,0.3-2.9c2.9,1,5.8,1.9,8.7,2.9c0.2,0.1,0.4,0.1,0.6,0.1c1.2,0,1.1-1.8,1.1-3
		c0-3.2,3.3-5.1,6.2-6.5c4.2-2,9.4-4.7,13.8-2.3c4.3,2.4,8.8,6.8,11.1,0.1c1-2.7,0.2-5.8-1.2-8.2
		C1340.8,177.2,1338.8,175.3,1336.8,173.4z"/>
	<path class="st2" d="M1189.6,173.9c1.2,6,4.7,11.8,10.4,13.8c2.4,0.8,4.9,1,7.4,1.1c11.3,0.5,22.6,0.5,33.9-0.1
		c7.7-0.4,15.8-6.5,21.2-11.9c6.4-6.4,10.1-14.7,13.7-22.9c1.8-4.1,3.5-8.3,5.6-12.3c1.1-2.1,2.4-4,3.4-6.1c0.6-1.2,1.2-3.7,2.2-4.6
		c4.8-3.8,11-5.4,17-6.3c6-1,12.2-1.4,18-3.4c0.6-0.2,1.2-0.5,1.5-1.1c0.3-0.7-0.2-1.4-0.6-2c-7.4-10.2-17.6-13.3-29.7-13.4
		c-3,0-6,0.1-8.8,1c-2.9,1-5.4,2.8-7.8,4.6c-6.3,4.7-12.7,9.4-19,14.1c-5.6,4.2-11.2,8.3-17.3,11.8c-4,2.3-8.7,4.8-9.9,9.3
		c-0.6,2.2,0.4,4.4-1.6,5.9c-1.8,1.4-6.2,0.9-8.3,0.9c-0.8,0-1.7-0.1-2.2-0.7c-0.9-1-0.2-2.5-0.4-3.7c-0.1-0.7-0.5-1.4-0.8-2.1
		c-1.3-2.3-2.6-4.5-3.9-6.8c-0.2-0.3-0.4-0.7-0.8-0.9c-0.3-0.2-0.7-0.1-1.1-0.1c-1.3,0.1-2.6,0.2-4,0.3c-4.4,0.4-10.8,8.4-13.2,12
		c-4,6-6,13.2-5.4,20.4C1189.3,171.9,1189.4,172.9,1189.6,173.9z"/>
</g>
<g id="_x33_9">
	<path class="st3" d="M1266.7,57.8C1266.8,57.8,1266.8,57.9,1266.7,57.8c1.5,3.7,0.4,7.9-1.3,11.5c-3.2,7.1-8.2,13.2-11.6,20.2
		c-1.8,3.8-3.2,8.1-2.3,12.1c0.4,1.9,1.3,3.6,1.4,5.5c0,1.6-0.6,3.3-0.3,4.9c0.3,1.8,1.8,3.2,3.6,3.6c2.8,0.7,5.5-1.6,8.4-1.6
		c1,0,5.6,0.7,6.3,0l2-2c0.4-0.4,0.3-6,0-6.6c-0.6-1.1-2.1-0.8-2.8-1.8c-1.4-1.9,0.2-4.5,1.3-6.1c1.8-2.6,3.5-5.1,5.3-7.7
		c1.9-2.7,3.7-5.4,5.9-7.8c1.8-2,3.8-3.8,5.7-5.7c3.4-3.4,6.4-7.1,9-11.1c0.5-0.8,1.1-1.7,1.3-2.7c0.3-1.5-0.1-3-0.3-4.5
		c-0.4-3.5,0.9-7.5,4.1-9c2-0.9,4.3-0.8,6.4-1.6c2-0.8,3.7-3.5,2.3-5.1c-0.8-1-2.2-1.1-3.5-1.1c-6.5-0.1-13-0.7-19.5-0.5
		c-7.4,0.2-14.7,1.9-22.2,1.7c-0.4,2.9-0.7,5.8-0.9,8.7c-0.1,1-0.1,2,0.1,3C1265.5,55.5,1266.3,56.6,1266.7,57.8z"/>
	<path class="st3" d="M1357.2,115.4c5.2-1.2,10.6-1.7,15.8-0.7c7.3,1.5,13.4,4.2,21,4.2c5.8-5.8,9.6-11.4,9-20.1
		c-0.5-6.9-3.4-13.3-6.8-19.3c-5.6-9.5-12.8-18.1-21.2-25.3c-4.2-3.6-8.7-6.8-13.4-9.6c-2-1.2-4-2.8-6-3.9c-2.4-1.3-4.9-0.8-7.5-0.8
		c-1.8,0-3.4,2.8-4.5,3.8c-2.8,2.6-5,5.3-7.1,8.5c-4.3,6.8-7.5,14.3-11.4,21.5c-4.2,7.8-9.1,15.3-14.8,22.2c-3.7,4.6-9,9.8-9.8,16
		c-0.7,5.8,5.7,11.4,11,11.8c2.5,0.2,5-0.5,7.5-1c3.3-0.8,6.6-1.4,10-1.6c2.8-0.2,5.6-0.2,8.4-0.5c4.9-0.6,9.7-2.3,14.4-3.8
		C1353.6,116.3,1355.4,115.8,1357.2,115.4z"/>
</g>
<path id="_x33_7" class="st9" d="M630.2,561.5c-0.3-6.8-6.4-15.7-13.8-12.5c-3.3,1.4-6.6,3.2-10,4.4c-3.4,1.2-6.9,1.6-10.2,3.2
	c-4.1,2.1-8.6,3.8-12.9,5.4c-2.5,0.9-9.4,1.5-9.4,5c-4.4,0-8-0.2-12.2,1.2c-5.9,2-12.4,1.5-18.7,0.9c-11.5-1.1-23-2.1-34.4-3.2
	c-10.1-0.9-20.3-1.9-30.4-3.2c-0.3-1.7-0.6-2.7-0.6-2.7l-17.8-2.2v44.8l19.8,10.5c0,0,0.7-7.5,1.4-15c8.4,3.3,16.9,6,25.7,7.6
	c8.2,1.5,16.4,2,24.7,2.9c3.9,0.4,8.4,0.6,12.1,1.9c2.8,0.9,5.4,2.2,8.4,3c2.7,0.7,5.6,2.1,6.4,4.8c0.3,0.9,0.3,1.8,0.2,2.7
	c0,0.5-0.1,1-0.2,1.5c-2.4,14.8-10.5,28.4-11.3,43.4c-0.2,3.9,0.1,7.9,1.7,11.5c1.7,3.6,4.6,6.6,8,8.6c10.8,6.5,25.4,3.7,35.5-3.9
	c10.1-7.6,16.4-19.1,21.2-30.8c3.3-7.9,6-16.2,5.8-24.8c-0.1-5.9-1.7-11.7-2.1-17.7c-0.9-12.2,2.8-24.4,8.6-35.3
	C628,569.7,630.4,565.8,630.2,561.5z"/>
<path id="_x33_6" class="st6" d="M624.6,584.7c0.9-1.4,1.7-2.9,1.6-4.5c-0.1-1.3-0.7-2.6-1.3-3.7c-2-3.8-3.9-7.7-5.9-11.5
	c-1.9-3.5-4-5.8-5-9.7c-0.2-0.7-0.4-1.3-0.8-1.8c-2.6-2.8-11.7,2.3-14.2,3.7c-1.2,0.7,2.1,6.2,2.4,7c0.7,2,0.3,3.9,0.5,6.1
	c0.3,5.7,2.1,11.4,0.6,17c-0.9,3.3-3.2,6.1-3.9,9.5c-0.5,2.3-0.1,4.7-0.2,7.1c-0.2,3.7-2.4,6.3-3.3,9.6c-0.8,3.2-0.7,7.4-0.9,10.7
	c-0.3,5.8,0.1,11.4-2.4,16.5L591,641l-1.5,3.1c-1.7,2-3.7,3.8-5.3,5.8L579,655v1l2,2c-0.1,1.3-0.2,2.5-0.2,3.8L578,664l-1,2v3l-1,1
	h-4v-3l3-4v-3l1-1v-3l-3-4l-5,1l-2,2c0,0-2,3.9-2,4c-0.2,0.4,0,1.5,0,2c-7.8-1.9-7.2,14.9-7.2,18.8c0,1.3,0,2.7-0.4,4
	c-0.4,1.3-1.4,2.5-2.7,2.8c-8,1.9-16.8-3.3-23.6-6.9c-7.6-4-15.3-8.1-22.6-12.7c-7.7-4.9-16.2-10.8-25.2-8.9
	c-6.4,1.3-12.2,6.6-18.5,5c-1.4-0.3-3.4-0.6-3.7,0.8c-0.1,0.4,0.1,0.7,0.2,1.1c1.8,5.2,2.4,10.7,1.9,16.2c-0.2,2-0.6,4.1-0.1,6.1
	c0.6,2.8,2.7,5.1,5.1,6.8c6.4,4.7,14.6,5.9,21.4,10c4.3,2.7,7.8,6.4,11.5,9.9c3.6,3.5,7.1,5.6,11.4,8c4.6,2.5,7.9,6.2,13.1,8.1
	c4.9,1.8,10.2,2.6,15.4,2.1c6.3-0.6,12.3-2.8,18.4-4.3c5.9-1.4,12.6-0.2,17.5-4.3c3.2-2.6,4.2-6.7,6.5-10c2.3-3.3,3.9-6.7,5.6-10.4
	c3.9-8.6,7.9-17.3,11.8-25.9c1.7-3.7,3.4-7.5,4.7-11.3c3-8.6,4.1-17.9,7.7-26.3c1.7-4,2.9-5.8,1.2-10c-1.6-4-2.6-7.9-2.3-12.3
	c0.5-7.7,4.3-15,7.6-21.7c1.7-3.5,3.6-6.8,5.6-10C624.3,585.2,624.5,585,624.6,584.7z"/>
<path id="_x33_5" class="st0" d="M636.6,611.3c1.8-2.6,4-5,5.6-7.8c2.7-4.8,2.2-9.9,0.1-14.6c-1.4-3-2.9-6.1-5.3-8.4
	c-1.9-1.8-5.5-4.1-8.2-3.2c-1.3,0.5-3.9,2-4.5,3.3c-3.9,7.9-7.7,15.9-11.3,24c-1.1,2.4-1.9,4.9-3,7.2c-1,2.1-2.8,3.9-3.6,6.1
	c-1.5,4.5,0.6,8.1,1.2,12.5c0.5,3.4,2.4,6.3,2.9,9.6c0.5,3.6-1.6,5.6-3,8.7c-1.5,3.2-1,6.9-1.8,10.3c-1,4-3.6,7.4-5.9,10.9
	c-2.5,3.9-4.7,8.2-4.9,12.8c-0.1,2.9,0.5,6.1-1.3,8.4c-0.8,1.1-2,1.8-2.8,2.8c-0.7,0.9-1.1,2-1.5,3.1c-0.9,2.4-1.7,4.7-2.6,7.1
	c-0.3,0.9-0.7,1.9-1.3,2.7c-0.5,0.6-1.1,1.1-1.7,1.6c-1.6,1.4-3,3.3-3,5.5c-0.1,5.6,8.1,4.5,11.6,3.7c5.5-1.3,10.4-4.8,14.3-8.7
	c6.3-6.3,11-14,18.8-18.3c7.2-4,11.3-13.1,12.7-20.7c1.6-8.6,0.5-17.5-1.2-26.1c-1.2-5.9-2.6-11.8-3.7-17.8
	c-0.4-2.4-1.5-5.7-0.9-8.1C632.8,615.6,635.3,613.3,636.6,611.3z"/>
<path id="_x33_3" class="st10" d="M830.2,355.1c-3.6-3.5-7.9-7.8-12.3-11.1c-4-3-8.2-5.9-12.6-8.4c-4-2.3-8.1-4.2-12.5-5.6
	c-3.8-1.2-7.5-2.9-11.3-4.3c-8-2.8-16.3-6-24.9-6.6c-11.1-0.8-22.6,1.7-32.4,7c-9.8,5.3-17.8,20.5-22.5,30.6
	c-3.2,6.8-5,14.8-11,19.8c-6.5,5.5-15.8,8.9-23.3,13.1c-10.1,5.6-20.1,11.5-31,15.4c-9.1,3.3-18.9,5.2-28.6,4.2
	c-9.2-0.9-18-3-27.4-2.7c-7.9,0.2-15.8,1.6-23.7,2.9c-11.6,2-25.3,2.3-35.8,7.6v9l-2,2h-3l-2-1l-12-12h-3l-3,6v5l5,5l3,1l4,4l4,1
	l1,2l8,8h3c-1.5,1.6-2.9,3.3-4.3,4.9c-8.8,10.8-17.2,22.4-20.7,35.8c-1.8,7-2.1,14.5-0.4,21.6c0.6,2.7,2.2,5,2.7,7.7
	c0.7,3.6-0.1,8-0.2,11.6c5.4-0.3,10.3-2.8,15.1-5.3c11-5.5,22.8-12.3,35.5-11.8c1.2,0,2.5,0.1,3.7-0.3c1.9-0.7,3.1-2.5,4.3-4.1
	c6.2-8.1,18.1-10.3,27.2-13.7c3.2-1.2,6.5-2.3,9.7-3.5l22.3,60.4l4-0.6l-22.9-61c7.6-2.7,15.2-5.3,22.8-7.9
	c5.6-1.9,11.3-3.7,16.7-6.2c1.3-0.6,2.9-1.1,4.1-2c0.9-0.7,1.6-1.5,2.6-2.1c2.2-1.3,4.6-2.1,6.5-3.8c1.2-1.2,2.1-2.7,3.3-3.9
	c1.2-1.2,2.8-2.2,4.5-1.9c0.9,0.2,1.7,0.7,2.6,1.1c1.9,0.7,4.2,0.3,5.7-1.1c1.6-1.5,2.4-3.2,4.6-4c2.3-0.9,4.7-1.3,7.1-1.3
	c1.5,0,3,0.1,4.2-0.8c1.2-0.9,1.6-2.5,2.5-3.7c0.7-1,1.6-1.7,2.6-2.4c3-2.2,6.2-4,9.6-5.5c1.8-0.8,3.7-1.6,5.7-1.9
	c2.4-0.5,4.8-0.4,7.3-0.4c4.6,0,8.9-0.6,13.3-1.9c3.3-1,6-3.6,7.9-6.6c1-1.6,1.7-4.9,1.7-4.9l49.7,4l0.2-4.4l-49.3-3.6
	c0,0,0.4-4.3,1.2-6.8c0.6-1.7,5-4,5-4.9c0,0,0-1,0-1l4-4v-3l1-2l7-7l1-4l4-4l2-4h1l2-2l1-2l6-1c0,0,5-5,5-5c0.4-0.5,0.2-2.7,0.3-3.5
	c0.3-1.3,0.6-2.5,1.2-3.6c1-2.4,2.6-4.5,4.4-6.3c1.8-1.8,1.8-3.4,1.2-5.6c1.8-2.2,6.5-0.2,9.2-1.2c0.6-0.2,2.9-3.9,3.6-3.9
	c1.8,0,4.8,2.3,4.8,2.3l2.9-2.9l10.5,7.9l-5.3,8.1l4,2l4.9-7.6c0.8,0.6,4.8,3.5,4.8,3.5S826.8,358.2,830.2,355.1z M758.1,375.9
	l-0.3,0.2c0.1-0.2,0.2-0.5,0.3-0.7V375.9z"/>
<g id="_x33_2">
	<path class="st11" d="M1034.5,167c-1.8-0.2-3.6-0.1-5.4-0.1c-4.3,0-8.9,0.3-12.3-2.3c-0.9-0.7-1.7-1.8-1.3-2.9
		c0.5-1.1,1.9-1.2,3.1-1.2c4.6,0,9.2,0,13.8,0c0.8,0,1.6,0,2.3-0.3c2.5-0.9,0.2-3.5-0.3-5.3c-0.7-2.1-0.9-4.4-2.2-6.2
		c-2.3-3.1-5-5.9-8.1-8.3c-4-3.2-7.6-3.6-12.5-4.8c-9-2.3-18.1-4.5-27.4-6c-4.7-0.8-9.2-2-14-2.2c-4.8-0.2-9.7,0.3-14.5,0.3
		c-4.8,0-9.7-0.1-14.5-0.6c-2.3-0.2-4.6-0.8-6.9-1.2c-1.9-0.4-4.3-0.5-6.1-1.3c-1.3,3.4-3.4,6.7-5.2,9.9c-1.9,3.5-3.8,6.9-5.7,10.3
		c-0.5,0.8-1.1,1.7-2,1.6c-0.5,0-0.9-0.3-1.2-0.6c-1.9-1.6-3.8-3.2-6.1-4.3c0.7-2.2,2.4-4.5,3.5-6.5c1.5-2.8,3.1-5.6,4.6-8.5
		c0.2-0.4,0.5-0.9,0.7-1.3l0-1c0-0.5-4.7,0.2-4.6,0.8c0.4,2.1-4.4,7.6-4.4,7.5c0,0-2.3,4.8-4.5,8.1c-0.3,0.5-0.6,0.9-1.1,1.2
		c-0.3,0.1-0.6,0.2-1,0.2c-1.9,0.2-3.7,0.2-5.6,0c-0.8-0.1-1.6-0.2-2.1-0.7c-0.3-0.4-0.5-0.9-0.5-1.4c-0.2-1.8,0.5-3.6,1.2-5.2
		c1.1-2.5,2.4-5,3.8-7.3c1-1.7,2-4.5,4.1-4.8c0.7-0.1,7.8-0.4,7.2-1.5c-0.6-1.1-7.7-2.4-8.5-3.5c-0.4-0.5-1.2,0.4-1.8,0.3
		c-1.1-0.1-2.2-0.2-3.3-0.3c-0.7-0.1-1.5-0.1-2.1,0.1c-0.6,0.2-1.1,0.7-1.5,1.2c-3.1,3.3-4.3,6.9-5.4,11.2l-1,0
		c-0.4,1.2-1.3,1.6-1.8,2.5c-0.1,0.2-0.2,0.3-0.3,0.5c-1.2,2.4-1.6,5.2-2.6,7.6c-1.2,2.7-3.1,5.2-4.3,8c-2.6,5.6-4.3,11.6-5,17.7
		c-0.6,4.6,0.9,9.6,3.2,14.1c-0.4,0.7-0.9,1.4-1.2,2.1c-5.1,8.8-9.4,18.1-13,27.6c-5.4,14.3-9.6,30.1-21.4,39.7
		c-3.8,3.1-6.9,2.5-11,3.9c-1.8,0.6-6.3,3.8-6.3,6c0,0.1,0,8,0,8l-5,4h-8l-5-4h-3l-3-3v-1l-3-1l-3-3l-3-1l-4-4l-4,4l-9,1v1l-2,2
		l-4,1l-2,2h-1l-4,5l-4,1l-4,4h-3l-2,1v1l-2,2h-1l-4,5h-7c-5.1-5.1-9.1,14.3-9.9,16.8c-3.3,10.3-6.2,20.8-8.8,31.3
		c-1.5,6-2.9,12.1-5.8,17.6c-3.9,7.3-10.5,13.5-12,21.7c-0.7,3.8-0.1,7.8,0.5,11.6c0.7,3.8,1.5,7.6,3.5,10.8c2.3,3.7,6,6.3,9.6,8.8
		c2.6,1.8,5.2,2.3,7.9,4.4l3-3l1-3l9-8l1-2h1l2-2l1-2l4-2l3-3h1l3-3v-1h6l1-1h2l3-2v-1l4-1l3-3l4-1l3-3v-1h1l3-3v-1l4-4l1-3l3-3l2,1
		h6l8-9v-3l-2-2l-1-3h5l3,4c6.7,0,13.5,0,20.2,0c2.3,0,3.9,0.4,5.5-1.3c1.8-2,3.5-3.9,5.6-5.5c4.2-3.2,9.1-5.4,14.3-6.4
		c2.9-0.6,10.9-2.5,10.9-2.5l17.8,17.2c0,0,6.7,5.1,9.3,6c1.4,0.5,2.8,0.9,4.1,1.5c1.6,0.7,3,1.8,4.6,2.6c1.9,1,6.1,1.8,6.1,1.8
		s0.8,0,1.1-0.2c0.4-0.3,0.5-10.1,0.2-14.3c-0.4-4.4-1.6-8.8-2.4-13.1c-0.3-1.8-0.6-3.6-0.1-5.3c0.9-0.1,1.8,0.5,2.5,1.1
		c3.6,3.1,5.9,7.5,7.7,12c0.5,1.1,1.5,6,2.7,6.2c1.2,0.2,1.5-3.4,2.2-4.1l-0.5-4.8l0.2-2.8v-4l-1.5-2c0.3-0.2,0.6-0.5,0.9-0.7
		c2.4-1.8,5.2-2.8,7.9-3.9c10-4.2,19.2-8.9,28.3-14.7c0.4-0.3,1.8-1.7,0.6-3.1c-0.1-0.1-0.2-0.3-0.4-0.4
		c-3.5-2.9-20.5-10.1-16.8-15.6c1-1.5,2.2-2.4,3.5-3.2c0.4,1.3,1.6,2.4,3.1,3.6c6.6,4.9,15.5,12.2,24.2,11c0.6-0.1,1.3-0.3,1.7-0.8
		c0.8-1.1-0.3-2.6-1.3-3.5c-2.4-2.3-4.5-4.9-6.2-7.7c-0.2-0.3-0.3-0.6-0.2-0.9c0.1-0.2,0.2-0.3,0.4-0.5c1.1-1,2.8-1.2,4.2-0.9
		c1.5,0.3,2.8,1,4.1,1.7c2.3,1.1,4.6,2.1,7,2.9c1.3,0.4,3.1,0.8,4-0.3c-2.3-8.7-11.1-14.1-15.3-22.1c-0.1-0.2-0.3-0.5-0.2-0.8
		c0.1-0.5,0.8-0.8,1.3-0.8c3.1-0.1,5.3,3,7.1,5.5c3.2,4.6,6.7,8.9,10.3,13.3c4.6,5.6,9.2,11.1,13.7,16.7c0.9,1,1.9,2.4,3.3,2.8
		c1.8,0.6,2.2-0.5,3.4-1.4c0.4-0.3,0.4-0.8,0.2-1.2c-0.2-0.4-0.5-0.7-0.9-1c-4.7-4.2-7.3-10.1-11.1-15c-0.2-0.2-0.4-0.5-0.3-0.7
		c0.1-0.2,0.3-0.4,0.5-0.5c0.7-0.4,1.3-0.7,2-0.9c2.1-0.8,2.9,2.5,3.9,3.9c2.1,2.9,4.3,5.7,6.4,8.6c1.3,1.8,2.7,3.6,4.6,4.6
		c1.2,0.7,3.2-3,3.3-3.8c0.3-2-1.1-3.7-2.3-5.2c-2.9-3.8-6.8-6.7-9.2-10.8c-0.4-0.7-0.8-1.5-0.6-2.3c0.1-0.8,1-1.5,1.7-1.2
		c0.4,0.2,0.6,0.5,0.8,0.9c2.3,3.8,4.8,7.4,7.5,11c1.9,2.6,3.8,2.7,5.5-0.1c1-1.6,0.2-2.2-0.9-3.5c-2.1-2.5-3.6-5.4-5.6-8
		c-1.5-1.9-3.1-3.7-4.8-5.4c-1.1-1.2-2.2-2.3-3.3-3.5c0.7-1.2,2.4-1.3,3.7-0.7c1.2,0.6,2.2,1.7,3.1,2.7c3.4,3.7,7.4,6.9,11.8,9.2
		c1.5-1.2,2-3.6,1-5.3c-3-5.1-7.3-9.6-11.9-13.3c-1.9-1.5-7.5-4.6-7.7-7.3c-0.1-0.7,0.4-1.4,0.9-2c1.3-1.7,2.5-3.3,3.8-5
		c0.2-0.2,0.3-0.4,0.6-0.5c0.3-0.1,0.5,0,0.8,0.1c1.8,0.7,3.1,2.2,4.3,3.7c2.7,2.9,5.7,5.5,9.1,7.7c1.8,1.2,5.8,3.7,8.2,2.9
		c1.2-0.4,1.6-2.5,1.8-3.6c0.9-4-2.7-7.1-5.9-8.8c-1.9-1-3.6-1.1-4.7-2.9c-1.4-2.4-2.2-5.1-3.9-7.5c-1.7-2.4-4-4.8-6.9-5.6
		c-2.8-0.8-3.9-2.3-5.6-4.6c-1.3-1.8-2.8-3.3-4.4-4.7c0.1,0,0.1,0,0.2-0.1c5.3-1.8,13.2-7,18.4-4.9c5.3,2.1,10.2,7.2,12.6,12.3
		c2.2-6.8,0.3-14.1-1.6-21c-0.8-2.7-1.6-5.7-3.8-7.5c-1.4-1.2-3.1-1.8-4.8-2.3c-28.2-8.8-60.1-3.6-86.5-16.8
		c-2.3-1.1-4.6-2.5-5.8-4.8c-1.2-2.3-0.6-5.6,1.7-6.6c1.2-0.5,2.6-0.3,4-0.1c7.3,1.2,14.7,2.5,22,3.7c5.2,0.9,9.7,2.7,14.9,3.9
		c4.5,1,8.7,2.9,13.1,3.8c6.5,1.4,13.4,0.9,20,2c6,1,11.6,3.2,17.5,4.8c4.7,1.3,11.3,4.1,12.6-2.1c0.9-4.1,2.5-8.5,2.8-12.7
		C1037.5,167.2,1037.5,167.3,1034.5,167z"/>
	<path class="st12" d="M863.7,68.1c2.9,0.9,5.8,1.9,8.9,1.8c5-0.3,9.6-4.2,10.7-9.1c0.4-1.9,1-4.6,3-4.6c0.8,0,1.5,0.5,2,1.1
		c2.4,2.5,2.7,6.3,3.9,9.5c1.2,3.2,4.7,6.4,7.8,4.8c1.8-0.9,2.6-3.1,3.2-5.1c0.8-2.6,1.6-5.3,2.4-7.9c0.4-1.5,0.9-3,0.8-4.5
		c-0.1-3.6-2.9-6.6-6.2-8.1c-3.3-1.5-6.9-1.7-10.5-1.9c-20.3-1-40.8-1.6-60.7,2.2c-2.8,0.5-5.9,1.3-7.3,3.8
		c-1.1,1.9-0.8,4.4,0.2,6.4c3.5,6.6,12.5,5.1,18.9,6.2C848.5,63.9,856.2,65.7,863.7,68.1z"/>
</g>
<path id="_x33_1" class="st4" d="M972.9,185.3c-1.7-0.7-3.7-0.9-5.9-1c-3.3-0.1-6.6-0.1-9.8-0.2c-2.6-0.1-5.2-0.1-7.7-0.4
	c-4.9-0.7-9.7-2.4-13.9-5.1c-2.9-1.8-8.8-5.4-8.5-9.3c0.1-1.6,1-3.1,1.8-4.6c0.9-1.5,1.7-3.1,2.6-4.6c0.6-1.1,1.2-2.4,0.7-3.6
	c-0.3-0.6-0.8-1-1.4-1.3c-2.9-2-5.8-3.9-8.5-6h-2.5l-1.6-1l-1-1h-0.5c-2.5-1.7-5-3.3-7.6-5c-0.9-0.6-3.8-3.3-4.9-3
	c-1.6,0.4-1.7,3.4-4,3.6c-0.7,0.1-1.3-0.1-1.9-0.3c-1.7-0.5-3.3-1.1-4.8-1.9c-0.3-0.1-0.6-0.3-0.6-0.6c0-0.2,0.1-0.4,0.2-0.6
	c0.5-0.9,1.1-1.8,1.7-2.6c0.4-0.5,0.8-0.9,1-1.5c0.3-0.9-0.1-1.9-0.8-2.6c-0.5-0.5-6.4-4.4-6.4-4.4c-0.2,0-0.4,0.2-0.5,0.4
	c-4.9,7.6-9.1,15.6-13.1,23.7c-0.2,0.3-0.4,0.7-0.7,0.9c-0.3,0.1-0.7,0.1-1,0c-1.6-0.4-3.1-0.8-4.7-1.2c0.8-4.3,1.6-8.7,2.6-13
	c0.4-1.9,0.9-3.9,1.8-5.6c1.1-2.1,2.8-3.8,4-5.7c3.3-5.1,2.8-11.7-4.2-11.5c-5.8,0.2-11.4-1.6-17.1-2.4c-5.6-0.7-10.1,0.1-15.7,0.8
	c-7,0.9-14.7,0.5-20.5-3.5c-0.7-0.5-1.3-1-1.6-1.7c-0.3-0.8-0.3-1.6-0.3-2.5c0-4.9-2.6-9.5-6.2-12.9c-2.7-2.5-5.8-4.4-9-6.1
	c-3.7-1.9-4.5-2.4-2.7-6.7c2.1-5.1,4.3-10.2,6.4-15.3c-1-0.4-1.9-1-2.5-1.9c-1.1,3.2-6.3,18.3-10.6,16.9c-2.3-0.7-3.5-4.1-4.6-6
	c-1.2-2.1-2.8-3.7-3.9-5.8c-3.2-6-5.5-12.7-8.2-19c-1.3-3-2.8-6.2-5.6-7.9c-7.1-4.1-16.2,1.8-20,8c-2.8,4.6-4.1,10-4.7,15.3
	c-2.1,17.2,0.3,34.6,2.7,51.7c0.5,3.8,1.1,7.5,2.4,11.1c1.1,2.9,2.7,5.6,3.6,8.6c1.8,5.5,1.3,11.5,0.6,17.2
	c-2.3,17.5-7.3,34.8-6.2,52.4c0.2,2.4,0.5,5,1.2,7.3c-3.2,1.3-6.4,2.7-9.6,4c-7.4,2.9-15.2,4.7-22.6,7.7
	c-16.3,6.7-30.4,19.3-47.9,21.5c-3.9,0.5-7.7-0.3-11.6-0.3l-3-2h-11l-5-4l-1-3l-2-2h-6l-3-2h-4l-2-2h-4l-2,2l-2,4h-3l-3-2h-3l-8-8
	h-12l-1,2l-4,3v2l2,2h1l3,4l4,1l6,6l1,2l2,1l4-3l1,1h4l3,2l4-2h2l3,2h8l2,1l5,6v8l2,2l-6,3l-1,4l-3,3l-1,5l-2,2v5l-2,3v7l-2,2v4l2,3
	v3l1,2l5,5h5l4-4l-4-4v-9l-2-2v-7l1-1h3l2,2l5-5v-1l4-3l4,4v1l4,2l4-2l2,1h3l3-4h3l2,2h4l4,4l6-1l1-1h5l2,1l4-3h3l3,2h4l3-2h3l3,2h9
	l2-2h1l1-1v-3l3-1l1,1h7l4-5h1l2-2v-1l2-1h3l4-4l4-1l4-5h1l2-2l4-1l2-2v-1l9-1l4-4l4,4l3,1l3,3l3,1v1l3,3h3l5,4h8
	c1.5,0,3.3-3.1,4.9-3.5c2.8-0.6,5.8,0.7,8.9-0.4c1.6-0.5,3.2-1.4,3.9-2.9c0.3-0.5,0.4-1.1,0.4-1.7c3.9,1.7,7.9,3.1,12.1,3.7
	c13.9,1.8,27.2-5.5,39.3-12.6c10.7-6.3,21.4-12.5,32.1-18.8c7.6-4.4,15.5-9,24.2-9.6c10.2-0.7,21.6,3.6,29.9-2.4
	c5.6-4,7.4-11.5,7.9-18.3c0.3-5-0.1-10.4-2.3-14.9C977,187.8,975.2,186.2,972.9,185.3z"/>
<g id="_x33_0">
	<path class="st5" d="M970,214.6c-0.1-0.2-0.2-0.4-0.3-0.6c-2.5-4.1-6.5-3.9-10-6.3c-2.3-1.6-7.6-5.6-5.3-8.9c0.4-0.5,1-0.9,1.3-1.5
		c0.6-1.2-0.3-2.7-1.3-3.6c-3.8-3.3-9.4-3.5-14-5.6c-2.7-1.2-4.8-3.1-7.5-4.2c-2.5-1-5-1.9-7-3.9c-2.1-2.1-3.9-4.5-6.1-6.4
		c-5-4.3-11.5-5.6-17.6-7.5c-6.3-1.9-11.3-5.6-17.3-7.8c-5-1.8-10-3.7-15.1-5.5c-4.6-1.7-10.6-2.8-14.7-5.5
		c-3.5-2.2-6.3-5.2-10.1-7.2c-3.9-2.1-8.1-3.7-12.2-5.4c-6.2-2.5-12.1-5.8-17.4-9.8c-2.2-1.6-4.2-2.4-6.5-3.7
		c-2.6-1.4-4.4-3.9-6.8-5.5c-3-1.9-6.3-3.4-9.2-5.3c-3-1.9-5.6-4.4-7.8-7.2c-1.3-1.6-2.5-3.4-4.4-4.2c-5.7-2.1-13.9,4.8-18.4,7.5
		c-7.7,4.6-15.1,9.6-22.2,15.2c-6.1,4.8-13.4,11.3-14.7,19.5c-0.7,4-0.4,8.7-0.6,12.9c-0.3,5.3-0.4,10.6-0.1,15.9
		c0.4,8.5,1.7,17.3,5.9,24.8c4.1,7.4,9.1,11.8,16.9,14.8c8.7,3.4,19,5.1,25.3,12.5c0.9,1.1,1.9,2.3,3.2,2.8c0.9,0.3,1.8,0.2,2.7,0.2
		c9.6-0.1,19,5,26.7,10.1c1.2,0.8,2.3,1.5,3.2,2.6c1,1.2,1.6,2.7,2.2,4.1c1.6,4,3.2,8,3.8,12.3c0.2,1.8,0.3,3.6,1.1,5.2
		c0.8,1.6,2.8,2.8,4.4,2c1-0.5,1.5-1.5,2.4-2.3c2.3-2,4.4,1.4,6.1,2.5c3.6,2.5,7.8,4.1,12.1,4.7c4.8,0.7,9.7,0.1,14.5-0.6
		c7.6-1.1,15.9-2.6,21.1-8.3c2.2-2.4,3.5-5.3,5-8.1c1.3-2.5,3.2-3.8,5.5-5.5c5.3-3.9,10.8-7.6,17-9.9c4.8-1.8,9.8-2.7,14.7-3.9
		c7.1-1.7,14.2-3.9,21-6.6c2.8-1.1,6.5-3.9,9.1-2.4c5.1,2.9,10.6,7.9,17.1,6.8C971.7,227.1,972.5,219.3,970,214.6z"/>
	<path class="st5" d="M966,249l2-2v-2l-4-4h-4l-4-3h-3l-2,2l1,10l1,1h2l2,4v2l1,1h2l4-5v-1h1l1,4V249z"/>
</g>
<g id="_x32_9">
	<path class="st7" d="M791.7,146.8c-2.1-1.2-4.4-2.3-6.7-3.2c-2-0.8-4.1-1.4-6.2-1.5c-3.8-0.1-7.5,1.6-10.7,3.7
		c-9.6,6.5-16.4,17.1-27.3,21.1c-4.6,1.7-9.5,2-14.4,2.4c-4.9,0.4-9.8,1-14.2,3.1c-4.4,2.1-8.2,6.1-8.8,10.9
		c-0.5,4,1.3,8.2,4.4,10.8c3.4,2.8,8,3.6,11.9,5.5c2.7,1.3,5.1,3.2,7.8,4.5c2.8,1.4,5.9,2.1,9,2.7c5.5,1,11.2,1.4,16.8,1.2
		c1.9,0,4.4-0.7,6.2-0.1c2,0.6,3.3,2.4,5.4,3.1c2,0.6,4.6,0.9,6.6,0c2-0.9,4.2-2.1,6.2-0.1c0.3,0.3,0.6,0.7,0.9,1
		c0.5,0.4,1.2,0.6,1.8,0.8c2.1,0.7,3.8,2.4,6,3.1c4.8,1.4,10.1,1.2,15.1,1.2c2.2,0,4.4,0,6.6,0c0.5,0,2.4,0.3,2.8,0
		c2.5-1.9,4-2.8,7.1-3.4c0.2,0,0.5-0.1,0.7-0.2c0.6-0.4,0.7-1.2,0.7-1.9c-0.1-1.8-0.7-2.6-0.2-4.1c0.5-1.6,2.2-3.2,3-4.7
		c0.9-1.8,1.6-3.7,1.8-5.6c0.7-5.7-2.8-11-6.4-15.5c-4.1-5.1-6.3-9.9-9.1-15.6c-2.7-5.6-6.3-11.3-11.2-15.1
		C795.6,149.3,793.7,148,791.7,146.8z"/>
</g>
<path id="_x32_7" class="st13" d="M774.5,483.2c-1.2-0.4-3.5,1-4.5,1.4c-2.7,1-5.3,2.2-7.8,3.5c-2.2,1.1-4.7,2-6.6,3.5
	c-4.4,3.4-9.4,6.4-14.7,8.3c-5.8,2-11.2,4.4-16.8,6.9c-16.9,7.4-35.1,11.7-51.1,21c-0.7,0.4-1.4,0.8-1.8,1.5
	c-0.4,0.7-0.5,1.6-0.5,2.5c0,1.6,0.2,3.3,0.4,4.9c-0.5,0.3-1.1,0.6-1.5,0.9c-2.3,1.5-4.2,3.4-6.2,5.2c-0.6,0.5-1.3,1-2,1.3
	c-0.9,0.4-1.8,0.4-2.7,0.5c-8.1,0.8-15.8,2.9-23.8,4c-7.1,1-15.2,1.1-22,3.5c-0.6,0.2-1.3,0.5-1.5,1.2c-0.4,1.7,1.8,5,2.5,6.4
	c1.2,2.6,2.6,5.2,4,7.7c2.8,5.1,6,10,9.4,14.6c1.6,2.1,3.2,4.2,5,6.1c1.5,1.5,3.3,2.7,4.7,4.2c1.3,1.4,1.8,3.1,2.6,4.9
	c0.2,0.5,0.4,1.1,0.7,1.6c1.1,2.6,2.2,5.2,3.5,7.6c4.6,8.6,11.7,16.1,20.6,20.3c1.5,0.7,4.6,1.2,5.7,2.4c1.4,1.6,1.5,6.4,1.8,8.5
	c1,6.2,1.6,12.5,2.2,18.8c0.3,3.5,0.7,6.1-0.7,9.3c-1.4,3.5-2.4,7.1-3.8,10.6c-2.9,7.3-6.5,14.2-10.3,21.1
	c-4.8,8.7-10.1,17.3-17.1,24.4c-4,4.1-8.5,7.7-12.8,11.4c-5.4,4.6-10.7,9.4-15.7,14.5c-13.3,13.2-20.4,30.5-28.8,47
	c-3.4,6.6-6.8,13.3-10.9,19.6c-4.6,7-9.9,13.5-15.9,19.4c-5,4.8-10.5,9.3-14.1,15.2c-3,5.1-4.4,11.1-3.9,17c0.1,0.9,0.2,1.9,0.7,2.7
	c1.2,2.1,4.1,2.5,6.5,2.3c8.3-0.9,15.2-6.5,21.3-12.1c15.2-13.8,29.1-29,41.5-45.3c2.8-3.7,5.6-7.5,7.8-11.6
	c2.1-3.8,3.6-7.9,5.7-11.8c2.2-4.1,5.2-7.7,7.7-11.6c2.5-3.9,4.4-8.1,6.7-12.1c7.2-12.5,18.9-22.4,32.4-27.4
	c7.6-2.8,15.7-4.1,23.1-7.3c4.1-1.8,8.1-4.1,12.6-4.8c2.6-0.4,5.2-0.1,7.8,0c5,0.1,10.1-0.4,15-1.6c2.7-0.6,5.3-1.5,7.5-3.2
	c7.1-5.7,7.1-19.2,9.3-27.3c6.6-24.5,10.1-49.9,10.3-75.2c0.1-12.7-0.7-25.4-2.1-38c-1.3-11.4-6.6-21.5-9.7-32.4
	c-1.2-4.2-2-8.5-3.8-12.4c-1-2.1-1.8-3-1.7-5.3c0.1-2.3,0-4.7-0.4-7c-0.4-2.3-1.4-4.9-2.8-6.8c-2.3-3.1-4.9-2.1-8.1-1
	c-4.9,1.8-9.7,3.9-14.5,6.1c-1.4-1.7-2.8-3.5-3.1-5.7c0-0.2,0-0.4-0.1-0.6c-0.1-0.7,16-5.9,17.6-6.5c3-1.1,6.1-2.1,9.2-3.1
	c1.4-0.4,2.8-0.7,4-1.5c1.2-0.8,2.3-1.4,3.7-2c6.6-2.7,12.9-6,18.8-9.9c1.9-1.3,3.9-2.7,6-3.7c1.9-0.9,4.1-1.1,5.6-2.9
	c0.6-0.7,1.2-2.5,0.6-3.4C774.9,483.4,774.7,483.2,774.5,483.2z M701.8,527.4c-4.9,1.8-9.8,3.3-14.6,5.4c-2.4,1-4.6,2.8-6.9,3.7
	c-1.4,0.5-2.6-0.4-3.9-0.8c-0.1-0.6-0.2-1.3-0.2-1.9c0-2.6,1.7-5,3.9-6.5c2.2-1.5,4.8-2.3,7.3-3c3.4-1.1,6.9-2.2,10.3-3.4
	c0.9-0.4,1.9-1.1,2.9-1.2c0.2,0.1,0.4,0,0.6,0c1.4,0,2.9,0.7,4.1,1.2c1.3,0.5,2.6,1.1,3.4,2.2c0.3,0.4,0.5,0.9,0.7,1.4
	C706.8,525.4,704.3,526.5,701.8,527.4z"/>
<g id="_x32_6">
	<path class="st1" d="M756.5,717.7c1.6-0.6,3.1-1.3,4.6-2.1c6.3-3.3,12.2-7.6,19-9.6c10.3-2.9,21.3-0.1,32-1
		c5.3-0.5,10.6-1.9,15.4-4.2c1.5-0.7,3.1-1.6,4-3c1.3-2,1.3-5.9,0.1-7.9c-1.1-1.7-3.3-0.6-4.5-1.9l-3-3v-3l-1-1v-9h-1l-2-2l-1-4
		l-3-4v-7l-1-1v-5l-4-4l-1-4h-1l-2-3v-11l-1-1v-3l-3-4v-7l-1-1v-3l-3-3l-1-10l-3-2v-5l-1-1v-12l-4-5v-31l-1-1v-3h-1l-2-3l-1-15l-2-2
		l-1-2v-3l-1-1v-16l-2-1l-2-3l0-6c0.8-1.1,1.7-2.1,2.5-3.2c0.3-0.4,1.5-1.4,1.2-2c-0.4-1.1-3.2-0.1-3.8,0.3
		c-1.2,0.7-2.1,1.9-2.8,3.1c-1.2,2.1-1.9,4.6-2.1,7c-0.1,1.4,0,2.7-0.2,4.1c-0.2,1.4-0.8,2.7-1.5,3.9c-2.6,4.6-6.8,8.2-11.4,10.7
		c-4.7,2.5-9.8,4-15,5c-2.1,0.4-4.2,0.7-6.2,1.6c-3.1,1.3-5.5,3.8-7.9,6.2c-3.3,3.3-3.9,6.1-4.1,10.8c-0.1,2-0.1,3.9-0.2,5.9
		c0,1-0.1,2.1,0.2,3.1c0.3,1.1,0.9,2.1,1.6,3c2.4,3.5,4.9,6.8,7.7,9.9c0.9,1,1.9,2.1,2.6,3.3c1.2,2.2,1.3,4.8,2.9,6.8
		c1.9,2.5,3.4,4.8,4.3,7.9c1.1,3.4,1.7,6.9,3.2,10.1c0.6,1.3,1.3,2.6,1.7,4.1c0.8,3-0.2,6.2-1,9.2c-2.1,8.4-2.1,17.2-1.9,25.8
		c0.1,4.2,0,8.4,0.4,12.6c0.4,4.3,0,8.8,0.9,13.1c0.6,2.7,2.8,5,2.8,7.8c0,3-0.2,6.2-0.1,9.3c0,2.2,0.1,4.4-0.5,6.5
		c-0.5,1.9-1.4,3.7-1.8,5.6c-0.6,2.2-0.5,4.5-1,6.8c-0.6,2.7-1.9,5.1-3.1,7.6c-1.7,3.2-3.4,6.5-5.6,9.4c-3.4,4.6-5.6,8.4-4.2,14.4
		c0.3,1.2,0.7,2.3,1.4,3.3c1.1,1.6,2.9,2.6,4.7,3.2C745.7,720.7,751.3,719.7,756.5,717.7z"/>
</g>
<g id="_x32_5">
	<path class="st2" d="M835,690l6-6l4-1c2-2,4.5-3.3,6.7-5.2c2.4-2.1,4.5-4.6,6.1-7.3c2.3-3.9,3.8-8.3,5.8-12.3c1-2,2.2-3.9,3-6
		c1.6-4.2,1.7-9.2,0.1-13.4c-1.3-3.6-2.9,0.6-5.6-0.8c0,0-2-1-2-1l-1-1l-1-5l-2-1l-2-2v-1l-2-1l-3-3v-1h-1l-3-3v-1h-1l-3-3v-1l-3-2
		l-1-4l-3-3v-2l-1-1v-4l-3-4v-16l3-3h1v-17l-2-4l-3-3v-7l-4-5v-3l-4-5l-1-4h-2l-1-1l-2-6h-1l-2-2v-3l-4-3l-1-4l-4-3v-1l-3-3l-1-3
		l-4-3v-2l-4-5v-2l-2-2h-1l-2-4l-3-2c0-0.7-0.2-1.5-0.1-2.2c0-0.7,0.6-2.3,0.4-2.8c-0.2-0.4-0.6-0.5-1-0.3s-0.6,0.4-0.9,0.7
		c-0.7,0.9-1.4,1.9-2,2.9c-0.4,0.6-0.8,1.3-1.4,1.7c-1.4,0.9-2.9,1.3-2.7,3.4c0.1,1.4,1.2,3.2,1.8,4.4c1.7,3,4,5,4,8.5
		c0.1,4.3,0.5,8.6,0.7,12.9c0.1,1.2,0.1,2.5,0.5,3.7c0.7,2.1,2.2,3.8,3,5.8c0.7,2,0.6,4.3,0.7,6.4c0.1,2.9,0.6,5.9,1.4,8.7
		c0.6,2.1,1.9,3.9,2.7,5.9c0.7,1.8,0.8,4,1,6c0.6,4.9,0.5,9.9-0.2,14.8c-0.5,3.3-1.9,8.5,0.4,11.5c1,1.3,2.3,2,3.1,3.6
		c0.8,1.6,1.2,3.4,1.3,5.2c0.2,3.3-0.3,6.5,0,9.8c0.2,1.6,0.5,3.2,1.5,4.4c1.7,2.2,2.3,4.9,2.5,7.6c0.3,3,0.3,5,1.7,7.7
		c0.9,1.9,1.6,3.9,2.2,5.9c0.5,1.5,0.9,3,1.4,4.5c1.5,4.8,3.5,9.8,3.2,14.9c-0.1,1.5-0.4,3.1,0,4.5c0.5,1.9,1.9,3.3,3.1,4.8
		c3.5,4.3,5.3,10,4.9,15.5c-0.1,1-0.2,2.1,0.1,3.1c0.4,1.1,1.2,1.9,1.9,2.8c1.2,1.5,2,3.3,3.1,4.9c1.1,1.4,2.4,2.2,2.7,4.1
		c0.4,2.4,0,5.2,0,7.6c0,0.7,0,1.3,0.1,2c0.4,1.8,1.7,3.2,2.9,4.6c1.4,1.5,2.9,4,4.9,3.8C832.3,691.2,833.7,690.4,835,690z"/>
</g>
<g id="_x32_4">
	<path class="st3" d="M872.3,635.7c2.1-7.6,3.4-15.4,4-23.3c0.2-2.9,0.3-5.8-0.4-8.5c-0.8-3.1-2.6-5.7-4.3-8.4
		c-3.1-4.8-5.9-9.8-8.3-15c-2.4-4.9-4.5-10.1-5.4-15.5c-0.8-4.5-0.7-9.1-0.6-13.7c0.3-20.5,0.1-42.4-11.2-59.6
		c-4.5-6.9-10.7-12.6-17.8-16.6c-4.6-2.6-9.6-4.4-14.3-6.7c-4.5-2.2-9.6-3.1-14.5-3.7c-3.9-0.5-7.9-0.7-11.8-1.3
		c-3.3-0.4-6.2-1.9-6.5,2.3c-0.2,4,0.6,8.3,0.8,12.3l3,2l2,4h1l2,2v2l4,5v2l4,3l1,3l3,3v1l4,3l1,4l4,3v3l2,2h1l2,6l1,1h2l1,4l4,5v3
		l4,5v7l3,3l2,4v17h-1l-3,3v16l3,4v4l1,1v2l3,3l1,4l3,2v1l3,3h1v1l3,3h1c0,0,0,1,0,1c0,0.6,2.4,2.4,2.9,2.9c1.7,1.7,2,3.1,3.1,5.5
		c2.7,6.1,6.9,11.6,12.2,15.7c0.5,0.4,1.2,0.8,1.8,0.5c0.4-0.2,0.6-0.6,0.7-1.1C870.1,643.1,871.3,639.4,872.3,635.7z"/>
</g>
<path id="_x32_2" class="st5" d="M859.7,668.4c-0.9,2.5-2.1,5-3.8,7.1c-1.7,2.1-3.8,4-5.8,5.8c-1.9,1.8-3.4,3.9-4.7,6.1
	c-2.8,4.8-4.8,10.2-5.1,15.8c-0.3,4.9,0.6,9.9,1.6,14.7c0.9,4.2,2,8.3,4,12.1c4.3,8.1,12.5,13.5,20.9,17.3c4.5,2,9.2,3.7,14.1,4.5
	c10.2,1.5,20.6-1.4,30.2-5.3c9.6-3.9,18.7-9,28.5-12.1c5.1-1.6,11.1-3.3,13.3-8.3c1.8-4.2,0-9-1.2-13.4c-1.1-4-1.8-8.1-2-12.3
	c-0.1-3.2,0-6.4-0.6-9.5c-0.4-2.2-5.4-14.7-8.2-11.9h-7l-20-20l-1-4l-4-4c0.5-1.1,1.3-2.2,1.7-3.3c0.6-1.8,0.3-3.9,0-5.9
	c-0.6-4.3-2.1-8.6-5.1-11.8c-4.3-4.5-10.7-5.9-16.6-7.8c-1.7-0.5-3.3-1.2-5.1-1c-3.4,0.3-5.9,3.3-7.2,6.5c-1.3,3.2-1.8,6.6-3.3,9.7
	c-0.8,1.6-1.8,3-2.6,4.5c-1.1,2.2-1.6,4.5-2.5,6.8c-1.2,3-3.1,5.6-4.5,8.6C862,660.7,861.1,664.7,859.7,668.4z"/>
<path id="_x32_1" class="st6" d="M836.2,699c-6.2,3.8-11.7,8.6-16.8,13.7c-1.9,1.8-3.7,3.7-5.1,6c-5.1,8.2-3.1,18.7-0.6,28
	c2.2,8,4.7,16.1,9.4,23c5,7.3,12.3,12.9,20.1,17.1c7.9,4.2,16.3,7,24.8,9.7c3.9,1.2,7.8,2.5,11.3,4.7c4.1,2.7,7.1,6.7,10.6,10.1
	c0.8,0.8,2.1,1.6,2.8,2.5c1,1.2,0.7,1.3,0,2.9c-1.2,2.8-2.3,5.7-3.3,8.6c-2.2,5.9-4.5,11.9-6,18c-4.6,18.1-3,37.7,4.5,54.8
	c1.1,2.6,2.4,5.2,4.6,7.1c3.8,3.3,9.7,3.5,14.2,1.3c4.6-2.2,7.9-6.2,10.4-10.7c2.4-4.4,4-9.2,5.9-13.9c3.5-8.4,8.2-16.3,10.5-25.1
	c0.6-2.3,1.1-4.7,1.5-7c0.4-2.2,0.9-2.3,2.2-4c3.9-4.9,7-10.5,9.2-16.3c1.1-2.9,1.8-5.9,2.6-8.8c0.7-2.6,2.4-4.9,3.4-7.5
	c1.8-4.7,3.8-9.5,4.9-14.4c2.5-11.2,0.6-22.9,1-34.4c0.2-6.1,1.1-12.3,0-18.3c-0.7-4-2.4-7.7-3.6-11.6c-1-3.3-0.8-7.4-2.9-10.3
	c-0.8-1.2-2-2.1-3.3-2.8c-6-3-10.5,0.9-14.5,4.9v1h-2l-4,3h-2l-2,2h-1l-1,1l-1,4l-6-1l-1,1h-4l-3,3h-2l-1,1h-8l-4,4h-5l-5-4h-20
	l-1-1v-4l-1-1v-2l-3-4v-17l-1-1v-7l-1-2l-4-4l0-1c-1.2-0.9-3.1-3-4.6-3c-1.2,0-3.4,1.5-4.6,2c-1.7,0.8-3.4,1.7-5,2.6
	C836.6,698.7,836.4,698.9,836.2,699z"/>
<path id="_x32_0" class="st0" d="M813.6,731.4c-1.4,1-2.7,2.4-3.4,3.7c-1.5,2.8-1.7,6.1-1.2,9.3c0.2,1.2,0.5,2.4,0.4,3.6
	c-0.1,3.7-3,6.6-5.6,9.3c-3.4,3.6-6.4,7.6-8.5,12c-0.9,2.1-1.3,5-2.7,6.8c-1.1,1.4-2.6,2.3-3.5,4c-1.9,3.6-2.2,7.9-1.2,11.8
	c1.3,5.6,4.8,10.4,8.1,15.1c1.7,2.4,3.5,4.8,5.9,6.4c2.9,1.8,6.3,1.6,9.2,3.1c3.3,1.7,6.7,2.9,10.4,3.7c2.4,0.5,4.8,0.7,7.2,0.8
	c2.4,0,4.5-0.5,6.6,0.6c3.5,1.8,7.7,2.2,11.4,0.9c3.5-1.3,5.7-3.8,7.2-7.1c1.6-3.4,5.8-5.6,8.2-8.7c2.6-3.5,4.2-7.6,5.8-11.7
	c1-2.7,1.8-6.5,3.5-8.8c1.4-2,2.9-2.5,0.2-4.5c-1.6-1.1-3.1-2.3-4.7-3.4c-2-1.4-4-2.9-5.9-4.3v-1l-2-2l-2-1v-1l-2-2l-2-1v-3l-1-2
	l-2-2h-1l-1-3l-2-2l-2-1v-2l-3-3v-1l-5-4v-1l-2-2l-2-1l-1-4c-1.8-1.8-2.5-2.6-5.1-3c-1.6-0.2-3.2-0.3-4.8-0.6
	c-1.3-0.3-2.6-1.1-3.9-1.1C815.9,730.2,814.7,730.7,813.6,731.4z"/>
<path id="_x31_8" class="st14" d="M1227,651.5v-14.8h41.5v-18.8l-24.5-13l-11.7-0.8l-50.2-29l-17.1,28.3l-8.8-4.6l15.7-27.4
	l-10.8-6.2l-20.5,36.2l-22.8-9.3l19.3-36.4l-9.7-5.5l-19,38.1l-10.3-4.2l21.2-39l-13.2-6.5l-22.2,39.8l-13.5-5.5
	c5.4-8.8,26.2-40.4,26.2-40.4l-6.2-4l-7.5,12h-8.2l-9.5-5.2l11.2-16.5c0,0-10.3-4.5-18-6s-11.3-2.3-19.5,0c-8.2,2.3-12,8.8-12,8.8
	l-6.5,11.3l-18.5-13.5l-4.3,4.3l18.2,13.3l-15.8,27c0,0,43.8,21.1,55.4,27l-3,4l85.3,70.8l144.5-0.8v-13.5H1227z"/>
<path id="_x31_7" class="st12" d="M991.5,580.4l3.2-8.3l-9.8-6.4l1.7-5.5l11.2,7.8l14.6-25l11.2,1.2l19.5,0.8l1,1h14l3,3l14,1l3,3
	l2,1h3c-0.3,0.7-14.4,22.2-14.4,22.2l13.4,5.6l2-3.5l10.1-18.1l12.8,7.8l-8.8,16.1l-0.4-0.2l1.2,4l7.2,5l9.7-19.5l9.4,4.6l-4.7,8.9
	l8.1,5.7l1.3,4.3l3.5,1.4l6.5-9.9l6.1,3.5h8l1,1h6l3,4v1l6,6l4,1l2,2v2l4,1l7,7h3l7,5l3-1l2-2l7,7h3l3-3l3,4h1l3,3h2l3,3v1l4,3v1
	l4,4l1,3l2,2h3l3,3v1l4,1l1,2l3,2l1,4c0.2,1.8,0,5.2,0,5.2h-99.5L991.5,580.4z"/>
<path id="_x31_6" class="st4" d="M1112,651v-1l-3-3h-1v-1l-3-3h-1v-1l-3-3h-1l-4-4l-3-1l-1-2l-5-4v-1l-2-2l-2-1v-1l-2-2l-2-1v-1
	l-2-2h-1l-3-3l-3-1v-1l-3-3l-4-1l-3-3h-3l-2-1l-3-3l-6-1l-1-2l-2-1l-8-1v-1l-2-2l-7-2l-1-2l-2-1h-12l-5,4h-3l-1,1v13l-20,34.5
	l-21.8-5l26-44.4l6.8-13.8l4-2.3l4-1l2-3h2l3-4l2-1h3l2-2l4-1l1-1h4l2-3h15l3,3h10v-1l2-2h7l2,2v1h6l4.4,3.5l-4.6,7.5l13.1,5.5
	l4.1-7.3l13.9,6l-3.7,6.9l6.1,2.5l3.9,1.6l2.9-1.1l4,1l3,3h1l3,3v1h1l3,3l1,2l3,1l4,4h2l2,4l4,1l8,8l1,4h2l1,1l1,3l4,4l1,3l3,2l1,4
	l3,3l1,6h1l2,2l5,15.2l-63,0.7L1112,651z"/>
<path id="_x31_5" class="st15" d="M970,635l1-1h2l5-4h4v-1l2-2h23l3,3h3l1,1h2l1-1h9l5,4h2l1,1h7l2,2v1l4,1l5,4h9l2,1l2,3h3l4,4h1
	l1,2l3,3h1l1,2l6,6h3l3,3v1l2,1l2,2v1l2,1l2,2v1l2,1l3,3v1h1l3,3v2l2,3c0,0-0.9,1.9-1,2c0.6-1.1,2.2-1.8,2.9-2.9
	c0.4-0.6,0-1.5,0.5-2.3c0.8-1.3,2.6-1.6,3.5-2.9c0.6-0.8,0.7-1.8,1.2-2.7c1-1.8,3.2-2.8,3.8-4.8c0.4-1.4-0.1-2.9,0.3-4.2
	c0.3-1.1,1.2-2,1.6-3c0.8-1.8,0.3-3.9-0.7-5.6c-1-1.7-2.6-2.9-4-4.2c-1.6-1.4-2-3.3-3.4-4.9c-1.7-2-3.5-3.8-5.3-5.7
	c-3.5-3.8-7.1-7.6-11.2-10.8c-2.7-2.1-5.5-4-8-6.3c-2.2-2-4.1-4.2-6-6.4c-4.1-4.5-8.6-8.7-13.9-11.6c-1-0.5-1.7-2.7-3-3.4
	c-1.3-0.8-2.7-1-4.2-1.3l-3-3l-3,0c-3-1.5-4.7-4.4-8.4-4.6c-0.7,0-1.4,0-2-0.3c-0.6-0.3-1-0.9-1.4-1.4c-2.4-2.6-6.5-2.7-10.1-2.6
	c0-1.8-1.9-3-3.6-3.6c-1.7-0.5-3.7-0.7-5.1-1.8c-0.9-0.7-1.5-1.7-2.4-2.3c-0.9-0.5-1.9-0.5-2.8-0.5c-2.3,0-4.7,0-7-0.1
	c-1,0-2,0-2.9,0.4c-1,0.4-1.8,1.3-2.7,2c-3.8,2.9-9.5,1.7-13.6,4.1c-2.8,1.6-4.4,4.7-5.9,7.6c-2.7-0.9-5.3,1.2-7.3,3.2
	c-1.3,1.3-3,2.8-3.8,4.5c-0.9,2.1-0.9,4.2-2.3,6.2c-0.8,1.2-1.9,2.2-2.3,3.6c-0.2,0.7-0.1,1.4-0.4,2.1c-0.3,1-1.1,1.7-1.7,2.4
	c-1.5,1.9-2.1,4.2-3.2,6.4c-1,2.1-2.8,4.2-5.2,4.5c-1.2,0.1-2.5-0.2-3.3,0.7C963,635.4,966.5,635.2,970,635z"/>
<path id="_x31_4" class="st16" d="M949,633l-4,1l-2,2h-1l-2-2h-2l1,1v3l-1,2h-4l-7,7v3l-2,4l-4,3v1l-2,2v4l11,11v-8l1-2l3-3v-1l2-1
	l4-4h6l8-4h7l1-1h24l1,1h3l2,2v1l2,1h8l1,1h2l4,3h3l2,1l3,3h7l5,4h8l1,1h11l4,4h3l8,8l3,1l2,2v1l4,1l8,8h1l4,5l1,3l4,3v2l2,3l-2,4v1
	l4-4v-1h1l3-3l1-5h1l3-3v-2h1l2-2c1-2,2-4,3-6c-1-2.2-2.3-4.4-3.7-6.3c-1.8-2.3-3.9-4.4-6-6.4c-3.7-3.6-7.4-7.2-11.1-10.9
	c-0.5-0.5-1.1-1.1-1.8-1.3c-0.7-0.2-1.4-0.1-2.1-0.3c-1.3-0.3-2.2-1.3-3-2.3c-3.6-4.2-7.4-8.3-11.4-12.1c-0.9-0.8-1.8-1.7-2.9-2.1
	c-0.9-0.3-1.8-0.4-2.7-0.8c-1.3-0.6-1.3-1.8-2.3-2.6c-1.2-1-2.9-1.1-4.4-1.1c-1.9,0.1-3.8,0.5-5.7,0c-3.6-1-6.1-5.3-9.8-4.8
	c0.3-1.5-1.3-2.8-2.9-3.1s-3.1,0.1-4.7,0c-4.8-0.4-8.4-5.4-13.2-5.5c-2.1,0-4,0.8-6.1,1.1c-1.2,0.1-2.4,0.1-3.5-0.2
	c-2.2-0.5-4.1-1.8-6.2-2.7c-2.7-1.2-5.2-0.7-8-0.7c-3.7,0.1-7.5-0.1-11.2-0.1c-1.2,0-2.4,0-3.4,0.5c-1.1,0.5-1.9,1.6-1.8,2.7
	c-1.3-0.7-2.8-0.4-4.1,0.3s-2.3,1.6-3.5,2.4c-4.2,2.8-9.3,2.4-14.1,2.7c-0.6,0-9.1,0.7-9.2,0.5l-1-4l1-1v-1L949,633z"/>
<path id="_x31_3" class="st17" d="M940,659l1-2h5l2,2l4,1l3,3v1l9,2l4,3h3l3,3v3l-3,4h-3l-1,1h-5l-1,1h-1h-1l5,4l4.9-0.1l1.1-2.9
	l2.1,2.4l6.4-0.5l2.8-1.8l2.9,0.4L984,678v-2l-2-4l3-3h5l2,2v1l4,1l3,3l4,2l2,2v1l6,1l3,3h2l1,1l4,1l2,3h2l2,2v2h2l3,4h2l19,19v7
	l-4,3l1,2l8,1l3,4l4,1l1,1h4l2,2h2l4,2l4-1l1-1l5,3l-1-1v-3l4-4v-2c-0.9-0.9-2.5-3.4-4-3c0-0.7,0-1.3,0-2c1.4-0.3,2.8,0,4,0.7
	c1.7-0.2,3.1-1.7,3.1-3.4c0-1.7-1.4-3.2-3-3.5c-0.6-3.4,0.1-6.9,1.8-9.9c-0.8-2.1-1.7-4.2-3.2-5.9c-0.6-0.6-1.2-1.2-1.8-1.9
	c-0.9-1.1-1.6-2.3-2.4-3.5c-2.2-3.4-5.2-6.1-8.2-8.9c-2.4-2.2-4.9-4.4-8.1-5.1c-0.5-0.8-1.3-1.5-2-2.1c-6.3-5.3-13.2-12.3-21.6-13.8
	c-6.2-1.1-13.2,0.9-18.5-2.6c-1.5-1-2.8-2.4-4.5-2.7c-1.7-0.3-3.6,0.5-5.2,0c-1.7-0.5-2.7-2.2-4.2-3c-1.1-0.5-2.3-0.6-3.4-0.9
	c-2.9-0.8-5.1-3.3-8.1-3.7c-3-0.5-6.6,1.2-8.8-0.8c-0.8-0.7-1.2-1.7-2-2.4c-1.3-1.3-3.3-1.5-5.1-1.6c-9.2-0.6-18.4-0.5-27.5,0.6
	c-2.2,0.3-4.4,0.6-6.6,1.3c-2,0.7-3.6,2.4-5.6,2.9c-1.8,0.4-4.2,0-6,0l-4,4L940,659z"/>
<g id="_x31_2">
	<path class="st8" d="M1052.7,717.1c-0.2-0.4-0.4-0.8-0.7-1.1c-5.4-5.4-10.7-10.7-16.1-16.1c-0.6-0.6-1.3-1.3-2.1-1.6
		c-0.5-0.2-1.1-0.3-1.6-0.5c-1-0.5-1.6-1.7-2.3-2.6c-0.7-0.9-2-1.7-3-1.1c0.8-1-0.1-2.6-1.2-3.2c-1.1-0.7-2.5-0.9-3.4-1.9
		c-0.4-0.5-0.7-1.1-1.2-1.5c-0.9-0.8-2.1-0.9-3.3-1.2c-4.5-1.2-8.1-5.9-12.7-5c0-1.1-0.9-2-1.8-2.6c-4.4-3.3-9.4-5.6-13.3-9.5h-5
		l-3,3l2,4v2l-2,1h3l3,3v1h1l3,3v2l7,7l12-1l4,2l7,7v1l4,1l5,4h3l4,4v3l4,5l1,4l4,1l3,3l-1-2l4-3
		C1053,722,1053.6,719.1,1052.7,717.1z"/>
	<path class="st8" d="M968.3,668.4c-0.7-0.3-1.4-0.6-2.2-1c-3.5-1.6-7.1-3.1-11-3.3c-0.7-2.6-3.5-4.1-5.9-5.2
		c-2.6-1.2-5.4-2.4-8.2-1.9c-0.1,1.4-1.8,2.1-3.1,2.6c-3.1,1.2-6.8,3.7-7.7,7c-0.4,1.4-0.3,2.9-1.1,4.1c-0.5,0.7-1.3,1.3-1,2.1
		c0.1,0.3,0.3,0.5,0.5,0.7c1.5,1.5,3.1,3.1,4.6,4.6c0.3,0.3,0.6,0.6,0.9,0.7c0.4,0.2,0.9,0.2,1.3,0.2c1.9,0,5.4,0.8,6.7-1v-1l5-5h4
		l2,3l0.4,1.9c-1.7,1.3-3.1,3.2-3.4,5c-0.1,0.9,0,1.9,0.6,2.6c0.5,0.6,1.2,0.9,1.9,1.1c1.4,0.4,2.9,0.3,4.2-0.3
		c1.3-0.6,2.4-1.8,2.7-3.2c0.1-0.4,0-0.7,0.2-1c2.1,0,4.9-0.9,7-1.2c2-0.4,4.2-1,5.7-2.4c1.5-1.4,2.2-3.9,1.2-5.6
		c-0.8-1.3-2.2-1.9-3.5-2.5C969.4,668.9,968.9,668.6,968.3,668.4z"/>
</g>
<path id="_x31_0" class="st14" d="M1027,429.5l7-1.5v-15.8l-4.3,4.7l-13-0.8l0.8-13.3h8.5v-4.2l-11.7-1l-1.7-13.2l8.3-1l0.8-4.7
	l-10.7-1l-0.2-8l7.2-0.9v-2.9h-11.7v-1.5l10.5-1v-3l-12.5,0.7l-1.5-2.3l12.9-1.7v-4l-18.2,4l15-8.8l-2.7-2.3l-11.2,7.2l-2.8-4.7
	l14-13.5l-3.5-2.8l-9.8,10.8l-2.3-2.1l6.6-13.6l-3.1-2l-4.2,9.2l-5-1.4l6.1-9.6l-6.2-2.7l-6.2,15.1l-6.5-1.6l-18.8-3.8l-14,0.8
	l-7.5,8l-8.7,7.3l-10,1.5L906,356l60.3,30.8l23.3,129.9l8.1,8.9l9.5-9.8l2.2-8.2l11-0.6l0.2-2.7l-8.4,0.1l0.4-3.9h10.2v-1.8
	l-10.7-1.2l-0.5-4.5l4.8-1.3l0.5-4.3h4.3l1.2-4.5l-14,1.2l0.5-2.8l5.3-3.2l1.7-7.2l10-0.6l0.5-3.9l-11.3,1l-2,2.7l-4.2,0.8l-0.3-3.3
	l5-4.7h11l0.2-8.1h-18.2l6.2-4.5l17.5-2.2l0.8-12.5c0,0-15-0.7-16-1.3c-1-0.7,0-4.8,0-4.8H1027z"/>
<path id="_x39_" class="st12" d="M1001,453v-4l-3-4v-26l-0.5-0.5c0.3-2.3-0.3-4.5-0.9-6.8c-0.7-2.5-2.4-4.3-4.2-6.1
	c-1.5-1.6-3.2-3.2-5.3-3.6c-1.6-0.3-3.2,0.1-4.7,0.5c-2.2,0.6-4.4,1.1-6.6,1.7c-1.8,0.5-3.6,0.9-5.2,1.7c-2.9,1.4-5.1,3.9-6.9,6.6
	c-1.8,2.7-3.1,5.6-4.7,8.4c-1.1,2-2.4,4-3.1,6.2c-1,3.3-0.5,6.8,0.7,10c1,2.7,2.6,5.3,5.2,6.5c1.9,1,4.1,1.1,6.2,0.8V465h1l2,2l1,6
	l3,2l1,3l7,7v3l1,1l-3,5l3,4.9h6.8l3.6-0.8l1.6-5.1l4-4l1-2v-19l-3-3v-8L1001,453z"/>
<path id="_x38_" class="st18" d="M983,488v-3l-7-7l-1-3l-3-2l-1-6l-2-2l-1,0c0-7.4,0.7-15.3-0.2-22.9c0.1,0,0.1,0.1,0.2,0.1
	c0-0.2,0-0.3,0-0.3l-0.3-0.3c-0.4-2.8-1-5.6-1.9-8.2c-0.7-1.9-1.6-3.8-2.6-5.6c-1-1.8-2.7-3.7-4.7-3.4c-1.2,0.1-2.1,1-3,1.7
	c-4.5,4-9,8-12.8,12.8c-2,2.6-3.9,5.4-4.8,8.6c-0.9,3.2-0.9,6.7,0.5,9.7c0.3,0.7,0.8,1.3,0.9,2.1c0.1,0.7,0,1.5-0.1,2.2
	c-0.5,2.7-1,5.5-1.4,8.2c-0.2,1.4-0.5,2.7-1,4c-0.4,0.9-1,1.7-1.4,2.6c-0.9,1.8-1.2,3.9-1.7,5.8c-0.9,3.3-2.5,6.8-1.6,10.1
	c0.9,3.3,4.1,5.5,7.1,7.1c2.1,1.1,4.2,2.1,6.3,3c0.9,0.4,2,0.8,3,0.7c0.2,0,0.3-0.1,0.5-0.1v0l-4,2l-1,4l-1,1l4,10l3,3h1l2-3v-6l4-3
	v-2l7-7l-2-2v-3l2-1l4-5h5l4,3h4l3-5L983,488z"/>
<path id="_x36_" class="st19" d="M1001,524l-2-2l-3-1v-2.8l-4.6-1.5L991,521l-7-2.8l-5.8,2.6L975,526v1l-3,3h-1l-1,2l-6.7,6.7
	c-1.5-2.1-3.6-3.8-6.1-4.6c-9.8-3.2-15.2,9.5-16.3,16.8c-0.4,2.9-0.6,6.1,1,8.6c1.5,2.3,4.2,3.4,6.9,3.8L947,566l-3-2h-2v3l5,5v1
	l4-3l4,7v3l-4,3v2l-4,4l-1,4l-2,2h-1l-4,5h-1v2l-4,4v3l-3,3h-1l-1,2l-3,3h-1v1l-3,3h-2l-5,4h-2l-4,4l-3,1l-4,4h-4l-2,2l-1-0.5v0.5
	l3,3h1l3,3h2l3,4l4,1l2,2l1-2h3l2-1l2-4h2l3-4h5l3-4h6l2,2h1l2-2l4-1l2-3v-3l4-2h2l2-2l1-4l3-3v-2l5-4v-15h2l3-4h1l2-2l1-2h1l2-2v-2
	l4-4l1-2v-3l3-3v-9l5-7v-10l4-4l1-3l4-5v-7L1001,524z"/>
<path id="_x35_" class="st8" d="M951.7,571.2c0.2-4.7-3.3-9.4-7.8-11.1c2.6-3.3,3.5-7.8,2.5-11.9c-1.1-4-4.1-7.5-7.9-9.1
	c-4.6-1.9-9.9-1.2-14.9-0.2c-9.7,1.9-19.5,4.4-27.9,9.6s-15.3,13.5-16.8,23.3c-0.6,3.7-0.3,7.6-1.1,11.2c-0.6,2.6-1.7,5.1-2.4,7.7
	c-1.6,6.1-0.9,12.5-0.2,18.8c0.4,3.8,0.9,7.7,2.8,11c2.1,3.6,5.8,4.5,8.7,7c1.3,1.1,3.1,2.5,4.3,3.6c1.1,1.1,1.4,3.1,3.1,3.9
	c0,0,2,1,2,1l2-2h4l4-4l3-1l4-4h2l5-4h2l3-3v-1h1l3-3l1-2h1l3-3v-3l4-4v-2h1l4-5h1l2-2l1-4l4-4v-2l4-3v-3L951.7,571.2z"/>
<path id="_x34_" class="st20" d="M1000,349l-8-8h-3l-4-4l-2,1h-7l-3-4h-1l-3,3h-1l-4-3h-14l-1,2l-2,1h-7l-2,1l-7,7v2l-2,3l-1-1h-8
	l-4,2l-1,2h-1l-2,2h-4l-1-1l-8-1l-7-6h-4c-1.6,0-3.7-4.5-5.1-5.2c-1.7-0.8-4.7-0.2-6.5-0.1c-2.1,0.1-4.2,0.3-6.3,0.3
	c-1,0-2.1,0.1-3.1,0c-0.7-0.1-1.4-0.5-1.9-0.5c-5.5-0.3-11.1,0.4-16.4,2c-1.8,0.5-3.9,1.4-5.1,2.9c-1.7,2-1,4.8-0.7,7.2
	c0.6,6.4,1.8,12.7,3.5,18.9c0.8,2.8,1.7,5.6,3.2,8.2c2,3.5,5,6.4,8,9.1c3.3,3,6.5,6.2,9.6,9.3c2.9,2.9,7.1,4.6,11.2,4.5
	c2.5-0.1,5-0.7,7.4-1.4c2.4-0.7,4.7-1.8,7.1-2.5c2.6-0.8,5.4-0.9,8.1-1.4c6.4-1.3,14.2-2.4,20.1-5.4c2.7-1.3,5.2-3.3,6.3-6.1
	c0.7-1.7,0.8-3.6,0.4-5.4l1.3-1.3l5-1l-2-3v-2l2-1l4-5h1l1-3l-2-3l2-3v-3l3-3h3l3,2h12l4,4h2l1,1l2-1h3l5,4l6,2l1,1l3-1l3-3l4-1l2-2
	l1-3h1l2-2v-3L1000,349z"/>
<path id="_x33_" class="st21" d="M872,402v3l1,2l8,8h3l6,4h6l3,2l3-1l2-3l2,2l1,4h1l3,3v1l2,1l6-3h4l6,3h7l1-1h2l3-4h1l4-4h1v-1l5-4
	v-7l4-5v-3l-2-1l-2-2v-1l-4-3l-3-6l-6-5h-3l-2-1l-3-4l2,3l-5,1l-3,3h-5l-1,1h-13l-4,3h-13l-1,1h-4l-1-1h-6l-6,3v6l-2,4L872,402z"/>
<path id="_x32_" class="st11" d="M813.9,461.5c0.3-1.1,1-1.7,1.9-2.3c4.5-2.9,8.1-7.2,10.3-12c1.2-2.5,1.5-5.1,2.4-7.6
	c0.8-2.2,3.2-3.7,4.6-5.6c1.7-2.2,3-4.7,4.1-7.2c1.4-3.2,2.8-6.4,3.5-9.8c0.7-3.3,0.3-5.8,1.7-8.9c2-4.2,3.9-8.6,5.6-12.9
	c1.5-3.7,2.1-7.3,4.6-10.5c2.6-3.2,5.3-6.4,7.1-10.1c1.8-3.7,2.5-8.1,0.9-11.9c-2-4.7-6.8-6.8-10.2-10.2c-3.2-3.2-7.3-6.5-12.1-4.5
	c-1.6,0.7-3,1.8-4.3,3c-2,1.7-3.9,3.4-5.9,5.1c-2.5,2.2-4.3,5.4-7.3,6.9l-2,3h-1l-3,3v2l-3,2c-0.3,0.6-0.7,1.2-0.9,1.8
	c-0.5,1.5-0.1,4-1.2,5.2c-1.6,1.9-8.1,6.8-8.9,6.8c-0.6,0-1.6,0-2.1,0.2l-2.8,1.1l-1.4,2.3L793,392l-3,3c-1.4,4.3-1.5,8.8-3,13.1
	c-2.8,8-1.2,16.1-2.1,24.2c-0.2,1.6,0.2,3.4,0.2,5c0,2-0.3,4-0.6,5.9c-0.3,1.7,0.2,3.7-0.4,5.4c-0.4,0.9-1.4,1.6-2.1,2.4
	c-0.2,1.4-0.5,2.8-0.7,4.2c-0.4,2.4-0.1,4.7-0.1,7.1c0,0.8,0,1.7,0.2,2.5c0.1,0.5,0.2,1.9,0.6,2.3l4,4c5.4,0,10.7,0,16.1,0
	c4.3,0,8.5-0.4,12.8-0.9c-0.9-0.3-1.4-1.2-1.6-2.1c-0.2-0.9-0.1-1.8,0-2.7C813.4,464,813.6,462.7,813.9,461.5z"/>
<path id="_x31_" class="st22" d="M854.4,430.6c-0.7-4.3-5.8-6.3-8-10c-1.2-2-1.5-4.4-2.7-6.4c-1.8-3-5.2-4.6-8.4-5.9
	c-0.6-0.2-1.2-0.5-1.8-0.4c-0.6,0.1-1.2,0.8-0.9,1.4c0.1,0.2,0.2,0.3,0.2,0.5L832,409v2l1,1l-6-1l-3,4l-1,12h-1l-2,2v2l-1,1v5l-2,1
	l-1,2v2.7c-0.1,0.2-0.2,0.5-0.2,0.8c-0.4,4.3,1.1,9.5,5.2,11c3,1.1,6.3-0.2,9.2-1.5c3.7-1.6,7.3-3.2,11-4.7c2.5-1.1,5-2.2,6.9-3.9
	c2.1-1.9,3.5-4.5,4.7-7.1C853.8,435.1,854.8,432.8,854.4,430.6z"/>
<g id="base">
	<path class="st23" d="M1229,126h3l2-2v-1l4-3v-1l15-15l2-1v-1l2-2h1l2-2l1-2l2-1v-1l7-7h1l2-2v-1h1l3-3v-5l4-3v-2l-6-7h-1l-3-8
		l-3-3v-8l2-2l-3-2h-247l-1-1l-4,2l-4,4l-1,5h-4l-2,4l-2,2h-4l-3,3h-1l-17,17v3l-1,1l2,3v6l5,4l1,3l3,3h8l5-4h8l4-4h2l1-1l2,1h4l5,4
		h7l4,5h2l2,2l1,4l4,3l1,2l4,2l1,4l3,3h5l3-3l3-1l3-4h6l2-4l4-1l5-4h8l4-4h19l4,2h4l4,3h10l3,4h5l3,4h11l3,2h8l4,4l4-2h2l3,2l3-2h7
		l3,2h4l2,2l7,1l2-2v-6l1-1h3l6,6v5l2,2l3,1L1229,126z"/>
	<path class="st23" d="M489,537v-1l2-2h5l2-2v-2l3-3l1-4l4-3v-6l4-5l1-4l4-3v-2l2-2l4-2v-2l-2-2l-5-1l-1-2l2-4v-2l3-3l1-4l2-2l1,1
		l4,1l5-5l2-1h6l4,5h2l3,3l5,1l5,4h2l3,4l5,2l6,6l2,1l2-2v-3l-1-2l2-4l-2-3v-13l-5-5h-4l-7-7h-7l-3-4h-6l-3-2h-8l-3-2h-3l-2-2h-5
		l-8-8l-1-2l-4-1l-4-4l-3-1l-5-5v-5l3-6h3l12,12l2,1h3l2-2v-9l4-2l7,6v2l2,3v4l4,4l4-4h1l4,2l5,5h1v1l3,3h2l5,4h13l3-3v-1l2-1h9l2-2
		v-1l6-3l3,6h3l6-4h6l2-1l7-5v-2l-2-3v-3l2-3v-2l2-2h6l3,4l4,2h9l3-2h8l2,1l4-3h4l3-2h7l3-2l8,4h5l2,2h2l3-4h1l2-2l2-4v-13l2-2v-2
		l1-1l1-4l-8-8l2-3v-6l2-2h2l3-2v-5l2-1h3l3,4h2l2,2h5l1-1l1-4l-4-5v-2l-1-1v-16l2-3h1l2-2v-2l2-2l3,2h5l3-3v-1h1l7-7l1-3l5-5v-5
		l-5-5l-4-1l-1-1l-1-4l-5-5l-2,1h-4l-3-4l-4,2h-4l-2,2h-9l-3-2h-3l-3,2h-4l-3-2h-3l-4,3l-2-1h-5l-1,1l-6,1l-4-4h-4l-2-2h-3l-3,4h-3
		l-2-1l-4,2l-4-2v-1l-4-4l-4,3v1l-5,5l-2-2h-3l-1,1v7l2,2v9l4,4l-4,4h-5l-5-5l-1-2v-3l-2-3v-4l2-2v-7l2-3v-5l2-2l1-5l3-3l1-4l6-3
		l-2-2v-8l-5-6l-2-1h-8l-3-2h-2l-4,2l-3-2h-4l-1-1l-4,3l-3-2v-1l-6-6l-4-1l-3-4h-1l-2-2v-2l4-3l1-2h12l8,8h3l3,2h3l2-4l2-2h4l2,2h4
		l3,2h6l2,2l1,3l5,4h11l3,2h4l17,17v4l2,2h2l3,4l6,3h3l3-2h2l8-5h6l3,2h5l3-2l4-1l2-2l5-1l5-4h6l4-2l3-4l2-1l1-4l1-1v-2l3-3v-19l1-1
		v-2l2-2v-4l-2-2v-6l-3-3h-1v-1l-3-3l-3,4h-3l-2-1l-3-5v-2l-2-2h-4l-2-2h-8l-1-1h-4l-2,1l-4-2l-6-6v-2l-1-1l2-4l3-2h3l3,4h6l3,2l2-2
		h8l1,1h2l1-1v-2l5-5l1-3l2-2l1-4l1-1h6l6-4l4-1l2-2v-3l2-3v-2l2-2h5l4-2l4,4l2-1v-4l-1-1h-4l-1,1v-3l-2-3v-3l-4-5l-1-5l-1-1v-4
		l-2-2v-2l-1-1v-6l-4-6v-6l-4-6v-7l-4-5v-2l-1-1v-6l-2-2v-5l-2-3v-6l-2-3v-8l-2-2H462l-2,2v494l2,2h24L489,537z"/>
	<path class="st23" d="M946,75l3-1l4-3h2l2-2v-5l1-2h1l3-3v-1h1l3-3v-1l3-1l1-2l4-3v-1l2-2h5l2-2l-2-2H805l-5,4l-1,2l5,4v5l2,2h2
		l3,2v4l1,1l2,1h5l2,1v1l3,3h1v1l3,3l2-4l4-3l-1-3l-3-3v-3l2-2l4,1l1-1h2l2-2h12l15,15h2l2-2v-1l-2-3v-4l2-2v-1h1l2-2l3-8h9l6,6l1,5
		l1,1l-1,3l-2,2l4,2l2,2l2,4l-4,5l2,2l2,1h4l2-2l1-3h19l3,4h4l1,1h8L946,75z"/>
	<path class="st23" d="M1459,138V43l-2-2h-99l-1,1v5l5,4v5l4,3v1l2,2l2,1v5l3,3h1v1l3,3h1v1l3,3h1l3,6v4l9,9l3,8l3,3v7l4,6l1,4l2,2
		h4l3,2l4,1l4,3h2l3,2h5l2,2l8-1l1,1h6l4,2h4L1459,138z"/>
	<path class="st23" d="M1188,398h18l2-2v-7l-2-2v-4l-2-4v-2l-4-4l-5-1l-3-3l-6-2l-4-3h-2l-1-3l-2-2h-3l-3-3l-5-1l-4-3l-3-1l-2-2v-2
		l-4-4h-3l-2-1l-10-10v-4l-2-3v-15l2-1l4-5h1l2-2l1-2h1l2-2l1-2h5l3-2l1-2h22l5-4l4-1l4,2l4-2l2-2v-2l2-2l-6-6l-2-1l-3,1l-2,2l-4,2
		l-6-6v-6l2-1l3-4h1l2-2v-6l2-3v-4l4-4l4,1l1,1l6-6l2-5l3-2h20l5,4h2l5,5h1v1l3,3h2l3,3l1,3l7,7h1l1,4l3,3l1,4l2,1l11,11v1l2,2l4,1
		l2,2h3l5,4l5,1l2,2l4-3h3l1-1v-4l2-3v-6l1-2h1l3-3v-1l2-1h5l3-4h5l2-2v-2l3-3l1-4l-2-2h-6l-1-1h-3l-3-3l-3-1l-3-3h-3l-2-1l-7-7
		l-2-1h-3l-2-2h-5l-4-4h-4l-2-2l-4-1v-5l-1-1v-2l-4-5v-7l-2-3l3-2h7l3-2l3,2h2l3-4h2l3,2h4l4-4v-4l4-4l-1-4l-1-1v-4l1-2h1l3-3v-1
		l2-1h4l8,9l4,1l7,7h2l4,5h2l3-3l4-2l1,1h3l3-3v-2l4-4h2l3-4h1l2-2v-10l-2-3l2-3l2-1v-1l-3-2l-1-2l2-4l6-6l3-1l6-6v-4l-2-2v-15l-9-8
		v-2l-3-4l-1-4l-2-3h-5l-3,2l-4,1l-4,3h-5l-3,3l-1,3l-2,2l-5,1l-2,2h-13l-7,6l-6-1l-4,3h-8l-2,2h-3l-6,4h-3l-2,1l-3,4v2l-4,3l-1,2v8
		l-4,3l-1,3h-1l-3,3v1h-1l-2,2v3l1,2l-2,3l-1,4l-7,5v3l2,2l-5,5h-2l-1,1h-11l-5-4h-19l-3-4l-3-1l-5-4h-7l-3-2h-4l-4-2l-8,4h-6l-1-2
		l-4-3v-1l-2-2h-6l-5-4h-4l-3,2h-5l-1,1h-7l-1,1h-5l-2-1l-4,3h-4l-2,2v2l-2,2l-4,1l-3,6l-5,4v4l5,4v2l2,3v4l1,1v2l2,4l7,7l1,2v7
		l-1,1v2l3,4l-2,2l-1,3l1,1v4l2,3v8l-2,3v3l2,3v12l-3,4l-2,1l-1,2l-1,7l-1,1h-4l-2,1l-1,1v5l-2,2l-3,1l-5,5h-5l-2,4l-2,2l-3,1l-7,7
		l-1,2v3l2,2l4-2h6l1,1h4l1,1h5l2,2l4,1l1,2l4,3v1l2,2h6l2,1l5,5v4l4,4v1l9,9h1l2,2v1l2,2l1,4l2,3v8l2,3v2l3,3l4,1l2,2l5,1l3,3l4,1
		l3,4l4,2h13L1188,398z"/>
	<path class="st23" d="M901,312h2l3-3h2l3-3l2-4l-2-4l-5-4l-1-4l-3-3v-3l2-1l3-3v-1h1l3-3v-1l2-1h4l4,5l2,1v5l1,1v2l1,1h4l5,3l2-2
		v-5l5-5v-1h6l4-5h2l2-2v-4l-2-3v-2l2-4l-2-2v-3l-1-2l-5-5v-9h9l3-2h6l3,2l4-4h4l1,1v3l-2,2v2l-2,2l-3,1l-4,4v7l2,2h4l4-5h1l2-2l1-2
		h1l2-2v-2l2-2h5l4,2h3l2-1l1-1l1-4l3-3v-2l2-2h5l1-2l5-4v-1l2-2l2-1v-2l-2-3v-4l-3-2h-11l-3-2h-4l-6-6l-6-3h-9l-4-3h-2l-5,4h-3
		l-3,3v2l2,3v4l4,3v6l-2,2h-5l-5-4v-2l-4-4h-1v-2l-2-3h-8l-5-3h-2l-6-4l-4-1l-4-3h-3l-3-3l-6-2l-2-2l-4-2l-4-1l-4-3l-4-1l-4-3h-2
		l-1-1l-1-4l-3-3l-2-1h-3l-3-3l-5-1l-3-3l-4-1l-3-4h-6l-2-1l-6-6h-4l-2-1v-1l-2-2h-13l-3-2h-3l-2,2h-14l-1,1v5l1,2l2,2h1v1l3,3l1,4
		l-2,3l2,3v3l1,2l2,1l6,6h2l2,2v2l2,2v5l-2,3v2l-1,1l-4,1l-1,2l9,9l4,1l3,4l4,2h5l2,2l4,1l1,4l2,2l-1,2v3l-1,1v5l1,1h2l4-2l3-4h6
		l3-2l2,2h2l2,3v4l-2,4l-8,7v1h-4l-2,2l-2,4h-4l-2-1l-4,2l-4-2l-2-2h-7l-2,3v13l-1,1v2l3,2h14l3-2h14l3,2h2l2,1l6,6l1,4l2,3v5l5,5v4
		l4,4h5l3,2h9L901,312z"/>
	<path class="st23" d="M868,656l1-4l4-5v-6h1l2-2l1-6l4-7v-6l4-6v-2l-2-3v-5l2-3v-2l4-3v-5l2-3v-5l-2-3v-7l1-1v-2l2-2l3-1l3-3h6l3-3
		v-1l4-1l5-4h14l6,4h2l5,5l4,2l2-3l2-1v-13l2-3l1-4l2-2h4l1-1h2l7-7l1-2h1l3-3v-1l4-1l3-3l2-1h7l2,1l4-5h1l2-2v-14l-4-5l-2-1h-6
		l-1,1h-3l-3-2h-4l-4-3h-5l-4,5l-2,1v3l2,2l-7,7v2l-4,3v6l-2,3h-1l-3-3l-2-4v-2l-2-3l2-6l4-2v-6l1-1v-2l-2-3h-4l-2,1l-2-2v-1l5-4
		l1-2h9l2-2v-5l-4-4v-2l-3-3l-1-3l-4-4l-2-4l1-4l2-3h1l2-2v-2l3-3l1-4l4-3v-5l1-2l4-1l7-7l1-2v-6l1-1h14l4-5l2-1v-14l4-5l1-5l2-2
		l-14-14l-6-2l-5-4h-3l-2,1l-1-1h-2l-4-4h-12l-3-2h-3l-3,3v3l-2,3l2,4l-1,2h-1l-2,2v1l-2,2l-2,1v2l3,4l2,1h3l6,5l3,6l4,3v1l2,2l2,1
		v3l-4,5v7l-5,4v1h-1l-4,4h-1l-3,4h-2l-1,1h-7l-6-3h-4l-6,3l-2-1v-1l-3-3h-1l-1-4l-2-2l-2,3l-3,1l-3-2h-6l-6-4h-3l-8-8l-1-2v-3l-3-3
		l-1-3l-3-3h-1l-1-4l-7-7l-1-2v-6l-2-2h-4l-2,2v2l2,3l-1,1h-3l-3,3v1l-5,2l-3,4v3l2,3l-2,2l-1,4l-1,1v6l4,4v4l4,4v4l3,5v2l2,2v4
		l-2,2l-2,4l-3,1l-2,2l-4,2h-13l-2,2v4l-1,2l-3,2l-1,2v10l1,1v3l7,7l2,6l6,6v10l-1,2l1,1h2l1-1l1,1v4l4,4v4l2,2h7l2,2l-1,6l-2,3v2
		l1,1v9l-3,3v7l-1,1v4l1,1v12l-4,5v3l4,2v1l2,2h1l2,2v2l2,3v4l3,2h2l4,5h2l7,7l1,4l2,3v4l2,2v7l-2,2l-4,2l1,10l-3,2l-1,4l-3,3v4l1,2
		l1,1h3L868,656z"/>
	<path class="st23" d="M1428,606l4-4h3l3-4v-9l1-1v-5l-1-1v-13l2-3v-5l-2-2v-3l-1-2l-1-1h-8l-2,2h-4l-3-4h-2l-16-16l-2-1h-2l-3,2h-5
		l-4-4l-4,4h-9l-4-2l-2,2l-2,4v5l6,3l1,4l1,1v4l2,3v3l1,2l1,1h5l4,4h4l3,2l4,1l7,7l4,1l4-2l4,2l2,2v2l3,3l1,4l2,3v6l-3,3v1l3,3h1
		L1428,606z"/>
	<path class="st23" d="M549,706l2-4l6-2l4-3v-3l1-2l4-1l2-2l3,3h2l3,4l5-5l2-1l2-4v-1l-4-4l-2-1h-2l-4,3h-7l-2,2l-2-4l-4-3v-4l1-1
		v-9l3-3v-8l2-2v-4l2-4v-10l2-3v-6l-1-1v-2l-5-4l-1-3l-2-2v-5l-1-1v-2l-3-4v-9l-2-2v-7l2-2v-3l-1-1h-5l-3-2l-4,1l-1-1h-2l-1,1h-2
		l-1,1l-4,1l-2,2h-16l-4-3h-3l-2,1l-4-2l-1-2l-4-1l-5,4l-4,1l-3,2l-3-2h-3l-4,3h-3l-1,1h-7l-2,2v81l2,2h4l3-3v-1h18l4,4h5l2,2v1l4,3
		v1l4,4v4l2,4v4l2,2l2,1h5l4,4h4l2,1v1l3,3h1v1l4,4l1,3l3,3l4,1L549,706z"/>
	<path class="st23" d="M1179,1038v-19l1-2l-5-4v-1l-2-2h-7l-1-1h-5l-2-2l-3-1l-4-5h-3l-4,3l-1,2h-9l-2,2l-1,3l-2,1l-4-4v-8l-5-5
		l-1-4l-1-1l-5-1l-4,5l-4,1l-2,2h-2l-1,1h-5l-3-4h-1l-2-2v-3l-3-3l-4-1l-3,2h-9l-3-2h-2l-3-4l-2-1v-2l-1-1v-5l-7-7l-1-2v-7l2-3l-2-2
		v-8l-4-4h-6l-5-3l-4,4h-4l-9,9h-4l-6-6l-4-1l-3-4l-2-1v-2l-2-3h-4l-3-2h-2l-3-4h-1l-2-2v-1l8-7v-1l5-5v-9l4-3v-4l-3-3h-1l-1-4l-2-2
		l-2-4v-2l-1-1v-3l2-4l-1-12l-2-2h-2l-2-2l2-4l4-4v-9l1-2l4-4h7l3,4l4,2h5l3-6h10l1-1h2l3-3h6l4-4h3l2,2h9l4,2l4-2l2-2h2l4-5l4-1
		l4-3h2l3,2h9l2,2l4,1l1,1h5l2,2l3,1l4,4h5l3,4l4,1l5,5v5l2,4l2,2l2-1v-1l2-2h14l3-2h9l4,2l3-3v-1h5l3-3v-1h1l8-8v-1h5l3-2v-2l2-3
		v-4l2-3v-6l2-2l6-1l1,1h2l2-2v-1l2-1h5l2-3v-2l3-3l1-4l2-1h5l3-4h2l3,3l4,2h2l3,2h3l2-2v-3l1-2l2-2l-3-4l2-4l-1-4l-1-1l1-4l-3-3h-1
		v-2l-1-1v-16l-4-3l-1-4l-3-3v-2l-4-3v-1l-2-2l-6-1l-3-4l-4-1v-5l-2-2h-2l-1-1l-1,1h-4l-3,2h-4l-3-2h-2l-4-5l-4-1l-1-1h-4l-4-2l-3,2
		h-2l-3-2h-5l-3,3v1h-7l-1-1h-4l-1,1v2l-2-1h-3l-2,2l-2,4h-5l-4,2h-10l-6,6h-6l-3-2l-2,2v2l2,3l-5,5h-2l-1,1h-9l-3,3v1l-4,1l-2,2h-3
		l-5-3l-1,1l-4,1l-4-2h-2l-2-2h-4l-1-1l-4-1l-3-4l-8-1l-3-3l-4-1l-1-4l-4-5v-3l-4-4h-3l-5-4l-4-1v-1l-7-7l-4-2l-12,1l-7-7v-2l-3-3
		h-1v-1l-3-3h-6l-3,2h-5l-1,1l-4,1l-2,2l-5-4h-4l-1-1l-1-5l-2-3h-4l-5,5v8l-8,8v5l-3,4v3l-1,1v9l-3,4l1,3l2,2h3l1-1h8l6,6v3l1,1v12
		l-2,2l-4,2l2,4l-2,3v3l2,3v2l3,4v12l1,1v3l2,3l-2,3v2l-1,1l-4,1l-2,2l-2,4l2,2h1l1,2v11l-1,1v2l1,1v3l-2,2h-2l-2,2v4h-2l-2,2v2
		l-4,3l-1,2h-2l-7,4l-3,3v1h-1l-3,3l-3,6l-4,3v1l-4,4l-2,4v4l-2,2v1l-2,1v1l4,4l-4,4l2,4l-2,5l2,3v2l-1,1h-2l-2-2l1-1l1-4l-4-4v-3
		l2-2v-3l2-4l-1-4l-1-1v-2l-1-1v-2l1-1v-6l1-1v-2l4-5v-3l4-5h1l5-5v-5l-4-2l-5-5h-1v-19l4-3v-2l-1-2l-5-5v-4l-2-2l-5-1l-2-2h-8l-3-2
		h-3l-5,4h-2l-5,3h-8l-6,6v3l3,2l3,6l-3,4v3l-4,3h-2l-3-4h-1l-2-2l-1-2h-3l-6,6h-5l-4-2l-4-4h-2l-3,2h-4l-2-2h-2l-2-2l-1-3l-3-4v-4
		l2-2v-4l-6-6v-2l-1-1l9-8v-6h1l7-7v-5l4-5v-2l1-1v-11l3-3l1-4l2-1l3-3v-1h1l3-3l1-2h1l2-2v-5l2-1l4-5h1l2-2l-1-1v-3l9-8v-5l9-8l1-2
		l2-1l2-5l3-3v-9l-1-1h-2l-1,1l-1,4l-4,3v2l-2,2v1l-6,3v5l-2,2l-4,1l-6,6l-6,2l-2,2l-2,5l-2,1h-4l-4,4l-2-1v-1l-2-2l-4-1l-3-3h-2
		l-4-5h-6l-1-1h-3l-1,1h-4l-2-2l-2,2v3l-1,2l-10,10h-4l-2,2l-4,1l-1,1h-3l-1-1h-25l-4,3l-2,5h-1l-2,2l-1,4h-2l-16-17l-2,2h-3l-4-5
		h-3l-1-1l-2,3v3l-3,3l-1,4l-1,1l-5,2l-3,3l-2,4h-3l-2,1l-2,4l-3,3h-2l-3,3v1l-2,1h-6l-5,5v2l-1,1l-3,1l-3,3l-3,1l-3,3l-2,4l-3,1
		l-3,3l-1,2v3l1,1v3l-4,2l-2,4h-5l-2-2v-3l-1-1l1-5l5-8v-6h1l7-7l1-2h6l2-4h1l5-5h1l1-2l5-5v-1h1l5-5h2l3-3l4-1l3-4h5l6-6v-5l2-3v-5
		l2-2v-4l-3-2l-1-2v-7l1-2h1l3-3v-11l-1-1l1-2l2-1h5l1-1v-2l-2-3v-4l-2-3v-19l-2-2h-1l-2-4l-5-1l-1-1h-5l-3,2l-4-5h-1l-4-4h-1v-1
		l-3-3h-1l-1-2v-4l-2-2h-3l-2-1l-7,5h-6l-2,2v1l3,4l1,4l-1,1v2l-3,4v2l-4,4l-2,4l-9,2l-2,2l4,8l3,3h5l1,1v3l-1,1v7l1,1v2l4,3v1l4,4
		v10l-1,2l-5-2l-5,5l-2,1v3l-3,6l-6,5l-1,2l-7,3l-4,4l-2,1h-6l-6,6l-2,1h-7l-3-2h-3l-7,6l-2-2h-4l-4,5l-1,6l-1,1h-3l-2,1l-1-1v-2
		l-2-2l-3-1v-1l-9-8v-1l-5-5l-3-1l-4-4l-3-1l-3-3h-5l-4-5l-2-1v-6l-3-3l-1-4l-7-7l-4-2h-4l-4-4h-1l-2,2l-2,4l-3,1l-3,3l-1,3l-3,4
		v353l2,2h715L1179,1038z M545,865v-6l4-3v-1l2-2l2-1v-1l2-2h1l2-2l1-2l2-1v-1l5-5v-1l4-1l4-3v-3l14-14v-1h1l3-3v-5l1-2l1-1v1l3,3h2
		l5-5v-6l-1-1h-1l-2,2v2l-2,2h-3l-1,1v-3l1-1l1-4l4-3l2-5l4-4v-4l2,2h4l2,1l1,1l-3,3v6l-2,2l-4,2l3,4l-3,4v5h-1l-3,3v1l-4,4l-2,1h-3
		l-2,2v6l-4,3v1l-8,4l-2,2v2h-1l-4,4v1l-2,1l-2,4h-3l-2,1l-7,8l-4,1l-1,1v5l-4,2L545,865z"/>
	<path class="st23" d="M1365,1040h54l3-3l1-3l2-2v-2l1-1v-9l1-2l2-2h2l3-2v-6l9-8v-7l3-3l1-2v-3l3-3l1-4l1-1h5l2-2v-24l-2-2h-1l-3,3
		v1l-2,1l-7,1l-3,4h-4l-2,1l-6,5l-1,2l-3,1l-4,4l-1,4l-4,3l-1,4l-4,1l-3,3v3l-1,1v5l-4,5v4h-1l-3,3v1l-5,5h-3l-2,1l-7,7v1h-1l-4,4
		h-1l-4,4h-4l-5,5h-1l-1,1v2l3,2L1365,1040z"/>
</g>
</svg>
